<?xml version="1.0" encoding="UTF-8"?>
<!DOCTYPE svg PUBLIC "-//W3C//DTD SVG 1.1//EN" "http://www.w3.org/Graphics/SVG/1.1/DTD/svg11.dtd">
<!-- Creator: CorelDRAW -->
<svg xmlns="http://www.w3.org/2000/svg" xml:space="preserve" width="100%" height="100%" version="1.1" style="shape-rendering:geometricPrecision; text-rendering:geometricPrecision; image-rendering:optimizeQuality; fill-rule:evenodd; clip-rule:evenodd"
viewBox="0 0 19476.5 5267.06"
 xmlns:xlink="http://www.w3.org/1999/xlink"
 xmlns:xodm="http://www.corel.com/coreldraw/odm/2003">
 <defs>
  <style type="text/css">
   <![CDATA[
    .fil0 {fill:black}
    .fil1 {fill:#EFC61C}
   ]]>
  </style>
 </defs>
 <g id="Layer_x0020_1">
  <metadata id="CorelCorpID_0Corel-Layer"/>
  <rect class="fil0" width="19476.5" height="5267.06"/>
  <g id="_1799838617776">
   <path class="fil1" d="M11492.01 2181.3c20.96,98 29.64,199.51 26.24,301.87 -20.91,627.67 -483.5,1132.08 -1125,1132.08l-3304.42 0 1228.31 -1385.49 22.06 0c-96.37,-136.85 -161.17,-295.29 -193.38,-462.17l-603.7 0 -1541.25 1847.66 -1956.47 0 1543.56 -1847.66 -1167.36 0 1293.64 -1398.36 8171.63 0c644.81,0 1079.27,534.99 1079.27,1156.25 0,483.31 -323.8,872.65 -752.86,1031.75l1219.83 1058.02 -2322.62 0 -1617.48 -1433.95z"/>
   <path class="fil0" d="M11051.55 1709.05c206.56,179.16 324.99,450.25 314.38,769.05 -18.05,541.85 -410.2,984.75 -972.68,984.75l-2965.64 0 958.09 -1080.69 327.83 0c-260.91,-167.23 -420.52,-465.66 -437.57,-805.21l-35.04 38.24 -770.13 0 -1541.25 1847.66 -1559.24 0 1543.56 -1847.66 -1144.66 0 1011.67 -1093.56 8105 0c561.01,0 926.87,468.05 926.87,1003.85 0,516.99 -432.08,902.91 -925.4,951.66l1136.47 985.71 -1856.49 0 -1978.27 -1753.8 -137.5 0z"/>
   <path class="fil1" d="M13885.87 750.23l-1862.79 0 -581.41 636.36 2046.55 0c121.25,0 174.96,80.81 171.12,161.23 3.84,80.42 -49.87,161.23 -171.12,161.23l-1954.57 0 1720.41 1525.2 1157.3 0 -1130.46 -980.5 500.94 0c445.14,0 802.3,-333.61 802.3,-728.27 0,-394.66 -253.07,-775.25 -698.27,-775.25zm-8593.77 636.36l588.71 -636.36 2842.62 0 -583.1 636.36 -776.54 0 -1541.25 1847.66 -963.39 0 1543.56 -1847.66 -1110.61 0zm3921.64 -636.36l2577.81 0 -581.41 636.36 -1598.75 0c-241.34,0 -215.18,320.13 0,320.13l781.86 0c1043.15,0 941.39,1527.53 0,1527.53l-2457.47 0 552.76 -623.49 1573.53 0c207.63,0 196.76,-315.27 0,-315.27l-846.01 0c-940.98,0 -959.57,-1545.26 -2.32,-1545.26z"/>
   <path class="fil1" d="M7642 4886.29c-22.03,7.61 -45.25,11.53 -68.81,11.53l-67.61 0c-100.48,0 -184.7,-70.51 -205.82,-164.68l-23.61 18.41 -25.74 -20.06c-20.49,94.99 -105.12,166.33 -206.18,166.33l-67.61 0c-23.11,0 -45.9,-3.77 -67.57,-11.1 -21.67,7.33 -44.46,11.1 -67.57,11.1l-67.61 0c-96.26,0 -177.61,-64.72 -202.83,-152.96l-58.17 0c-25.22,88.24 -106.57,152.96 -202.83,152.96l-67.61 0c-23.11,0 -45.91,-3.77 -67.57,-11.11 -21.67,7.34 -44.47,11.11 -67.58,11.11l-603.65 -0.03 -6.82 -0.25 -9.96 -0.77 -10.15 -1.28 -6.79 -1.16 -9.19 -1.89 -10.57 -2.73 -9.47 -3 -5.55 -1.97 -9.08 -3.55 -9.78 -4.48 -7.84 -4.01 -5.33 -2.96 -5.68 -3.4 -4 -2.52 -7.23 -4.9 -7.91 -5.92 -4.74 -3.82 -6.74 -5.83 -4.56 -4.26 -6.48 -6.48 -6.91 -7.56 -5.79 -7.04 -3.82 -4.91 -5.83 -8.23 -5.13 -7.96 -5.39 -9.3 -4.63 -9.07 -4.31 -9.46 -3.57 -9.09 -2.07 -5.88 -2.9 -9.17 -2.7 -10.47 -1.51 -7.36c-18.81,97.18 -104.47,170.71 -207.09,170.71l-67.59 0c-116.37,0 -210.93,-94.56 -210.93,-210.93l0 -185.99 -41.53 0c-116.37,0 -210.93,-94.56 -210.93,-210.93l0 -67.59c0,-116.37 94.56,-210.93 210.93,-210.93l599.03 0c23.12,0 45.92,3.77 67.59,11.11l9.52 -3.02 10.47 -2.7 9.04 -1.86 6.87 -1.19 10.22 -1.29 10.02 -0.77 6.81 -0.25 603.65 -0.03c23.12,0 45.92,3.77 67.59,11.11l9.52 -3.02 10.47 -2.7 9.04 -1.86 6.87 -1.19 10.22 -1.29 10.02 -0.77 6.45 -0.24 4.62 -0.04 604.01 0.03 6.82 0.25 9.96 0.77 10.15 1.28 6.79 1.16 9.19 1.89 10.57 2.73 9.47 3c21.67,-7.34 44.47,-11.11 67.58,-11.11l67.61 0c0.95,0 1.9,0.01 2.86,0.04 47.97,-0.76 95.31,15.06 133.13,44.65l95.93 75.06 95.93 -75.06c37.66,-29.47 84.41,-45.23 131.75,-44.67l69.34 -0.02c23.58,-0.01 46.82,3.91 68.87,11.54l1.56 -0.55 9.17 -2.9 10.47 -2.7 9.04 -1.86 6.87 -1.19 10.22 -1.29 10.02 -0.77 6.45 -0.24 4.62 -0.04 599.39 0c22.68,0 45.06,3.63 66.37,10.7l8.26 -2.61 10.47 -2.7 9.04 -1.86 6.87 -1.19 10.22 -1.29 10.02 -0.77 6.45 -0.24 4.62 -0.04 604.01 0.03 6.82 0.25 9.96 0.77 10.15 1.28 6.79 1.16 9.19 1.89 10.57 2.73 9.47 3 5.55 1.97 9.08 3.55 9.78 4.48 7.84 4.01 3.18 1.76c31.09,-17.43 66.45,-26.88 103.02,-26.88l67.61 0c91.56,0 169.62,58.55 198.73,140.19 29.12,-81.64 107.18,-140.19 198.74,-140.19l67.61 0c31.8,0 62.8,7.14 90.93,20.61l8.73 -3.98 9.09 -3.57 5.88 -2.07 9.17 -2.9 10.47 -2.7 9.04 -1.86 6.87 -1.19 10.22 -1.29 10.02 -0.77 6.45 -0.24 4.62 -0.04 604.01 0.03 6.82 0.25 9.96 0.77 10.15 1.28 6.79 1.16 9.19 1.89 10.57 2.73 9.47 3 5.55 1.97 9.08 3.55 9.78 4.48 7.84 4.01 5.33 2.96 5.68 3.4 4 2.52 7.23 4.9 7.91 5.92 4.74 3.82 6.74 5.83 4.56 4.26 6.48 6.48 6.91 7.56 5.79 7.04 3.82 4.91 5.83 8.23 5.13 7.96 5.39 9.3 4.63 9.07 4.31 9.46 3.57 9.09 2.07 5.88 2.9 9.17 2.7 10.47 1.86 9.04 1.19 6.87 1.29 10.22 0.77 10.02 0.24 6.45 0.04 4.62 -0.03 469.49 -0.25 6.82 -0.77 9.96 -1.28 10.15 -1.16 6.79 -1.89 9.19 -2.73 10.57 -3 9.47 -1.97 5.55 -3.55 9.08 -4.48 9.78 -4.01 7.84 -2.96 5.33 -3.4 5.68 -2.52 4 -4.9 7.23 -5.92 7.91 -3.82 4.74 -5.83 6.74 -4.26 4.56 -6.48 6.48 -7.56 6.91 -7.04 5.79 -4.91 3.82 -8.23 5.83 -7.96 5.13 -9.3 5.39 -9.07 4.63 -9.46 4.31 -9.09 3.57 -5.88 2.07 -9.17 2.9 -10.47 2.7 -9.04 1.86 -6.87 1.19 -10.22 1.29 -10.02 0.77 -6.45 0.24 -4.62 0.04 -604.01 -0.03 -6.82 -0.25 -9.96 -0.77 -10.15 -1.28 -6.79 -1.16 -9.19 -1.89 -2.17 -0.56c-16.25,3.95 -32.94,5.94 -49.75,5.94l-67.61 0c-103.03,0 -188.97,-74.14 -207.31,-171.9l-145.48 0c-18.34,97.76 -104.28,171.9 -207.31,171.9l-67.61 0c-21.43,0 -42.61,-3.24 -62.89,-9.58 -20.28,6.34 -41.46,9.58 -62.89,9.58l-67.61 0c-96.26,0 -177.61,-64.72 -202.83,-152.96l-58.17 0c-25.22,88.24 -106.57,152.96 -202.83,152.96l-67.61 0c-22.68,0 -45.06,-3.63 -66.36,-10.7l-8.26 2.61 -10.47 2.7 -9.04 1.86 -6.87 1.19 -10.22 1.29 -10.02 0.77 -6.45 0.24 -4.62 0.04 -599.39 0c-23.56,0 -46.79,-3.92 -68.82,-11.53zm4012.95 -10.64c-27.84,14.39 -58.88,22.17 -91.17,22.17l-60.57 0c-86.08,0 -170.52,-50.45 -208.26,-128.34l-7.58 -15.63c-28.03,83.61 -107.08,143.97 -200.04,143.97l-67.61 0c-116.36,0 -210.93,-94.56 -210.92,-210.92l0.03 -469.14 0.25 -6.82 0.77 -9.96 1.28 -10.15 1.16 -6.79 1.89 -9.19 2.73 -10.57 3 -9.47 1.97 -5.55 3.55 -9.08 4.48 -9.78 4.01 -7.84 2.96 -5.33 3.4 -5.68 2.52 -4 4.9 -7.23 5.92 -7.91 3.82 -4.74 5.83 -6.74 4.26 -4.56 6.48 -6.48 7.56 -6.91 7.04 -5.79 4.91 -3.82 8.23 -5.83 7.96 -5.13 9.3 -5.39 9.07 -4.63 9.46 -4.31 9.09 -3.57 5.88 -2.07 9.17 -2.9 10.47 -2.7 9.04 -1.86 6.87 -1.19 10.22 -1.29 10.02 -0.77 6.45 -0.24 4.62 -0.04 604.01 0.03 6.82 0.25 9.96 0.77 10.15 1.28 6.79 1.16 9.19 1.89 10.57 2.73 7.06 2.23 7.12 -2.25 10.47 -2.7 9.04 -1.86 6.87 -1.19 10.22 -1.29 10.02 -0.77 6.8 -0.25 608.28 0 6.82 0.25 9.96 0.77 10.15 1.28 6.79 1.16 9.19 1.89 10.57 2.73 7.06 2.23 7.12 -2.25 10.47 -2.7 9.04 -1.86 6.87 -1.19 10.22 -1.29 10.02 -0.77 6.8 -0.25 603.66 -0.03c22.36,0 44.44,3.52 65.49,10.41 21.05,-6.88 43.12,-10.41 65.48,-10.41l67.61 0c22.39,0 44.5,3.54 65.58,10.44 21.08,-6.9 43.19,-10.44 65.58,-10.44l71.23 0 0.62 0.12c57.37,-0.08 105.24,12.98 152.2,51.41l119.36 97.68c26.43,-86.31 106.82,-149.21 201.72,-149.21l67.61 0c19.7,0 39.22,2.74 58.02,8.12l10.56 -2.73 9.04 -1.86 6.87 -1.19 10.22 -1.29 10.02 -0.77 6.8 -0.25 617.35 -0.03c116.37,-0.01 210.93,94.56 210.93,210.93l0 67.59c0,25.09 -4.45,49.78 -13.04,73.04l2.05 5.83 2.9 9.17 2.7 10.47 1.86 9.04 1.19 6.87 1.29 10.22 0.77 10.02 0.24 6.45 0.04 4.62 -0.03 255.81 -0.25 6.82 -0.77 9.96 -1.28 10.15 -1.16 6.79 -1.89 9.19 -2.73 10.57 -3 9.47 -1.97 5.55 -3.55 9.08 -4.48 9.78 -4.01 7.84 -2.96 5.33 -3.4 5.68 -2.52 4 -4.9 7.23 -5.92 7.91 -3.82 4.74 -5.83 6.74 -4.26 4.56 -6.48 6.48 -7.56 6.91 -7.04 5.79 -4.91 3.82 -8.23 5.83 -7.96 5.13 -9.3 5.39 -9.07 4.63 -9.46 4.31 -9.09 3.57 -5.88 2.07 -9.17 2.9 -10.47 2.7 -9.04 1.86 -6.87 1.19 -10.22 1.29 -10.02 0.77 -6.45 0.24 -4.62 0.04 -617.7 -0.03 -6.82 -0.25 -9.96 -0.77 -10.15 -1.28 -6.79 -1.16 -9.19 -1.89 -10.61 -2.74c-18.8,5.38 -38.32,8.12 -58.02,8.12l-67.61 0c-48.72,0 -95.94,-16.84 -133.61,-47.76l-138.79 -113.92c-22.21,92.66 -105.71,161.68 -205.12,161.68l-67.61 0c-22.39,0 -44.5,-3.54 -65.58,-10.44 -21.08,6.9 -43.19,10.44 -65.58,10.44l-67.61 0c-22.36,0 -44.43,-3.53 -65.48,-10.41 -21.05,6.89 -43.13,10.41 -65.49,10.41l-603.65 -0.03 -6.82 -0.25 -9.96 -0.77 -10.15 -1.28 -6.79 -1.16 -9.19 -1.89 -10.57 -2.73 -7 -2.21c-20.97,6.82 -42.96,10.32 -65.22,10.32l-67.61 0c-96.26,0 -177.61,-64.72 -202.83,-152.96l-58.17 0c-25.22,88.24 -106.57,152.96 -202.83,152.96l-67.61 0c-33.05,0 -65.19,-7.72 -94.13,-22.17z"/>
   <path class="fil0" d="M5373.54 4424.7c-0.15,0 -0.3,0 -0.45,0l-144.25 0 0 262.19c0,74.31 -60.42,134.73 -134.73,134.73l-67.59 0c-74.31,0 -134.73,-60.42 -134.73,-134.73l0 -262.19 -117.73 0c-74.31,0 -134.73,-60.42 -134.73,-134.73l0 -67.59c0,-74.31 60.42,-134.73 134.73,-134.73l599.03 0c24.63,0 47.73,6.64 67.61,18.22l3.29 -1.91 5.74 -2.93 6.08 -2.77 5.93 -2.33 3.41 -1.2 6.05 -1.91 6.67 -1.72 6.03 -1.24 3.98 -0.69 6.64 -0.84 6.61 -0.51 3.88 -0.14 602.27 -0.03c24.63,0 47.73,6.64 67.61,18.22l3.29 -1.91 5.74 -2.93 6.08 -2.77 5.93 -2.33 3.41 -1.2 6.05 -1.91 6.67 -1.72 6.03 -1.24 3.98 -0.69 6.64 -0.84 6.61 -0.51 3.87 -0.14 3.24 -0.03 602.28 0.03 3.87 0.14 6.57 0.51 6.66 0.84 3.91 0.67 6.1 1.25 6.7 1.73 6.25 1.98 3.18 1.13 5.96 2.33 6.31 2.89 5.22 2.67 3.61 2.02c19.87,-11.56 42.96,-18.19 67.57,-18.19l67.61 0c1.11,0 2.22,0.01 3.33,0.04 30.86,-0.66 61.25,9.33 85.7,28.46l142.89 111.81 142.89 -111.81c24.1,-18.85 53.88,-28.84 84.35,-28.48l69.8 -0.02c25.13,0 48.68,6.91 68.84,18.94l4.53 -2.63 5.74 -2.93 6.08 -2.77 5.93 -2.33 3.41 -1.2 6.05 -1.91 6.67 -1.72 6.03 -1.24 3.98 -0.69 6.64 -0.84 6.61 -0.51 3.87 -0.14 3.24 -0.03 599.04 0c24.12,0 46.77,6.36 66.37,17.5l2.05 -1.19 5.74 -2.93 6.08 -2.77 5.93 -2.33 3.41 -1.2 6.05 -1.91 6.67 -1.72 6.03 -1.24 3.98 -0.69 6.64 -0.84 6.61 -0.51 3.87 -0.14 3.24 -0.03 602.28 0.03 3.87 0.14 6.57 0.51 6.66 0.84 3.91 0.67 6.1 1.25 6.7 1.73 6.25 1.98 3.18 1.13 5.96 2.33 6.31 2.89 5.22 2.67 3.17 1.76 3.12 1.86 2.91 1.83 4.68 3.17 5.36 4.01 2.64 2.13 4.66 4.03 2.55 2.38 4.33 4.33 4.43 4.85 1.19 1.45c24.73,-29.32 61.73,-47.97 103.01,-47.97l67.61 0c74.3,0 134.72,60.42 134.72,134.72l0 90.3 128.03 0 0 -90.3c0,-74.3 60.42,-134.72 134.72,-134.72l67.61 0c35.02,0 66.95,13.42 90.93,35.39l2.71 -2.48 4.7 -3.87 2.74 -2.13 5.46 -3.87 5.05 -3.25 6 -3.48 5.74 -2.93 6.08 -2.77 5.93 -2.33 3.41 -1.2 6.05 -1.91 6.67 -1.72 6.03 -1.24 3.98 -0.69 6.64 -0.84 6.61 -0.51 3.87 -0.14 3.24 -0.03 602.28 0.03 3.87 0.14 6.57 0.51 6.66 0.84 3.91 0.67 6.1 1.25 6.7 1.73 6.25 1.98 3.18 1.13 5.96 2.33 6.31 2.89 5.22 2.67 3.17 1.76 3.12 1.86 2.91 1.83 4.68 3.17 5.36 4.01 2.64 2.13 4.66 4.03 2.55 2.38 4.33 4.33 4.43 4.85 3.87 4.7 2.13 2.74 3.87 5.46 3.25 5.05 3.48 6 2.93 5.74 2.77 6.08 2.33 5.93 1.2 3.41 1.91 6.05 1.72 6.67 1.24 6.03 0.69 3.98 0.84 6.64 0.51 6.61 0.14 3.87 0.03 3.24 -0.03 467.76 -0.14 3.87 -0.51 6.57 -0.84 6.66 -0.67 3.91 -1.25 6.1 -1.73 6.7 -1.98 6.25 -1.13 3.18 -2.33 5.96 -2.89 6.31 -2.67 5.22 -1.76 3.17 -1.86 3.12 -1.83 2.91 -3.17 4.68 -4.01 5.36 -2.13 2.64 -4.03 4.66 -2.38 2.55 -4.33 4.33 -4.85 4.43 -4.7 3.87 -2.74 2.13 -5.46 3.87 -5.05 3.25 -6 3.48 -5.74 2.93 -6.08 2.77 -5.93 2.33 -3.41 1.2 -6.05 1.91 -6.67 1.72 -6.03 1.24 -3.98 0.69 -6.64 0.84 -6.61 0.51 -3.87 0.14 -3.24 0.03 -602.28 -0.03 -3.87 -0.14 -6.57 -0.51 -6.66 -0.84 -3.91 -0.67 -6.1 -1.25 -6.7 -1.73 -6.25 -1.98 -3.18 -1.13 -3.19 -1.25c-15.41,6.15 -32.2,9.53 -49.78,9.53l-67.61 0c-74.3,0 -134.72,-60.42 -134.72,-134.72l0 -37.18 -290.66 0 0 37.18c0,74.3 -60.42,134.72 -134.72,134.72l-67.61 0c-22.7,0 -44.11,-5.64 -62.89,-15.59 -18.78,9.95 -40.19,15.59 -62.89,15.59l-67.61 0c-74.3,0 -134.72,-60.42 -134.72,-134.72l0 -18.24 -194.39 0 0 18.24c0,74.3 -60.42,134.72 -134.72,134.72l-67.61 0c-24.11,0 -46.76,-6.36 -66.36,-17.5l-2.05 1.19 -5.74 2.93 -6.08 2.77 -5.93 2.33 -3.41 1.2 -6.05 1.91 -6.67 1.72 -6.03 1.24 -3.98 0.69 -6.64 0.84 -6.61 0.51 -3.87 0.14 -3.24 0.03 -599.04 0c-25.13,0 -48.67,-6.91 -68.82,-18.93 -20.15,12.02 -43.69,18.93 -68.81,18.93l-67.61 0c-74.3,0 -134.72,-60.42 -134.72,-134.72l0 -105.81 -94.71 73.84 -97.2 -75.78 0 107.75c0,74.3 -60.42,134.72 -134.72,134.72l-67.61 0c-24.61,0 -47.7,-6.63 -67.57,-18.19 -19.87,11.56 -42.96,18.19 -67.57,18.19l-67.61 0c-74.3,0 -134.72,-60.42 -134.72,-134.72l0 -18.24 -194.39 0 0 18.24c0,74.3 -60.42,134.72 -134.72,134.72l-67.61 0c-24.61,0 -47.7,-6.63 -67.57,-18.2 -19.88,11.57 -42.97,18.2 -67.58,18.2l-602.27 -0.03 -3.87 -0.14 -6.57 -0.51 -6.66 -0.84 -3.91 -0.67 -6.1 -1.25 -6.7 -1.73 -6.25 -1.98 -3.18 -1.13 -5.96 -2.33 -6.31 -2.89 -5.22 -2.67 -3.17 -1.76 -3.12 -1.86 -2.91 -1.83 -4.68 -3.17 -5.36 -4.01 -2.64 -2.13 -4.66 -4.03 -2.55 -2.38 -4.33 -4.33 -4.43 -4.85 -3.87 -4.7 -2.13 -2.74 -3.87 -5.46 -3.25 -5.05 -3.48 -6 -2.93 -5.74 -2.77 -6.08 -2.33 -5.93 -1.2 -3.41 -1.91 -6.05 -1.72 -6.67 -1.24 -6.03 -0.69 -3.98 -0.84 -6.64 -0.51 -6.61 -0.14 -3.87 -0.03 -3.24 0.02 -262.2zm734.18 59.87l0.01 -59.87c-0.15,0 -0.3,0 -0.45,0l-34.49 0 0 59.87 34.49 0c0.15,0 0.3,0 0.44,0zm5546.33 297.75c-22.78,23.81 -54.27,39.3 -90.27,39.3l-60.57 0c-56.87,0 -114.7,-33.78 -139.69,-85.37l-54.8 -113.09 -86.67 0 0 63.74c0,74.3 -60.42,134.72 -134.72,134.72l-67.61 0c-74.3,0 -134.72,-60.42 -134.72,-134.72l0.03 -467.76 0.14 -3.87 0.51 -6.57 0.84 -6.66 0.67 -3.91 1.25 -6.1 1.73 -6.7 1.98 -6.25 1.13 -3.18 2.33 -5.96 2.89 -6.31 2.67 -5.22 1.76 -3.17 1.86 -3.12 1.83 -2.91 3.17 -4.68 4.01 -5.36 2.13 -2.64 4.03 -4.66 2.38 -2.55 4.33 -4.33 4.85 -4.43 4.7 -3.87 2.74 -2.13 5.46 -3.87 5.05 -3.25 6 -3.48 5.74 -2.93 6.08 -2.77 5.93 -2.33 3.41 -1.2 6.05 -1.91 6.67 -1.72 6.03 -1.24 3.98 -0.69 6.64 -0.84 6.61 -0.51 3.87 -0.14 3.24 -0.03 602.28 0.03 3.87 0.14 6.57 0.51 6.66 0.84 3.91 0.67 6.1 1.25 6.7 1.73 6.25 1.98 3.18 1.13 5.96 2.33 6.31 2.89 5.22 2.67 1.2 0.66 0.9 -0.52 5.74 -2.93 6.08 -2.77 5.93 -2.33 3.41 -1.2 6.05 -1.91 6.67 -1.72 6.03 -1.24 3.98 -0.69 6.64 -0.84 6.61 -0.51 3.87 -0.14 605.52 0 3.87 0.14 6.57 0.51 6.66 0.84 3.91 0.67 6.1 1.25 6.7 1.73 6.25 1.98 3.18 1.13 5.96 2.33 6.31 2.89 5.22 2.67 1.2 0.66 0.9 -0.52 5.74 -2.93 6.08 -2.77 5.93 -2.33 3.41 -1.2 6.05 -1.91 6.67 -1.72 6.03 -1.24 3.98 -0.69 6.64 -0.84 6.61 -0.51 3.87 -0.14 602.28 -0.03c23.76,0 46.09,6.17 65.49,17 19.39,-10.83 41.73,-17 65.48,-17l67.61 0c23.79,0 46.16,6.2 65.58,17.06 19.42,-10.86 41.79,-17.06 65.58,-17.06l68.81 0 0.63 0.04c41.62,0 72.96,6.94 106.35,34.26l234.62 192.02 0 -91.6c0,-74.3 60.42,-134.72 134.72,-134.72l67.61 0c20.79,0 40.5,4.73 58.09,13.17l5.63 -2.56 5.93 -2.33 3.41 -1.2 6.05 -1.91 6.67 -1.72 6.03 -1.24 3.98 -0.69 6.64 -0.84 6.61 -0.51 3.87 -0.14 615.97 -0.03c74.31,0 134.73,60.42 134.73,134.73l0 67.59c0,26.91 -7.93,52 -21.57,73.06l1.78 2.77 3.48 6 2.93 5.74 2.77 6.08 2.33 5.93 1.2 3.41 1.91 6.05 1.72 6.67 1.24 6.03 0.69 3.98 0.84 6.64 0.51 6.61 0.14 3.87 0.03 3.24 -0.03 254.08 -0.14 3.87 -0.51 6.57 -0.84 6.66 -0.67 3.91 -1.25 6.1 -1.73 6.7 -1.98 6.25 -1.13 3.18 -2.33 5.96 -2.89 6.31 -2.67 5.22 -1.76 3.17 -1.86 3.12 -1.83 2.91 -3.17 4.68 -4.01 5.36 -2.13 2.64 -4.03 4.66 -2.38 2.55 -4.33 4.33 -4.85 4.43 -4.7 3.87 -2.74 2.13 -5.46 3.87 -5.05 3.25 -6 3.48 -5.74 2.93 -6.08 2.77 -5.93 2.33 -3.41 1.2 -6.05 1.91 -6.67 1.72 -6.03 1.24 -3.98 0.69 -6.64 0.84 -6.61 0.51 -3.87 0.14 -3.24 0.03 -615.97 -0.03 -3.87 -0.14 -6.57 -0.51 -6.66 -0.84 -3.91 -0.67 -6.1 -1.25 -6.7 -1.73 -6.25 -1.98 -3.18 -1.13 -5.96 -2.33 -5.61 -2.57c-17.6,8.45 -37.31,13.18 -58.11,13.18l-67.61 0c-31.11,0 -61.17,-10.81 -85.26,-30.46l-257.54 -211.39 0 107.13c0,74.3 -60.42,134.72 -134.72,134.72l-67.61 0c-23.79,0 -46.16,-6.2 -65.58,-17.06 -19.42,10.86 -41.79,17.06 -65.58,17.06l-67.61 0c-23.75,0 -46.09,-6.17 -65.48,-17 -19.4,10.83 -41.73,17 -65.49,17l-602.27 -0.03 -3.87 -0.14 -6.57 -0.51 -6.66 -0.84 -3.91 -0.67 -6.1 -1.25 -6.7 -1.73 -6.25 -1.98 -3.18 -1.13 -5.96 -2.33 -6.31 -2.89 -5.22 -2.67 -1.18 -0.66c-19.33,10.72 -41.55,16.83 -65.17,16.83l-67.61 0c-74.3,0 -134.72,-60.42 -134.72,-134.72l0 -18.24 -194.39 0 0 18.24c0,74.3 -60.42,134.72 -134.72,134.72l-67.61 0c-37.05,0 -70.65,-15.02 -95.03,-39.3zm1419.68 -297.75l0 -59.87 -392.96 0 0 59.87 392.96 0zm-2714.9 0l0 -59.87 -194.39 0 0 59.87 194.39 0z"/>
   <path class="fil1" d="M5508.25 4189.25l67.6 0 531.43 0c18.23,0 33.13,14.9 33.13,33.13l0 67.59c0,18.23 -14.9,33.13 -33.13,33.13l-498.31 0 0 64.61 329.09 0c18.23,0 33.13,14.9 33.13,33.13l0 67.59c0,18.23 -14.9,33.13 -33.13,33.13l-329.09 0 0 64.61 498.31 0c18.23,0 33.13,14.9 33.13,33.13l0 67.59c0,18.23 -14.9,33.13 -33.13,33.13l-531.43 0 -67.6 0 -0.01 0 -0.84 -0.01 -0.01 0 -0.84 -0.03 -0.01 0 -0.83 -0.06 -0.01 0 -0.83 -0.07 -0.83 -0.1 -0.82 -0.11 -0.01 0 -0.81 -0.14 -0.81 -0.16 -0.8 -0.17 -0.01 0 -0.79 -0.2 -0.79 -0.21 -0.78 -0.24 -0.77 -0.25 -0.76 -0.27 -0.01 0 -0.75 -0.29 -0.75 -0.3 -0.74 -0.33 -0.72 -0.34 -0.01 0 -0.71 -0.36 -0.01 0 -0.7 -0.37 -0.01 0 -0.69 -0.39 -0.69 -0.41 -0.68 -0.43 -0.66 -0.44 -0.01 0 -0.65 -0.45 -0.64 -0.47 -0.01 0 -0.63 -0.49 -0.62 -0.5 -0.6 -0.51 -0.01 0 -0.59 -0.53 -0.58 -0.54 -0.57 -0.56 -0.56 -0.57 -0.54 -0.58 -0.53 -0.59 0 -0.01 -0.51 -0.6 -0.5 -0.62 -0.49 -0.63 0 -0.01 -0.47 -0.64 -0.45 -0.65 0 -0.01 -0.44 -0.66 -0.43 -0.68 -0.41 -0.69 -0.39 -0.69 0 -0.01 -0.37 -0.7 0 -0.01 -0.36 -0.71 0 -0.01 -0.34 -0.72 -0.33 -0.74 -0.3 -0.75 -0.29 -0.75 0 -0.01 -0.27 -0.76 -0.25 -0.77 -0.24 -0.78 -0.21 -0.79 -0.2 -0.79 0 -0.01 -0.17 -0.8 -0.16 -0.81 -0.14 -0.81 0 -0.01 -0.11 -0.82 -0.1 -0.83 -0.07 -0.83 0 -0.01 -0.06 -0.83 0 -0.01 -0.03 -0.84 0 -0.01 -0.01 -0.84 0 -0.01 0 -67.59 0 -130.87 0 -67.59 0 -130.87 0 -67.59 0 -0.01 0.01 -0.84 0 -0.01 0.03 -0.84 0 -0.01 0.06 -0.83 0 -0.01 0.07 -0.83 0.1 -0.83 0.11 -0.82 0 -0.01 0.14 -0.81 0.16 -0.81 0.17 -0.8 0 -0.01 0.2 -0.79 0.21 -0.79 0.24 -0.78 0.25 -0.77 0.27 -0.76 0 -0.01 0.29 -0.75 0.3 -0.75 0.33 -0.74 0.34 -0.72 0 -0.01 0.36 -0.71 0 -0.01 0.37 -0.7 0 -0.01 0.39 -0.69 0.41 -0.69 0.43 -0.68 0.44 -0.66 0 -0.01 0.45 -0.65 0.47 -0.64 0 -0.01 0.49 -0.63 0.5 -0.62 0.51 -0.6 0 -0.01 0.53 -0.59 0.54 -0.58 0.56 -0.57 0.57 -0.56 0.58 -0.54 0.59 -0.53 0.01 0 0.6 -0.51 0.62 -0.5 0.63 -0.49 0.01 0 0.64 -0.47 0.65 -0.45 0.01 0 0.66 -0.44 0.68 -0.43 0.69 -0.41 0.69 -0.39 0.01 0 0.7 -0.37 0.01 0 0.71 -0.36 0.01 0 0.72 -0.34 0.74 -0.33 0.75 -0.3 0.75 -0.29 0.01 0 0.76 -0.27 0.77 -0.25 0.78 -0.24 0.79 -0.21 0.79 -0.2 0.01 0 0.8 -0.17 0.81 -0.16 0.81 -0.14 0.01 0 0.82 -0.11 0.83 -0.1 0.83 -0.07 0.01 0 0.83 -0.06 0.01 0 0.84 -0.03 0.01 0 0.84 -0.01 0.01 0zm8627.87 0l67.6 0 545.12 0c18.23,0 33.13,14.9 33.13,33.13l0 67.59c0,18.23 -14.9,33.13 -33.13,33.13l-512 0 0 263.07 411.28 0 0 -49.39 -217.24 0c-18.23,0 -33.13,-14.9 -33.13,-33.13l0 -67.59c0,-18.23 14.9,-33.13 33.13,-33.13l250.36 0 67.6 0 0.01 0 0.84 0.01 0.01 0 0.84 0.03 0.01 0 0.83 0.06 0.01 0 0.83 0.07 0.83 0.1 0.82 0.11 0.01 0 0.81 0.14 0.81 0.16 0.8 0.17 0.01 0 0.79 0.2 0.79 0.21 0.78 0.24 0.77 0.25 0.76 0.27 0.01 0 0.75 0.29 0.75 0.3 0.74 0.33 0.72 0.34 0.01 0 0.71 0.36 0.01 0 0.7 0.37 0.01 0 0.69 0.39 0.69 0.41 0.68 0.43 0.66 0.44 0.01 0 0.65 0.45 0.64 0.47 0.01 0 0.63 0.49 0.62 0.5 0.6 0.51 0.01 0 0.59 0.53 0.58 0.54 0.57 0.56 0.56 0.57 0.54 0.58 0.53 0.59 0 0.01 0.51 0.6 0.5 0.62 0.49 0.63 0 0.01 0.47 0.64 0.45 0.65 0 0.01 0.44 0.66 0.43 0.68 0.41 0.69 0.39 0.69 0 0.01 0.37 0.7 0 0.01 0.36 0.71 0 0.01 0.34 0.72 0.33 0.74 0.3 0.75 0.29 0.75 0 0.01 0.27 0.76 0.25 0.77 0.24 0.78 0.21 0.79 0.2 0.79 0 0.01 0.17 0.8 0.16 0.81 0.14 0.81 0 0.01 0.11 0.82 0.1 0.83 0.07 0.83 0 0.01 0.06 0.83 0 0.01 0.03 0.84 0 0.01 0.01 0.84 0 0.01 0 67.59 0 115.65 0 67.59 0 0.01 -0.01 0.84 0 0.01 -0.03 0.84 0 0.01 -0.06 0.83 0 0.01 -0.07 0.83 -0.1 0.83 -0.11 0.82 0 0.01 -0.14 0.81 -0.16 0.81 -0.17 0.8 0 0.01 -0.2 0.79 -0.21 0.79 -0.24 0.78 -0.25 0.77 -0.27 0.76 0 0.01 -0.29 0.75 -0.3 0.75 -0.33 0.74 -0.34 0.72 0 0.01 -0.36 0.71 0 0.01 -0.37 0.7 0 0.01 -0.39 0.69 -0.41 0.69 -0.43 0.68 -0.44 0.66 0 0.01 -0.45 0.65 -0.47 0.64 0 0.01 -0.49 0.63 -0.5 0.62 -0.51 0.6 0 0.01 -0.53 0.59 -0.54 0.58 -0.56 0.57 -0.57 0.56 -0.58 0.54 -0.59 0.53 -0.01 0 -0.6 0.51 -0.62 0.5 -0.63 0.49 -0.01 0 -0.64 0.47 -0.65 0.45 -0.01 0 -0.66 0.44 -0.68 0.43 -0.69 0.41 -0.69 0.39 -0.01 0 -0.7 0.37 -0.01 0 -0.71 0.36 -0.01 0 -0.72 0.34 -0.74 0.33 -0.75 0.3 -0.75 0.29 -0.01 0 -0.76 0.27 -0.77 0.25 -0.78 0.24 -0.79 0.21 -0.79 0.2 -0.01 0 -0.8 0.17 -0.81 0.16 -0.81 0.14 -0.01 0 -0.82 0.11 -0.83 0.1 -0.83 0.07 -0.01 0 -0.83 0.06 -0.01 0 -0.84 0.03 -0.01 0 -0.84 0.01 -0.01 0 -67.6 0 -477.52 0 -67.6 0 -0.01 0 -0.84 -0.01 -0.01 0 -0.84 -0.03 -0.01 0 -0.83 -0.06 -0.01 0 -0.83 -0.07 -0.83 -0.1 -0.82 -0.11 -0.01 0 -0.81 -0.14 -0.81 -0.16 -0.8 -0.17 -0.01 0 -0.79 -0.2 -0.79 -0.21 -0.78 -0.24 -0.77 -0.25 -0.76 -0.27 -0.01 0 -0.75 -0.29 -0.75 -0.3 -0.74 -0.33 -0.72 -0.34 -0.01 0 -0.71 -0.36 -0.01 0 -0.7 -0.37 -0.01 0 -0.69 -0.39 -0.69 -0.41 -0.68 -0.43 -0.66 -0.44 -0.01 0 -0.65 -0.45 -0.64 -0.47 -0.01 0 -0.63 -0.49 -0.62 -0.5 -0.6 -0.51 -0.01 0 -0.59 -0.53 -0.58 -0.54 -0.57 -0.56 -0.56 -0.57 -0.54 -0.58 -0.53 -0.59 0 -0.01 -0.51 -0.6 -0.5 -0.62 -0.49 -0.63 0 -0.01 -0.47 -0.64 -0.45 -0.65 0 -0.01 -0.44 -0.66 -0.43 -0.68 -0.41 -0.69 -0.39 -0.69 0 -0.01 -0.37 -0.7 0 -0.01 -0.36 -0.71 0 -0.01 -0.34 -0.72 -0.33 -0.74 -0.3 -0.75 -0.29 -0.75 0 -0.01 -0.27 -0.76 -0.25 -0.77 -0.24 -0.78 -0.21 -0.79 -0.2 -0.79 0 -0.01 -0.17 -0.8 -0.16 -0.81 -0.14 -0.81 0 -0.01 -0.11 -0.82 -0.1 -0.83 -0.07 -0.83 0 -0.01 -0.06 -0.83 0 -0.01 -0.03 -0.84 0 -0.01 -0.01 -0.84 0 -0.01 0 -67.59 0 -329.33 0 -67.59 0 -0.01 0.01 -0.84 0 -0.01 0.03 -0.84 0 -0.01 0.06 -0.83 0 -0.01 0.07 -0.83 0.1 -0.83 0.11 -0.82 0 -0.01 0.14 -0.81 0.16 -0.81 0.17 -0.8 0 -0.01 0.2 -0.79 0.21 -0.79 0.24 -0.78 0.25 -0.77 0.27 -0.76 0 -0.01 0.29 -0.75 0.3 -0.75 0.33 -0.74 0.34 -0.72 0 -0.01 0.36 -0.71 0 -0.01 0.37 -0.7 0 -0.01 0.39 -0.69 0.41 -0.69 0.43 -0.68 0.44 -0.66 0 -0.01 0.45 -0.65 0.47 -0.64 0 -0.01 0.49 -0.63 0.5 -0.62 0.51 -0.6 0 -0.01 0.53 -0.59 0.54 -0.58 0.56 -0.57 0.57 -0.56 0.58 -0.54 0.59 -0.53 0.01 0 0.6 -0.51 0.62 -0.5 0.63 -0.49 0.01 0 0.64 -0.47 0.65 -0.45 0.01 0 0.66 -0.44 0.68 -0.43 0.69 -0.41 0.69 -0.39 0.01 0 0.7 -0.37 0.01 0 0.71 -0.36 0.01 0 0.72 -0.34 0.74 -0.33 0.75 -0.3 0.75 -0.29 0.01 0 0.76 -0.27 0.77 -0.25 0.78 -0.24 0.79 -0.21 0.79 -0.2 0.01 0 0.8 -0.17 0.81 -0.16 0.81 -0.14 0.01 0 0.82 -0.11 0.83 -0.1 0.83 -0.07 0.01 0 0.83 -0.06 0.01 0 0.84 -0.03 0.01 0 0.84 -0.01 0.01 0zm-762.02 497.65l0 -464.53c0,-18.22 14.9,-33.12 33.12,-33.12l43.21 0 24.4 0 1.7 0.04 0.13 0c17.66,0.03 28.17,-0.02 42,11.29l400.57 327.82 0 -306.03c0,-18.22 14.9,-33.12 33.12,-33.12l67.61 0c18.22,0 33.12,14.9 33.12,33.12l0 464.53c0,18.22 -14.9,33.12 -33.12,33.12l-67.61 0c-7.97,0 -15.32,-2.86 -21.04,-7.59l-0.38 -0.31 -422.98 -347.18 0 321.96c0,18.22 -14.9,33.12 -33.12,33.12l-67.61 0c-18.22,0 -33.12,-14.9 -33.12,-33.12zm-198.77 0l0 -464.53c0,-18.22 14.9,-33.12 33.12,-33.12l67.61 0c18.22,0 33.12,14.9 33.12,33.12l0 464.53c0,18.22 -14.9,33.12 -33.12,33.12l-67.61 0c-18.22,0 -33.12,-14.9 -33.12,-33.12zm-696.88 -497.65l67.6 0 531.43 0c18.23,0 33.13,14.9 33.13,33.13l0 67.59c0,18.23 -14.9,33.13 -33.13,33.13l-498.31 0 0 263.07 498.31 0c18.23,0 33.13,14.9 33.13,33.13l0 67.59c0,18.23 -14.9,33.13 -33.13,33.13l-531.43 0 -67.6 0 -0.01 0 -0.84 -0.01 -0.01 0 -0.84 -0.03 -0.01 0 -0.83 -0.06 -0.01 0 -0.83 -0.07 -0.83 -0.1 -0.82 -0.11 -0.01 0 -0.81 -0.14 -0.81 -0.16 -0.8 -0.17 -0.01 0 -0.79 -0.2 -0.79 -0.21 -0.78 -0.24 -0.77 -0.25 -0.76 -0.27 -0.01 0 -0.75 -0.29 -0.75 -0.3 -0.74 -0.33 -0.72 -0.34 -0.01 0 -0.71 -0.36 -0.01 0 -0.7 -0.37 -0.01 0 -0.69 -0.39 -0.69 -0.41 -0.68 -0.43 -0.66 -0.44 -0.01 0 -0.65 -0.45 -0.64 -0.47 -0.01 0 -0.63 -0.49 -0.62 -0.5 -0.6 -0.51 -0.01 0 -0.59 -0.53 -0.58 -0.54 -0.57 -0.56 -0.56 -0.57 -0.54 -0.58 -0.53 -0.59 0 -0.01 -0.51 -0.6 -0.5 -0.62 -0.49 -0.63 0 -0.01 -0.47 -0.64 -0.45 -0.65 0 -0.01 -0.44 -0.66 -0.43 -0.68 -0.41 -0.69 -0.39 -0.69 0 -0.01 -0.37 -0.7 0 -0.01 -0.36 -0.71 0 -0.01 -0.34 -0.72 -0.33 -0.74 -0.3 -0.75 -0.29 -0.75 0 -0.01 -0.27 -0.76 -0.25 -0.77 -0.24 -0.78 -0.21 -0.79 -0.2 -0.79 0 -0.01 -0.17 -0.8 -0.16 -0.81 -0.14 -0.81 0 -0.01 -0.11 -0.82 -0.1 -0.83 -0.07 -0.83 0 -0.01 -0.06 -0.83 0 -0.01 -0.03 -0.84 0 -0.01 -0.01 -0.84 0 -0.01 0 -67.59 0 -329.33 0 -67.59 0 -0.01 0.01 -0.84 0 -0.01 0.03 -0.84 0 -0.01 0.06 -0.83 0 -0.01 0.07 -0.83 0.1 -0.83 0.11 -0.82 0 -0.01 0.14 -0.81 0.16 -0.81 0.17 -0.8 0 -0.01 0.2 -0.79 0.21 -0.79 0.24 -0.78 0.25 -0.77 0.27 -0.76 0 -0.01 0.29 -0.75 0.3 -0.75 0.33 -0.74 0.34 -0.72 0 -0.01 0.36 -0.71 0 -0.01 0.37 -0.7 0 -0.01 0.39 -0.69 0.41 -0.69 0.43 -0.68 0.44 -0.66 0 -0.01 0.45 -0.65 0.47 -0.64 0 -0.01 0.49 -0.63 0.5 -0.62 0.51 -0.6 0 -0.01 0.53 -0.59 0.54 -0.58 0.56 -0.57 0.57 -0.56 0.58 -0.54 0.59 -0.53 0.01 0 0.6 -0.51 0.62 -0.5 0.63 -0.49 0.01 0 0.64 -0.47 0.65 -0.45 0.01 0 0.66 -0.44 0.68 -0.43 0.69 -0.41 0.69 -0.39 0.01 0 0.7 -0.37 0.01 0 0.71 -0.36 0.01 0 0.72 -0.34 0.74 -0.33 0.75 -0.3 0.75 -0.29 0.01 0 0.76 -0.27 0.77 -0.25 0.78 -0.24 0.79 -0.21 0.79 -0.2 0.01 0 0.8 -0.17 0.81 -0.16 0.81 -0.14 0.01 0 0.82 -0.11 0.83 -0.1 0.83 -0.07 0.01 0 0.83 -0.06 0.01 0 0.84 -0.03 0.01 0 0.84 -0.01 0.01 0zm-729.36 0l67.6 0 463.83 0 67.6 0 0.01 0 0.84 0.01 0.01 0 0.84 0.03 0.01 0 0.83 0.06 0.01 0 0.83 0.07 0.83 0.1 0.82 0.11 0.01 0 0.81 0.14 0.81 0.16 0.8 0.17 0.01 0 0.79 0.2 0.79 0.21 0.78 0.24 0.77 0.25 0.76 0.27 0.01 0 0.75 0.29 0.75 0.3 0.74 0.33 0.72 0.34 0.01 0 0.71 0.36 0.01 0 0.7 0.37 0.01 0 0.69 0.39 0.69 0.41 0.68 0.43 0.66 0.44 0.01 0 0.65 0.45 0.64 0.47 0.01 0 0.63 0.49 0.62 0.5 0.6 0.51 0.01 0 0.59 0.53 0.58 0.54 0.57 0.56 0.56 0.57 0.54 0.58 0.53 0.59 0 0.01 0.51 0.6 0.5 0.62 0.49 0.63 0 0.01 0.47 0.64 0.45 0.65 0 0.01 0.44 0.66 0.43 0.68 0.41 0.69 0.39 0.69 0 0.01 0.37 0.7 0 0.01 0.36 0.71 0 0.01 0.34 0.72 0.33 0.74 0.3 0.75 0.29 0.75 0 0.01 0.27 0.76 0.25 0.77 0.24 0.78 0.21 0.79 0.2 0.79 0 0.01 0.17 0.8 0.16 0.81 0.14 0.81 0 0.01 0.11 0.82 0.1 0.83 0.07 0.83 0 0.01 0.06 0.83 0 0.01 0.03 0.84 0 0.01 0.01 0.84 0 0.01 0 67.59 0 396.93c0,18.22 -14.9,33.12 -33.12,33.12l-67.61 0c-18.22,0 -33.12,-14.9 -33.12,-33.12l0 -119.84 -397.59 0 0 119.84c0,18.22 -14.9,33.12 -33.12,33.12l-67.61 0c-18.22,0 -33.12,-14.9 -33.12,-33.12l0 -396.93 0 -67.59 0 -0.01 0.01 -0.84 0 -0.01 0.03 -0.84 0 -0.01 0.06 -0.83 0 -0.01 0.07 -0.83 0.1 -0.83 0.11 -0.82 0 -0.01 0.14 -0.81 0.16 -0.81 0.17 -0.8 0 -0.01 0.2 -0.79 0.21 -0.79 0.24 -0.78 0.25 -0.77 0.27 -0.76 0 -0.01 0.29 -0.75 0.3 -0.75 0.33 -0.74 0.34 -0.72 0 -0.01 0.36 -0.71 0 -0.01 0.37 -0.7 0 -0.01 0.39 -0.69 0.41 -0.69 0.43 -0.68 0.44 -0.66 0 -0.01 0.45 -0.65 0.47 -0.64 0 -0.01 0.49 -0.63 0.5 -0.62 0.51 -0.6 0 -0.01 0.53 -0.59 0.54 -0.58 0.56 -0.57 0.57 -0.56 0.58 -0.54 0.59 -0.53 0.01 0 0.6 -0.51 0.62 -0.5 0.63 -0.49 0.01 0 0.64 -0.47 0.65 -0.45 0.01 0 0.66 -0.44 0.68 -0.43 0.69 -0.41 0.69 -0.39 0.01 0 0.7 -0.37 0.01 0 0.71 -0.36 0.01 0 0.72 -0.34 0.74 -0.33 0.75 -0.3 0.75 -0.29 0.01 0 0.76 -0.27 0.77 -0.25 0.78 -0.24 0.79 -0.21 0.79 -0.2 0.01 0 0.8 -0.17 0.81 -0.16 0.81 -0.14 0.01 0 0.82 -0.11 0.83 -0.1 0.83 -0.07 0.01 0 0.83 -0.06 0.01 0 0.84 -0.03 0.01 0 0.84 -0.01 0.01 0zm100.72 243.96l397.59 0 0 -110.11 -397.59 0 0 110.11zm-863.21 253.69l0 -396.93 0 -67.59 0 -0.01 0.01 -0.84 0 -0.01 0.03 -0.84 0 -0.01 0.06 -0.83 0 -0.01 0.07 -0.83 0.1 -0.83 0.11 -0.82 0 -0.01 0.14 -0.81 0.16 -0.81 0.17 -0.8 0 -0.01 0.2 -0.79 0.21 -0.79 0.24 -0.78 0.25 -0.77 0.27 -0.76 0 -0.01 0.29 -0.75 0.3 -0.75 0.33 -0.74 0.34 -0.72 0 -0.01 0.36 -0.71 0 -0.01 0.37 -0.7 0 -0.01 0.39 -0.69 0.41 -0.69 0.43 -0.68 0.44 -0.66 0 -0.01 0.45 -0.65 0.47 -0.64 0 -0.01 0.49 -0.63 0.5 -0.62 0.51 -0.6 0 -0.01 0.53 -0.59 0.54 -0.58 0.56 -0.57 0.57 -0.56 0.58 -0.54 0.59 -0.53 0.01 0 0.6 -0.51 0.62 -0.5 0.63 -0.49 0.01 0 0.64 -0.47 0.65 -0.45 0.01 0 0.66 -0.44 0.68 -0.43 0.69 -0.41 0.69 -0.39 0.01 0 0.7 -0.37 0.01 0 0.71 -0.36 0.01 0 0.72 -0.34 0.74 -0.33 0.75 -0.3 0.75 -0.29 0.01 0 0.76 -0.27 0.77 -0.25 0.78 -0.24 0.79 -0.21 0.79 -0.2 0.01 0 0.8 -0.17 0.81 -0.16 0.81 -0.14 0.01 0 0.82 -0.11 0.83 -0.1 0.83 -0.07 0.01 0 0.83 -0.06 0.01 0 0.84 -0.03 0.01 0 0.84 -0.01 0.01 0 67.6 0 463.83 0 67.6 0 0.01 0 0.84 0.01 0.01 0 0.84 0.03 0.01 0 0.83 0.06 0.01 0 0.83 0.07 0.83 0.1 0.82 0.11 0.01 0 0.81 0.14 0.81 0.16 0.8 0.17 0.01 0 0.79 0.2 0.79 0.21 0.78 0.24 0.77 0.25 0.76 0.27 0.01 0 0.75 0.29 0.75 0.3 0.74 0.33 0.72 0.34 0.01 0 0.71 0.36 0.01 0 0.7 0.37 0.01 0 0.69 0.39 0.69 0.41 0.68 0.43 0.66 0.44 0.01 0 0.65 0.45 0.64 0.47 0.01 0 0.63 0.49 0.62 0.5 0.6 0.51 0.01 0 0.59 0.53 0.58 0.54 0.57 0.56 0.56 0.57 0.54 0.58 0.53 0.59 0 0.01 0.51 0.6 0.5 0.62 0.49 0.63 0 0.01 0.47 0.64 0.45 0.65 0 0.01 0.44 0.66 0.43 0.68 0.41 0.69 0.39 0.69 0 0.01 0.37 0.7 0 0.01 0.36 0.71 0 0.01 0.34 0.72 0.33 0.74 0.3 0.75 0.29 0.75 0 0.01 0.27 0.76 0.25 0.77 0.24 0.78 0.21 0.79 0.2 0.79 0 0.01 0.17 0.8 0.16 0.81 0.14 0.81 0 0.01 0.11 0.82 0.1 0.83 0.07 0.83 0 0.01 0.06 0.83 0 0.01 0.03 0.84 0 0.01 0.01 0.84 0 0.01 0 67.59 0 198.47c0,18.22 -14.9,33.12 -33.12,33.12l-21.09 0 -46.52 0 -38.7 0 75.87 156.59c7.55,15.58 -5.5,41.87 -24.55,41.87l-60.57 0c-19.05,0 -40.79,-12.63 -48.26,-28.07l-82.56 -170.39 -251.94 0 0 165.34c0,18.22 -14.9,33.12 -33.12,33.12l-67.61 0c-18.22,0 -33.12,-14.9 -33.12,-33.12zm531.44 -363.8l-397.59 0 0 64.61 397.59 0 0 -64.61zm-1057.61 263.07l0 -263.07 -397.59 0 0 263.07 397.59 0zm33.12 -396.92l67.6 0 0.01 0 0.84 0.01 0.01 0 0.84 0.03 0.01 0 0.83 0.06 0.01 0 0.83 0.07 0.83 0.1 0.82 0.11 0.01 0 0.81 0.14 0.81 0.16 0.8 0.17 0.01 0 0.79 0.2 0.79 0.21 0.78 0.24 0.77 0.25 0.76 0.27 0.01 0 0.75 0.29 0.75 0.3 0.74 0.33 0.72 0.34 0.01 0 0.71 0.36 0.01 0 0.7 0.37 0.01 0 0.69 0.39 0.69 0.41 0.68 0.43 0.66 0.44 0.01 0 0.65 0.45 0.64 0.47 0.01 0 0.63 0.49 0.62 0.5 0.6 0.51 0.01 0 0.59 0.53 0.58 0.54 0.57 0.56 0.56 0.57 0.54 0.58 0.53 0.59 0 0.01 0.51 0.6 0.5 0.62 0.49 0.63 0 0.01 0.47 0.64 0.45 0.65 0 0.01 0.44 0.66 0.43 0.68 0.41 0.69 0.39 0.69 0 0.01 0.37 0.7 0 0.01 0.36 0.71 0 0.01 0.34 0.72 0.33 0.74 0.3 0.75 0.29 0.75 0 0.01 0.27 0.76 0.25 0.77 0.24 0.78 0.21 0.79 0.2 0.79 0 0.01 0.17 0.8 0.16 0.81 0.14 0.81 0 0.01 0.11 0.82 0.1 0.83 0.07 0.83 0 0.01 0.06 0.83 0 0.01 0.03 0.84 0 0.01 0.01 0.84 0 0.01 0 67.59 0 329.33 0 67.59 0 0.01 -0.01 0.84 0 0.01 -0.03 0.84 0 0.01 -0.06 0.83 0 0.01 -0.07 0.83 -0.1 0.83 -0.11 0.82 0 0.01 -0.14 0.81 -0.16 0.81 -0.17 0.8 0 0.01 -0.2 0.79 -0.21 0.79 -0.24 0.78 -0.25 0.77 -0.27 0.76 0 0.01 -0.29 0.75 -0.3 0.75 -0.33 0.74 -0.34 0.72 0 0.01 -0.36 0.71 0 0.01 -0.37 0.7 0 0.01 -0.39 0.69 -0.41 0.69 -0.43 0.68 -0.44 0.66 0 0.01 -0.45 0.65 -0.47 0.64 0 0.01 -0.49 0.63 -0.5 0.62 -0.51 0.6 0 0.01 -0.53 0.59 -0.54 0.58 -0.56 0.57 -0.57 0.56 -0.58 0.54 -0.59 0.53 -0.01 0 -0.6 0.51 -0.62 0.5 -0.63 0.49 -0.01 0 -0.64 0.47 -0.65 0.45 -0.01 0 -0.66 0.44 -0.68 0.43 -0.69 0.41 -0.69 0.39 -0.01 0 -0.7 0.37 -0.01 0 -0.71 0.36 -0.01 0 -0.72 0.34 -0.74 0.33 -0.75 0.3 -0.75 0.29 -0.01 0 -0.76 0.27 -0.77 0.25 -0.78 0.24 -0.79 0.21 -0.79 0.2 -0.01 0 -0.8 0.17 -0.81 0.16 -0.81 0.14 -0.01 0 -0.82 0.11 -0.83 0.1 -0.83 0.07 -0.01 0 -0.83 0.06 -0.01 0 -0.84 0.03 -0.01 0 -0.84 0.01 -0.01 0 -67.6 0 -463.83 0 -67.6 0 -0.01 0 -0.84 -0.01 -0.01 0 -0.84 -0.03 -0.01 0 -0.83 -0.06 -0.01 0 -0.83 -0.07 -0.83 -0.1 -0.82 -0.11 -0.01 0 -0.81 -0.14 -0.81 -0.16 -0.8 -0.17 -0.01 0 -0.79 -0.2 -0.79 -0.21 -0.78 -0.24 -0.77 -0.25 -0.76 -0.27 -0.01 0 -0.75 -0.29 -0.75 -0.3 -0.74 -0.33 -0.72 -0.34 -0.01 0 -0.71 -0.36 -0.01 0 -0.7 -0.37 -0.01 0 -0.69 -0.39 -0.69 -0.41 -0.68 -0.43 -0.66 -0.44 -0.01 0 -0.65 -0.45 -0.64 -0.47 -0.01 0 -0.63 -0.49 -0.62 -0.5 -0.6 -0.51 -0.01 0 -0.59 -0.53 -0.58 -0.54 -0.57 -0.56 -0.56 -0.57 -0.54 -0.58 -0.53 -0.59 0 -0.01 -0.51 -0.6 -0.5 -0.62 -0.49 -0.63 0 -0.01 -0.47 -0.64 -0.45 -0.65 0 -0.01 -0.44 -0.66 -0.43 -0.68 -0.41 -0.69 -0.39 -0.69 0 -0.01 -0.37 -0.7 0 -0.01 -0.36 -0.71 0 -0.01 -0.34 -0.72 -0.33 -0.74 -0.3 -0.75 -0.29 -0.75 0 -0.01 -0.27 -0.76 -0.25 -0.77 -0.24 -0.78 -0.21 -0.79 -0.2 -0.79 0 -0.01 -0.17 -0.8 -0.16 -0.81 -0.14 -0.81 0 -0.01 -0.11 -0.82 -0.1 -0.83 -0.07 -0.83 0 -0.01 -0.06 -0.83 0 -0.01 -0.03 -0.84 0 -0.01 -0.01 -0.84 0 -0.01 0 -67.59 0 -329.33 0 -67.59 0 -0.01 0.01 -0.84 0 -0.01 0.03 -0.84 0 -0.01 0.06 -0.83 0 -0.01 0.07 -0.83 0.1 -0.83 0.11 -0.82 0 -0.01 0.14 -0.81 0.16 -0.81 0.17 -0.8 0 -0.01 0.2 -0.79 0.21 -0.79 0.24 -0.78 0.25 -0.77 0.27 -0.76 0 -0.01 0.29 -0.75 0.3 -0.75 0.33 -0.74 0.34 -0.72 0 -0.01 0.36 -0.71 0 -0.01 0.37 -0.7 0 -0.01 0.39 -0.69 0.41 -0.69 0.43 -0.68 0.44 -0.66 0 -0.01 0.45 -0.65 0.47 -0.64 0 -0.01 0.49 -0.63 0.5 -0.62 0.51 -0.6 0 -0.01 0.53 -0.59 0.54 -0.58 0.56 -0.57 0.57 -0.56 0.58 -0.54 0.59 -0.53 0.01 0 0.6 -0.51 0.62 -0.5 0.63 -0.49 0.01 0 0.64 -0.47 0.65 -0.45 0.01 0 0.66 -0.44 0.68 -0.43 0.69 -0.41 0.69 -0.39 0.01 0 0.7 -0.37 0.01 0 0.71 -0.36 0.01 0 0.72 -0.34 0.74 -0.33 0.75 -0.3 0.75 -0.29 0.01 0 0.76 -0.27 0.77 -0.25 0.78 -0.24 0.79 -0.21 0.79 -0.2 0.01 0 0.8 -0.17 0.81 -0.16 0.81 -0.14 0.01 0 0.82 -0.11 0.83 -0.1 0.83 -0.07 0.01 0 0.83 -0.06 0.01 0 0.84 -0.03 0.01 0 0.84 -0.01 0.01 0 67.6 0 463.83 0zm-731.61 497.65l0 -138.78 -493.86 0 0 138.78c0,18.22 -14.9,33.12 -33.12,33.12l-67.61 0c-18.22,0 -33.12,-14.9 -33.12,-33.12l0 -171.91 0 -67.59 0 -0.01 0.01 -0.84 0 -0.01 0.03 -0.84 0 -0.01 0.06 -0.83 0 -0.01 0.07 -0.83 0.1 -0.83 0.11 -0.82 0 -0.01 0.14 -0.81 0.16 -0.81 0.17 -0.8 0 -0.01 0.2 -0.79 0.21 -0.79 0.24 -0.78 0.25 -0.77 0.27 -0.76 0 -0.01 0.29 -0.75 0.3 -0.75 0.33 -0.74 0.34 -0.72 0 -0.01 0.36 -0.71 0 -0.01 0.37 -0.7 0 -0.01 0.39 -0.69 0.41 -0.69 0.43 -0.68 0.44 -0.66 0 -0.01 0.45 -0.65 0.47 -0.64 0 -0.01 0.49 -0.63 0.5 -0.62 0.51 -0.6 0 -0.01 0.53 -0.59 0.54 -0.58 0.56 -0.57 0.57 -0.56 0.58 -0.54 0.59 -0.53 0.61 -0.51 0.62 -0.5 0.63 -0.49 0.65 -0.47 0.65 -0.45 0.67 -0.44 0.68 -0.43 0.69 -0.41 0.69 -0.39 0.71 -0.37 0.72 -0.36 0.73 -0.34 0.74 -0.33 0.75 -0.3 0.75 -0.29 0.77 -0.27 0.77 -0.25 0.78 -0.24 0.79 -0.21 0.79 -0.2 0.81 -0.17 0.81 -0.16 0.81 -0.14 0.83 -0.11 0.83 -0.1 0.83 -0.07 0.84 -0.06 0.85 -0.03 0.85 -0.01 47.11 0 0 -191.9c0,-18.22 14.9,-33.12 33.12,-33.12l67.61 0c18.22,0 33.12,14.9 33.12,33.12l0 191.9 331.23 0 0 -191.9c0,-18.22 14.9,-33.12 33.12,-33.12l67.61 0c18.22,0 33.12,14.9 33.12,33.12l0 191.9 47.11 0 2.17 0c18.22,0 33.12,14.9 33.12,33.12l0 239.51c0,18.22 -14.9,33.12 -33.12,33.12l-67.61 0c-18.22,0 -33.12,-14.9 -33.12,-33.12zm-1150.19 -253.69l329.09 0 0 -110.11 -397.59 0 0 363.8c0,18.22 -14.9,33.12 -33.12,33.12l-67.61 0c-18.22,0 -33.12,-14.9 -33.12,-33.12l0 -396.93 0 -67.59 0 -0.01 0.01 -0.84 0 -0.01 0.03 -0.84 0 -0.01 0.06 -0.83 0 -0.01 0.07 -0.83 0.1 -0.83 0.11 -0.82 0 -0.01 0.14 -0.81 0.16 -0.81 0.17 -0.8 0 -0.01 0.2 -0.79 0.21 -0.79 0.24 -0.78 0.25 -0.77 0.27 -0.76 0 -0.01 0.29 -0.75 0.3 -0.75 0.33 -0.74 0.34 -0.72 0 -0.01 0.36 -0.71 0 -0.01 0.37 -0.7 0 -0.01 0.39 -0.69 0.41 -0.69 0.43 -0.68 0.44 -0.66 0 -0.01 0.45 -0.65 0.47 -0.64 0 -0.01 0.49 -0.63 0.5 -0.62 0.51 -0.6 0 -0.01 0.53 -0.59 0.54 -0.58 0.56 -0.57 0.57 -0.56 0.58 -0.54 0.59 -0.53 0.01 0 0.6 -0.51 0.62 -0.5 0.63 -0.49 0.01 0 0.64 -0.47 0.65 -0.45 0.01 0 0.66 -0.44 0.68 -0.43 0.69 -0.41 0.69 -0.39 0.01 0 0.7 -0.37 0.01 0 0.71 -0.36 0.01 0 0.72 -0.34 0.74 -0.33 0.75 -0.3 0.75 -0.29 0.01 0 0.76 -0.27 0.77 -0.25 0.78 -0.24 0.79 -0.21 0.79 -0.2 0.01 0 0.8 -0.17 0.81 -0.16 0.81 -0.14 0.01 0 0.82 -0.11 0.83 -0.1 0.83 -0.07 0.01 0 0.83 -0.06 0.01 0 0.84 -0.03 0.01 0 0.84 -0.01 0.01 0 67.6 0 463.83 0 67.6 0 0.01 0 0.84 0.01 0.01 0 0.84 0.03 0.01 0 0.83 0.06 0.01 0 0.83 0.07 0.83 0.1 0.82 0.11 0.01 0 0.81 0.14 0.81 0.16 0.8 0.17 0.01 0 0.79 0.2 0.79 0.21 0.78 0.24 0.77 0.25 0.76 0.27 0.01 0 0.75 0.29 0.75 0.3 0.74 0.33 0.72 0.34 0.01 0 0.71 0.36 0.01 0 0.7 0.37 0.01 0 0.69 0.39 0.69 0.41 0.68 0.43 0.66 0.44 0.01 0 0.65 0.45 0.64 0.47 0.01 0 0.63 0.49 0.62 0.5 0.6 0.51 0.01 0 0.59 0.53 0.58 0.54 0.57 0.56 0.56 0.57 0.54 0.58 0.53 0.59 0 0.01 0.51 0.6 0.5 0.62 0.49 0.63 0 0.01 0.47 0.64 0.45 0.65 0 0.01 0.44 0.66 0.43 0.68 0.41 0.69 0.39 0.69 0 0.01 0.37 0.7 0 0.01 0.36 0.71 0 0.01 0.34 0.72 0.33 0.74 0.3 0.75 0.29 0.75 0 0.01 0.27 0.76 0.25 0.77 0.24 0.78 0.21 0.79 0.2 0.79 0 0.01 0.17 0.8 0.16 0.81 0.14 0.81 0 0.01 0.11 0.82 0.1 0.83 0.07 0.83 0 0.01 0.06 0.83 0 0.01 0.03 0.84 0 0.01 0.01 0.84 0 0.01 0 67.59 0 176.37 0 67.59 0 152.97c0,18.22 -14.9,33.12 -33.12,33.12l-67.61 0c-18.22,0 -33.12,-14.9 -33.12,-33.12l0 -119.84 -329.09 0c-18.23,0 -33.13,-14.9 -33.13,-33.13l0 -67.59c0,-18.23 14.9,-33.13 33.13,-33.13zm-1139.29 253.69l0 -313.84 -196.31 153.04 -198.8 -154.98 0 315.78c0,18.22 -14.9,33.12 -33.12,33.12l-67.61 0c-18.22,0 -33.12,-14.9 -33.12,-33.12l0 -464.53c0,-18.22 14.9,-33.12 33.12,-33.12l67.61 0c1.07,0 2.14,0.05 3.18,0.15 8.06,-0.75 16.4,1.43 23.24,6.77l205.5 160.79 205.5 -160.79c6.49,-5.07 14.32,-7.28 21.99,-6.86l1.94 -0.06 67.61 0c18.22,0 33.12,14.9 33.12,33.12l0 464.53c0,18.22 -14.9,33.12 -33.12,33.12l-67.61 0c-18.22,0 -33.12,-14.9 -33.12,-33.12zm238.36 -100.73l498.31 0 0 -64.61 -430.71 0 -67.6 0 -0.01 0 -0.84 -0.01 -0.01 0 -0.84 -0.03 -0.01 0 -0.83 -0.06 -0.01 0 -0.83 -0.07 -0.83 -0.1 -0.82 -0.11 -0.01 0 -0.81 -0.14 -0.81 -0.16 -0.8 -0.17 -0.01 0 -0.79 -0.2 -0.79 -0.21 -0.78 -0.24 -0.77 -0.25 -0.76 -0.27 -0.01 0 -0.75 -0.29 -0.75 -0.3 -0.74 -0.33 -0.72 -0.34 -0.01 0 -0.71 -0.36 -0.01 0 -0.7 -0.37 -0.01 0 -0.69 -0.39 -0.69 -0.41 -0.68 -0.43 -0.66 -0.44 -0.01 0 -0.65 -0.45 -0.64 -0.47 -0.01 0 -0.63 -0.49 -0.62 -0.5 -0.6 -0.51 -0.01 0 -0.59 -0.53 -0.58 -0.54 -0.57 -0.56 -0.56 -0.57 -0.54 -0.58 -0.53 -0.59 0 -0.01 -0.51 -0.6 -0.5 -0.62 -0.49 -0.63 0 -0.01 -0.47 -0.64 -0.45 -0.65 0 -0.01 -0.44 -0.66 -0.43 -0.68 -0.41 -0.69 -0.39 -0.69 0 -0.01 -0.37 -0.7 0 -0.01 -0.36 -0.71 0 -0.01 -0.34 -0.72 -0.33 -0.74 -0.3 -0.75 -0.29 -0.75 0 -0.01 -0.27 -0.76 -0.25 -0.77 -0.24 -0.78 -0.21 -0.79 -0.2 -0.79 0 -0.01 -0.17 -0.8 -0.16 -0.81 -0.14 -0.81 0 -0.01 -0.11 -0.82 -0.1 -0.83 -0.07 -0.83 0 -0.01 -0.06 -0.83 0 -0.01 -0.03 -0.84 0 -0.01 -0.01 -0.84 0 -0.01 0 -67.59 0 -130.87 0 -67.59 0 -0.01 0.01 -0.84 0 -0.01 0.03 -0.84 0 -0.01 0.06 -0.83 0 -0.01 0.07 -0.83 0.1 -0.83 0.11 -0.82 0 -0.01 0.14 -0.81 0.16 -0.81 0.17 -0.8 0 -0.01 0.2 -0.79 0.21 -0.79 0.24 -0.78 0.25 -0.77 0.27 -0.76 0 -0.01 0.29 -0.75 0.3 -0.75 0.33 -0.74 0.34 -0.72 0 -0.01 0.36 -0.71 0 -0.01 0.37 -0.7 0 -0.01 0.39 -0.69 0.41 -0.69 0.43 -0.68 0.44 -0.66 0 -0.01 0.45 -0.65 0.47 -0.64 0 -0.01 0.49 -0.63 0.5 -0.62 0.51 -0.6 0 -0.01 0.53 -0.59 0.54 -0.58 0.56 -0.57 0.57 -0.56 0.58 -0.54 0.59 -0.53 0.01 0 0.6 -0.51 0.62 -0.5 0.63 -0.49 0.01 0 0.64 -0.47 0.65 -0.45 0.01 0 0.66 -0.44 0.68 -0.43 0.69 -0.41 0.69 -0.39 0.01 0 0.7 -0.37 0.01 0 0.71 -0.36 0.01 0 0.72 -0.34 0.74 -0.33 0.75 -0.3 0.75 -0.29 0.01 0 0.76 -0.27 0.77 -0.25 0.78 -0.24 0.79 -0.21 0.79 -0.2 0.01 0 0.8 -0.17 0.81 -0.16 0.81 -0.14 0.01 0 0.82 -0.11 0.83 -0.1 0.83 -0.07 0.01 0 0.83 -0.06 0.01 0 0.84 -0.03 0.01 0 0.84 -0.01 0.01 0 67.6 0 531.43 0c18.23,0 33.13,14.9 33.13,33.13l0 67.59c0,18.23 -14.9,33.13 -33.13,33.13l-498.31 0 0 64.61 430.71 0 67.6 0 0.01 0 0.84 0.01 0.01 0 0.84 0.03 0.01 0 0.83 0.06 0.01 0 0.83 0.07 0.83 0.1 0.82 0.11 0.01 0 0.81 0.14 0.81 0.16 0.8 0.17 0.01 0 0.79 0.2 0.79 0.21 0.78 0.24 0.77 0.25 0.76 0.27 0.01 0 0.75 0.29 0.75 0.3 0.74 0.33 0.72 0.34 0.01 0 0.71 0.36 0.01 0 0.7 0.37 0.01 0 0.69 0.39 0.69 0.41 0.68 0.43 0.66 0.44 0.01 0 0.65 0.45 0.64 0.47 0.01 0 0.63 0.49 0.62 0.5 0.6 0.51 0.01 0 0.59 0.53 0.58 0.54 0.57 0.56 0.56 0.57 0.54 0.58 0.53 0.59 0 0.01 0.51 0.6 0.5 0.62 0.49 0.63 0 0.01 0.47 0.64 0.45 0.65 0 0.01 0.44 0.66 0.43 0.68 0.41 0.69 0.39 0.69 0 0.01 0.37 0.7 0 0.01 0.36 0.71 0 0.01 0.34 0.72 0.33 0.74 0.3 0.75 0.29 0.75 0 0.01 0.27 0.76 0.25 0.77 0.24 0.78 0.21 0.79 0.2 0.79 0 0.01 0.17 0.8 0.16 0.81 0.14 0.81 0 0.01 0.11 0.82 0.1 0.83 0.07 0.83 0 0.01 0.06 0.83 0 0.01 0.03 0.84 0 0.01 0.01 0.84 0 0.01 0 67.59 0 130.87 0 67.59 0 0.01 -0.01 0.84 0 0.01 -0.03 0.84 0 0.01 -0.06 0.83 0 0.01 -0.07 0.83 -0.1 0.83 -0.11 0.82 0 0.01 -0.14 0.81 -0.16 0.81 -0.17 0.8 0 0.01 -0.2 0.79 -0.21 0.79 -0.24 0.78 -0.25 0.77 -0.27 0.76 0 0.01 -0.29 0.75 -0.3 0.75 -0.33 0.74 -0.34 0.72 0 0.01 -0.36 0.71 0 0.01 -0.37 0.7 0 0.01 -0.39 0.69 -0.41 0.69 -0.43 0.68 -0.44 0.66 0 0.01 -0.45 0.65 -0.47 0.64 0 0.01 -0.49 0.63 -0.5 0.62 -0.51 0.6 0 0.01 -0.53 0.59 -0.54 0.58 -0.56 0.57 -0.57 0.56 -0.58 0.54 -0.59 0.53 -0.01 0 -0.6 0.51 -0.62 0.5 -0.63 0.49 -0.01 0 -0.64 0.47 -0.65 0.45 -0.01 0 -0.66 0.44 -0.68 0.43 -0.69 0.41 -0.69 0.39 -0.01 0 -0.7 0.37 -0.01 0 -0.71 0.36 -0.01 0 -0.72 0.34 -0.74 0.33 -0.75 0.3 -0.75 0.29 -0.01 0 -0.76 0.27 -0.77 0.25 -0.78 0.24 -0.79 0.21 -0.79 0.2 -0.01 0 -0.8 0.17 -0.81 0.16 -0.81 0.14 -0.01 0 -0.82 0.11 -0.83 0.1 -0.83 0.07 -0.01 0 -0.83 0.06 -0.01 0 -0.84 0.03 -0.01 0 -0.84 0.01 -0.01 0 -67.6 0 -531.43 0c-18.23,0 -33.13,-14.9 -33.13,-33.13l0 -67.59c0,-18.23 14.9,-33.13 33.13,-33.13zm-1501.51 100.73l0 -396.93 0 -67.59 0 -0.01 0.01 -0.84 0 -0.01 0.03 -0.84 0 -0.01 0.06 -0.83 0 -0.01 0.07 -0.83 0.1 -0.83 0.11 -0.82 0 -0.01 0.14 -0.81 0.16 -0.81 0.17 -0.8 0 -0.01 0.2 -0.79 0.21 -0.79 0.24 -0.78 0.25 -0.77 0.27 -0.76 0 -0.01 0.29 -0.75 0.3 -0.75 0.33 -0.74 0.34 -0.72 0 -0.01 0.36 -0.71 0 -0.01 0.37 -0.7 0 -0.01 0.39 -0.69 0.41 -0.69 0.43 -0.68 0.44 -0.66 0 -0.01 0.45 -0.65 0.47 -0.64 0 -0.01 0.49 -0.63 0.5 -0.62 0.51 -0.6 0 -0.01 0.53 -0.59 0.54 -0.58 0.56 -0.57 0.57 -0.56 0.58 -0.54 0.59 -0.53 0.01 0 0.6 -0.51 0.62 -0.5 0.63 -0.49 0.01 0 0.64 -0.47 0.65 -0.45 0.01 0 0.66 -0.44 0.68 -0.43 0.69 -0.41 0.69 -0.39 0.01 0 0.7 -0.37 0.01 0 0.71 -0.36 0.01 0 0.72 -0.34 0.74 -0.33 0.75 -0.3 0.75 -0.29 0.01 0 0.76 -0.27 0.77 -0.25 0.78 -0.24 0.79 -0.21 0.79 -0.2 0.01 0 0.8 -0.17 0.81 -0.16 0.81 -0.14 0.01 0 0.82 -0.11 0.83 -0.1 0.83 -0.07 0.01 0 0.83 -0.06 0.01 0 0.84 -0.03 0.01 0 0.84 -0.01 0.01 0 67.6 0 463.83 0 67.6 0 0.01 0 0.84 0.01 0.01 0 0.84 0.03 0.01 0 0.83 0.06 0.01 0 0.83 0.07 0.83 0.1 0.82 0.11 0.01 0 0.81 0.14 0.81 0.16 0.8 0.17 0.01 0 0.79 0.2 0.79 0.21 0.78 0.24 0.77 0.25 0.76 0.27 0.01 0 0.75 0.29 0.75 0.3 0.74 0.33 0.72 0.34 0.01 0 0.71 0.36 0.01 0 0.7 0.37 0.01 0 0.69 0.39 0.69 0.41 0.68 0.43 0.66 0.44 0.01 0 0.65 0.45 0.64 0.47 0.01 0 0.63 0.49 0.62 0.5 0.6 0.51 0.01 0 0.59 0.53 0.58 0.54 0.57 0.56 0.56 0.57 0.54 0.58 0.53 0.59 0 0.01 0.51 0.6 0.5 0.62 0.49 0.63 0 0.01 0.47 0.64 0.45 0.65 0 0.01 0.44 0.66 0.43 0.68 0.41 0.69 0.39 0.69 0 0.01 0.37 0.7 0 0.01 0.36 0.71 0 0.01 0.34 0.72 0.33 0.74 0.3 0.75 0.29 0.75 0 0.01 0.27 0.76 0.25 0.77 0.24 0.78 0.21 0.79 0.2 0.79 0 0.01 0.17 0.8 0.16 0.81 0.14 0.81 0 0.01 0.11 0.82 0.1 0.83 0.07 0.83 0 0.01 0.06 0.83 0 0.01 0.03 0.84 0 0.01 0.01 0.84 0 0.01 0 67.59 0 176.37 0 67.59 0 152.97c0,18.22 -14.9,33.12 -33.12,33.12l-67.61 0c-18.22,0 -33.12,-14.9 -33.12,-33.12l0 -119.84 -329.09 0c-18.23,0 -33.13,-14.9 -33.13,-33.13l0 -67.59c0,-18.23 14.9,-33.13 33.13,-33.13l329.09 0 0 -110.11 -397.59 0 0 363.8c0,18.22 -14.9,33.12 -33.12,33.12l-67.61 0c-18.22,0 -33.12,-14.9 -33.12,-33.12zm-1215.92 -0.01l0 -363.79 -219.33 0c-18.23,0 -33.13,-14.9 -33.13,-33.13l0 -67.59c0,-18.23 14.9,-33.13 33.13,-33.13l252.46 0 67.59 0 278.98 0c18.23,0 33.13,14.9 33.13,33.13l0 67.59c0,18.23 -14.9,33.13 -33.13,33.13l-245.85 0 0 363.79c0,18.23 -14.9,33.13 -33.13,33.13l-67.59 0c-18.23,0 -33.13,-14.9 -33.13,-33.13z"/>
  </g>
 </g>
</svg>
