<?xml version="1.0" encoding="UTF-8"?><svg id="Layer_1" xmlns="http://www.w3.org/2000/svg" viewBox="0 0 288 47.74"><defs><style>.cls-1{fill:#fff;}.cls-2{fill:#ed2227;}.cls-3{fill:#010101;}</style></defs><path class="cls-3" d="m245.19,35.49h4.9c-.37,1.05-.68,1.94-.94,2.67-.25.73-.47,1.34-.64,1.83-.17.49-.3.87-.38,1.16-.08.29-.15.5-.2.65-.05.15-.07.25-.08.3,0,.05-.01.1-.01.13-.08.31-.12.52-.12.62,0,.4.1.72.29.95.19.23.44.35.75.35h1.09c.32,0,.62-.07.89-.21.27-.14.51-.3.73-.5.22-.19.4-.4.57-.64.16-.23.29-.44.38-.62l-.02.05,2.47-6.72h4.92l-2.17,5.85c-.39,1.03-.77,1.94-1.17,2.74-.39.79-.85,1.46-1.36,2.01-.52.55-1.11.96-1.78,1.24-.67.28-1.48.42-2.41.42h-2.59c-1.09,0-2.01-.07-2.75-.2-.74-.13-1.33-.34-1.77-.61-.44-.28-.75-.64-.94-1.09-.18-.45-.28-.99-.28-1.64,0-.18.01-.37.03-.54.02-.18.05-.37.08-.59.09-.46.24-1.02.44-1.66.03-.12.07-.25.1-.39.04-.14.07-.28.1-.42l1.85-5.11h0Z"/><path class="cls-3" d="m266.95,43.47s0-.07.02-.07h-4.44c-.49,0-.94-.12-1.34-.35-.4-.23-.74-.53-1.03-.89-.29-.36-.5-.76-.66-1.19-.15-.43-.23-.85-.23-1.27,0-.38.11-.82.33-1.31.22-.49.52-.94.88-1.37.36-.43.77-.79,1.22-1.09.45-.29.91-.44,1.37-.44h11.99c-.45.66-.94,1.3-1.47,1.91-.53.61-1.09,1.18-1.68,1.72h-7.46c-.08,0-.14.07-.2.21-.05.14-.08.25-.08.32v.12s0-.04.01-.08c0-.04.02-.05.03-.03l.09.09s.09.08.18.14h4.25c.55,0,1.02.13,1.4.38.38.25.69.57.92.94.24.37.41.77.52,1.2.11.43.16.83.16,1.2v.14c0,.42-.1.85-.29,1.32-.19.46-.45.89-.77,1.29-.32.4-.69.73-1.11.99-.42.26-.85.39-1.29.39h-11.88c.09-.17.28-.45.57-.84.28-.39.59-.79.9-1.2.32-.41.61-.77.88-1.07.27-.31.44-.46.5-.46h7.58s.07-.03.08-.09c0-.06.01-.13.01-.21v-.39h0Z"/><path class="cls-3" d="m288,47.74h-4.64l-.37-1.94c-.14.18-.3.39-.47.6-.18.22-.35.42-.53.6-.18.18-.34.35-.49.49-.15.14-.26.22-.34.25h-9.89l8.2-10.81-.02.05c.05-.09.15-.22.3-.38.15-.16.32-.32.51-.49.18-.16.37-.3.55-.43.18-.12.34-.18.46-.18h3.72c.23,0,.42.09.58.27.15.18.29.39.4.64.12.25.21.5.29.77.08.27.14.5.18.7l1.55,9.87h0Zm-8.8-3.58h3.6l-.6-3.97-3,3.97h0Z"/><path class="cls-3" d="m218.17,36.29l5.91-5.09h-4.97l5.29-14.76c-.06,0-.13,0-.19,0h-1.95l-5.45,14.76h-23.23l-.03.04h-24.31l.03-.04h-15.17l-.23-1.25-.47,1.25h-15.04l.62-1.67c-.36.18-.72.35-1.09.5-1.83.77-3.76,1.17-5.74,1.17h-4.46c-1.66,0-3.22-.14-4.65-.41-1.63-.31-3.08-.87-4.33-1.67-.73-.47-1.39-1.03-1.95-1.68-.07.09-.14.18-.21.26-.76.94-1.65,1.73-2.64,2.36-1.2.75-2.48,1.14-3.83,1.14h-49.45l1.5-4.05-.06.09c-.12.18-.29.43-.51.75-.3.43-.63.84-1,1.23-.36.38-.72.71-1.09,1.01-.81.65-1.68.98-2.57.98h-4.5c-.68,0-2.83-.22-3.83-2.88-.29.42-.61.82-.95,1.21-.94,1.07-2.17,1.67-3.47,1.67h-4.54c-.06,0-.12,0-.18,0,.1.56.91,5.05.91,5.05h-14.16l-.77-5.06H1.41L19.11,7.86c1.13-1.51,1.53-1.86,1.68-1.99l.1-.09c.29-.25.58-.51,1.03-.81,1-.67,2.11-.77,2.69-.77h5.56c.84,0,1.44,0,2.01.11,1.53.29,2.63,1.31,2.93,2.74,0,.03.03.17.07.39v-3.23h13.48v1.42l.94-1.42h11.16l.11,1.62,1.04-1.62h38.69v.03c.18-.02.38-.03.57-.03h26.18l-.2.3c.88-.2,1.77-.3,2.66-.3h5.64c1.72,0,3.32.16,4.75.49,1.62.36,3.03.98,4.2,1.82.91.65,1.67,1.44,2.28,2.35l1.74-4.65h14.74l1.16,5.97,5.64-5.97h15.98l-3.66,9.79,4.62-6.1c1.13-1.51,1.53-1.86,1.68-1.99l.1-.09c.29-.25.58-.51,1.03-.81,1-.67,2.11-.76,2.69-.76h5.56c.84,0,1.44,0,2.01.11,1.53.29,2.63,1.31,2.93,2.74.02.1.2,1.01.46,2.41.3-.39.64-.81,1-1.25.54-.65,1.11-1.3,1.7-1.92.71-.75,1.34-1.29,1.92-1.66l.75-.48h43.02l.94,2.32,6.94-5.84h19.15l-21.05,18,5.1,12.49h-15.84l-1.02-2.41-8.75,7.5h-19.07Zm-12.56-15.09h0l1.75-4.76h-2.65c.3,1.6.62,3.24.9,4.76h0Zm32.39-2.01h0l2.96-2.55-1.1-2.65-1.86,5.2h0Zm-106.68-.22h0s.01,0,.02,0c.27-.13.57-.3.89-.52.33-.23.65-.48.95-.76.26-.25.35-.39.37-.41l.04-.07.04-.07s.04-.06.05-.08l.11-.26c0-.07.02-.14.03-.21v-.13h-3s-.01,0-.02,0c-.22.1-.44.24-.67.42-.25.19-.48.41-.69.65-.13.15-.24.29-.33.43-.11.23-.19.44-.26.62,0,0,0,0,0,0,0,.04.02.09.04.16.03.1.07.18.11.24h2.32Zm-38.52,0h0c-.23-.44-.43-.89-.6-1.35-.06-.17-.12-.34-.17-.51l-2,1.86h2.77Z"/><path class="cls-2" d="m237.5,36.99h-21.22l5.91-5.09h-4.08l5.29-14.76h-.65l-5.44,14.76h-23.41l-.03.04h-26.03l.03-.04h-30.51l.39-1.05c-1.79.7-3.66,1.05-5.58,1.05h-4.46c-1.7,0-3.31-.14-4.78-.42-1.72-.33-3.26-.92-4.58-1.77-.55-.35-1.06-.76-1.53-1.21-.74.85-1.58,1.57-2.51,2.15-1.31.83-2.72,1.24-4.2,1.24h-50.46l.48-1.3c-.07.06-.13.11-.2.16-.94.75-1.95,1.14-3.01,1.14h-4.5c-.66,0-2.68-.18-3.96-2.25-.1.12-.19.23-.29.35-1.08,1.23-2.5,1.91-3.99,1.91h-3.87l.91,5.05h-15.61l-.77-5.06H0L18.55,7.44c1.17-1.56,1.6-1.94,1.78-2.1l.1-.09c.29-.25.62-.54,1.1-.87,1.15-.77,2.42-.88,3.08-.88h5.56c.88,0,1.5,0,2.14.13.85.16,1.59.51,2.17,1.02v-1.13h26.95v.16s.12-.16.12-.16h67.15l-.04.05c.39-.04.79-.05,1.18-.05h5.64c1.77,0,3.42.17,4.91.51,1.71.39,3.21,1.04,4.45,1.93.61.44,1.16.94,1.65,1.49l1.47-3.93h15.81l1.01,5.2,4.91-5.2h17.29l-2.34,6.26,1.73-2.28c1.17-1.56,1.6-1.94,1.78-2.1l.1-.09c.29-.25.62-.54,1.1-.87,1.15-.77,2.42-.88,3.08-.88h5.56c.88,0,1.5,0,2.14.13,1.82.34,3.13,1.57,3.49,3.29.01.06.07.37.18.93.02-.02.03-.04.05-.06.55-.67,1.13-1.32,1.73-1.95.75-.79,1.42-1.37,2.05-1.77l.92-.59h43.7l.75,1.86,6.4-5.38h21.3l-22.11,18.91,5.3,12.99h-17.35l-.83-1.95-8.22,7.05h0Zm-17.44-1.4h16.92l9.28-7.96,1.21,2.87h14.33l-4.9-11.99,19.99-17.1h-16.99l-7.48,6.29-1.12-2.78h-42.34l-.58.37c-.53.34-1.11.85-1.79,1.56-.58.61-1.14,1.24-1.67,1.88-.35.43-.68.84-.98,1.23l-.95,1.24-.29-1.54c-.39-2.04-.45-2.36-.46-2.4-.25-1.16-1.11-1.96-2.37-2.2-.51-.1-1.08-.1-1.88-.1h-5.56c-.5,0-1.45.08-2.3.65-.41.27-.67.51-.95.75l-.1.09c-.12.11-.5.44-1.58,1.89l-7.52,9.91,4.98-13.33h-14.66l-6.37,6.75-1.31-6.75h-13.68l-2.05,5.48-.76-1.14c-.56-.84-1.27-1.57-2.11-2.17-1.09-.79-2.42-1.36-3.94-1.7-1.39-.31-2.93-.47-4.6-.47h-5.64c-.83,0-1.68.09-2.51.28l-1.72.38.45-.66h-24.86c-.17,0-.35,0-.53.02l-1.25.11.07-.13h-37.16l-1.98,3.08-.21-3.08h-10.13l-2.02,3.04v-3.04h-12.08v2.53l-1.39.13c-.04-.21-.06-.33-.07-.37-.25-1.16-1.11-1.96-2.37-2.2-.51-.1-1.08-.1-1.88-.1h-5.56c-.5,0-1.45.08-2.3.65-.41.27-.67.51-.96.75l-.1.09c-.12.11-.5.44-1.58,1.88L2.83,30.48h23.2l.77,5.06h12.72l-.91-5.09.88.04s.1,0,.15,0h4.54c1.09,0,2.13-.51,2.94-1.43.32-.37.63-.76.91-1.15l.76-1.09.47,1.24c.82,2.19,2.49,2.42,3.17,2.42h4.5c.73,0,1.44-.28,2.13-.83.34-.27.69-.59,1.02-.94.34-.36.66-.74.93-1.14.22-.32.39-.56.51-.74l3.4-5.13-3.25,8.78h48.45c1.21,0,2.37-.35,3.45-1.03.93-.58,1.76-1.32,2.47-2.2.07-.08.13-.16.19-.25l.52-.68.57.65c.52.59,1.12,1.11,1.8,1.55,1.17.75,2.54,1.28,4.08,1.57,1.39.26,2.91.4,4.52.4h4.46c1.89,0,3.72-.37,5.47-1.11.35-.15.7-.31,1.04-.48l1.6-.81-.9,2.41h13.54l1.18-3.16.59,3.16h16l-.03.04h22.59l.03-.04h23.04l5.45-14.76h2.44c.05,0,.1,0,.15,0l1.06-.06-5.31,14.82h5.87l-5.91,5.09h0Zm-14.67-11.75h0l-1.54-8.1h4.5l-2.97,8.1h0Zm.16-6.69h0l.27,1.43.52-1.43h-.8Zm30.89,4.32h0l3.36-9.42,2,4.8-5.36,4.62h0Zm3.46-5.52h0l-.35.99.56-.48-.21-.5h0Zm-111.28,3.73h0c-.6-.05-.85-1.11-.15-2.02.32-.41.81-1,1.22-1.34.47-.38.97-.58.97-.58h3.85s.07.61-.05,1.22c-.23,1.15-2.21,2.5-2.99,2.72,0,0-2.26.05-2.86,0h0Zm1.11-1.4h1.42c.21-.11.43-.24.68-.41.3-.21.59-.44.86-.69,0,0,.02-.02.03-.03h-1.74c-.14.07-.28.17-.43.28-.21.16-.41.35-.59.56-.09.1-.16.2-.23.29h0Zm-35.77,1.4h-5.72l4.14-3.85.32,1.08c.05.16.1.32.16.47.15.43.34.86.56,1.26l.55,1.03h0Z"/><path class="cls-1" d="m203.14,27.32h-7.93l-.56-3.28-3.12,3.31h-16.89l14.01-18.47s.94-1.26,1.26-1.53c.32-.28.5-.45.82-.66.32-.21.79-.25,1-.25h5.56c1.33,0,1.88.02,1.97.45.09.43,3.88,20.42,3.88,20.42h0Zm-14.96-6.08h6.16l-1.03-6.79-5.13,6.79h0Zm-152.15,11.13h-7.93l-1.27-8.37-3.12,3.31H6.82l14.01-18.47s.94-1.26,1.26-1.53c.32-.28.5-.45.82-.66.32-.21.79-.25,1-.25h5.56c1.33,0,1.88.02,1.97.45.09.43,4.6,25.52,4.6,25.52h0Zm-15.68-11.18h6.16l-1.03-6.79-5.13,6.79h0Zm37.43-6.86h0l5.09-7.93h8.09l-12.11,18.31c-.11.16-.26.39-.47.69-.21.3-.45.59-.71.87-.26.28-.53.52-.79.73-.26.21-.49.32-.67.32h-4.5c-.53,0-.9-.45-1.12-1.36-.22-.91-.44-2.36-.65-4.36-.05-.29-.09-.59-.1-.91-.01-.32-.05-.66-.1-1.03l-3.63,5.09c-.05.05-.12.14-.2.26-.08.12-.17.24-.28.37-.29.45-.62.88-.99,1.3-.37.42-.76.63-1.18.63h-4.54c-.29,0-.53-.14-.71-.41-.18-.28-.33-.61-.43-1.01-.11-.39-.18-.82-.22-1.28-.04-.46-.06-.87-.06-1.24V6.41h7.42v8.44l5.6-8.44h6.71l.55,7.93h0Zm14.24-7.93h22.96c-.21.42-.57.97-1.08,1.66-.51.68-1.05,1.36-1.62,2.03-.57.67-1.11,1.25-1.64,1.74-.53.49-.91.73-1.14.73h-11.32l-1.18,3.28,2.01-1.97h10.46l-6.63,6.16h-7.42l-.43,1.14h14.68c-.05.11-.15.29-.3.55-.15.26-.3.53-.47.81-.17.28-.33.53-.47.77-.14.24-.23.37-.26.39l.04-.08c-.24.32-.57.68-1.01,1.1-.43.42-.87.83-1.3,1.22-.43.39-.82.72-1.16.99-.34.26-.53.39-.55.39h-19.89l7.73-20.91h0Zm35.04,13.61h0c0-.08.01-.12.04-.12h-7.58c-.84,0-1.6-.2-2.29-.59-.68-.39-1.27-.9-1.76-1.52-.49-.62-.86-1.3-1.12-2.03-.26-.74-.39-1.46-.39-2.17,0-.66.19-1.4.57-2.23.38-.83.88-1.61,1.5-2.35.62-.74,1.32-1.35,2.09-1.85.78-.5,1.56-.75,2.35-.75h20.48c-.76,1.13-1.6,2.22-2.51,3.26-.91,1.04-1.86,2.02-2.86,2.94h-12.74c-.13,0-.24.12-.34.36-.09.24-.14.42-.14.55v.2s0-.07.02-.14c.01-.07.03-.09.06-.06l.16.16c.05.05.16.13.32.24h7.26c.95,0,1.74.22,2.39.65.64.43,1.17.97,1.58,1.6.41.63.7,1.32.89,2.05.18.74.28,1.42.28,2.05v.24c0,.71-.16,1.46-.49,2.25-.33.79-.77,1.53-1.32,2.21-.55.68-1.18,1.25-1.89,1.7-.71.45-1.45.67-2.21.67h-20.28c.16-.29.48-.77.97-1.44.49-.67,1-1.35,1.54-2.05.54-.7,1.04-1.31,1.5-1.83.46-.53.74-.79.85-.79h12.94c.08,0,.12-.05.14-.16.01-.1.02-.22.02-.36v-.67h0Zm37.37-3.91h0c-.24,1.47-.75,2.88-1.54,4.22-.79,1.34-1.77,2.53-2.94,3.57-1.17,1.04-2.49,1.87-3.95,2.49-1.46.62-2.98.93-4.56.93h-4.46c-1.47,0-2.83-.12-4.08-.36-1.25-.24-2.33-.65-3.26-1.24-.92-.59-1.64-1.38-2.15-2.37-.51-.99-.77-2.23-.77-3.73,0-.32.01-.64.04-.97.03-.33.07-.68.12-1.05.18-1.42.66-2.8,1.44-4.14.78-1.34,1.73-2.53,2.86-3.57,1.13-1.04,2.39-1.88,3.77-2.53,1.38-.64,2.77-.97,4.16-.97h5.64c1.5,0,2.86.14,4.08.41,1.22.28,2.26.72,3.1,1.32.84.61,1.49,1.37,1.95,2.31.46.93.69,2.07.69,3.41,0,.39-.01.78-.04,1.14-.03.37-.07.75-.12,1.14v-.04h0Zm-19.33,1.54h0c0,.39.07.8.22,1.22.14.42.34.8.59,1.12.25.33.55.61.89.83.34.22.7.34,1.07.34h3.16c.18,0,.49-.1.91-.3.42-.2.86-.45,1.32-.77.46-.32.89-.66,1.3-1.05.41-.38.72-.76.93-1.12.24-.37.37-.63.39-.79l.16-.39c.03-.13.05-.26.06-.37.01-.12.03-.24.06-.37v-.71c0-.34-.03-.67-.1-.99-.07-.32-.18-.6-.35-.87-.17-.26-.42-.47-.75-.63-.33-.16-.74-.24-1.24-.24h-3.71c-.37,0-.76.1-1.18.3-.42.2-.84.45-1.24.77-.41.32-.78.67-1.12,1.07-.34.39-.79,1.14-.79,1.14-.54.73-.55,1.82-.55,1.82h0Zm47.98,9.67h-8.52l3.39-9.27-8.64,9.27h-3.39l-1.78-9.51-3.55,9.51h-8.56l7.81-20.91h10.14l1.82,9.31,8.8-9.31h10.3l-7.81,20.91h0Zm32.51,0h0l5.41-14.76h-6.87v-.63c.03-.1.22-.41.59-.91.37-.5.8-1.05,1.3-1.66.5-.6,1.02-1.19,1.56-1.76.54-.57.99-.97,1.36-1.2h19.96c-.21.42-.57.97-1.07,1.66-.5.68-1.03,1.36-1.6,2.03-.57.67-1.1,1.25-1.62,1.74-.51.49-.89.73-1.12.73h-4.06l-5.45,14.76h-8.4Zm17.12,0h0l7.5-20.91h8.13l-7.46,20.91h-8.17Zm23.75-4.38h0l-11.05,9.47h-9.79l18.27-15.75-4.26-10.26h9.39l1.74,4.3,9.29-7.82h9.82l-16.47,14.09,4.22,10.34h-9.31l-1.85-4.38h0Z"/></svg>