<?xml version="1.0" encoding="UTF-8"?><svg id="Layer_1" xmlns="http://www.w3.org/2000/svg" viewBox="0 0 288 100.52"><defs><style>.cls-1,.cls-2{fill:#fff;}.cls-2,.cls-3,.cls-4{fill-rule:evenodd;}.cls-3,.cls-5{fill:#ed1c24;}.cls-6,.cls-4{fill:#1a091a;}</style></defs><path class="cls-3" d="m139.54,77.95c-11.37-11.47-15.98-23.38-18.46-34.04l-16.35,25.43h-38.2l13.49-20.97-23.77,20.97h-1.35C9.52,69.35,0,54.3,0,41.69,0,17.53,29.18,0,69.39,0h28.11l-1.82,14.94L112.61,0h57.31c26.38,0,30.32,8.72,30.32,13.91,0,6.31-5.08,18.2-38.62,27.93,2.87,8.24,8.52,15.21,14.27,21.54l3.77,4.15-38.59,11.96-1.52-1.54ZM67.19,21.77c-25.76,0-27.76,11.43-27.76,14.94,0,8.16,8.33,11.05,31.83,11.05h9.14l16.83-26.17h-2.37l-.02.19h-27.65Zm62.28,9.1c9.12-3.09,19.5-6.76,24.08-9.28h-18.12l-5.97,9.28Zm115.92,38.48c-45.37,0-54.89-15.04-54.89-27.66,0-24.15,29.18-41.69,69.39-41.69h28.11l-2.65,21.77h-27.65c-25.76,0-27.76,11.43-27.76,14.94,0,8.16,8.33,11.05,31.83,11.05h9.44l-24.47,21.59h-1.35Z"/><path class="cls-4" d="m141.06,76.44c-12.57-12.68-16.64-25.77-18.95-38.09l-18.55,28.85h-33.11l30.71-47.76h-7.35L113.42,2.14h56.5c17.91,0,28.17,4.29,28.17,11.77,0,4.73-3.85,16.67-39.18,26.47,2.7,9.53,8.97,17.37,15.39,24.44l1.51,1.66-34.14,10.58-.61-.62Zm-16.7-41.59c20.93-7.03,33.58-11.56,33.58-14.71,0-.42-1.07-.7-2.74-.7h-20.94l-9.91,15.41Zm121.03,32.35c-43.6,0-52.75-13.88-52.75-25.52,0-22.91,28.28-39.54,67.25-39.54h25.69l-2.13,17.49h-25.75c-27.75,0-29.91,13.07-29.91,17.08,0,11.03,12.46,13.19,33.98,13.19h3.78l-19.61,17.3h-.54Zm-190.5,0c-43.6,0-52.75-13.88-52.75-25.52C2.14,18.77,30.42,2.14,69.39,2.14h25.69l-2.13,17.49h-25.76c-27.75,0-29.9,13.07-29.9,17.08,0,11.03,12.46,13.19,33.98,13.19h3.78l-19.61,17.3h-.54Z"/><path class="cls-2" d="m73.07,65.78h29.71l29.64-46.1h-29.71l-29.64,46.1h0Zm-1.8-14.44c-21.23,0-35.41-1.99-35.41-14.62,0-6.64,4.77-18.51,31.33-18.51h24.49l1.78-14.63h-24.08C31.48,3.57,3.57,19.68,3.57,41.69c0,14.44,14.83,24.09,51.32,24.09l16.37-14.44h0Zm190.5,0c-21.23,0-35.41-1.99-35.41-14.62,0-6.64,4.77-18.51,31.33-18.51h24.49l1.78-14.63h-24.08c-37.9,0-65.82,16.11-65.82,38.12,0,14.44,14.83,24.09,51.32,24.09l16.37-14.44h0ZM97.59,18.02h57.62c1.85,0,4.17.27,4.17,2.12,0,4.08-9.64,7.72-36.11,16.59,2.52,14.15,6.78,26.57,18.81,38.71l31.17-9.66c-6.61-7.27-13.5-15.8-16.08-26.4,28.92-7.79,39.49-17.95,39.49-25.46,0-6.99-11.29-10.34-26.75-10.34h-55.96l-16.37,14.45h0Z"/><path class="cls-2" d="m142.28,74.63c-12.18-12.44-16-25.31-18.2-37.42,27.2-9.12,36.01-12.49,36.01-17.07,0-1.88-1.64-2.84-4.88-2.84h-55.73l14.75-13.02h55.69c16.3,0,26.03,3.6,26.03,9.63,0,6.9-10.24,17.03-38.96,24.77l-.67.18.17.68c2.49,10.23,8.85,18.49,15.49,25.88l-29.68,9.2Zm-67.91-9.56l28.73-44.67h28.02l-28.73,44.67h-28.02Zm170.75,0c-32.93-.04-50.34-8.12-50.34-23.37,0-21.67,27.38-37.4,65.1-37.4h23.27l-1.61,13.2h-23.86c-29.74,0-32.05,14.71-32.05,19.22,0,13.69,15.97,15.24,34.24,15.33l-14.76,13.02Zm-190.5,0c-32.93-.04-50.34-8.12-50.34-23.37C4.29,20.01,31.66,4.29,69.39,4.29h23.27l-1.61,13.2h-23.86c-29.74,0-32.05,14.71-32.05,19.22,0,13.69,15.97,15.24,34.24,15.33l-14.76,13.02Z"/><path class="cls-4" d="m77.2,63.74h24.53l26.84-41.73h-24.53l-26.84,41.73h0Zm12.69-47.57l1.25-10.27h-21.61c-14.16,0-29.61,2.31-42.43,8.59-8.89,4.36-17.77,11.38-20.43,21.36-.52,1.95-.78,3.96-.78,5.98,0,20.38,33.88,21.86,48.32,21.9l11.45-10.1c-10.22-.15-24.32-1.23-29.51-8.72-1.67-2.4-2.33-5.17-2.33-8.07,0-5.29,2.46-10.03,6.48-13.42,7.1-5.97,18.12-7.28,27.03-7.28h22.56Zm166.27,37.47c-10.22-.15-24.32-1.23-29.51-8.72-1.67-2.4-2.33-5.17-2.33-8.07,0-5.29,2.46-10.03,6.48-13.42,7.1-5.97,18.12-7.28,27.04-7.28h22.56l1.25-10.27h-21.61c-14.16,0-29.61,2.31-42.43,8.59-8.89,4.36-17.77,11.38-20.43,21.36-.52,1.95-.78,3.96-.78,5.98,0,20.38,33.89,21.86,48.32,21.9l11.45-10.1h0ZM114.92,5.9l-11.42,10.08h51.85c2.81,0,6.35.78,6.35,4.31,0,4.35-6.11,7.03-9.43,8.49-8.32,3.68-17.64,6.66-26.37,9.56,2.64,13.7,7.06,24.42,16.95,34.76l26.65-8.26c-6.37-7.29-11.98-15.21-14.31-24.81l-.5-2.07,2.06-.55c9.78-2.64,21.56-6.57,29.9-12.51,3.23-2.3,7.98-6.46,7.98-10.85,0-7.52-19.89-8.16-24.56-8.16h-55.13Z"/><g><path class="cls-5" d="m206.47,100.52c-3.28,0-5.59-1.77-6.56-4.89l.53,4.24-.62.22c-.67.24-1.87.39-3.15.39-6.1,0-8.27-4.28-8.27-8.29,0-6.07,4.42-8.79,8.8-8.79,1.49,0,2.54.25,3.02.49l.58.29-1.02,4.47-.88-.33c-.33-.13-.72-.24-1.33-.24-2.44,0-2.95,2.15-2.95,3.95,0,2.47.97,3.73,2.89,3.73.48,0,1.12-.08,1.51-.16l.83-.17c-.3-1.04-.45-2.22-.45-3.53,0-4.25,2.26-8.54,7.32-8.54,6.43,0,6.93,6.31,6.93,8.25,0,5.75-2.54,8.92-7.16,8.92h-.03Zm.11-12.51c-.07,0-.15.02-.27.14-.5.5-.8,1.92-.78,3.7-.04,1.96.23,3.37.74,3.88.1.1.19.15.31.15.38,0,.94-1.09.94-4.09,0-2.61-.47-3.77-.94-3.77Zm73.99,12.47c-1.8,0-3.4-.34-4.13-.65l-.6-.26.87-4.68.95.42c.67.3,1.9.51,2.93.51s1.53-.27,1.53-.53c0-.39-.37-.66-1.96-1.42-2.66-1.28-4.01-2.96-4.01-4.99,0-.15,0-.31.02-.46h-2.77v11.93h-5.96v-11.93h-2.43c.01.15.02.31.02.46,0,1.89-.7,3.41-2.09,4.53-1.41,1.09-3.52,1.5-4.97,1.53v5.4h-5.94v-16.46l.69-.11c1.18-.19,2.77-.3,4.26-.3,2.49,0,4.46.23,6.01,1.35.47.32.87.73,1.19,1.2v-2.48h12.52v3.05c.89-1.74,2.92-3.19,6.64-3.19,1.45,0,2.8.32,3.44.61l.59.27-.96,4.66-.95-.46c-.6-.29-1.31-.44-2.1-.44s-1.33.25-1.33.49c0,.13,0,.38,2.03,1.3,3.26,1.47,3.94,3.56,3.94,5.07,0,3.33-2.99,5.57-7.43,5.57Zm-22.61-9.98c.81-.08,1.15-.48,1.15-1.3,0-.88-.36-1.28-1.15-1.3v2.6Zm-21.42,9.98c-6.1,0-8.27-4.28-8.27-8.29,0-6.07,4.42-8.79,8.8-8.79,1.49,0,2.54.25,3.02.49l.44.22v-.57h10.26v4.65h-4.3v1.2h4.1v4.52h-4.1v1.78h4.61v4.65h-10.57v-15.55l-.88,3.85-.88-.33c-.33-.13-.72-.24-1.33-.24-2.44,0-2.95,2.15-2.95,3.95,0,2.47.97,3.73,2.89,3.73.48,0,1.12-.08,1.51-.16l.87-.17.55,4.45-.62.22c-.67.24-1.87.39-3.15.39Zm-57.62,0c-2.45,0-4.35-.55-5.78-1.68-1.86-1.43-2.89-3.91-2.83-6.83.13-6.32,5.04-8.57,9.19-8.57,1.35,0,2.67.2,3.53.53l.67.26-1.08,4.62-.89-.36c-.46-.19-1.08-.28-1.84-.28-2.35,0-3.45,1.31-3.45,4.13,0,2.36.94,3.38,1.85,3.58v-1.45h-1.37v-4.47h6.94v9.77l-.58.18c-.91.28-2.89.58-4.37.58Zm-34.15,0c-6.1,0-8.27-4.28-8.27-8.29,0-6.07,4.42-8.79,8.8-8.79,1.49,0,2.54.25,3.02.49l.44.22v-.57h5.96v16.81h-5.96v-15.55l-.88,3.85-.88-.33c-.31-.12-.69-.24-1.33-.24-2.44,0-2.95,2.15-2.95,3.95,0,2.47.97,3.73,2.89,3.73.48,0,1.12-.08,1.51-.16l.87-.17.55,4.45-.62.22c-.67.24-1.87.39-3.15.39Zm-75.38,0c-1.31,0-2.59-.11-3.35-.18l-.76-.07v-.74s0-15.6,0-15.6l.68-.11c1.15-.19,2.72-.3,4.21-.3,2.69,0,4.63.51,6.08,1.61,1.83,1.35,2.73,3.56,2.73,6.75s-1.11,5.74-3.12,7.11c-1.49,1.05-3.54,1.54-6.46,1.54Zm1.82-4.5c1.44-.29,1.66-2.78,1.66-4.31,0-1.65-.29-3.61-1.66-3.78v8.09Zm-62.94,4.5c-6.1,0-8.27-4.28-8.27-8.29,0-6.07,4.42-8.79,8.8-8.79,1.5,0,2.54.25,3.02.49l.58.29-1.02,4.47-.88-.33c-.31-.12-.69-.24-1.33-.24-2.44,0-2.95,2.15-2.95,3.95,0,2.47.97,3.73,2.89,3.73.48,0,1.12-.08,1.51-.16l.87-.17.27,2.18,3.7-14.06h6.53l3.8,16.81h-5.88l-.61-2.99h-1.71l-.64,2.99h-5.91l.04-.15c-.69.18-1.72.28-2.8.28Zm10.4-7.44l-.15-.93c-.07.35-.13.69-.18.93h.33Zm203.76,7.31s-2.81-5.66-2.84-5.7c.02.77.03,1.53.03,2.27v3.43h-5.41v-16.81h5.27l2.87,5.9c-.05-.94-.07-1.81-.07-2.63v-3.27h5.41v16.81h-5.26Zm-57.96,0s-2.81-5.66-2.84-5.7c.02.77.03,1.53.03,2.27v3.43h-5.41v-16.81h5.27l2.87,5.9c-.05-.94-.07-1.81-.07-2.63v-3.27h5.41v16.81h-5.26Zm-32.55,0l-.61-2.99h-1.71l-.64,2.99h-10.3l-.23-.42c-.28-.5-.75-2.17-1.01-3.85-.15-1-.34-1.34-.52-1.47v5.74h-5.94v-16.47l.7-.1c1.33-.19,2.97-.3,4.5-.3,1.88,0,4.23.15,5.84,1.3,1.33.95,1.9,2.12,1.9,3.91,0,1.5-.76,2.89-2.05,3.81.66.6,1.1,1.45,1.36,2.63.19.83.4,1.68.6,2.38l3.67-13.95h6.53l3.8,16.81h-5.88Zm-1.25-7.31l-.15-.93c-.07.35-.13.69-.18.93h.33Zm-13.8-2.83c.91-.13,1.01-.89,1.01-1.23,0-.78-.29-1.12-1.01-1.16v2.39Zm-16.37,10.14l-.61-2.99h-1.71l-.64,2.99h-10.3l-.23-.42c-.28-.5-.75-2.17-1.01-3.85-.15-1-.34-1.34-.52-1.47v5.74h-5.94v-16.47l.7-.1c1.33-.19,2.97-.3,4.5-.3,1.88,0,4.23.15,5.84,1.3,1.33.95,1.9,2.12,1.9,3.91,0,1.5-.76,2.89-2.05,3.81.66.6,1.1,1.45,1.36,2.63.19.83.4,1.68.6,2.38l3.67-13.95h6.53l3.8,16.81h-5.88Zm-1.25-7.31l-.15-.93c-.07.35-.13.69-.18.93h.33Zm-13.8-2.83c.91-.13,1.01-.89,1.01-1.23,0-.78-.29-1.12-1.01-1.16v2.39Zm-27.01,10.14s-2.81-5.66-2.84-5.71c.02.78.03,1.54.03,2.28v3.43h-5.41v-16.81h5.27l2.87,5.9c-.05-.94-.07-1.81-.07-2.63v-3.27h5.41v16.81h-5.26Zm-14.18,0l-.61-2.99h-1.71l-.64,2.99h-15.44v-16.81h5.96v12.22h4.61v.63l3.38-12.85h6.53l3.8,16.81h-5.88Zm-1.25-7.31l-.15-.93c-.07.35-.13.69-.18.93h.33Z"/><path class="cls-6" d="m206.47,100.22c-4.24,0-6.77-3.11-6.77-8.33,0-4.1,2.17-8.24,7.03-8.24,6.16,0,6.63,6.08,6.63,7.95,0,5.56-2.44,8.62-6.86,8.62h-.03Zm.11-12.51c-.18,0-.33.07-.48.23-.56.57-.89,2.03-.87,3.91-.04,2.06.26,3.51.83,4.09.16.16.33.24.52.24.77,0,1.24-1.64,1.24-4.39,0-2.59-.45-4.07-1.24-4.07Zm73.99,12.47c-1.76,0-3.31-.33-4.01-.63l-.38-.17.76-4.07.6.27c.7.31,1.99.54,3.05.54,1.12,0,1.82-.32,1.82-.83,0-.58-.48-.9-2.13-1.69-2.55-1.23-3.84-2.82-3.84-4.72,0-2.39,1.8-5.18,6.89-5.18,1.4,0,2.7.3,3.32.59l.38.17-.83,4.05-.6-.29c-.64-.31-1.39-.47-2.23-.47-.97,0-1.63.32-1.63.78,0,.33.16.64,2.21,1.57,3.11,1.4,3.77,3.38,3.77,4.79,0,3.15-2.87,5.27-7.14,5.27Zm-44.03,0c-5.88,0-7.98-4.13-7.98-7.99,0-5.86,4.27-8.49,8.51-8.49,1.44,0,2.46.25,2.88.46l.37.18-.89,3.91-.56-.21c-.36-.13-.78-.26-1.44-.26-2.09,0-3.25,1.51-3.25,4.25s1.1,4.03,3.19,4.03c.5,0,1.17-.09,1.57-.17l.55-.11.48,3.9-.39.14c-.63.23-1.8.37-3.05.37Zm-39.87,0c-5.88,0-7.98-4.13-7.98-7.99,0-5.86,4.27-8.49,8.51-8.49,1.44,0,2.46.25,2.88.46l.37.18-.89,3.91-.56-.21c-.36-.13-.78-.26-1.44-.26-2.09,0-3.25,1.51-3.25,4.25s1.1,4.03,3.19,4.03c.5,0,1.17-.09,1.57-.17l.55-.11.48,3.9-.39.14c-.63.23-1.8.37-3.05.37Zm-17.76,0c-2.39,0-4.22-.53-5.6-1.62-1.78-1.37-2.77-3.77-2.71-6.59.13-6.11,4.87-8.28,8.9-8.28,1.32,0,2.6.19,3.42.51l.42.16-.94,4.03-.56-.23c-.49-.2-1.15-.3-1.96-.3-2.52,0-3.75,1.45-3.75,4.43s1.31,3.88,2.45,3.91v-2.09h-1.37v-3.88h6.35v9.26l-.37.11c-.89.27-2.82.56-4.28.56Zm-34.15,0c-5.88,0-7.97-4.13-7.97-7.99,0-5.86,4.27-8.49,8.5-8.49,1.44,0,2.46.25,2.88.46l.37.18-.89,3.91-.56-.21c-.36-.13-.78-.26-1.44-.26-2.09,0-3.25,1.51-3.25,4.25s1.1,4.03,3.19,4.03c.5,0,1.17-.09,1.57-.17l.55-.11.48,3.9-.39.14c-.63.23-1.8.37-3.05.37Zm-75.38,0c-1.3,0-2.56-.11-3.32-.18l-.49-.04v-.47s0-15.34,0-15.34l.44-.07c1.14-.19,2.69-.3,4.16-.3,2.63,0,4.5.49,5.9,1.55,1.75,1.3,2.61,3.43,2.61,6.51s-1.06,5.55-2.99,6.87c-1.44,1.01-3.44,1.49-6.3,1.49Zm1.59-3.88c1.41,0,2.19-1.65,2.19-4.63,0-1.87-.37-4.09-2.16-4.09,0,0-.07,0-.09,0v8.72h.07Zm-62.71,3.88c-5.88,0-7.97-4.13-7.97-7.99,0-5.86,4.27-8.49,8.5-8.49,1.44,0,2.46.25,2.88.46l.37.18-.9,3.91-.56-.21c-.36-.13-.78-.26-1.44-.26-2.09,0-3.25,1.51-3.25,4.25s1.1,4.03,3.19,4.03c.5,0,1.17-.09,1.57-.17l.55-.11.42,3.39,4.03-15.33h6.07l3.67,16.21h-5.26l-.61-2.99h-2.2l-.64,2.99h-5.28l.08-.3-.18.06c-.63.23-1.8.37-3.05.37Zm10.75-6.85l-.48-2.92c-.05.25-.57,2.92-.57,2.92h1.04Zm248.71,6.71v-11.93h-3.06c.04.25.06.5.06.76,0,1.79-.67,3.24-1.98,4.3-1.41,1.08-3.55,1.47-4.96,1.47h-.12v5.4h-5.34v-15.91l.44-.07c1.16-.19,2.74-.3,4.22-.3,2.43,0,4.35.22,5.83,1.29.79.54,1.35,1.31,1.66,2.22v-3.44h11.93v4.28h-3.29v11.93h-5.37Zm-10.07-9.24c1.18,0,1.75-.53,1.75-1.62s-.5-1.59-1.49-1.59c-.08,0-.17,0-.26.01v3.2Zm-16.84,9.24v-16.21h9.67v4.06h-4.3v1.79h4.1v3.92h-4.1v2.38h4.61v4.06h-9.97Zm-18.2,0l-2.69-5.4c-.21-.42-.45-.93-.68-1.46.05,1.3.08,2.53.08,3.73v3.13h-4.81v-16.21h4.78l2.79,5.74c.18.36.41.85.66,1.38-.11-1.55-.17-2.91-.17-4.15v-2.97h4.81v16.21h-4.78Zm-57.96,0l-2.69-5.4c-.21-.42-.45-.93-.68-1.46.05,1.3.08,2.53.08,3.73v3.13h-4.81v-16.21h4.78l2.79,5.74c.18.36.41.85.66,1.38-.11-1.55-.17-2.91-.17-4.15v-2.97h4.81v16.21h-4.78Zm-15.61,0v-16.21h5.37v16.21h-5.37Zm-16.88,0l-.61-2.99h-2.2l-.64,2.99h-9.89l-.15-.27c-.26-.47-.72-2.12-.98-3.75-.26-1.67-.65-1.78-1.11-1.79v5.81h-5.34v-15.92l.45-.06c1.32-.19,2.94-.3,4.46-.3,1.83,0,4.13.14,5.66,1.25,1.26.9,1.78,1.97,1.78,3.66,0,1.54-.84,2.93-2.26,3.78.78.57,1.28,1.44,1.58,2.72.25,1.14.61,2.53.91,3.39l3.88-14.74h6.07l3.67,16.21h-5.26Zm-1.14-6.71l-.48-2.92c-.05.26-.57,2.92-.57,2.92h1.04Zm-14.41-2.81c1.16,0,1.57-.8,1.57-1.55,0-.96-.43-1.43-1.36-1.46-.09,0-.18,0-.25,0v3h.04Zm-15.86,9.53l-.61-2.99h-2.2l-.64,2.99h-9.89l-.15-.27c-.26-.47-.72-2.12-.98-3.75-.26-1.67-.65-1.78-1.11-1.79v5.81h-5.34v-15.92l.45-.06c1.32-.19,2.94-.3,4.46-.3,1.83,0,4.13.14,5.66,1.25,1.26.9,1.78,1.97,1.78,3.66,0,1.54-.84,2.93-2.26,3.78.78.57,1.28,1.44,1.58,2.72.25,1.14.61,2.53.91,3.39l3.88-14.74h6.07l3.67,16.21h-5.26Zm-1.14-6.71l-.48-2.92c-.05.25-.57,2.92-.57,2.92h1.04Zm-14.41-2.81c1.16,0,1.57-.8,1.57-1.55,0-.96-.43-1.43-1.36-1.46-.09,0-.18,0-.25,0v3h.04Zm-26.57,9.53l-2.68-5.4c-.21-.42-.45-.93-.69-1.46.05,1.29.08,2.54.08,3.73v3.13h-4.81v-16.21h4.78l2.8,5.74c.18.36.41.85.66,1.38-.11-1.55-.17-2.92-.17-4.15v-2.97h4.81v16.21h-4.78Zm-14.12,0l-.61-2.99h-2.2l-.64,2.99h-14.9v-16.21h5.37v12.22h4.61v2.63l3.91-14.85h6.07l3.67,16.21h-5.26Zm-1.14-6.71l-.48-2.92c-.05.26-.57,2.92-.57,2.92h1.04Z"/><path class="cls-1" d="m206.47,100.08c-4.15,0-6.63-3.06-6.63-8.18,0-4.03,2.13-8.09,6.88-8.09,6.02,0,6.49,5.97,6.49,7.8,0,5.46-2.38,8.47-6.71,8.47h-.03Zm.11-12.51c-.22,0-.41.09-.59.27-.59.6-.93,2.1-.91,4.01-.04,2.1.27,3.58.87,4.19.19.19.39.28.63.28.89,0,1.39-1.65,1.39-4.53,0-1.58-.18-4.22-1.39-4.22Zm73.99,12.47c-1.74,0-3.27-.32-3.95-.62l-.27-.12.7-3.77.43.19c.72.32,2.03.55,3.11.55,1.24,0,1.97-.37,1.97-.98,0-.7-.61-1.06-2.22-1.82-2.49-1.2-3.76-2.74-3.76-4.59,0-2.32,1.76-5.03,6.74-5.03,1.38,0,2.65.3,3.25.57l.27.12-.77,3.75-.43-.21c-.66-.32-1.43-.48-2.29-.48-1.08,0-1.78.37-1.78.93,0,.4.16.74,2.29,1.71,3.04,1.37,3.68,3.29,3.68,4.66,0,3.06-2.81,5.12-6.99,5.12Zm-44.03,0c-5.77,0-7.83-4.05-7.83-7.85,0-5.76,4.2-8.34,8.36-8.34,1.42,0,2.4.24,2.82.44l.26.13-.83,3.63-.4-.15c-.37-.14-.81-.27-1.49-.27-2.19,0-3.4,1.56-3.4,4.4s1.15,4.17,3.34,4.17c.51,0,1.19-.09,1.6-.17l.39-.08.45,3.62-.28.1c-.62.22-1.77.36-3,.36Zm-39.87,0c-5.77,0-7.83-4.05-7.83-7.85,0-5.76,4.2-8.34,8.36-8.34,1.42,0,2.4.24,2.82.44l.26.13-.83,3.63-.4-.15c-.37-.14-.81-.27-1.49-.27-2.19,0-3.4,1.56-3.4,4.4s1.15,4.17,3.34,4.17c.51,0,1.19-.09,1.6-.17l.39-.08.45,3.62-.28.1c-.62.22-1.77.36-3,.36Zm-17.76,0c-2.35,0-4.15-.52-5.51-1.59-1.75-1.34-2.72-3.7-2.66-6.47.13-6,4.79-8.13,8.75-8.13,1.3,0,2.56.19,3.37.5l.3.12-.87,3.73-.4-.16c-.51-.21-1.19-.31-2.01-.31-2.62,0-3.9,1.5-3.9,4.58s1.42,4.06,2.64,4.06h.1v-2.38h-1.37v-3.58h6.05v9l-.26.08c-.88.27-2.79.56-4.24.56Zm-34.15,0c-5.77,0-7.83-4.05-7.83-7.85,0-5.76,4.2-8.34,8.36-8.34,1.42,0,2.4.24,2.82.44l.26.13-.83,3.63-.4-.15c-.37-.14-.81-.27-1.49-.27-2.19,0-3.4,1.56-3.4,4.4s1.16,4.17,3.34,4.17c.51,0,1.19-.09,1.6-.17l.39-.08.45,3.62-.28.1c-.62.22-1.77.36-3,.36Zm-75.38,0c-1.3,0-2.57-.11-3.32-.18l-.34-.03v-.34s0-15.21,0-15.21l.31-.05c1.12-.19,2.67-.3,4.14-.3,2.59,0,4.44.48,5.81,1.52,1.71,1.27,2.55,3.36,2.55,6.4s-1.04,5.46-2.93,6.74c-1.41,1-3.39,1.46-6.21,1.46Zm1.59-3.58c1.51,0,2.34-1.7,2.34-4.78,0-1.94-.4-4.24-2.31-4.24-.09,0-.17,0-.24,0v9.02c.08,0,.16,0,.21,0Zm-62.71,3.58c-5.77,0-7.83-4.05-7.83-7.85,0-5.76,4.2-8.34,8.36-8.34,1.42,0,2.4.24,2.82.44l.26.13-.83,3.63-.4-.15c-.37-.14-.81-.27-1.49-.27-2.19,0-3.4,1.56-3.4,4.4s1.16,4.17,3.34,4.17c.51,0,1.19-.09,1.6-.17l.39-.08.45,3.62-.28.1c-.62.22-1.77.36-3,.36Zm259.61-.14v-11.93h-3.27v-3.99h11.63v3.99h-3.29v11.93h-5.07Zm-15.41,0v-15.63l.31-.05c1.15-.19,2.72-.3,4.19-.3,2.4,0,4.29.22,5.74,1.26,1.18.82,1.86,2.17,1.86,3.7,0,1.75-.65,3.15-1.93,4.18-1.38,1.06-3.48,1.43-4.87,1.43h-.27v5.4h-5.04Zm5.17-8.94c1.27,0,1.92-.59,1.92-1.77,0-.8-.28-1.74-1.64-1.74-.14,0-.28.01-.41.03v3.48h.13Zm-16.68,8.94v-15.91h9.37v3.76h-4.3v2.09h4.1v3.63h-4.1v2.68h4.61v3.76h-9.68Zm-18.26,0l-2.64-5.32c-.3-.61-.67-1.41-1-2.2.06,1.27.12,2.83.12,4.54v2.98h-4.51v-15.91h4.54l2.75,5.66c.26.53.64,1.32,1,2.13-.12-1.41-.23-3.2-.23-4.96v-2.83h4.51v15.91h-4.54Zm-57.96,0l-2.64-5.32c-.3-.61-.67-1.41-1-2.2.06,1.27.12,2.83.12,4.54v2.98h-4.51v-15.91h4.54l2.75,5.66c.26.53.64,1.32,1,2.13-.12-1.41-.23-3.2-.23-4.96v-2.83h4.51v15.91h-4.54Zm-15.55,0v-15.91h5.07v15.91h-5.07Zm-16.91,0l-.61-2.99h-2.44l-.64,2.99h-9.68l-.11-.19c-.25-.46-.71-2.09-.96-3.7-.28-1.78-.72-1.91-1.36-1.91h-.05v5.81h-5.04v-15.64l.32-.05c1.31-.19,2.93-.3,4.44-.3,1.81,0,4.08.14,5.58,1.22,1.22.87,1.72,1.9,1.72,3.54s-.9,2.97-2.39,3.77c.87.54,1.41,1.42,1.71,2.77.32,1.46.77,3.12,1.08,3.85l3.97-15.08h5.83l3.6,15.91h-4.96Zm-1.08-6.42l-.4-2.45s-.22-1.36-.24-1.51c-.11.59-.21,1.15-.28,1.52l-.47,2.43h1.4Zm-14.58-2.81c1.27,0,1.72-.91,1.72-1.7,0-1.05-.49-1.57-1.5-1.61-.16,0-.3,0-.4.02v3.29h.19Zm-15.74,9.23l-.61-2.99h-2.44l-.64,2.99h-9.68l-.11-.19c-.25-.46-.71-2.09-.96-3.7-.28-1.78-.72-1.91-1.36-1.91h-.05v5.81h-5.04v-15.64l.32-.05c1.31-.19,2.93-.3,4.44-.3,1.81,0,4.08.14,5.58,1.22,1.22.87,1.72,1.9,1.72,3.54s-.9,2.97-2.39,3.77c.87.54,1.41,1.42,1.71,2.77.32,1.46.77,3.12,1.08,3.85l3.97-15.08h5.83l3.6,15.91h-4.96Zm-1.08-6.42l-.4-2.45s-.22-1.36-.24-1.51c-.11.59-.21,1.15-.28,1.52l-.47,2.43h1.4Zm-14.58-2.81c1.27,0,1.72-.91,1.72-1.7,0-1.05-.49-1.57-1.5-1.61-.16,0-.3,0-.4.02v3.29h.19Zm-26.47,9.23l-2.64-5.32c-.3-.6-.67-1.41-1-2.2.06,1.27.12,2.83.12,4.54v2.98h-4.51v-15.91h4.54l2.75,5.66c.26.53.64,1.32,1,2.13-.12-1.41-.23-3.2-.23-4.96v-2.83h4.51v15.91h-4.54Zm-14.09,0l-.61-2.99h-2.44l-.64,2.99h-14.63v-15.91h5.07v12.22h4.61v3.63l4.17-15.85h5.83l3.6,15.91h-4.96Zm-1.08-6.42l-.4-2.45s-.22-1.36-.24-1.51c-.11.59-.21,1.15-.28,1.52l-.47,2.43h1.4Zm-23.29,6.42l-.61-2.99h-2.44l-.64,2.99h-4.97l4.19-15.91h5.83l3.6,15.91h-4.96Zm-1.08-6.42l-.4-2.45s-.22-1.36-.24-1.51c-.11.59-.21,1.15-.28,1.52l-.47,2.43h1.4Z"/><path class="cls-6" d="m11.15,99.32c-.5.18-1.56.34-2.88.34-5.3,0-7.45-3.53-7.45-7.47,0-5.6,4.05-7.97,7.98-7.97,1.37,0,2.29.23,2.65.4l-.67,2.93c-.42-.16-.89-.29-1.62-.29-2.12,0-3.77,1.4-3.77,4.77,0,3.17,1.54,4.55,3.71,4.55.53,0,1.23-.09,1.67-.18l.36,2.93Zm5.78-2.79l-.64,2.99h-4.19l3.99-15.17h5.25l3.43,15.17h-4.19l-.61-2.99h-3.04Zm2.71-2.68l-.47-2.88c-.14-.85-.39-2.5-.56-3.44h-.06c-.2.94-.47,2.63-.64,3.44l-.56,2.88h2.29Zm7.06-9.5h4.33v12.22h4.61v2.95h-8.93v-15.17Zm14.6,12.18l-.64,2.99h-4.19l3.99-15.17h5.25l3.43,15.17h-4.19l-.61-2.99h-3.04Zm2.71-2.68l-.47-2.88c-.14-.85-.39-2.5-.56-3.44h-.06c-.2.94-.47,2.63-.64,3.44l-.56,2.88h2.29Zm7.06,5.67v-15.17h3.94l2.65,5.45c.47.97,1.37,2.88,1.84,4.05h.06c-.11-1.24-.42-4.19-.42-7.04v-2.45h3.77v15.17h-3.94l-2.54-5.11c-.59-1.17-1.45-3.17-1.79-4.3h-.06c.08,1.31.25,3.83.25,6.8v2.61h-3.77Zm15.02-14.94c.95-.16,2.46-.29,4.08-.29,2.54,0,4.3.47,5.58,1.44,1.68,1.24,2.4,3.26,2.4,6.1s-.95,5.2-2.76,6.44c-1.31.92-3.18,1.4-6,1.4-1.28,0-2.54-.11-3.29-.18v-14.9Zm4.3,12.2c.14.04.39.04.59.04,1.51,0,2.71-1.4,2.71-5.15,0-2.81-.81-4.61-2.68-4.61-.22,0-.42,0-.61.07v9.66Zm9.97-12.2c1.26-.18,2.85-.29,4.38-.29,2.07,0,4.05.2,5.36,1.15,1.23.88,1.56,1.89,1.56,3.24,0,1.48-.92,3.02-2.85,3.74v.05c1.23.45,1.84,1.35,2.18,2.84.34,1.51.89,3.65,1.26,4.23h-4.52c-.22-.4-.67-1.98-.92-3.58-.28-1.8-.78-2.23-1.73-2.23h-.42v5.81h-4.3v-14.94Zm4.3,6.46h.56c1.4,0,2.09-.97,2.09-2.07s-.53-1.94-1.87-1.98c-.28,0-.61.02-.78.09v3.96Zm12.87,5.49l-.64,2.99h-4.19l3.99-15.17h5.25l3.43,15.17h-4.19l-.61-2.99h-3.04Zm2.71-2.68l-.47-2.88c-.14-.85-.39-2.5-.56-3.44h-.06c-.2.94-.47,2.63-.64,3.44l-.56,2.88h2.29Zm11.53-9.27c1.26-.18,2.85-.29,4.38-.29,2.07,0,4.05.2,5.36,1.15,1.23.88,1.56,1.89,1.56,3.24,0,1.48-.92,3.02-2.85,3.74v.05c1.23.45,1.84,1.35,2.18,2.84.34,1.51.89,3.65,1.26,4.23h-4.52c-.22-.4-.67-1.98-.92-3.58-.28-1.8-.78-2.23-1.73-2.23h-.42v5.81h-4.3v-14.94Zm4.3,6.46h.56c1.4,0,2.09-.97,2.09-2.07s-.53-1.94-1.87-1.98c-.28,0-.61.02-.78.09v3.96Zm12.87,5.49l-.64,2.99h-4.19l3.99-15.17h5.25l3.43,15.17h-4.19l-.61-2.99h-3.04Zm2.71-2.68l-.47-2.88c-.14-.85-.39-2.5-.56-3.44h-.06c-.2.94-.47,2.63-.64,3.44l-.56,2.88h2.29Zm16,5.47c-.5.18-1.56.34-2.87.34-5.3,0-7.45-3.53-7.45-7.47,0-5.6,4.05-7.97,7.98-7.97,1.37,0,2.29.23,2.65.4l-.67,2.93c-.42-.16-.89-.29-1.62-.29-2.12,0-3.77,1.4-3.77,4.77,0,3.17,1.54,4.55,3.71,4.55.53,0,1.23-.09,1.68-.18l.36,2.93Zm6.25-14.97v15.17h-4.33v-15.17h4.33Zm3.18,15.17v-15.17h3.94l2.65,5.45c.47.97,1.37,2.88,1.84,4.05h.06c-.11-1.24-.42-4.19-.42-7.04v-2.45h3.77v15.17h-3.94l-2.54-5.11c-.59-1.17-1.45-3.17-1.79-4.3h-.06c.08,1.31.25,3.83.25,6.8v2.61h-3.77Zm25.97-.4c-.81.25-2.68.54-4.13.54-2.37,0-4.05-.54-5.28-1.51-1.73-1.33-2.57-3.62-2.51-6.17.11-5.36,4.08-7.77,8.38-7.77,1.54,0,2.65.25,3.24.47l-.7,2.99c-.56-.23-1.28-.34-2.15-.34-2.54,0-4.27,1.33-4.27,4.95,0,3.2,1.56,4.43,3.02,4.43.17,0,.34,0,.47-.04v-3.08h-1.37v-2.84h5.3v8.35Zm16.5.2c-.5.18-1.56.34-2.87.34-5.3,0-7.45-3.53-7.45-7.47,0-5.6,4.05-7.97,7.98-7.97,1.37,0,2.29.23,2.65.4l-.67,2.93c-.42-.16-.89-.29-1.62-.29-2.12,0-3.77,1.4-3.77,4.77,0,3.17,1.54,4.55,3.71,4.55.53,0,1.23-.09,1.68-.18l.36,2.93Zm6.92.38c-4.75,0-6.25-4.05-6.25-7.81s1.95-7.72,6.5-7.72c5.11,0,6.11,4.55,6.11,7.43,0,5.74-2.57,8.1-6.34,8.1h-.03Zm.14-3.02c1.17,0,1.73-1.8,1.73-4.91,0-2.61-.45-4.59-1.76-4.59s-1.9,1.98-1.87,4.66c-.06,3.04.61,4.84,1.87,4.84h.03Zm8.43,2.84v-15.17h3.94l2.65,5.45c.47.97,1.37,2.88,1.84,4.05h.06c-.11-1.24-.42-4.19-.42-7.04v-2.45h3.77v15.17h-3.94l-2.54-5.11c-.59-1.17-1.45-3.17-1.79-4.3h-.06c.08,1.31.25,3.83.25,6.8v2.61h-3.77Zm24.37-.2c-.5.18-1.56.34-2.87.34-5.3,0-7.45-3.53-7.45-7.47,0-5.6,4.05-7.97,7.98-7.97,1.37,0,2.29.23,2.65.4l-.67,2.93c-.42-.16-.89-.29-1.62-.29-2.12,0-3.77,1.4-3.77,4.77,0,3.17,1.54,4.55,3.71,4.55.53,0,1.23-.09,1.68-.18l.36,2.93Zm10.36-6.23h-4.1v3.42h4.61v3.02h-8.93v-15.17h8.63v3.02h-4.3v2.84h4.1v2.88Zm3.07-8.51c1.12-.18,2.65-.29,4.13-.29,2.37,0,4.19.23,5.53,1.19,1.2.83,1.7,2.14,1.7,3.4,0,1.76-.7,3.02-1.79,3.89-1.23.94-3.18,1.35-4.63,1.35h-.64v5.4h-4.3v-14.94Zm4.3,6.73c.17.02.34.02.5.02,1.73,0,2.29-1.04,2.29-2.14,0-1.22-.61-2.12-2.01-2.12-.28,0-.59.04-.78.11v4.12Zm11.11-3.71h-3.27v-3.24h10.89v3.24h-3.29v11.93h-4.33v-11.93Zm9.07,8.46c.81.36,2.18.59,3.27.59,1.62,0,2.34-.59,2.34-1.35,0-.94-.78-1.37-2.43-2.16-3.04-1.46-3.55-3.13-3.55-4.25,0-2.5,2.01-4.66,6.37-4.66,1.28,0,2.51.27,3.1.54l-.61,2.99c-.56-.27-1.37-.52-2.46-.52-1.45,0-2.15.61-2.15,1.31,0,.65.39,1.08,2.51,2.05,2.6,1.17,3.46,2.77,3.46,4.32,0,2.86-2.65,4.75-6.62,4.75-1.62,0-3.13-.29-3.8-.59l.56-3.02Z"/></g></svg>