<?xml version="1.0" encoding="UTF-8"?>
<!DOCTYPE svg PUBLIC "-//W3C//DTD SVG 1.1//EN" "http://www.w3.org/Graphics/SVG/1.1/DTD/svg11.dtd">
<!-- Creator: CorelDRAW -->
<svg xmlns="http://www.w3.org/2000/svg" xml:space="preserve" width="100%" height="100%" version="1.1" style="shape-rendering:geometricPrecision; text-rendering:geometricPrecision; image-rendering:optimizeQuality; fill-rule:evenodd; clip-rule:evenodd"
viewBox="0 0 19476.72 5267.96"
 xmlns:xlink="http://www.w3.org/1999/xlink"
 xmlns:xodm="http://www.corel.com/coreldraw/odm/2003">
 <defs>
  <style type="text/css">
   <![CDATA[
    .fil0 {fill:none}
    .fil1 {fill:black}
    .fil2 {fill:red}
    .fil3 {fill:white}
   ]]>
  </style>
 </defs>
 <g id="Layer_x0020_1">
  <metadata id="CorelCorpID_0Corel-Layer"/>
  <rect class="fil0" x="0.11" y="0.45" width="19476.5" height="5267.06"/>
  <g id="_1947796525104">
   <rect class="fil1" x="18.13" y="1417.32" width="19440.47" height="2433.33"/>
   <polygon class="fil2" points="2754.32,2246.36 2325.05,2968.37 1952.26,2709.89 2432.35,2458.03 947.64,2463.63 608.68,2775.36 1210.8,2775.36 1992.29,3299.36 2743.46,3299.34 3572.75,1907.41 1049.64,1903.59 1491.41,2243.21 "/>
   <path class="fil3" d="M3317.22 3353.5l523.02 0 807.62 -1403 -523.01 0 -807.63 1403zm15105.57 0l474.33 -823.98 -1063.29 0 -136.87 237.77 756.12 0 -34.67 60.23 -756.72 0 -302.77 525.98 1063.87 0zm-140.49 -289.53l-37.3 64.8 -449.56 0 37.29 -64.8 449.57 0zm-1192.73 289.53l116.78 -202.88 -679.54 0 241.08 -418.8 680.93 0 116.45 -202.3 -920.05 0c-92.89,0 -172.71,46.14 -219.04,126.65l-330.88 574.81c-14.95,25.98 -14.93,55.72 0.07,81.69 15.01,25.96 40.78,40.83 70.77,40.83l923.43 0zm-1891.69 0l480.3 0 198.86 -345.45 -480.3 0 -198.86 345.45zm-499.61 0l198.86 -345.45 -909.1 0 410.48 -713.08 911.46 0 183.4 -318.61 157.45 -25.86 -1328.21 0c-158.2,0 -294.03,78.53 -372.96,215.64l-563.39 978.73c-25.48,44.27 -25.44,94.89 0.13,139.11 25.58,44.22 69.43,69.52 120.5,69.52l1191.38 0zm-2597.79 -1058.53l1090.18 0 -133.79 232.42 -1090.21 0 -475.54 826.11 523.02 0 307.29 -533.84 242.7 0 162.36 533.84 523.02 0 -162.37 -533.84 47.16 0c158.2,0 294.04,-78.53 372.96,-215.64l256.09 -444.89c25.47,-44.27 25.43,-94.9 -0.13,-139.11 -25.58,-44.22 -69.43,-69.52 -120.5,-69.52l-1343.97 0 -198.27 344.47zm-1673.1 1058.53l62.13 0 839.26 0 198.85 -345.45 -839.25 0 608.77 -1057.55 -523.01 0 -807.63 1403 460.88 0zm-1159.88 0l281.42 0 138.03 0 288.03 -1403 -493.68 0 -165.4 1085.37 -459.21 0 506.68 -542.71 -417.95 0 -837.91 860.34 1159.99 0zm-2001.7 -1058.53l1497.56 0 183.4 -318.61 157.45 -25.86 -1640.13 0 -198.28 344.47zm-77.6 1058.53l523.01 0 509.42 -884.93 -523.02 0 -509.41 884.93zm-1222.43 0l523.02 0 807.63 -1403 -523.02 0 -807.63 1403zm-790.03 0l128.97 0 145.28 0c158.18,0 293.96,-78.52 372.87,-215.6l279.71 -485.91 -523.01 0 -204.96 356.06 -536.35 0 410.49 -713.08 1059.37 0 198.27 -344.47 -1059.36 0 -80.72 0 -193.53 0c-158.17,0 -293.96,78.51 -372.87,215.59l-683.52 1187.41 460.88 0 62.14 0 536.34 0z"/>
  </g>
 </g>
</svg>
