<?xml version="1.0" encoding="UTF-8"?>
<!DOCTYPE svg PUBLIC "-//W3C//DTD SVG 1.1//EN" "http://www.w3.org/Graphics/SVG/1.1/DTD/svg11.dtd">
<!-- Creator: CorelDRAW -->
<svg xmlns="http://www.w3.org/2000/svg" xml:space="preserve" width="100%" height="100%" version="1.1" style="shape-rendering:geometricPrecision; text-rendering:geometricPrecision; image-rendering:optimizeQuality; fill-rule:evenodd; clip-rule:evenodd"
viewBox="0 0 19476.72 5267.96"
 xmlns:xlink="http://www.w3.org/1999/xlink"
 xmlns:xodm="http://www.corel.com/coreldraw/odm/2003">
 <defs>
  <style type="text/css">
   <![CDATA[
    .fil1 {fill:black}
    .fil2 {fill:red}
    .fil0 {fill:white}
   ]]>
  </style>
 </defs>
 <g id="Layer_x0020_1">
  <metadata id="CorelCorpID_0Corel-Layer"/>
  <rect class="fil0" x="0.11" y="0.45" width="19476.5" height="5267.06"/>
  <g id="_2503785182288">
   <path class="fil1" d="M7604.09 3640.01l-0.05 -11.75c-63.8,38.67 -234.36,18.47 -330.83,24.33 -85.98,5.19 -249.98,15.01 -296.49,45.97 250.57,13.48 1080.39,51.17 1281.69,28.88 124.78,-19.22 452.54,-1.43 597.49,1.34 107.07,2.03 192.15,11.32 295.73,13.72 45.25,1.03 225.97,15.65 245.47,51.11 -32.23,56.41 -230.82,30.96 -305.08,33.25 -115.77,3.54 -222.45,12.55 -342.41,14.51 -229.28,3.74 -456.41,6.27 -684.94,10.01 -352.23,5.78 -3951.62,32.14 -4119.53,76.97l1521.31 96.35c263.65,7.4 515.65,36.88 779.88,45.22 241.42,7.59 526.86,22.41 768.31,39.51 261.69,18.55 529.31,12.22 787.38,33.86 304.27,25.53 450.86,-40.87 726.32,-74.34 225.43,-27.4 570.79,-1.12 799.74,4.82 137.11,3.58 264.54,8.51 401.74,11.78l294.11 14.2c48.66,9.82 49.88,11.38 53.68,59.95l-534.03 28.79c-175.86,-23.91 -484.73,49.9 -622.93,13.61 -20.03,17.94 -25.81,22.01 -64.97,24.91 -23.21,1.73 -57.89,0.14 -82.35,0.22 -362.55,1.2 -774.83,40.48 -1145.36,51.36 -103.69,3.04 -1206.39,47.29 -1288.35,82.21 672.73,-3.87 1451.38,13.53 2138.84,28.23 68.26,1.48 597.01,-0.72 638.89,28.07 25.41,17.46 11.24,-5.11 24.3,26.03 -2.74,1.7 -7.23,0.33 -8.76,4.15 -8.4,20.93 -203.51,23.44 -218.41,24.05 -224.23,9.23 -458.45,42.85 -684.44,53.84l-940.32 62.77c-151.08,14.36 -316.9,21.84 -465.09,31.19 -290.93,18.32 -650.41,54.56 -944.75,62.26 -79.89,2.09 -161.72,6.84 -238.6,8.59 -106.48,2.4 -111.08,33.31 -223.51,36.33 44.5,29.98 618.61,14.06 674.68,15.31 218.27,4.91 475.92,5.52 693.77,-1 451.76,-13.53 926.45,4.01 1384.73,-0.42l2575.12 -15.01c65.5,4.1 98.03,19.16 88.9,84.02 -42.62,19.67 -1785.69,132.18 -1978.65,139.46 -678.7,25.58 -1375.28,72.81 -2043.49,73.06 0.17,-0.61 1.87,-0.84 1.93,-0.11l4.77 21.7c0.05,1.43 0.33,5.89 -0.37,8.71 -3.18,1.45 -8.03,-0.62 -9.98,3.37l6805.98 9.79c202.69,-0.05 356.52,-42.73 509.89,-123.94 148.72,-78.75 273.78,-173.02 363.72,-274.25l129.41 -186.72c37.77,-71.49 72.23,-138.17 110.97,-210.22 150.59,-280 305.14,-544.21 453.58,-821.34 299.16,-558.46 617.35,-1094.83 905.19,-1634.63 73.59,-137.98 145.62,-275.26 219.68,-405.01 83.47,-146.26 165.29,-302.28 106.07,-508.11 -75.35,-261.92 -431.23,-473.46 -707.71,-568.61 -377.19,-129.81 -708.41,-129.11 -1134.23,-129.58l-3188.59 6.11c-106.95,0.36 -212.76,-1.68 -319.53,-2.88l-269.51 40.81c268.54,-0.86 512.52,20.2 778.02,26.62 635.96,15.34 1325.37,52.69 1960.38,63.27 47.73,0.81 285.72,-0.11 327.51,21.9 43.54,22.9 13.19,-3.49 33.33,33.84 -25.02,43.68 -29.54,34.64 -148.13,36.37 -1564.56,22.88 -3154,32.53 -4723.97,36.05l-637.71 4.15c-689.36,-0.28 -1433.95,0.84 -2126.12,16.4l-98.09 8.74c-42.82,14.11 -16.09,3.65 -34.48,17.96 223.82,4.52 464.93,55.07 691.76,45.72 196.81,-8.11 1200.86,48.63 1438.77,67.32 250.73,19.67 494.16,20.75 742.19,37.72 61.37,8.48 141.32,5.6 202.17,12.91 65.89,7.92 120.98,19.45 179.01,32.36l-79.17 24.41c-103.67,13.25 -500.27,1.98 -643.16,7.62 -439.4,17.4 -1080.05,-1.23 -1457.77,22.65 -132.26,8.34 -636.29,23.88 -741.46,2.65 -13.95,8.7 0.75,3.77 -24.94,8.87l-1048.36 15.18c-365.75,-0.45 -727.57,-5.05 -1093.66,2.93 3.07,2.51 7.31,4.6 10.21,6.08 2.84,1.42 6.67,4.01 10.15,5.63 3.38,1.54 6.39,3.27 10.13,4.77 81.37,32.61 972.03,63.47 1073.38,70.22 367.23,24.41 745.04,35.48 1111.85,56.49 177.65,10.15 381.35,13.06 560.75,32.39 180.91,19.5 385.9,9.59 563.65,24.55 193.83,16.26 369.38,13.78 553.89,39.61l360.57 75.07c18.55,8.29 14.28,10.21 45.63,23.49 18.36,7.78 37.47,13.11 51.45,19.05 -76.55,60.12 -1660.92,87.04 -1994.81,98.14 -61.65,2.07 -223.12,-7.11 -275.43,34.54 112.15,20.25 255.54,26.89 371.37,40.53l1155.87 75.21c281.03,10.94 870.74,43.66 1163.29,73.34 103.97,10.55 290.6,-7.19 348.06,54.6 -9.56,71.8 -50.68,62.85 -128.66,64.07l-1346.79 27.76c-274.92,1.2 -1391.29,43.49 -1539.9,26.78 -36.21,20.98 -58.36,16.43 -101.76,17.19 -30.61,0.5 -60.15,1.84 -90.72,3.54 102.43,31.27 108.49,14.45 167.54,24.05 22.49,3.65 10.35,1.17 30.86,8.62l22.26 12.89c168.27,-8.15 431.14,30.49 608.31,45.66 448.67,38.42 1053.66,61.35 1481.12,145.51 106.46,20.98 220.25,18.16 222.64,96.3 -92.14,35.29 -1897.97,108.57 -2067.84,87.62 -20.72,16.55 12.31,1.01 -23.18,10.27 -21.76,5.66 6.92,-0.11 -20.11,3.65 -10.55,1.48 -35.15,2.12 -47.29,2.88l-705.31 29.15c38,42.24 -47.42,15.01 57.58,32.61l417.67 15.07c40.98,0 427.71,9.34 467.24,35.79 72.23,-8.85 827,27.22 883.54,101.82 -48.45,40.84 -276.81,35.96 -364.86,40.39 -309.29,15.54 -871.35,31.3 -1127.36,58.98l-1510.04 74.31 43.54 22.94c64.81,21.45 648.46,26.75 727.83,29.29l1924.62 79.64c66.2,3.66 129.66,7.14 190.03,11.55 68.46,4.99 127.79,-6.83 152.93,48.99 -15.43,36.51 16.18,8.95 -30.8,31.05 -16.04,7.58 -28.9,7.31 -50.27,9.82 -32.67,3.87 -61.54,6.52 -96.16,10.04l-608.51 59.06c-678.95,74.12 -1378.29,122.38 -2044.07,201.86 -95.47,11.41 -281.45,19.5 -359.34,41.14l-36.88 14.76c135.05,19.5 2122.88,23.97 2422.86,24.27 141.71,0.17 715.85,-28.4 795.94,15.68 -7.22,81.24 -169.22,53.03 -252.35,61.29 -86.98,8.65 -205.35,16.15 -296.54,22.71 -195.86,14.06 -400.29,25.19 -593.34,45.89 -394.96,42.37 -789,55.23 -1179.16,96.44 -388.27,41 -800.13,67.81 -1190.74,99.08l-1143.68 96.33c-26.9,5.11 -12.58,1.03 -28.23,9.07 32.3,19.47 66.22,15.93 179.87,16.37 63.94,0.28 125.01,0.2 188.95,-1.36 836.42,-20.59 1748.06,11.02 2609.93,1.06l2220.21 -12.84c214.22,-1.08 544.68,-23.18 744.34,-0.75 42.21,3.38 86.73,2.01 129.86,1.23 99.9,-1.84 88.15,8.28 100.09,37.44 -109.97,36.15 -646.53,39.39 -809.14,41.34 -255.76,3.1 -538.38,35.54 -802.87,35.54z"/>
   <path class="fil2" d="M13730.4 1864l-977.33 1736.42 -906.56 -621.67 1169.68 -605.7c-1194.54,5.95 -2388.8,3.35 -3583.28,13.48l-897.74 749.69 1500.31 0 1946.77 1260.21 1806.56 -0.06 1874.94 -3347.57 -6068.06 -9.18 1161.48 816.79 2973.23 7.59z"/>
  </g>
 </g>
</svg>
