<?xml version="1.0" encoding="UTF-8"?>
<!DOCTYPE svg PUBLIC "-//W3C//DTD SVG 1.1//EN" "http://www.w3.org/Graphics/SVG/1.1/DTD/svg11.dtd">
<!-- Creator: CorelDRAW -->
<svg xmlns="http://www.w3.org/2000/svg" xml:space="preserve" width="100%" height="100%" version="1.1" style="shape-rendering:geometricPrecision; text-rendering:geometricPrecision; image-rendering:optimizeQuality; fill-rule:evenodd; clip-rule:evenodd"
viewBox="0 0 19476.5 5267.06"
 xmlns:xlink="http://www.w3.org/1999/xlink"
 xmlns:xodm="http://www.corel.com/coreldraw/odm/2003">
 <defs>
  <style type="text/css">
   <![CDATA[
    .fil0 {fill:white}
    .fil1 {fill:black;fill-rule:nonzero}
    .fil2 {fill:white;fill-rule:nonzero}
   ]]>
  </style>
 </defs>
 <g id="Layer_x0020_1">
  <metadata id="CorelCorpID_0Corel-Layer"/>
  <rect class="fil0" width="19476.5" height="5267.06"/>
  <path class="fil1" d="M11452.68 3968.24c560.18,-202.51 1049.78,-420.6 1405.97,-657.13 178.09,-118.53 323.31,-241.67 427.07,-373.86 51.79,-66.14 93.15,-134.74 121.79,-206.36 28.63,-71.52 44.28,-146.21 44.24,-222.07 0.02,-4.59 -0.04,-9.17 -0.15,-13.78l0 -0.08c-2.79,-116 -42.24,-227.23 -108.04,-329.75 -61.77,-96.36 -146.48,-186.32 -249.83,-272.29 -193.9,-160.98 -454.21,-308.75 -762.68,-448.06 -539.69,-243.4 -1227.48,-459.69 -1957.51,-650.55 -1094.8,-286.08 -2284.07,-514.08 -3199.65,-680.97 -187.36,-34.13 -363.01,-65.7 -524.21,-94.67 1360.39,114.35 3810.3,409.88 5932.51,843.53 1077.71,220.11 2071.61,476.34 2791.51,760.02 359.77,141.49 650.91,290.49 846.79,440.2 97.98,74.64 171.78,149.25 219.65,220.34 48.02,71.43 70.32,137.46 71.79,202.26l0.02 -0.02c0.05,2.13 0.06,4.26 0.06,6.35 -0.04,37.68 -7.1,75.53 -21.95,115.23 -28.62,76.65 -88.28,160.26 -180.03,246.19 -171.6,161.47 -452.67,327.68 -812.58,487.55 -630.11,280.61 -1500.87,545.41 -2464.49,782.75 -1445.74,356.22 -3101.65,651.88 -4483.1,858.15 -690.76,103.16 -1312.99,184.02 -1805.93,239 -92.35,10.3 -180.14,19.71 -262.99,28.17 357.66,-76.8 805.7,-171.07 1300.51,-280.96 1149.51,-255.36 2551.34,-594.75 3671.23,-999.19z"/>
  <path class="fil1" d="M4479.72 2801.33l0 0 -0.03 0 0.03 0zm7057.8 -767.05l-0.12 -0.04 0.12 0.04zm-1154.51 2099.63c725.42,-212.81 1406.03,-449.66 1928.07,-703.31 298.21,-144.72 544.46,-295.34 716.08,-446 91.61,-80.26 161.76,-160.31 208.52,-237.6 49.98,-82.71 73.65,-160.81 73.75,-238.19 0,-3.11 -0.04,-6.23 -0.1,-9.34l-0.03 0.09c-1.3,-50.79 -12.75,-101.09 -35.03,-152.87 -22.28,-51.68 -55.61,-104.64 -100.22,-158.29 -89.01,-107.38 -223.29,-216.59 -394.29,-322.73 -342.01,-212.8 -829.05,-413.36 -1387.95,-595.52 -996.2,-325.03 -2220.85,-593.86 -3284.36,-801.14 -1105.46,108.76 -2096.09,287.92 -2905.64,518.86 -690.24,196.93 -1248.99,431.41 -1635.61,692.18 -386.48,260.69 -601.6,548.16 -601.71,851.47 0.11,303.33 215.23,590.8 601.71,851.49 890.57,600.49 2695.38,1062.61 4915.65,1244.83 620.15,-145.22 1277.26,-310.81 1901.16,-493.93z"/>
  <path class="fil2" d="M6713.21 1995.53l-1964.89 0 304.63 -474.96 1143.77 0c123.69,0 239.07,48.02 346.17,144.02 108.91,98.78 165.69,209.08 170.32,330.94zm35.99 185.54c0,333.27 -64.6,594.53 -193.84,783.75 -103.39,151.41 -198.02,259.43 -283.86,324.01 -170.82,128.32 -384.95,192.5 -642.51,192.5l-1127.13 0 371.09 -1300.26 699.26 0 -235.4 792.06c44.31,17.53 91.86,26.32 142.63,26.32 95.07,0 193.39,-28.62 294.95,-85.87 165.23,-93.22 273.24,-226.59 324.01,-400.18 26.76,-90.47 42.01,-201.24 45.7,-332.33l605.1 0z"/>
  <path class="fil2" d="M9114.29 1991.37l-2197.54 0 300.5 -470.79 1613.18 0c43.37,0 88.12,15.71 134.31,47.08 43.37,29.55 76.18,64.63 98.33,105.22 34.1,62.8 51.22,168.94 51.22,318.49zm-33.24 189.71c-15.69,115.42 -81.71,223.86 -198.02,325.4 -54.46,47.08 -98.78,77.08 -132.92,90 43.39,67.4 65.09,138.49 65.09,213.24 0,44.31 -6.5,106.19 -19.42,185.57 -8.28,49.83 -58.13,209.09 -149.53,477.71l-635.58 0 227.13 -779.59 -668.84 0 -240.94 779.59 -660.5 0 380.79 -1291.92 2032.74 0z"/>
  <path class="fil2" d="M11176.11 1520.57l-139.87 474.96 -1697.64 0c35.05,-116.31 100.62,-221.56 196.61,-315.72 108.02,-106.14 220.18,-159.24 336.49,-159.24l1304.41 0zm-401.58 1431.78l-148.15 528.98 -898.69 0c-312.03,0 -510.95,-100.17 -596.79,-300.49 -25.87,-60 -34.18,-143.54 -24.93,-250.65 1.84,-21.21 5.99,-59.06 12.46,-113.52l164.77 -631.44 703.45 -4.16 -203.56 627.27c6.46,24.94 12.46,49.85 18.01,74.79 17.52,35.08 52.6,58.13 105.22,69.22l868.21 0z"/>
 </g>
</svg>
