<?xml version="1.0" encoding="UTF-8"?>
<!DOCTYPE svg PUBLIC "-//W3C//DTD SVG 1.1//EN" "http://www.w3.org/Graphics/SVG/1.1/DTD/svg11.dtd">
<!-- Creator: CorelDRAW 2026 -->
<svg xmlns="http://www.w3.org/2000/svg" xml:space="preserve" width="100%" height="100%" version="1.1" style="shape-rendering:geometricPrecision; text-rendering:geometricPrecision; image-rendering:optimizeQuality; fill-rule:evenodd; clip-rule:evenodd"
viewBox="0 0 19476.5 5267.06"
 xmlns:xlink="http://www.w3.org/1999/xlink"
 xmlns:xodm="http://www.corel.com/coreldraw/odm/2003">
 <defs>
  <style type="text/css">
   <![CDATA[
    .fil2 {fill:#FEFEFE}
    .fil0 {fill:black}
    .fil1 {fill:#EF4926}
    .fil3 {fill:#929497}
    .fil4 {fill:#FEFEFE;fill-rule:nonzero}
   ]]>
  </style>
 </defs>
 <g id="Layer_x0020_1">
  <metadata id="CorelCorpID_0Corel-Layer"/>
  <rect class="fil0" width="19476.5" height="5267.06"/>
  <g id="_1935567819936">
   <path class="fil1" d="M14481.67 1759.96l1107.43 -691.54 3182.2 0 -259.54 475.06 657.44 0 -1385.53 2535.96 -77.94 0c-5290.81,0 -10581.61,-3.51 -15872.42,-3.51l-222.94 0 263.02 -475.06 -660.9 0 949.82 -1715.53 -497.22 0 -128.37 -78.07 -51.29 78.07 -1178.12 0 73.84 -112.37 883.45 0 51.29 -78.07 128.37 78.07 585.87 0 232.16 -69.68 111.22 69.68 1.21 0 -939.29 1696.51 660.91 0 -263.03 475.06c6797.47,0 11421.41,3.5 15872.42,3.5l1241.95 -2273.17 -657.44 0 259.55 -475.06 -2923.03 0 -1216.39 759.57 -96.17 -284.51 -237.31 0 -160.58 -475.06 -2838.79 0 -261.4 475.06 -145.44 0 -62.15 -475.06 -3211.6 0 -580.52 475.06 -16.01 0 550.96 -475.06 -2416.08 0 32.91 -50.06 -104.17 -81.33 5859.84 0 53.01 405.23 222.97 -405.23 3010.76 0 160.57 475.06 237.32 0 73.18 216.48z"/>
   <polygon class="fil2" points="1702.96,3311.8 7213.17,3311.8 7648.58,2865.6 8147.62,2288.84 7940.54,2064.52 8377.26,2064.52 8768.08,1683.97 8714.43,2064.52 9224.02,2064.52 8678.75,2317.6 8622.25,2718.39 8354.14,2468.95 7728.07,2904.82 8637.7,2904.82 8559.83,3311.8 12103.87,3315.31 12649.76,2139.05 13055.49,3315.31 14258.21,3315.31 15938.97,2150 15212.37,3315.31 17214.31,3315.31 18283.96,1357.49 15671.94,1357.49 14128.87,2321.05 13803.17,1357.49 11170.73,1357.49 10604.7,2386.18 10470.14,1357.49 7453.22,1357.49 5617.68,2859.58 4210.47,2859.58 4416.18,2451.85 5631.06,2451.85 6006.27,2117.69 4609.53,2117.69 4804.26,1781.17 6435.66,1781.17 6927.03,1357.49 2784.98,1357.49 "/>
   <path class="fil3" d="M14065.1 2487.26l1747.15 -962.09 2370.92 -76.48 -2454.86 0 -1663.21 1038.57zm-283.23 -1062.09l-2522.65 22.98 -616.37 1120.2 693.11 -1043.2 2445.91 -99.98zm-3372.7 22.98l-2880.88 0 -1826.61 1494.78 -1407.21 0 1469.06 77.84 1844.53 -1491.17 2801.11 -81.45zm-8555.35 1863.65l1101.66 -1786.36 3771 -100.27 -3828.1 0 -1044.56 1886.63zm6118.51 -406.98l-152.07 0 139.66 -161.43 394.22 -274.44 104.54 97.26 -486.35 338.61zm761.3 -976.44l181.5 -176.74 -44.09 312.88 -156.61 0 19.2 -136.14zm344.58 203.82l292.86 0 -545.27 253.08 -56.5 400.78 -137.65 -134.32 47.1 -334.14 399.46 -185.4z"/>
   <path class="fil4" d="M2934.91 3796.19l29.73 -48.72 -241.72 0 71.01 -116.41 229.28 0 29.67 -48.63 -229.27 0 47.66 -78.14 241.72 0 29.73 -48.71 -599.53 0 -207.79 340.61 599.51 0zm712.94 -141.53l139.5 -139.76 9.64 0 -36.27 139.76 -112.87 0zm-499.87 141.53l334.12 0 108.48 -92.89 162.86 0 -15.38 92.89 357.91 0 -5.96 -340.61 -493.17 0 -448.86 340.61zm2095.78 0l155.16 -246.05 4.51 0 25.09 246.05 207.25 0 347.05 -250.75 3.96 0.95 -157.53 249.8 305.53 0 214.8 -340.61 -421.85 0 -280.95 198.93 -4.11 0 -61.15 -198.93 -422.74 0 -214.79 340.61 299.77 0zm1187.66 -55.25c-12.63,22 21.76,37.87 102.38,47.59 80.22,9.57 178.29,14.35 293.61,14.35 119.33,0 224.6,-4.86 316.51,-14.5 91.17,-9.81 145.09,-25.75 160.87,-47.84l150.31 -229.56c13.45,-22.55 -19.41,-38.74 -97.73,-48.55 -79.71,-9.01 -178.81,-13.55 -298.16,-13.55 -115.3,0 -219.44,4.47 -311.82,13.48 -93.35,9.72 -148.63,25.75 -165.15,48.23l-150.82 230.35zm516.52 -11.01c-3.39,5.19 -9.68,10.05 -18.41,14.59 -14.66,5.42 -37.79,8.22 -68.83,8.22 -31.09,0 -48.77,-2.8 -52.76,-8.22 -6.29,-4.54 -8,-9.4 -4.62,-14.59l136.26 -208.09c3.41,-5.19 11.69,-10.37 24.31,-15.48 10.51,-4.54 31.65,-7.01 62.95,-7.34 30.81,0.33 50.49,2.8 58.64,7.34 2.41,5.11 2.13,10.29 -1.28,15.48l-136.26 208.09zm1266.82 -225.64l189.26 0 28.8 -48.71 -727.36 0 -28.81 48.71 175.57 0 -172.62 291.9 362.53 0 172.63 -291.9zm1721.26 291.9l108.4 -159.38c67.78,0 106.67,3.5 117.51,10.52 8.09,7.33 7.1,16.43 -1.62,27.35l-52.76 77.58c-7.54,11.08 -7.91,19.93 -1.15,26.63 4.32,7.02 10.84,12.76 19.48,17.3l328.01 0 56.57 -83.62c42.86,-63.32 -50.16,-92.87 -92.63,-94.38 40.87,-1.57 160.83,-10.26 180.46,-43.94l29.04 -49.78c43,-73.72 -351.27,-68.99 -389.29,-68.89l-427.6 0 -231.64 340.61 357.22 0zm198.51 -291.9l47.37 0c62.76,-0.32 89.62,6.86 79.64,21.53l-34.26 50.39c-10.14,14.91 -46.77,22.09 -108.93,21.53l-47.36 0 63.54 -93.45zm1591.66 72.32l45.38 -66.02c13.69,-22.48 -18.32,-38.51 -95.55,-48.23 -78.63,-9.01 -177.02,-13.48 -294.75,-13.48 -114.69,0 -217.52,4.54 -309.4,13.55 -93.28,9.81 -148.82,26.07 -166.08,48.64l-29.45 42.81c-6.52,9.5 -3.45,17.79 8.89,24.8 9.21,7.66 23.94,14.35 44.17,20.09 21.24,5.51 45.43,10.61 71.96,15.47 26.81,5.1 53.93,10.37 82.35,15.71 29.21,4.79 57.57,10.13 85.72,15.87 25.7,6.06 48.64,12.91 68.45,20.57 39.98,15.31 51.73,36.52 34.87,63.63 -3.56,5.18 -9.94,9.96 -18.75,14.5 -14.73,5.42 -37.74,8.22 -68.47,8.22 -30.73,0 -48.13,-2.8 -51.88,-8.22 -6.11,-4.54 -7.65,-9.32 -4.1,-14.5l46.21 -67.22 -360.21 0 -53.63 77.98c-13.82,22 19.62,37.87 99.43,47.67 78.58,9.65 175.46,14.43 290.15,14.43 117.73,0 222.55,-4.86 314.85,-14.5 89.75,-9.81 143.41,-25.84 160.35,-47.93l20.45 -29.73c10.7,-15.55 12.94,-29.1 7.32,-40.66 -7.3,-11.09 -20.16,-20.58 -38.4,-28.55 -17.67,-8.13 -39.59,-15.23 -65.29,-21.29 -28.25,-5.58 -56.28,-10.84 -84.97,-15.7 -28.13,-5.11 -55.29,-10.29 -80.81,-15.39 -27.08,-4.71 -51.52,-10.05 -74.09,-16.19 -44.39,-11.48 -61.66,-28.55 -51.34,-51.18 3.56,-5.19 11.86,-10.29 24.66,-15.47 10.53,-4.47 31.56,-6.94 62.57,-7.27 30.51,0.33 49.9,2.8 57.82,7.27 2.14,5.18 1.71,10.28 -1.85,15.47l-37.72 54.85 361.14 0zm680.74 -72.32l85.73 0c61.04,0 87.17,6.88 77.47,21.53l-44.43 67.14c-9.85,14.9 -45.48,21.52 -105.93,21.52l-85.73 0 72.89 -110.19zm-193.1 291.9l81.39 -123.03 284.27 0c97.73,0 238.9,1.32 291.92,-78.85l46.21 -69.84c16.71,-25.27 -13.45,-44.54 -87.28,-54.62 -75.01,-10.24 -169.17,-14.27 -283.09,-14.27l-455.57 0 -225.32 340.61 347.47 0zm-3751.66 -55.25c-12.62,22 21.77,37.87 102.39,47.59 80.21,9.57 178.29,14.35 293.6,14.35 119.34,0 224.6,-4.86 316.52,-14.5 91.17,-9.81 145.08,-25.75 160.86,-47.84l150.31 -229.56c13.45,-22.55 -19.41,-38.74 -97.73,-48.55 -79.71,-9.01 -178.8,-13.55 -298.16,-13.55 -115.3,0 -219.43,4.47 -311.81,13.48 -93.36,9.72 -148.64,25.75 -165.15,48.23l-150.83 230.35zm516.53 -11.01c-3.39,5.19 -9.69,10.05 -18.42,14.59 -14.66,5.42 -37.78,8.22 -68.82,8.22 -31.09,0 -48.77,-2.8 -52.77,-8.22 -6.29,-4.54 -7.99,-9.4 -4.61,-14.59l136.26 -208.09c3.4,-5.19 11.69,-10.37 24.3,-15.48 10.51,-4.54 31.65,-7.01 62.96,-7.34 30.81,0.33 50.49,2.8 58.63,7.34 2.41,5.11 2.13,10.29 -1.27,15.48l-136.26 208.09zm4043.81 11.01c-12.62,22 21.77,37.87 102.39,47.59 80.21,9.57 178.28,14.35 293.6,14.35 119.34,0 224.6,-4.86 316.52,-14.5 91.17,-9.81 145.08,-25.75 160.86,-47.84l150.31 -229.56c13.45,-22.55 -19.41,-38.74 -97.73,-48.55 -79.71,-9.01 -178.8,-13.55 -298.16,-13.55 -115.3,0 -219.43,4.47 -311.82,13.48 -93.35,9.72 -148.63,25.75 -165.14,48.23l-150.83 230.35zm516.53 -11.01c-3.4,5.19 -9.69,10.05 -18.42,14.59 -14.66,5.42 -37.78,8.22 -68.82,8.22 -31.09,0 -48.78,-2.8 -52.77,-8.22 -6.29,-4.54 -8,-9.4 -4.61,-14.59l136.26 -208.09c3.4,-5.19 11.69,-10.37 24.3,-15.48 10.51,-4.54 31.65,-7.01 62.96,-7.34 30.81,0.33 50.49,2.8 58.63,7.34 2.41,5.11 2.13,10.29 -1.27,15.48l-136.26 208.09zm944.47 66.26l108.39 -159.38c67.78,0 106.67,3.5 117.52,10.52 8.09,7.33 7.1,16.43 -1.63,27.35l-52.75 77.58c-7.54,11.08 -7.92,19.93 -1.15,26.63 4.31,7.02 10.84,12.76 19.48,17.3l328.01 0 56.57 -83.62c42.86,-63.32 -50.17,-92.87 -92.63,-94.38 40.87,-1.57 160.82,-10.26 180.46,-43.94l29.03 -49.78c43,-73.72 -351.26,-68.99 -389.29,-68.89l-427.6 0 -231.63 340.61 357.22 0zm198.51 -291.9l47.37 0c62.76,-0.32 89.62,6.86 79.64,21.53l-34.27 50.39c-10.13,14.91 -46.76,22.09 -108.92,21.53l-47.37 0 63.55 -93.45zm1271.37 0l189.26 0 28.8 -48.71 -727.36 0 -28.81 48.71 175.57 0 -172.62 291.9 362.53 0 172.63 -291.9zm1219.15 72.32l45.38 -66.02c13.69,-22.48 -18.32,-38.51 -95.54,-48.23 -78.64,-9.01 -177.03,-13.48 -294.76,-13.48 -114.69,0 -217.52,4.54 -309.39,13.55 -93.29,9.81 -148.83,26.07 -166.09,48.64l-29.45 42.81c-6.52,9.5 -3.44,17.79 8.89,24.8 9.21,7.66 23.94,14.35 44.17,20.09 21.24,5.51 45.43,10.61 71.97,15.47 26.8,5.1 53.92,10.37 82.34,15.71 29.21,4.79 57.57,10.13 85.72,15.87 25.7,6.06 48.64,12.91 68.45,20.57 39.98,15.31 51.73,36.52 34.87,63.63 -3.56,5.18 -9.93,9.96 -18.75,14.5 -14.73,5.42 -37.74,8.22 -68.47,8.22 -30.73,0 -48.13,-2.8 -51.88,-8.22 -6.11,-4.54 -7.65,-9.32 -4.09,-14.5l46.2 -67.22 -360.21 0 -53.63 77.98c-13.82,22 19.62,37.87 99.43,47.67 78.58,9.65 175.46,14.43 290.15,14.43 117.73,0 222.55,-4.86 314.85,-14.5 89.75,-9.81 143.41,-25.84 160.36,-47.93l20.44 -29.73c10.7,-15.55 12.94,-29.1 7.32,-40.66 -7.3,-11.09 -20.16,-20.58 -38.4,-28.55 -17.67,-8.13 -39.59,-15.23 -65.29,-21.29 -28.25,-5.58 -56.28,-10.84 -84.97,-15.7 -28.13,-5.11 -55.29,-10.29 -80.8,-15.39 -27.09,-4.71 -51.53,-10.05 -74.09,-16.19 -44.4,-11.48 -61.67,-28.55 -51.35,-51.18 3.56,-5.19 11.86,-10.29 24.66,-15.47 10.54,-4.47 31.56,-6.94 62.57,-7.27 30.51,0.33 49.9,2.8 57.82,7.27 2.14,5.18 1.71,10.28 -1.85,15.47l-37.72 54.85 361.14 0z"/>
   <polygon class="fil2" points="3227.23,1076.26 3285.03,988.29 3629.21,988.29 3760.88,988.29 4009.41,988.29 4080.08,1035.59 4220.83,988.29 4473.86,988.29 4672.19,1143.14 4382.78,1583.43 2667.35,1583.43 2658.83,1560.38 2590.78,1583.43 2279.71,1583.43 2143.9,1498.35 2136.22,1510.05 1891.68,1583.43 1383.04,1583.43 1182.37,1461.4 1102.17,1583.43 493.88,1583.43 813.22,1097.5 558.32,1097.5 734.98,828.62 1842.91,828.62 1737.98,988.29 2211.25,988.29 2334.76,1082.42 2341.95,1071.5 2610.15,988.29 3104.84,988.29 "/>
   <path class="fil1" d="M683.55 1504.59l319.4 0 319.34 -485.93 257.88 0 73.08 -111.2 -832.22 0 -73.06 111.2 254.92 0 -319.34 485.93zm609.54 -68.13l112.04 68.13 474.97 0 205.98 -61.82 40.63 -61.82 -319.4 0 -33.18 50.47 -158.34 0 79.06 -120.29 477.75 0 110.85 -168.69 -98.82 -75.31 -495.71 0 -195.77 64.94 -200.06 304.39zm449.85 -198.5l64.18 -97.66 158.34 0 -64.18 97.66 -158.34 0zm963.26 223.14l16.07 43.49 222.27 0 238.55 -362.96 -103.64 -74.5 -457.35 0 -229.81 71.3 -34.42 52.35 319.4 0 33.18 -50.48 154.1 0 -79.06 120.3 -154.11 0 -176.97 0 -181.15 58.95 -77.65 118.17 106.76 66.87 275.42 0 128.41 -43.49zm-187.07 -29.68l64.17 -97.65 154.11 0 -64.18 97.65 -154.1 0zm2021.68 -290.84l-94.08 -73.45 -213.01 0 -165.27 55.54 -82.99 -55.54 -213.97 0 -169.07 46.37 -22.54 -46.37 -212.94 0 -287.49 437.46 319.4 0 239.4 -364.29 131.96 0 -239.4 364.29 319.4 0 239.4 -364.29 131.95 0 -239.4 364.29 319.4 0 239.25 -364.01z"/>
  </g>
 </g>
</svg>
