<?xml version="1.0" encoding="UTF-8"?>
<!DOCTYPE svg PUBLIC "-//W3C//DTD SVG 1.0//EN" "http://www.w3.org/TR/2001/REC-SVG-20010904/DTD/svg10.dtd">
<!-- Creator: CorelDRAW -->
<svg xmlns="http://www.w3.org/2000/svg" xml:space="preserve" width="100%" height="100%" version="1.0" shape-rendering="geometricPrecision" text-rendering="geometricPrecision" image-rendering="optimizeQuality" fill-rule="evenodd" clip-rule="evenodd"
viewBox="0 0 19476.5 5267.06"
 xmlns:xlink="http://www.w3.org/1999/xlink"
 xmlns:xodm="http://www.corel.com/coreldraw/odm/2003">
 <g id="Layer_x0020_1">
  <metadata id="CorelCorpID_0Corel-Layer"/>
  <rect fill="white" width="19476.5" height="5267.06"/>
  <path fill="black" fill-rule="nonzero" d="M1347.96 2368.72l953.63 0 0 537.18c0,207.26 -41.32,387.4 -124.61,542.35 -83.29,154.32 -199.51,273.76 -349.3,358.99 -149.15,85.23 -324.76,127.84 -526.85,127.84 -201.45,0 -379,-40.03 -531.38,-120.09 -152.37,-80.06 -270.53,-193.05 -354.46,-338.97 -83.94,-145.27 -125.91,-315.08 -125.91,-509.42l0 -811.59c0,-206.61 41.97,-386.75 125.91,-541.06 83.93,-153.67 200.15,-273.11 349.94,-358.34 149.15,-85.23 324.12,-127.84 524.92,-127.84 165.93,0 317.66,34.22 454.54,102.01 136.88,68.44 251.81,163.36 345.43,286.03 92.97,122.03 156.24,265.36 189.17,429.36l0 0 -559.78 0 0 0c-27.76,-89.75 -82.64,-158.83 -164.64,-207.26 -82,-48.42 -170.45,-72.95 -264.72,-72.95 -141.4,0 -253.74,45.19 -337.68,134.29 -83.93,89.75 -125.9,208.55 -125.9,355.76l0 811.59c0,131.06 43.26,235.66 129.78,313.78 85.87,78.13 201.44,117.51 344.78,117.51 140.1,0 252.45,-42.61 337.03,-127.84 84.58,-85.22 126.55,-204.02 126.55,-356.4l0 -45.19 -416.45 0 0 -499.74z"/>
  <path id="_1" fill="black" fill-rule="nonzero" d="M3221.01 3906.67l0 -2525.16 518.46 0 0 2525.16 -518.46 0zm-748.96 -2250.75l0 -499.74 2016.38 0 0 499.74 -2016.38 0z"/>
  <path id="_2" fill="black" fill-rule="nonzero" d="M4791.24 3906.67l0 -2750.49 517.82 0 0 2750.49 -517.82 0zm230.5 0l0 -499.09 1611.56 0 0 499.09 -1611.56 0z"/>
  <path id="_3" fill="black" fill-rule="nonzero" d="M8257.77 2800.02l0 -499.09 957.5 0c80.71,0 145.27,-29.7 193.7,-89.1 48.42,-59.4 73.6,-137.53 74.89,-234.38l0 0c0,-97.49 -24.53,-175.62 -72.95,-235.02 -48.43,-58.75 -114.28,-88.45 -195.64,-88.45l-957.5 0 0 -499.74 998.82 0c152.38,0 286.03,34.22 400.31,102.66 113.64,67.8 202.74,163.35 265.36,287.32 63.28,123.32 94.92,267.95 94.92,433.23l0 0c0,165.29 -32.29,309.27 -95.56,433.24 -63.92,123.32 -152.38,218.87 -266.01,287.31 -113.64,67.8 -246.64,102.02 -399.02,102.02l-998.82 0zm-205.97 1106.65l0 -2752.43 517.82 0 0 2752.43 -517.82 0zm1452.73 0l-667.61 -1191.88 553.97 -86.52 741.21 1278.4 -627.57 0z"/>
  <path id="_4" fill="black" fill-rule="nonzero" d="M11562.23 3906.67l0 -1244.82c0,-90.39 -29.7,-160.77 -89.75,-209.84 -60.04,-49.07 -145.91,-73.61 -258.26,-73.61 -72.96,0 -145.92,11.63 -217.58,34.87 -71.67,23.24 -135.59,56.82 -191.12,101.37l-321.53 -316.37c79.41,-89.1 183.36,-158.83 311.2,-208.55 127.84,-49.72 269.89,-74.9 426.78,-74.9 256.97,0 456.48,63.92 598.52,191.12 142.05,127.19 213.07,307.33 213.07,539.12l0 1261.61 -471.33 0zm-546.87 28.41c-209.19,0 -366.09,-49.72 -470.68,-149.79 -104.6,-99.43 -156.9,-251.81 -156.9,-457.13 0,-195.63 58.11,-341.55 174.98,-438.4 116.21,-96.2 291.19,-144.62 524.91,-144.62l491.35 0 26.47 395.14 -515.88 0c-78.77,0 -136.88,15.49 -176.26,45.84 -38.74,30.34 -58.76,77.48 -58.76,142.04 0,63.92 24.54,111.7 74.25,142.69 49.07,30.99 123.32,45.84 222.75,45.84 137.53,0 240.19,-15.49 308.63,-47.13 67.79,-31.64 102.01,-80.71 102.01,-147.21l40.03 285.38c-7.75,74.25 -41.32,136.23 -100.72,184.66 -59.4,48.42 -131.72,84.58 -218.23,107.82 -86.52,23.25 -175.62,34.87 -267.95,34.87z"/>
  <path id="_5" fill="black" fill-rule="nonzero" d="M13373.94 3935.08c-280.86,0 -499.09,-79.42 -654.05,-237.6 -155.6,-158.19 -233.08,-382.23 -233.08,-672.13l0 -209.84c0,-287.96 77.48,-509.42 233.08,-666.31 154.96,-156.25 373.19,-234.38 654.05,-234.38 161.41,0 307.33,27.12 437.11,81.36 129.78,54.23 233.73,131.71 311.85,232.43l0 0 -334.45 325.41 0 0c-46.49,-43.9 -102.66,-78.12 -167.22,-102.66 -65.21,-24.53 -133.01,-37.44 -203.38,-37.44 -131.07,0 -233.09,35.51 -304.75,105.24 -71.67,69.73 -107.83,168.51 -107.83,296.35l0 209.84c0,131.07 36.16,232.44 107.83,303.46 71.66,71.02 173.68,107.18 304.75,107.18 70.37,0 138.17,-13.56 203.38,-40.03 64.56,-26.47 120.73,-64.57 167.22,-113.64l0 0 334.45 344.14 0 0c-76.83,98.78 -180.14,174.32 -310.56,227.91 -131.07,53.59 -276.99,80.71 -438.4,80.71z"/>
  <path id="_6" fill="black" fill-rule="nonzero" d="M14444.44 1674.64l0 -518.46 518.46 0 0 518.46 -518.46 0zm0 2232.03l0 -1963.44 518.46 0 0 1963.44 -518.46 0z"/>
  <path id="_7" fill="black" fill-rule="nonzero" d="M15445.21 3906.67l0 -1963.44 518.46 0 0 1963.44 -518.46 0zm1135.06 0l0 -1189.94c0,-96.85 -27.12,-171.75 -81.35,-224.04 -54.24,-52.3 -132.36,-78.77 -234.38,-78.77 -97.49,0 -171.74,27.11 -223.39,80.7 -51.65,53.59 -77.48,129.13 -77.48,225.98l-40.03 -435.17c56.82,-118.15 125.9,-209.84 207.25,-274.4 81.36,-63.92 187.24,-96.21 317.02,-96.21 206.61,0 366.73,69.74 480.37,209.2 113.63,139.46 170.45,336.38 170.45,590.77l0 1191.88 -518.46 0z"/>
  <path id="_8" fill="black" fill-rule="nonzero" d="M18305.46 4704.7c-154.95,0 -294.41,-27.12 -417.73,-82 -123.97,-54.88 -219.53,-132.36 -287.32,-231.79l0 0 348.01 -319.6 0 0c43.9,46.49 96.85,83.29 158.83,109.76 61.34,26.48 125.9,39.39 192.4,39.39 105.25,0 192.41,-29.06 263.43,-86.52 70.38,-58.11 105.89,-140.75 105.89,-247.93l0 -1942.78 518.46 0 0 1904.69c0,272.46 -77.48,483.59 -231.15,632.74 -153.66,149.79 -370.6,224.04 -650.82,224.04zm-92.32 -769.62c-209.2,0 -371.9,-74.25 -487.47,-222.11 -114.93,-148.5 -173.04,-357.69 -173.04,-626.93l0 -314.43c0,-273.76 58.11,-484.89 173.04,-633.39 115.57,-149.15 278.27,-223.4 487.47,-223.4 104.59,0 200.15,31 286.67,93.62 85.87,62.63 155.6,151.09 208.54,266.01l-39.38 435.18c0,-67.15 -11.62,-123.97 -34.22,-171.75 -22.6,-47.13 -55.53,-82.64 -98.14,-106.53 -43.26,-23.89 -96.2,-36.16 -158.83,-36.16 -98.79,0 -174.33,32.93 -227.27,99.43 -52.95,66.5 -79.42,159.48 -79.42,278.93l0 312.49c0,118.16 26.47,209.19 79.42,273.11 52.94,63.28 128.48,95.56 227.27,95.56 62.63,0 115.57,-12.27 158.83,-36.16 42.61,-23.88 75.54,-58.75 98.14,-103.95 22.6,-45.19 34.22,-100.07 34.22,-164.64l26.47 448.09c-39.38,107.18 -100.72,190.47 -184.66,249.22 -83.93,58.75 -183.36,87.81 -297.64,87.81z"/>
 </g>
</svg>
