<?xml version="1.0" encoding="UTF-8"?>
<!DOCTYPE svg PUBLIC "-//W3C//DTD SVG 1.1//EN" "http://www.w3.org/Graphics/SVG/1.1/DTD/svg11.dtd">
<!-- Creator: CorelDRAW -->
<svg xmlns="http://www.w3.org/2000/svg" xml:space="preserve" width="100%" height="100%" version="1.1" style="shape-rendering:geometricPrecision; text-rendering:geometricPrecision; image-rendering:optimizeQuality; fill-rule:evenodd; clip-rule:evenodd"
viewBox="0 0 19476.5 5267.06"
 xmlns:xlink="http://www.w3.org/1999/xlink"
 xmlns:xodm="http://www.corel.com/coreldraw/odm/2003">
 <defs>
  <style type="text/css">
   <![CDATA[
    .fil0 {fill:none}
    .fil2 {fill:#ED1B23}
    .fil1 {fill:black}
   ]]>
  </style>
 </defs>
 <g id="Layer_x0020_1">
  <metadata id="CorelCorpID_0Corel-Layer"/>
  <rect class="fil0" width="19476.5" height="5267.06"/>
  <g id="_1780335806640">
   <path class="fil1" d="M1972.32 4817.98l1756.66 0 665.33 -1833.46c-770.26,216.97 -1506.69,572.98 -2147.09,1075.92l-274.9 757.54zm2680.61 -2546.14l687.13 -1893.54 -1756.66 0 -840.8 2317.04c621.85,-221.8 1261.07,-362.51 1910.33,-423.5zm13910.59 -699.74l682.38 0 -257.47 743.87c-200.55,0 -435.71,1.03 -613.85,0 -827.55,-4.76 -1517.57,649.88 -1517.57,1243.74 0,512.87 575.64,717.49 1635.39,390.98l-401.05 829.57c-256.06,72.32 -504.48,108.5 -758.9,108.5 -1092.96,0 -1587.57,-604.36 -1226.76,-1650.46 360.82,-1046.1 1457.11,-1666.2 2457.83,-1666.2zm-5965.52 3245.88l2626.99 0 244.77 -674.53 -1574.09 0 230.33 -634.71 1435.81 0 214.98 -592.42 -1435.81 0 206.52 -569.11 1518.76 0 250.18 -689.37 -2571.67 0 -1146.77 3160.14zm-2442.21 0l1064.84 0 891.12 -2455.63 968.86 0 255.67 -704.51 -968.88 0 -1064.84 0 -1062.6 0 -255.67 704.51 1062.61 0 -891.11 2455.63zm-3085.7 0l1582.51 0 560.64 -1544.94c-475,-171.26 -947.24,-308.9 -1436.19,-403.22l-706.96 1948.16zm2195.99 -1690.53l533.29 -1469.61 -1582.51 0 -340.04 937.04c497.92,144.8 965.2,326.62 1389.26,532.57zm-932.62 -1790.89l1582.51 0 347.72 -958.26 -1582.51 0 -347.72 958.26zm-3836.24 3481.42l1756.66 0 747.01 -2058.54c-236.34,-21.63 -478.42,-32.91 -728.14,-32.91 -347.04,0 -697.23,26.05 -1045.13,78.68l-730.4 2012.77zm2630.19 -2407.19l737.56 -2032.49 -1756.66 0 -674.44 1858.56c581.44,2.05 1150.63,64.73 1693.54,173.93z"/>
   <path class="fil2" d="M230.59 3737.25c1487.09,-1174.03 3165.77,-1747.68 4895.59,-1747.68 1852.93,0 3581.12,643.96 4715.96,1440.03 -1281.11,-571.25 -2447.2,-950.21 -3865.12,-950.21 -1615.75,0 -3300.62,585.94 -4487.81,1831.85l-1258.62 -573.99z"/>
  </g>
 </g>
</svg>
