<?xml version="1.0" encoding="UTF-8"?>
<!DOCTYPE svg PUBLIC "-//W3C//DTD SVG 1.1//EN" "http://www.w3.org/Graphics/SVG/1.1/DTD/svg11.dtd">
<!-- Creator: CorelDRAW -->
<svg xmlns="http://www.w3.org/2000/svg" xml:space="preserve" width="6in" height="1.268in" version="1.1" style="shape-rendering:geometricPrecision; text-rendering:geometricPrecision; image-rendering:optimizeQuality; fill-rule:evenodd; clip-rule:evenodd"
viewBox="0 0 6000 1268"
 xmlns:xlink="http://www.w3.org/1999/xlink"
 xmlns:xodm="http://www.corel.com/coreldraw/odm/2003">
 <defs>
  <style type="text/css">
   <![CDATA[
    .fil0 {fill:black}
    .fil1 {fill:white}
   ]]>
  </style>
 </defs>
 <g id="Layer_x0020_1">
  <metadata id="CorelCorpID_0Corel-Layer"/>
  <g id="_2231966009680">
   <path class="fil0" d="M2952.35 618.45c-12.98,33.55 -32.19,65.7 -55.92,93.71 35.13,53.47 55.04,118.58 55.04,177.67l0 375.83 -346.94 0 0 -368.72c-2.85,-10.04 -20.31,-27.5 -30.35,-30.35l-681.11 0 0 399.07 -346.94 0 0 -1261.12 103.83 0c301.81,0 603.61,0 905.41,0 166.22,0 338.65,71.59 397.57,238.82 9.2,26.09 14.87,53.19 17.04,80.68 28.57,-168.5 153.07,-296.73 330.16,-309.22 126.47,-8.91 252.79,-15 379.59,-14.88 123.68,0.12 246.9,6.12 370.24,14.89 188.37,13.39 312.97,157.19 329.63,340.58 2.61,28.74 4.81,57.53 6.61,86.33l6.89 110.3 -336.33 0 -6.24 -97.18c-1.48,-23.04 -3.26,-46.06 -5.35,-69.06 -1.31,-14.33 -1.71,-34.82 -19.01,-36.05 -116.98,-8.31 -233.84,-14.09 -351.15,-14.07 -117.33,0.02 -234.25,5.82 -351.27,14.08 -19.7,1.39 -21.98,20.42 -23.67,37.63 -15.6,159.48 -16.24,320.25 -0.07,479.71 1.5,14.75 7.54,46.28 26.94,47.92 115.92,9.79 231.81,17.05 348.18,17.27 115.94,0.21 231.11,-6.7 346.55,-17.15 18.14,-1.64 22.25,-32.09 23.48,-45.65 2.2,-24.19 4.07,-48.39 5.61,-72.63l6.21 -97.21 336.17 0 -6.76 110.18c-1.84,30.06 -4.11,60.09 -6.83,90.07 -3.95,43.47 -13.98,85.13 -29.5,123.61l577.06 -1018.98 60.52 0c79.2,0 158.39,0 237.59,0l60.52 0 714.23 1261.12 -400.85 0 -124.32 -219.48 -736.73 0 -124.32 219.48 -400.82 0 85.93 -151.73c-57.27,75.03 -142.01,126.16 -246.91,135.65 -120.18,10.87 -240.15,18.16 -360.85,18.51 -131.2,0.38 -261.72,-7.42 -392.41,-18.45 -187.89,-15.87 -314.36,-167.04 -332.77,-348.65 -9.53,-93.97 -13.97,-188.26 -13.57,-282.53zm-2604.55 -603.64c280.83,-19.81 563.45,-19.95 844.28,0.01 188.37,13.39 312.96,157.19 329.62,340.57 16.46,181.18 16.46,363.33 0,544.5 -16.54,182.17 -139.77,332.68 -327.62,349.68 -281.84,25.5 -565.81,23.86 -847.7,0.06 -187.91,-15.87 -314.37,-167.02 -332.78,-348.65 -18.43,-181.69 -17.82,-364.59 -0.04,-546.3 17.96,-183.4 146.56,-326.62 334.24,-339.86zm23.62 334.95c-19.72,1.39 -21.99,20.4 -23.67,37.63 -15.61,159.47 -16.26,320.25 -0.08,479.7 1.5,14.77 7.53,46.29 26.95,47.93 262.42,22.16 526.83,23.86 789.2,0.13 18.13,-1.64 22.24,-32.09 23.47,-45.63 14.61,-160.85 14.6,-322.88 0,-483.73 -1.31,-14.36 -1.72,-34.8 -19.03,-36.03 -265.14,-18.85 -531.7,-18.69 -796.84,0.01zm4912.53 359.4l-177.5 -313.43 -177.5 313.43 355.01 0zm-3390.89 -189.52l639.72 0c13.98,0 64.68,-1.56 75.72,-12.78 11.98,-12.18 13.49,-67.29 13.49,-82.63 0,-14.31 -1.44,-64.64 -12.36,-76.14 -10.81,-11.4 -63,-13.05 -76.85,-13.05l-639.72 0 0 184.6z"/>
   <path class="fil1" d="M355.11 118.38c276.53,-19.51 555.12,-19.51 829.61,0 135.2,9.61 221.32,111.45 233.58,246.41 15.92,175.24 15.92,350.48 0,525.72 -12.26,134.96 -98.6,243.44 -233.58,255.67 -272.43,24.64 -550,23.6 -829.61,0 -135.06,-11.42 -224.55,-120.84 -238.22,-255.67 -17.46,-172.15 -17.46,-347.4 0,-525.72 13.19,-134.87 103.01,-236.87 238.22,-246.41zm9.01 127.81c-73.94,5.21 -112.83,60.8 -119.7,131.09 -16.29,166.43 -16.92,333.89 -0.04,500.3 7.04,69.44 46.51,134.57 121.5,140.91 268.44,22.67 538.9,24.35 807.29,0.07 74.58,-6.74 111.22,-70.32 117.52,-139.65 15.19,-167.2 15.19,-335.31 0,-502.51 -6.3,-69.4 -41.43,-124.96 -115.06,-130.2 -269.93,-19.18 -541.59,-19.04 -811.51,0zm2943.31 -127.81c276.55,-19.51 460.69,-19.51 735.17,0 135.2,9.61 221.33,111.45 233.58,246.41 2.53,27.82 4.65,55.63 6.39,83.43l-128.44 0c-1.53,-23.94 -3.37,-47.91 -5.56,-71.82 -6.3,-69.39 -41.42,-124.96 -115.04,-130.2 -269.93,-19.18 -447.16,-19.04 -717.09,0 -73.91,5.21 -112.81,60.8 -119.69,131.09 -16.28,166.43 -16.9,333.89 -0.03,500.3 7.04,69.44 46.52,134.58 121.5,140.91 268.45,22.67 444.44,24.35 712.82,0.07 74.6,-6.74 111.23,-70.34 117.53,-139.65 2.29,-25.11 4.22,-50.26 5.83,-75.43l128.38 0c-1.77,29.02 -3.94,58.02 -6.59,87.03 -12.25,134.96 -98.62,243.44 -233.58,255.67 -272.41,24.63 -455.54,23.6 -735.17,0 -135.03,-11.42 -224.54,-120.84 -238.21,-255.67 -17.46,-172.15 -17.46,-347.4 0,-525.72 13.21,-134.87 103.02,-236.89 238.21,-246.41zm2514.44 1043.45l-162.22 0 -124.32 -219.48 -857.77 0 -124.32 219.48 -162.19 0 596.6 -1053.47c79.19,0 158.39,0 237.58,0l596.63 1053.47zm-359.81 -348.85l-333.78 -589.37 -43.68 0 -333.78 589.37 711.24 0zm-3672.84 -189.51l743.55 0c145.85,0 193.03,-54.48 193.03,-199.24 0,-138.33 -46.6,-193.01 -193.03,-193.01l-743.55 0 0 392.26zm766.13 -515.12c197.12,0 311.8,109.89 311.8,241.3l0 174.57c0,92.18 -90.76,180.13 -155.17,180.13 65.53,0 135.65,90.11 135.65,185.47l0 272 -139.29 0 0 -266.57c0,-62.45 -70.02,-132.5 -132.5,-132.5l-786.61 0 0 399.07 -139.28 0 0 -1053.47c301.79,0 603.61,0 905.41,0z"/>
  </g>
 </g>
</svg>
