<?xml version="1.0" encoding="UTF-8"?>
<!DOCTYPE svg PUBLIC "-//W3C//DTD SVG 1.1//EN" "http://www.w3.org/Graphics/SVG/1.1/DTD/svg11.dtd">
<!-- Creator: CorelDRAW -->
<svg xmlns="http://www.w3.org/2000/svg" xml:space="preserve" width="100%" height="100%" version="1.1" style="shape-rendering:geometricPrecision; text-rendering:geometricPrecision; image-rendering:optimizeQuality; fill-rule:evenodd; clip-rule:evenodd"
viewBox="0 0 19476.5 5267.06"
 xmlns:xlink="http://www.w3.org/1999/xlink"
 xmlns:xodm="http://www.corel.com/coreldraw/odm/2003">
 <defs>
  <style type="text/css">
   <![CDATA[
    .fil1 {fill:black}
    .fil3 {fill:red}
    .fil0 {fill:white}
    .fil2 {fill:white}
   ]]>
  </style>
 </defs>
 <g id="Layer_x0020_1">
  <metadata id="CorelCorpID_0Corel-Layer"/>
  <rect class="fil0" width="19476.5" height="5267.06"/>
  <path class="fil1" d="M14619.66 2261.59l-144.32 242.18 345.83 0 -1169.79 1963.14 -2508.14 0 24.2 -40.63c-79.29,26.7 -164.22,40.63 -252.66,40.63l-1436.6 0c-132.92,0 -251.28,-68.86 -316.93,-184.45 -6.32,-11.11 -12,-22.41 -17.06,-33.85 -141.93,140.24 -331.53,218.3 -540.85,218.3l-1428.72 0c-132.97,0 -251.4,-68.9 -317.09,-184.52 -10.65,-18.77 -19.55,-38.11 -26.67,-57.82 -203.92,232.87 -493.87,364.9 -817.53,364.9l-721.29 0 -345.66 638.74 -1496.77 0 140.47 -259.57 -331.64 0 1052.98 -1945.76 -1452.1 0 140.47 -259.56 -331.64 0 1474.39 -2724.44 2104.81 0c163.35,0 307.96,82.18 391.57,222.51 18.37,30.83 32.87,62.96 43.48,95.84 162.68,-202.86 402.61,-318.35 671.7,-318.35l1442.88 0c95.72,0 183.86,35.68 250.31,98.88l25 -98.88 1328.28 0 -33.54 114.59 98.87 -114.59 1025.63 0 -23.27 79.52 65.92 -79.52 4673.15 0c149.82,0 282.69,77.32 356.7,207.6 19.68,34.66 33.94,70.89 42.86,107.86 60.48,35.59 111.63,87.13 148.31,151.7 73.65,129.68 71.36,281.67 -3.01,410.48 -94.13,163.06 -231.64,308.77 -399.63,396.85 33.31,121.15 12.43,252.96 -52.04,361.14l-349.81 587.08 -1331.05 0z"/>
  <path class="fil2" d="M12930.73 2914.3l91.81 0 331.42 -556.19 1075.57 0 -1034.04 1735.33 -1075.57 0 400.88 -672.75 -91.8 0 -400.88 672.75 -1075.57 0 1034.04 -1735.33 1075.57 0 -331.43 556.19zm-7897.73 1301.7l-345.67 638.74 -1237.72 0 1351.09 -2496.63 2036.94 0c123.2,0 230.65,61.05 293.72,166.9 63,105.73 65.56,229.48 6.98,337.72l-454.48 839.81c-175.42,324.14 -493.14,513.46 -861.69,513.46l-789.17 0zm2869.68 -600.84c14.31,4.88 38.13,4.04 48.72,2.28 28.5,-4.72 55.75,-19.14 70.85,-44.51l723.87 -1214.82 1075.57 0 -841.83 1412.77c-122.21,205.11 -328.93,322.56 -567.69,322.56l-1428.71 0c-92.01,0 -172.58,-46.89 -218.06,-126.89 -45.43,-79.99 -44.46,-173.23 2.62,-252.25l808.13 -1356.19 1075.57 0 -749.04 1257.05zm2242.86 -230.63l-463.19 -154.55c-66.98,-22.35 -116.85,-70.57 -141.44,-136.76 -24.61,-66.21 -18.3,-135.29 17.84,-195.96l129.12 -216.67c122.2,-205.07 328.84,-322.48 567.54,-322.48l1440.31 0c91.95,0 172.47,46.86 217.89,126.81 45.4,79.93 44.43,173.1 -2.62,252.06l-140.81 236.32 -907.71 0 485.5 163.13c66.87,22.48 116.56,70.69 141.06,136.85 24.49,66.14 18.17,135.11 -17.93,195.7l-179.92 301.97c-122.18,205.07 -328.86,322.49 -567.56,322.49l-1436.61 0c-91.95,0 -172.47,-46.85 -217.89,-126.8 -45.4,-79.93 -44.44,-173.1 2.62,-252.07l196.65 -330.04 877.15 0zm165.52 55.23l-106.7 179.04 50.14 0c33.71,0 61.03,-15.53 78.28,-44.48l34.3 -57.57c7.66,-12.86 8.79,-25.16 3.59,-39.19 -5.22,-14.03 -14.12,-22.62 -28.31,-27.36l-31.3 -10.44zm411.59 -513.44l44.75 -75.18 -53.83 0c-18.98,0 -37.1,4.97 -52.59,16.04 -7.7,5.49 -10.75,12.72 -9.37,22.06 1.4,9.38 6.42,15.36 15.41,18.37l55.63 18.71zm-5035.66 81.21l-287.96 532.09 67.28 0c43.66,0 79.56,-21.4 100.33,-59.78l237.27 -438.41c4.28,-7.91 4.16,-14.96 -0.45,-22.67 -4.61,-7.74 -10.73,-11.23 -19.73,-11.23l-96.74 0z"/>
  <path class="fil3" d="M13141.88 2426.46l-916.45 0 -952.6 1598.64 916.45 0 400.88 -672.75 250.92 0 -400.88 672.75 916.45 0 952.6 -1598.64 -916.45 0 -331.42 556.19 -250.92 0 331.42 -556.19zm-6304.24 0l-1996.22 0 -1277.12 2359.93 1082.31 0 345.67 -638.74 829.89 0c343.47,0 638.11,-175.56 801.58,-477.63l454.48 -839.81c47.17,-87.18 45.15,-185.07 -5.58,-270.22 -50.75,-85.15 -135.88,-133.53 -235.01,-133.53zm-973.62 647.49l-237.27 438.41c-32.72,60.47 -91.7,95.61 -160.44,95.61l-181.98 0 361.94 -668.79 137.46 0c33.07,0 61.49,16.15 78.44,44.58 16.93,28.41 17.6,61.1 1.85,90.19zm2667.42 -647.49l-916.45 0 -788.26 1322.82c-34.51,57.93 -35.21,124.89 -1.9,183.51 33.31,58.62 91.2,92.31 158.63,92.31l1428.71 0c214.68,0 399.07,-104.78 508.98,-289.2l780.27 -1309.44 -916.46 0 -704 1181.45c-76.14,127.78 -306.29,88.56 -238.34,-25.49l688.82 -1155.96zm1692.24 1026.42l-916.45 0 -176.78 296.67c-34.48,57.87 -35.18,124.76 -1.9,183.33 33.27,58.57 91.1,92.22 158.46,92.22l417.51 0 178.2 0 261.01 0 308.57 0 271.32 0c214.63,0 398.97,-104.74 508.85,-289.13l179.91 -301.97c25.53,-42.85 29.87,-90.22 12.56,-136.99 -17.33,-46.78 -51.46,-79.9 -98.75,-95.79l-680.95 -228.82c-33.32,-11.21 -56.03,-38.29 -61.22,-73.08 -5.18,-34.78 8.61,-67.3 37.22,-87.75 26.18,-18.69 57.8,-28.77 92.33,-28.77l53.83 0c25.26,0 46.93,12.61 59.41,34.58 12.49,21.96 12.22,47.04 -0.71,68.74l-11.21 18.84 916.45 0 120.94 -202.95c34.48,-57.87 35.18,-124.76 1.9,-183.33 -33.27,-58.57 -91.11,-92.22 -158.46,-92.22l-422.88 0 -172.83 0 -264.69 0 -350.93 0 -228.98 0c-214.62,0 -398.96,104.74 -508.83,289.11l-129.11 216.67c-25.57,42.89 -29.89,90.35 -12.51,137.17 17.4,46.8 51.65,79.93 99.02,95.74l660.01 220.22c33.84,11.29 58.3,34.95 70.73,68.38 12.42,33.44 9.33,67.34 -8.93,97.98l-34.3 57.57c-29.58,49.65 -79.21,77.85 -136.99,77.85l-50.14 0c-25.25,0 -46.94,-12.63 -59.41,-34.59 -12.48,-21.95 -12.23,-47.03 0.7,-68.74l78.03 -130.94z"/>
  <path class="fil2" d="M12653.03 152.79l1689.23 0 -302.58 507.75 -576.72 0 -18.09 31.58 575.99 0 -302.57 507.75 -564.17 0 -103.36 180.49 595.67 0 -302.58 507.76 -1684.51 0 856.79 -1496.25 -1303.25 1496.25 -1110.44 0 113.19 -447.48 -401.63 447.48 -1091.88 0 438.86 -1735.33 1087.56 0 -138.39 472.76 407.91 -472.76 821.44 0 -135.45 462.69 383.66 -462.69 1065.32 0zm3357.49 842.16c12.88,18.58 23.64,39.16 32,61.27 37.28,98.54 22.44,210.74 -31.02,300.43l-316.67 531.47 -1075.57 0 388.81 -648.41c-10.76,-6.04 -63.56,-4.57 -78.07,-4.14 -32.72,1 -58.75,16.32 -75.5,44.43l-362.35 608.12 -1135.51 0 1034.04 -1735.33 1816.65 0c108.85,0 203.89,55.3 257.65,149.94 53.69,94.54 51.55,203.46 -2.6,297.27 -101.57,175.92 -259.66,330.17 -451.86,394.95zm-11567.81 1015.72l-345.66 638.74 -1237.73 0 1351.09 -2496.62 2036.94 0c123.2,0 230.65,61.04 293.72,166.9 63,105.72 65.56,229.48 6.98,337.72l-454.48 839.8c-175.42,324.14 -493.14,513.46 -861.69,513.46l-789.17 0zm4354.27 -1857.88c91.02,0 170.79,45.81 216.64,124.45 45.85,78.61 46.44,170.61 1.63,249.81l-554.18 979.4c-136.76,241.72 -376.73,381.67 -654.45,381.67l-1442.89 0c-91.01,0 -170.78,-45.81 -216.63,-124.46 -45.85,-78.6 -46.44,-170.6 -1.64,-249.8l554.18 -979.4c136.76,-241.72 376.74,-381.67 654.46,-381.67l1442.88 0zm6427.42 506.48l-44.27 74.32c24.79,0.32 49.19,-0.23 72.2,-2.84 35.72,-4.07 64.18,-12.73 83.36,-44.91 2.8,-4.68 8.43,-14.78 11.98,-23.52 -26.71,-6.24 -82.78,-4.59 -123.27,-3.05zm-10127.7 142.93l-287.96 532.1 67.28 0c43.67,0 79.56,-21.4 100.33,-59.79l237.27 -438.41c4.29,-7.91 4.16,-14.96 -0.45,-22.67 -4.61,-7.73 -10.73,-11.23 -19.73,-11.23l-96.74 0zm2223.6 609.88l23.79 0c34.4,0 62.37,-16.31 79.3,-46.25l417.02 -737 -23.78 0c-34.41,0 -62.37,16.31 -79.31,46.24l-417.02 737.01z"/>
  <path class="fil3" d="M13476.91 1819.77l976.41 0 342.47 -574.75c28.7,-48.18 76.07,-76.06 132.13,-77.76 64.24,-1.96 117.21,0.3 138.11,37.04 12.46,21.96 12.23,47.04 -0.7,68.74l-325.79 546.73 916.45 0 296.8 -498.1c95.29,-159.92 19.57,-362.6 -138.14,-362.6 224.21,0 446.23,-146.75 588.53,-393.24 42.14,-72.99 43.99,-156.08 2.37,-229.34 -41.62,-73.26 -113.94,-115.36 -198.22,-115.36l-1777.82 0 -952.6 1598.64zm-7229.56 -1598.64l-1996.22 0 -1277.11 2359.94 1082.31 0 345.66 -638.74 829.89 0c343.48,0 638.11,-175.56 801.58,-477.64l454.48 -839.81c47.18,-87.18 45.15,-185.06 -5.58,-270.22 -50.75,-85.15 -135.88,-133.53 -235.01,-133.53zm-973.62 647.5l-237.27 438.4c-32.72,60.47 -91.7,95.61 -160.44,95.61l-181.98 0 361.94 -668.78 137.46 0c33.08,0 61.49,16.14 78.44,44.57 16.93,28.42 17.6,61.1 1.85,90.2zm3523.25 -647.5l-1442.88 0c-253.11,0 -470.34,126.7 -594.97,346.98l-554.18 979.4c-32.85,58.07 -32.42,124.11 1.18,181.73 33.62,57.64 90.89,90.53 157.6,90.53l1442.89 0c253.1,0 470.33,-126.69 594.97,-346.97l554.18 -979.4c32.84,-58.07 32.41,-124.12 -1.19,-181.73 -33.61,-57.64 -90.89,-90.54 -157.6,-90.54zm-1536.16 1157.3l417.02 -737.01c29.08,-51.37 79.75,-80.93 138.79,-80.93l23.78 0c24.99,0 46.45,12.32 59.04,33.92 12.59,21.58 12.75,46.33 0.45,68.07l-417.03 737.01c-29.08,51.37 -79.75,80.93 -138.78,80.93l-23.79 0c-24.99,0 -46.44,-12.32 -59.03,-33.92 -12.6,-21.58 -12.76,-46.33 -0.45,-68.07zm3033.43 441.34l486.03 0 401.49 0 1392.44 -1598.64 -954.39 0 -574.29 692.61 202.76 -692.61 -30.01 0 -623.76 0 -45.15 0 -593.36 687.68 201.32 -687.68 -943.15 0 -404.29 1598.64 360.11 0 519.33 0 94.17 0 566.3 -630.97 -159.57 630.97 104.02 0zm1482.98 0l842.49 0 100.65 0 584.64 0 221.12 -371.06 -593.26 0 181.62 -317.18 564.96 0 221.12 -371.07 -573.59 0 96.35 -168.26 577.52 0 221.12 -371.07 -586.16 0 -99.13 0 -844.02 0 -915.43 1598.64zm3407.58 -1227.57c96.38,0 306.06,-33.27 209.59,128.62 -61.83,103.79 -185.55,77.83 -332.61,77.83l123.02 -206.45z"/>
 </g>
</svg>
