<?xml version="1.0" encoding="UTF-8"?>
<!DOCTYPE svg PUBLIC "-//W3C//DTD SVG 1.1//EN" "http://www.w3.org/Graphics/SVG/1.1/DTD/svg11.dtd">
<!-- Creator: CorelDRAW 2026 -->
<svg xmlns="http://www.w3.org/2000/svg" xml:space="preserve" width="194.767mm" height="52.6796mm" version="1.1" style="shape-rendering:geometricPrecision; text-rendering:geometricPrecision; image-rendering:optimizeQuality; fill-rule:evenodd; clip-rule:evenodd"
viewBox="0 0 19476.72 5267.96"
 xmlns:xlink="http://www.w3.org/1999/xlink"
 xmlns:xodm="http://www.corel.com/coreldraw/odm/2003">
 <defs>
  <style type="text/css">
   <![CDATA[
    .fil0 {fill:black}
    .fil1 {fill:#020000}
    .fil3 {fill:red}
    .fil2 {fill:white}
   ]]>
  </style>
 </defs>
 <g id="Layer_x0020_1">
  <metadata id="CorelCorpID_0Corel-Layer"/>
  <rect class="fil0" width="19476.72" height="5267.96"/>
  <g id="_2808917926048">
   <path class="fil1" d="M4133.94 3645.16c19.63,-278.79 241.53,-894.38 349.77,-1039.75 48.42,46.04 24.37,-0.48 35.95,74.7 10.34,67.07 -105.73,440.54 -126.7,505.56 -45.13,139.98 -124.72,407.98 -259.02,459.49zm-95.05 93.14c311.4,82.57 486.26,-661.19 537.16,-884.01 66.18,-289.64 19.68,-322.27 -81.95,-379.46 -226.5,73.11 -563.75,1029.6 -455.21,1263.47z"/>
   <path class="fil2" d="M9819.71 2377.49l133.85 -419.33c4.54,-14.24 17.24,-23.52 32.19,-23.52l1061.61 0 -4.14 11.65c104.62,-15.88 211.77,-18.18 313.67,-5.22l217.7 27.69c10.23,1.3 18.51,6.52 24.12,15.18 5.59,8.66 6.94,18.36 3.93,28.22l-298.44 976.72c-3.2,10.44 -10.4,18.05 -20.65,21.82 -10.24,3.78 -20.67,2.65 -29.87,-3.23l-205.34 -131.22c-35.43,-22.65 -114.93,-65.65 -158.98,-57 -26.12,5.15 -48.45,66.9 -55.2,88.14l-494.22 1551.36c-4.54,14.27 -17.29,23.56 -32.28,23.52l-1046.09 -2.52 -942.5 5.87c-0.51,0 -0.94,-0.01 -1.45,-0.03l-3.97 -0.14c-468.66,-17.57 -692.99,-332.7 -737.06,-732.71 -1.69,-15.24 -12.86,-27.07 -27.98,-29.62 -15.12,-2.54 -29.56,4.99 -36.14,18.83 -16.61,35.03 -33.19,70.08 -49.69,105.16 -74.62,158.64 -148.94,317.64 -215.33,479.94l-46.98 114.85c-5.3,12.96 -17.25,20.98 -31.26,20.99l-987.77 0.73c-8.22,0.02 -15.51,-2.59 -21.54,-7.7 -13.02,-10.98 -31.89,-10.65 -44.5,0.8 -6.1,5.54 -14.14,8.63 -22.94,8.53l-952.73 -9.35c-9.48,-0.1 -17.59,-3.62 -24.13,-10.47 -6.53,-6.87 -9.66,-15.15 -9.3,-24.61l21.68 -570.48c0.57,-14.99 -8.29,-28.08 -22.41,-33.12 -14.14,-5.03 -29.26,-0.51 -38.31,11.45 -73.18,96.77 -156.77,185.86 -240.75,274 -246.18,258.33 -718.42,352.29 -1057.56,267.54 -215.24,-53.79 -396.63,-178.18 -504.81,-374.5 -87.94,-159.59 -113.54,-340.77 -103.88,-520.74 0.69,-12.76 -5.27,-24.07 -16.19,-30.69 -10.93,-6.64 -23.71,-6.72 -34.72,-0.23 -207.82,122.6 -452.51,161.32 -730.11,161.32l-122.45 0c-14.78,0 -27.34,9.02 -32.04,23.03l-231.38 689.08c-4.65,13.86 -16.99,22.85 -31.62,23.03l-1139.83 14.02c-11.22,0.14 -20.94,-4.69 -27.6,-13.71 -6.67,-9.03 -8.42,-19.73 -4.99,-30.41l209.48 -651.84c3.41,-10.65 1.68,-21.33 -4.95,-30.36 -6.64,-9.01 -16.31,-13.86 -27.51,-13.77l-552.11 4.51c-10.87,0.09 -20.25,-4.45 -26.93,-13.01 -6.68,-8.58 -8.78,-18.78 -6.05,-29.29l203.11 -780.79c3.92,-15.1 17.11,-25.28 32.72,-25.28l627.68 0.2c15.53,0 28.68,-10.09 32.67,-25.1 6.73,-25.36 14.46,-50.49 22.09,-75.62 19.36,-63.58 40.18,-126.72 61.37,-189.72 55.51,-165.01 114.02,-329.02 173.77,-492.55 59.54,-162.95 120.34,-325.48 184.04,-486.87 24.13,-61.13 48.62,-122.14 74.52,-182.54 18.21,-42.5 36.25,-85.2 59.66,-125.18 170.91,-292.02 424.06,-492.04 762.44,-547.37 337.95,-55.26 721.15,-46.09 994.61,187.94 224.59,192.2 305.29,476.83 310.3,763.24 1.83,104.86 -6.44,212.8 -22.17,320.61 -1.91,13.1 3.47,25.34 14.41,32.79 10.93,7.46 24.29,7.99 35.79,1.43 55.68,-31.82 115.69,-58.78 180.79,-80.52 340.67,-113.71 726.67,-64.2 1002.37,174.9 3.2,2.77 6.38,5.55 9.51,8.35 10,8.9 23.4,11.1 35.72,5.86 12.31,-5.25 20.03,-16.42 20.53,-29.81l2.52 -66.41c0.69,-18 15.32,-32.27 33.31,-32.51l981.91 -12.98c8.87,-0.11 16.71,2.84 23.05,8.63 12.32,11.28 30.65,11.93 43.75,1.58 5.78,-4.56 13.04,-7.1 20.97,-7.1l853.48 1.18c9.72,0.01 18.08,3.65 24.69,10.77 0.17,0.18 0.36,0.38 0.52,0.57 6.7,7.49 15.38,11.34 25.43,11.26 10.06,-0.06 18.67,-4.03 25.27,-11.62 6.27,-7.23 15.4,-11.41 25.56,-11.37l1021.26 5.63c11.39,0.07 21.16,5.22 27.63,14.61 6.46,9.37 7.83,20.34 3.84,31.01l-8.16 21.86c-4.97,13.32 -1.45,27.58 9.15,37.04 10.61,9.46 25.17,11.34 37.84,4.89 151.47,-77.15 322.64,-115.21 518.66,-114.55 398.11,1.35 741.89,158.97 889.32,459.01 6.2,12.64 18.79,19.85 32.84,18.8 14.03,-1.05 25.4,-10.02 29.68,-23.43zm8849.1 190.55c37.49,12.24 73.84,27.93 108.48,47.02 162.08,89.33 265.88,240.64 303.82,420.45 76.94,364.53 -138.9,687.63 -503.41,760.21 -76.86,15.3 -156.33,17.91 -233.96,7.21 -11.07,-1.53 -21.26,2.01 -29,10.07 -36.98,38.53 -75.52,75.63 -115.39,111.06 -288.52,256.57 -683.89,465.33 -1077.32,465.83l-2435.11 3.11 0.13 -0.39 -1375.54 0c-11.29,0 -21.02,-5.03 -27.55,-14.24 -6.55,-9.21 -8.07,-20.03 -4.35,-30.7l200.86 -574.91c4.11,-11.76 1.78,-23.9 -6.4,-33.31 -8.16,-9.4 -19.87,-13.4 -32.08,-10.97 -45.66,9.05 -91.26,18.47 -136.76,28.22 -11.96,2.56 -20.97,10.59 -24.9,22.16l-201.09 590.85c-4.74,13.94 -17.26,22.9 -31.99,22.9l-1443.56 0c-15.61,0 -28.8,-10.21 -32.72,-25.31 -1.52,-5.88 -4.72,-11.37 -9.42,-15.91 -9.83,-9.43 -23.48,-12.07 -36.11,-6.94 -56.57,22.91 -113.15,45.89 -169.73,68.78 -124.64,50.39 -869.38,301.57 -922.17,221.21 -103.13,-105.49 575.8,-589.06 715.52,-678.97 229.04,-147.4 466.61,-280.9 710.43,-402.17 8.11,-4.03 13.69,-10.31 16.75,-18.83l545.09 -1517.44c4.9,-13.67 17.27,-22.37 31.79,-22.37l1387.23 -0.04c11.25,0 20.93,4.98 27.47,14.12 6.55,9.15 8.15,19.92 4.52,30.56l-268.12 787.89c-4.17,12.23 -1.38,24.88 7.54,34.22 8.91,9.34 21.41,12.71 33.81,9.13 49.69,-14.34 99.46,-28.35 149.33,-41.98 11.05,-3.02 19.2,-10.63 22.98,-21.44l275.98 -789.85c4.82,-13.81 17.27,-22.65 31.9,-22.65l1449.24 0 -1.8 5.02 2296.12 27.45c365.37,4.35 648.24,194.62 778.6,521.35 3.85,9.63 11.03,16.38 20.89,19.6zm-1822.17 1004.95c-180.32,-15.48 -360.88,-28.2 -541.66,-36.14 -15.14,-0.66 -28.41,8.33 -33.39,22.64l-35.64 102.26c-3.71,10.66 -2.17,21.48 4.36,30.68 6.54,9.21 16.25,14.23 27.54,14.23l415.45 0.26c0.3,0 0.57,0 0.87,0.01l2.58 0.07c88.2,2.38 144.53,-26.64 184.17,-80.24 7.47,-10.12 8.79,-22.55 3.63,-34 -5.17,-11.46 -15.39,-18.69 -27.91,-19.77z"/>
   <path class="fil0" d="M8504.19 3615.84c0.74,82.7 20.63,101.76 112.94,101.76l845.46 0 -197.72 644.33 -944.68 5.87 -2.12 -0.08c-487.99,-17.47 -650.79,-403.16 -630.23,-837.45 15.88,-335.64 152.79,-802.94 353.63,-1070.71 212.42,-283.19 470.5,-419.85 826.01,-418.64 501.34,1.71 925.11,270.21 836.9,835.44l-0.79 5.1 -194.98 741.45 -1004.42 -7.07zm-4841.18 -1227.72c125.83,-184.41 277.52,-329.65 503.36,-405.04 302.17,-100.86 642.74,-60.46 887.89,152.14 125.12,108.51 204.42,243.22 242.03,389.75l18.11 -476.52 805.77 -10.66 -93.12 752.5 330.38 -750.58 708.54 0.98 -51.93 732.79 299.71 -732.73 844.15 4.65 -50.62 135.53c-56.26,150.63 -125.68,300.85 -193.26,446.78 -89.53,193.33 -182.07,385.38 -274.53,577.32 -94.93,197.07 -190.21,394 -283.32,591.93 -75.25,159.99 -150.79,321.84 -217.76,485.48l-25.64 62.68 -840.05 0.63 50.53 -607 -283.72 608.16 -812.23 -7.97 50.05 -1316.27c-31,105.17 -61.01,211.1 -94.74,315.38 -25.98,80.36 -54.75,159.75 -92.77,235.31 -85.31,169.56 -218.75,311.75 -348.62,448.04 -215.82,226.48 -644.87,309.19 -943.72,234.51 -183.07,-45.76 -337.79,-149.38 -430.18,-317.05 -117.6,-213.42 -105.16,-475.74 -54.08,-706.28 15.9,-71.79 32.91,-139.87 51.9,-205.62 -4.76,7.37 -9.53,14.66 -14.33,21.86 -238.03,357.54 -567.34,438.74 -971.57,438.74l-231.47 0 -247.1 735.89 -963.46 11.86 237.92 -740.38 -652.26 5.32 159.16 -611.85 686.73 0.24 11.02 -61.93c7.16,-40.27 20.53,-83.19 32.46,-122.34 19,-62.47 39.5,-124.58 60.32,-186.46 55.17,-163.98 113.4,-327.18 172.76,-489.69 59.17,-161.93 119.67,-323.66 182.97,-484.05 23.7,-60.04 47.79,-120.06 73.22,-179.39 15.73,-36.69 32.89,-77.64 53.05,-112.07 152.82,-261.11 375.79,-440.91 679.79,-490.62 300.54,-49.14 654.56,-48 898.99,161.18 197.9,169.37 264.72,424.51 269.11,675.79 4.18,239.49 -50.43,520.91 -139.44,789.06zm5174.13 714.68c37.37,-94.22 65.13,-196.95 76,-295.5 3.55,-32.29 9.44,-134.55 -8.44,-174.01 -31.74,11.52 -76.42,64.86 -91.27,84.31 -61.68,80.86 -111.52,183.75 -150.8,277.27 -14.9,35.46 -29,71.5 -42.25,107.93l216.76 0zm9725.98 -440.42c54.87,10.27 108.1,28.74 157.3,55.86 131.95,72.72 214.55,195.31 245.43,341.6 64.07,303.63 -112.06,560.78 -411.15,620.33 -88.92,17.71 -182.08,15.12 -269.16,-9.42 -53.54,60.8 -109.56,116.45 -164.47,165.28 -266.67,237.13 -636.04,435.59 -999.19,436.05l-2269.1 2.9 303.94 -872.55 -20.58 1.32c-65.28,4.22 -130.51,8.74 -195.7,13.57l-307.03 857.48 -1203.55 0 247.92 -709.56c-161.12,27.48 -321.63,58.85 -481.46,94.76l-209.22 614.8 -1251.62 0 59.51 -165.69c-160.74,63.71 -321.39,129.36 -483.45,194.89 -80.07,32.38 -600.11,225.22 -629.56,191.44 -41.46,-47.56 460.21,-395.45 530.83,-440.9 245.73,-158.15 497.49,-297.61 753.58,-422.58l545.83 -1519.49 1210.79 -0.04 -325.48 956.4c165.7,-52.59 334.51,-102.03 505.17,-147.3l282.7 -809.1 1222.29 0 -201.91 563.85c40.39,-4.11 80.7,-7.83 120.91,-11.16l89.44 -7.39 188.07 -539.9 2263.72 27.05c367.33,4.39 603.16,215.26 695.2,517.5zm-1502.09 811.86c-276.99,-26.58 -554.5,-48.38 -832.62,-58.33l-31.15 -1.12 -142.71 409.55 627.55 0.38 1.47 0.04c193.43,5.74 298.1,-101.52 354.52,-278.52l22.94 -72zm-14738.84 -595.07c21.24,-4.64 40.36,-10.94 55.88,-19.42 69.27,-37.81 127.21,-155.51 161.74,-222.5 51.1,-99.13 96.95,-205.55 139.52,-308.57 60.89,-147.44 117.45,-299.33 162.11,-452.56 32.82,-112.61 72.32,-266.98 66.32,-384.67 -1.1,-21.41 -5.19,-60 -18.37,-78.04 -4.77,-6.55 -12.13,-7.74 -19.77,-7.96 -22.79,17.23 -53.5,95.7 -61.65,118.44l-485.78 1355.28zm8536.45 -765.35c155.02,-56.16 330.02,-75.4 483.38,-55.88l118.83 15.12 -236.98 775.55 -112.09 -71.63c-66.15,-42.29 -164.12,-89.25 -245.14,-73.32 -80.96,15.91 -121.87,96.22 -144.74,167.98l-475.52 1492.67 -936.44 -2.25 737.17 -2309.61 833.35 0 -21.82 61.37zm-6360.23 443.33c-39.64,21.4 -106.23,146.22 -123.95,181.86 -61.18,123.13 -110.76,257.37 -154.59,387.62 -32.29,95.89 -68.21,184.31 -94.6,283.4 -11.31,42.5 -48.01,202.27 -24.92,244.9 1.59,0.13 3.26,0.16 4.38,0.16 145.26,0 272.82,-448.35 307.29,-566.28 31.1,-106.44 63.18,-212.8 82.8,-322.11 6.42,-35.84 26.53,-174.52 3.59,-209.55z"/>
   <path class="fil2" d="M16232.03 3314.99c287.91,10.31 573.89,33.09 860.36,60.83l190.18 -596.75c6.75,-21.17 27.78,-95.95 20.4,-122.47 -18.66,-7.3 -76.56,-6.66 -93.88,-6.88l-745.23 -0.04 -231.83 665.31z"/>
   <path class="fil3" d="M15912.46 3925.23l479.65 -1376.53 817.62 0.04c113.72,1.44 254.52,-7.23 169.05,261l-244.48 767.16c-70.41,220.96 -214.79,355.88 -453.72,348.8l-768.12 -0.47zm-13685.23 -1080.4l485.69 -1355.01c43.9,-122.5 91.58,-185.4 152.21,-185.4 386.28,0 -112.42,1140.16 -235.57,1379.1 -147.83,286.79 -208.12,317.42 -557.1,306.35l-1312.36 -0.46 -106.35 408.79 660.26 -5.39 -237.73 739.8 751.48 -9.25 247.4 -736.78 304.08 0c302.58,0 647.75,-33.57 887.51,-393.73 408.41,-613.48 956.26,-2388.21 -616.1,-2131.11 -307.91,50.35 -493.55,244.81 -608.95,441.98 -85.3,145.73 -531.28,1365.15 -562.5,1540.67l748.03 0.44zm1896.93 249.59c99.38,-295.19 244.09,-638.73 369.94,-638.73 219.09,0 71.19,468.62 14.84,661.44 -77.97,266.84 -196.55,638.94 -404.21,638.94 -249.21,0 -9.66,-575.21 19.43,-661.65zm1059.73 -111.78c192.49,-651.21 -386.1,-1103.88 -985.54,-903.78 -249.19,83.18 -394.76,263.53 -516.14,467.22 -135.51,227.39 -207.51,424.71 -270.38,708.35 -251.06,1133.06 926.04,1043.86 1256.29,697.3 354.13,-371.63 357.98,-435.34 515.77,-969.09zm4264.18 1278.77l724.55 1.75 453.07 -1422.17c92.25,-289.56 318.18,-291.17 540.48,-149.1l163.1 -533.78c-247.12,-31.45 -482.72,49.54 -610.82,139.78 -6.08,4.29 -13.94,4.14 -19.87,-0.36 -5.93,-4.51 -8.17,-12.02 -5.68,-19.04l44.48 -125.06 -616.49 0 -672.82 2107.98zm2430.98 -87.59l1035.75 0 165.72 -486.94c-67.02,16.03 -133.89,32.89 -200.64,50.65 -329.48,87.65 -645.68,200.33 -959.96,322.51l-40.87 113.78zm1398.61 -1066.25l304.31 -894.16 -998.72 0.04 -487.36 1356.72c331.46,-154.75 669.58,-286.7 1010.72,-404.82 56.56,-19.58 113.59,-38.85 171.05,-57.78zm294.45 1066.25l990.2 0 267.83 -748c-348.19,27.89 -694.82,65.87 -1038.85,120.7l-219.18 627.3zm1522.02 -1485.27l170.14 -475.14 -1007.19 0 -236.78 677.67c355.33,-89.72 717.17,-160.39 1073.83,-202.53zm2772.58 -442.7l-2191.06 -26.18 -680.71 1954.15 2126.81 -2.72c376.23,0 788.15,-239.75 1064,-539.84 -3.48,-1.83 -6.94,-3.67 -10.39,-5.58 -131.7,-72.8 -214.44,-195.26 -246.03,-341.18 -65.82,-304.1 111.92,-560.65 411.07,-620.31 37.38,-7.46 75.55,-11.34 113.69,-11.54 -89.07,-246.18 -290.67,-403.27 -587.38,-406.8z"/>
   <path class="fil2" d="M18028.03 3263.14c114.84,530.58 957.34,378.23 839.01,-182.45 -111.99,-530.73 -960.04,-376.67 -839.01,182.45z"/>
   <path class="fil2" d="M15129.62 3302.99l205.39 -537.23c-1289.23,106.59 -3104.9,694.17 -4380.45,1557.82 -2.87,1.95 -3.8,5.74 -2.13,8.8 1.67,3.06 5.38,4.33 8.59,2.95 1393.63,-601 2264.58,-909.27 4168.6,-1032.34z"/>
   <path class="fil2" d="M9190.09 4261.41l135.89 -442.83 -708.85 0c-161.56,0 -216.21,-71.95 -213.83,-220.71 4.64,-288.59 267.8,-1067.77 512.5,-1067.77 146.76,0 130.65,361.69 -11.98,673.68l-212.7 0 -99.14 311.69 838.92 5.91 173.71 -660.59c87.62,-561.47 -386.04,-717.7 -737.48,-718.89 -321.49,-1.1 -550.34,118.88 -744.87,378.25 -305.99,407.93 -649.98,1716.24 199.42,1746.66l868.41 -5.4zm-2145.13 -17.21c217.76,-532.18 802.48,-1656.26 967.73,-2098.62l-631.3 -3.48 -512.66 1253.38 88.86 -1253.95 -534.33 -0.74 -580.9 1319.75 163.38 -1320.24 -594.08 7.85 -79.51 2090.83 643.36 6.32 495.28 -1061.67 -88.33 1061.06 662.5 -0.49z"/>
  </g>
 </g>
</svg>
