<?xml version="1.0" encoding="UTF-8"?>
<!DOCTYPE svg PUBLIC "-//W3C//DTD SVG 1.1//EN" "http://www.w3.org/Graphics/SVG/1.1/DTD/svg11.dtd">
<!-- Creator: CorelDRAW -->
<svg xmlns="http://www.w3.org/2000/svg" xml:space="preserve" width="6in" height="1.03667in" version="1.1" style="shape-rendering:geometricPrecision; text-rendering:geometricPrecision; image-rendering:optimizeQuality; fill-rule:evenodd; clip-rule:evenodd"
viewBox="0 0 6000 1037"
 xmlns:xlink="http://www.w3.org/1999/xlink"
 xmlns:xodm="http://www.corel.com/coreldraw/odm/2003">
 <defs>
  <style type="text/css">
   <![CDATA[
    .fil0 {fill:black;fill-rule:nonzero}
    .fil2 {fill:red;fill-rule:nonzero}
    .fil1 {fill:white;fill-rule:nonzero}
   ]]>
  </style>
 </defs>
 <g id="Layer_x0020_1">
  <metadata id="CorelCorpID_0Corel-Layer"/>
  <path class="fil0" d="M5923.93 274.01c-31.74,-40.75 -94.42,-89.33 -212.91,-89.33l-77.45 0c-42.06,0 -81.64,6.08 -118.23,18.11 -33.04,-12.03 -70.66,-18.11 -112.44,-18.11l-77.43 0c-41.08,0 -79.89,5.85 -115.7,17.23l3.99 -17.23 -295.19 0c-89.5,0 -168.25,27.78 -228.52,80.28 -58.63,-70.26 -143.81,-79.65 -212.2,-79.65l-141.26 0c-16.07,0 -31.15,0.85 -45.78,2.09l14.18 -61.29 29.07 -125.65 -295.22 0c-90.3,0 -169.65,28.28 -230.13,81.71 -58.8,-72.75 -145.41,-82.36 -214.72,-82.36l-257.22 0c-45.57,0 -84.97,5.06 -120.24,15.42l3.56 -15.42 -865.61 0 -7.61 32.92c-50.24,-28.19 -107.65,-32.92 -156.47,-32.92l-257.22 0c-95.11,0 -163.8,21.33 -222.72,69.15 -3.63,2.96 -7.17,5.96 -10.61,9.02 -58.73,-68.89 -143.27,-78.17 -211.23,-78.17l-531.45 0 -9.07 39.17c-52.56,-33.71 -114.59,-39.17 -166.82,-39.17l-531.42 0 -18.38 79.44 -125.26 541.66 -29.05 125.66 409.9 0 18.38 -79.44 9.21 -39.85 168.94 0c51.02,0 94.36,-6.52 133.07,-19.83l-3.13 13.47 -29.05 125.66 409.89 0 16.69 -72.11 3.59 8.61 26.25 63.19 454.54 0 -8.72 -17.07c40.87,14.45 83.64,17.38 121.19,17.38l257.22 0c93.75,0 162.16,-21.11 221.83,-68.47 73.58,-58.3 99.59,-135.65 115.31,-203.63l23.78 -102.89 70.79 0 -57.68 249.33 -29.05 125.66 409.93 0 18.36 -79.44 68.34 -295.55 69.8 0 -13.1 56.66c-17.25,74.57 -27.04,160.65 31.21,233.54 60.01,75.13 147.39,84.79 216.82,84.79l257.22 0c48.81,0 90.65,-5.9 128.07,-18.05l-4.19 18.05 364.26 0 18.37 -79.44 22.27 -96.36c6.08,34.3 19.26,64.54 39.66,90.36 58.7,75.7 146.81,85.44 217.08,85.44l141.25 0c46.82,0 87.2,-5.25 123.19,-16.22l-3.91 16.96 364.22 0 18.37 -79.44 33.22 -143.58 42.65 0 -22.52 97.38 -29.06 125.64 980.42 0 18.37 -79.44 39.74 -171.85c21.37,-85.71 8.49,-164.5 -36.24,-222z"/>
  <path class="fil1" d="M4477.85 287.85l-141.27 0c-71.09,0 -117.43,13.44 -157.66,46.12 -39.99,31.72 -61.44,70.88 -75.06,129.78 -13.62,58.86 -9.88,104.23 14.02,134.15 25.12,32.66 65.24,46.11 136.33,46.11l141.26 0c71.12,0 117.47,-13.45 157.7,-46.11 37.22,-29.52 64.53,-84.63 75.39,-131.54 10.84,-46.94 10.98,-100.68 -14.36,-132.4 -25.11,-32.68 -65.26,-46.12 -136.36,-46.12zm1233.17 -0.63l-77.44 0c-49.05,0 -89.18,10.76 -121.84,28.18 -24.6,-17.42 -59.77,-28.18 -108.83,-28.18l-77.43 0c-147.94,0 -216.41,96.44 -234.93,184.84l-39.94 172.7 153.74 0 40.24 -173.99c8.91,-38.45 23.82,-49.02 68.97,-49.02l39.04 0c45.15,0 55.2,10.57 46.31,49.02l-40.24 173.99 153.8 0 40.24 -173.99c8.87,-38.45 23.81,-49.02 68.97,-49.02l39.02 0c45.15,0 55.18,10.57 46.32,49.02l-40.25 173.99 153.74 0 39.93 -172.7c22.35,-88.4 -1.51,-184.84 -149.43,-184.84zm-626.23 0l-166.22 0c-147.93,0 -216.39,96.44 -234.91,184.84l-39.93 172.7 153.74 0 40.24 -173.99c8.89,-38.45 23.81,-49.02 68.97,-49.02l147.02 0 31.1 -134.53zm-1126.81 -0.69c8.88,-38.42 23.83,-48.98 68.97,-48.98l147.02 0 31.12 -134.53 -166.25 0c-147.93,0 -216.37,96.42 -234.91,184.84l-82.36 356.17 153.76 0 51.23 -221.66 122.82 0 44.56 -134.5 -136.26 0 0.3 -1.33z"/>
  <path class="fil1" d="M2190.38 102.37l-257.22 0c-71.31,0 -117.77,13.48 -158.1,46.22 -40.32,32.76 -62.44,74.2 -79.37,147.42l-35.92 155.34c-16.93,73.23 -13.99,114.65 11.43,146.44 26.14,32.76 65.41,46.23 136.7,46.23l257.23 0c71.3,0 116.81,-13.47 158.09,-46.23 40.12,-31.78 62.21,-73.21 79.14,-146.44l35.92 -155.34c16.94,-73.22 14,-114.66 -11.18,-147.42 -25.2,-32.74 -65.43,-46.22 -136.72,-46.22zm-48.39 180.16l-42.15 182.3c-1.78,7.69 -7.73,12.54 -15.44,12.54l-218.69 0c-7.7,0 -11.39,-4.85 -9.63,-12.54l42.15 -182.3c1.79,-7.71 7.74,-12.56 15.43,-12.56l218.69 0c7.71,0 11.41,4.85 9.63,12.56zm-653.39 -180.16l-449.91 0 -125.25 541.65 199.42 0 31.38 -135.65 108.87 0 56.22 135.35 218.71 0 -69.52 -136.32c100.5,-22.15 145.57,-71.28 173.44,-191.72l4.76 -20.66c16.71,-72.24 13.78,-113.68 -11.41,-146.43 -25.18,-32.74 -65.41,-46.22 -136.71,-46.22zm-48.41 180.16l-12.12 52.43c-1.78,7.7 -7.7,12.53 -15.41,12.53l-231.22 0 17.91 -77.52 231.23 0c7.7,0 11.39,4.85 9.61,12.56zm-511.01 13.48c16.91,-73.22 14,-114.66 -11.21,-147.42 -25.19,-32.74 -65.41,-46.22 -136.72,-46.22l-449.9 0 -125.26 541.65 199.42 0 27.59 -119.28 250.48 0c71.31,0 116.82,-13.5 158.11,-46.25 40.12,-31.78 62.21,-73.19 79.14,-146.43l8.35 -36.05zm-190.77 -13.48l-14.57 63.03c-1.79,7.71 -7.7,12.51 -15.4,12.51l-231.23 0 20.37 -88.1 231.21 0c7.7,0 11.41,4.85 9.62,12.56zm2855.56 -180.16l-257.23 0c-71.31,0 -117.77,13.48 -158.11,46.22 -40.33,32.76 -62.44,74.2 -79.37,147.42l-35.91 155.34c-16.94,73.23 -13.98,114.65 11.41,146.44 26.15,32.76 65.42,46.23 136.7,46.23l257.22 0c71.29,0 116.8,-13.47 158.1,-46.23 40.09,-31.78 62.21,-73.21 79.15,-146.44l35.92 -155.34c16.93,-73.22 13.97,-114.66 -11.19,-147.42 -25.19,-32.74 -65.44,-46.22 -136.71,-46.22zm-48.4 180.16l-42.16 182.3c-1.78,7.69 -7.72,12.54 -15.43,12.54l-218.69 0c-7.7,0 -11.4,-4.85 -9.64,-12.54l42.17 -182.3c1.78,-7.71 7.72,-12.56 15.42,-12.56l218.69 0c7.71,0 11.4,4.85 9.64,12.56zm-1109.57 -180.16l-38.54 166.67 228.33 0 -86.73 374.98 199.43 0 86.7 -374.98 227.37 0 38.54 -166.67 -655.11 0z"/>
  <path class="fil2" d="M4482.61 422.22c-41.38,0 -327.59,0.45 -327.59,0.45 0,0 231.42,89.31 287.61,97.22 31.77,5.02 67.08,-12.57 78.85,-39.36 11.74,-26.75 2.48,-58.31 -38.87,-58.31z"/>
  <path class="fil0" d="M76.19 929.8l193.57 0c22.28,0 28.18,-4.36 33.73,-24.97l3.03 -11.23c5.54,-20.61 1.99,-24.97 -20.3,-24.97l-193.56 0 -16.46 61.17zm227.45 -100.82c24.99,0 39.02,4.38 47.65,14.98 8.63,10.62 9.41,24.03 3.1,47.43l-4.19 15.63c-10.6,39.33 -29.41,56.47 -68.74,62.11l40.44 68.04 -56.41 0 -38.51 -67.73 -161.47 0 -18.24 67.73 -47.3 0 56.05 -208.2 247.61 0zm283.42 42.76l-86.88 80.55 130.72 0 -43.84 -80.55zm-127.37 117.98l-50.94 47.45 -59.79 0 230.85 -208.81 38.18 0 118.42 208.81 -59.78 0 -25.39 -47.45 -191.54 0zm619.85 -106.43c0.83,-11.86 -3.83,-14.67 -23.07,-14.67l-166.53 0c-22.3,0 -28.21,4.37 -33.75,24.97l-21.28 78.98c-5.54,20.59 -1.99,24.95 20.32,24.95l166.53 0c19.25,0 25.41,-2.8 30.98,-14.67l46.18 4.07c-14.9,36.52 -37.17,50.25 -81.09,50.25l-180.04 0c-25,0 -39.03,-4.36 -47.67,-14.99 -8.61,-10.6 -9.4,-24.03 -3.02,-47.74l22.27 -82.74c6.39,-23.72 14.4,-37.12 28.73,-47.75 14.33,-10.6 30.71,-14.99 55.71,-14.99l180.06 0c43.89,0 58.79,13.75 54.02,50.26l-48.37 4.06zm163.75 -14.66l-12 44.64 238.81 0 -14.96 39.31 -234.43 0 -12.12 44.94 247.61 0 -10.66 39.65 -294.91 0 56.03 -208.2 286.12 0 -10.66 39.65 -238.83 0zm454.86 45.87l182.41 0c20.94,0 28.29,-4.68 32.67,-20.9l1.08 -4.05c4.36,-16.24 -0.46,-20.92 -21.39,-20.92l-182.41 0 -12.36 45.87zm-22.34 83.03l193.56 0c20.95,0 28.28,-4.67 32.64,-20.92l1.02 -3.73c4.36,-16.22 -0.44,-20.93 -21.39,-20.93l-193.56 0 -12.27 45.58zm285.46 -107.98c-5.8,21.52 -13.64,31.83 -30.6,39.63 7.19,2.17 10.48,3.74 13.18,6.24 8.55,8.44 10.26,22.15 5.06,41.52l-1.09 4.06c-10.34,38.37 -36.41,56.18 -82.35,56.18l-247.62 0 56.04 -208.2 236.48 0c45.94,0 62.43,17.79 52.01,56.5l-1.09 4.07zm149.58 -20.92c-22.31,0 -28.21,4.36 -33.76,24.97l-21.27 78.98c-5.54,20.59 -1.99,24.95 20.31,24.95l166.54 0c22.28,0 28.2,-4.36 33.74,-24.95l21.26 -78.98c5.54,-20.61 1.98,-24.97 -20.3,-24.97l-166.53 0zm212.34 105.82c-6.37,23.71 -14.38,37.14 -28.72,47.74 -14.34,10.63 -30.72,14.99 -55.72,14.99l-180.04 0c-25.02,0 -39.04,-4.36 -47.67,-14.99 -8.62,-10.6 -9.39,-24.03 -3.02,-47.74l22.27 -82.73c6.39,-23.72 14.4,-37.13 28.73,-47.75 14.33,-10.61 30.71,-14.98 55.72,-14.98l180.06 0c24.99,0 39.01,4.38 47.65,14.98 8.61,10.62 9.39,24.03 3.01,47.75l-22.28 82.73zm106.31 23.08l193.56 0c22.3,0 28.2,-4.36 33.74,-24.95l21.25 -78.98c5.56,-20.61 2,-24.97 -20.3,-24.97l-193.56 0 -34.7 128.9zm245.68 -168.55c25,0 39.04,4.38 47.67,14.98 8.63,10.62 9.4,24.03 3.01,47.74l-22.26 82.74c-6.37,23.72 -14.39,37.15 -28.74,47.74 -14.34,10.62 -30.72,14.99 -55.71,14.99l-247.61 0 56.04 -208.2 247.6 0zm124.04 208.2l-47.29 0 56.04 -208.2 47.31 0 -56.06 208.2zm160.24 -168.55l-12.01 44.64 238.82 0 -14.97 39.31 -234.43 0 -12.12 44.94 247.63 0 -10.67 39.65 -294.91 0 56.03 -208.2 286.13 0 -10.68 39.65 -238.81 0zm318.22 114.22c-0.83,11.87 3.81,14.68 23.09,14.68l165.84 0c20.95,0 28.29,-4.68 32.66,-20.92l0.84 -3.11c4.37,-16.22 -0.45,-20.92 -21.39,-20.92l-172.61 0c-25.35,0 -39.37,-4.36 -47.67,-14.97 -7.61,-9.37 -9.31,-24.35 -4.86,-40.9l3.11 -11.55c4.48,-16.53 14.24,-31.5 26.97,-41.19 14.01,-10.61 30.38,-14.98 55.72,-14.98l180.04 0c43.91,0 58.8,13.74 54.03,50.25l-48.37 4.05c0.49,-11.85 -3.82,-14.65 -23.07,-14.65l-165.87 0c-20.94,0 -28.28,4.67 -32.64,20.91l-0.76 2.79c-4.37,16.24 0.44,20.93 21.39,20.93l172.62 0c25.34,0 39.35,4.37 47.66,14.99 7.61,9.37 9.31,24.34 4.78,41.2l-3.11 11.54c-4.46,16.54 -14.22,31.54 -26.98,41.2 -14,10.62 -30.38,14.99 -55.71,14.99l-180.04 0c-43.94,0 -58.81,-13.74 -54.04,-50.26l48.37 -4.07z"/>
  <path class="fil0" d="M5967.2 713.67l3.06 0c3.57,0 6.46,-1.19 6.46,-4.07 0,-2.55 -1.87,-4.24 -5.94,-4.24 -1.7,0 -2.89,0.17 -3.57,0.34l0 7.97zm-0.17 15.62l-6.45 0 0 -27.67c2.55,-0.52 6.11,-1.02 10.69,-1.02 5.26,0 7.63,0.85 9.69,2.2 1.52,1.19 2.71,3.4 2.71,5.94 0,3.23 -2.39,5.6 -5.76,6.62l0 0.33c2.7,0.86 4.24,3.05 5.09,6.81 0.85,4.24 1.35,5.94 2.04,6.78l-6.96 0c-0.85,-1.02 -1.35,-3.39 -2.22,-6.62 -0.49,-3.05 -2.2,-4.41 -5.76,-4.41l-3.06 0 0 11.03zm4.24 -36.67c-12.22,0 -21.39,10.03 -21.39,22.24 0,12.4 9.17,22.24 21.73,22.24 12.24,0.17 21.23,-9.84 21.23,-22.24 0,-12.22 -9,-22.24 -21.39,-22.24l-0.17 0zm0.33 -5.59c15.97,0 28.36,12.39 28.36,27.84 0,15.79 -12.39,28.01 -28.52,28.01 -15.95,0 -28.69,-12.22 -28.69,-28.01 0,-15.45 12.74,-27.84 28.69,-27.84l0.16 0z"/>
 </g>
</svg>
