<?xml version="1.0" encoding="UTF-8"?>
<!DOCTYPE svg PUBLIC "-//W3C//DTD SVG 1.1//EN" "http://www.w3.org/Graphics/SVG/1.1/DTD/svg11.dtd">
<!-- Creator: CorelDRAW -->
<svg xmlns="http://www.w3.org/2000/svg" xml:space="preserve" width="100%" height="100%" version="1.1" style="shape-rendering:geometricPrecision; text-rendering:geometricPrecision; image-rendering:optimizeQuality; fill-rule:evenodd; clip-rule:evenodd"
viewBox="0 0 19476.5 5267.06"
 xmlns:xlink="http://www.w3.org/1999/xlink"
 xmlns:xodm="http://www.corel.com/coreldraw/odm/2003">
 <defs>
  <style type="text/css">
   <![CDATA[
    .fil2 {fill:#FEFEFE}
    .fil1 {fill:black}
    .fil0 {fill:white}
   ]]>
  </style>
 </defs>
 <g id="Layer_x0020_1">
  <metadata id="CorelCorpID_0Corel-Layer"/>
  <rect class="fil0" width="19476.5" height="5267.06"/>
  <path class="fil1" d="M6150.73 3520.66l69.26 235.67 -432.97 -351.45 -432.96 351.45 74.76 -254.44 -6.37 18.77 -1034.76 0 113.94 -262.16c-106.12,100 -232.58,170.8 -370.68,217.85 -174.03,59.29 -371.08,75.44 -553.94,75.44 -216.61,0 -453.56,-18.72 -659.33,-90.5 -187.93,-65.56 -344.7,-180.83 -471.16,-334.23 -20.01,-24.28 -38.35,-49.28 -55.11,-74.95l0 109.28c0,38.85 45.36,118.67 67.96,148.91l157.32 210.36 -1068.42 0 -36.54 -30.27c-67.06,-55.6 -126.94,-141.87 -126.94,-231.6l0 -294.64c0,-1.81 -0.11,-6.17 -0.95,-7.89 -8.53,-9.84 -48.18,-12.19 -59.42,-12.19l-233.37 0 0 576.59 -1018.12 0 0 -2022.48 1341.57 0c321.36,0 736.76,66.34 906.03,378.94 20.34,37.55 35.86,76.71 46.96,117.03 56.36,-98.88 133.03,-187.7 232.33,-263.95 266.06,-204.29 616.4,-261.92 943.8,-261.92 248.9,0 526.74,30.49 749.27,150.01 248.37,133.39 477.26,407.39 477.26,701.55l0 131.57 -987.85 0 0.02 -131.59c0,-2.28 -0.16,-4.56 -0.47,-6.82 -4.39,-32.89 -37.38,-63.8 -63.18,-81.33 -50.44,-34.24 -114.44,-50.57 -174.98,-50.57 -205.6,0 -295.57,123.06 -295.57,321.14 0,191.32 44.35,338.35 259.07,338.35 91.8,0 275.14,-10.4 275.13,-138.88l-0.02 -131.59 987.85 0 0 70.64 496.64 -1142.58 1064.24 0 639.58 1470.49 0 -1470.49 1113.15 0 245.43 768.55 244.35 -768.55 4273.01 0c308.38,0 691.39,66.29 860.66,357.7l0 -357.7 990.63 0 0 475.91c53.15,-90.05 123.47,-171.65 213.07,-242.65 257.72,-204.25 597.59,-263.16 918.42,-263.16 243.29,0 513.29,31.06 729.37,150.86 244.56,135.56 462.97,410.5 462.97,700.7l0 131.57 -965.21 0 0.02 -131.59c0,-2.73 -0.21,-5.44 -0.59,-8.15 -12.43,-86.83 -152.33,-130.57 -226.49,-130.57 -202.19,0 -282.23,130.16 -282.23,321.14 0,182.89 37.35,338.35 246.87,338.35 93.95,0 262.45,-11.55 262.44,-138.88l-0.02 -131.59 927.26 0 465.94 -1071.94 1064.22 0 879.68 2022.48 -1060.03 0 69.22 235.67 -432.91 -351.45 -432.96 351.45 74.43 -253.35 -5.99 17.68 -1034.76 0 72.24 -166.2c-74.24,51.01 -155.57,91.1 -241.92,121.48 -169.11,59.45 -360.96,75.85 -539.19,75.85 -210.97,0 -441.56,-19.01 -641.34,-90.95 -184.41,-66.4 -336.46,-182.82 -458.3,-335.37 -23.81,-29.82 -45.17,-60.69 -64.21,-92.51l0 487.7 -1726.85 0 -37.09 -32.1c-64.7,-56.03 -121.4,-141.9 -121.4,-229.77l0 -294.64c0,-2.25 -0.19,-7.91 -1.35,-10 -7.62,-8.15 -41.11,-10.08 -50.83,-10.08l-217.84 0 0 576.59 -3757.48 0 0 -353.06 -113.04 353.06 -692.68 0 -74.05 -258.47 0 258.47 -1754.5 0zm-78.68 -661.46l129.76 -106.79 -275.77 0 31.04 107.03 114.97 -0.24zm-424.02 -106.79l-276.91 0 127.12 106.77 118.74 0.26 31.05 -107.03zm5908.52 49.31l0 -613.25 -80.19 0 0 613.25 80.19 0zm-9310.65 -210.43c-0.57,-8.53 -1.05,-17.09 -1.45,-25.68 -4.09,4.13 -8.29,8.21 -12.59,12.21 4.79,4.42 9.45,8.91 14.04,13.47zm11461.31 75.82l0 -183.17c-20.12,33.86 -44.67,65.43 -74.28,93.88 28.57,27.32 53.39,57.24 74.28,89.29zm4547.71 192.07l129.76 -106.77 -275.84 0 31.05 107.03 115.03 -0.26zm-573.81 0l118.67 0.26 31.05 -107.03 -276.84 0 127.12 106.77zm-5138.63 -622.5l122.47 0c33.55,0 150.74,2.11 188.38,-16.78 0,-0.11 0,-0.21 0,-0.29 -35.08,-13.66 -145.94,-8.69 -177.97,-8.69l-132.88 0 0 25.76zm-11451.43 0l133.76 0c35.21,0 156.58,2.11 199.64,-16.85 -40.25,-14 -156.82,-8.91 -188.74,-8.91l-144.66 0 0 25.76z"/>
  <path class="fil2" d="M17969.83 2745.46l71.29 245.77 232.08 -0.5 -188.01 151.4 72.12 245.48 -187.48 -152.2 -187.48 152.2 72.13 -245.48 -188.02 -151.4 232.09 0.5 71.28 -245.77zm-4131.04 -1115.71l727.48 0 0 1759.34 -727.48 0 0 -1759.34zm2349.26 1071.94l702.06 0c0,173.6 -118.73,357.67 -206.35,447.35 -87.63,89.71 -196.66,157.3 -326.53,202.77 -129.89,45.88 -295.26,68.41 -495.55,68.41 -243.61,0 -442.86,-27.85 -596.75,-83.15 -154.39,-55.72 -287.93,-153.62 -400.07,-293.7 -111.64,-140.09 -167.98,-319.1 -167.98,-537.43 0,-291.25 98.59,-515.31 295.76,-671.38 197.18,-156.48 476.24,-234.71 836.7,-234.71 282.2,0 503.85,44.7 665.58,134.36 275.39,152.66 395.19,414.39 395.19,585.63l-702.06 0c0.01,-142.72 -163.45,-270.31 -358.65,-270.31 -265.05,0 -413.8,175.56 -413.8,452.72 0,282.43 106.43,469.91 378.43,469.91 260.14,0 394.03,-103.8 394.02,-270.47zm2103.71 297.57l459.86 -378.43 -592 0 -190.41 -535.17 -189.25 535.17 -587.17 0 450.51 378.43 -132.27 389.83 -739.82 0 764.73 -1759.34 891.7 0 765.2 1759.34 -766.88 0 -134.2 -389.83zm-5880.85 -631l254.03 0c112.44,0 320.05,8.13 320.05,-144.46 0,-165.6 -188.04,-144.46 -309.62,-144.46l-264.46 0 0 288.92zm-722.8 1020.83l0 -1759.34 1158.44 0c523.22,0 807.3,194.98 807.3,531.21 0,332.8 -208.96,409.98 -337.15,409.98 125.13,0 339.17,126.5 339.17,371.13l0 219.32c0,74.67 53.25,176.13 90.14,227.7l-725.99 0c-37.17,-32.2 -75.95,-85.56 -75.95,-130.3l0 -294.64c0,-85.56 -58.96,-151.65 -183.76,-151.65l-349.4 0 0 576.59 -722.8 0zm-10728.63 -1020.83l265.33 0c117.45,0 334.3,8.13 334.3,-144.46 0,-165.6 -196.42,-144.46 -323.41,-144.46l-276.22 0 0 288.92zm-754.98 1020.83l0 -1759.34 1210 0c546.51,0 843.23,194.98 843.23,531.21 0,332.8 -218.25,409.98 -352.15,409.98 130.69,0 354.26,126.5 354.26,371.13l0 219.32c0,74.67 55.62,176.13 94.16,227.7l-758.31 0c-38.82,-32.2 -79.33,-85.56 -79.33,-130.3l0 -294.64c0,-85.56 -61.58,-151.65 -191.94,-151.65l-364.94 0 0 576.59 -754.98 0zm3709.39 -687.4l724.68 0c0,173.6 -122.55,357.67 -212.99,447.35 -90.46,89.71 -203,157.3 -337.06,202.77 -134.07,45.88 -304.77,68.41 -511.51,68.41 -251.47,0 -457.13,-27.85 -615.99,-83.15 -159.37,-55.72 -297.21,-153.62 -412.96,-293.7 -115.23,-140.09 -173.39,-319.1 -173.39,-537.43 0,-291.25 101.76,-515.31 305.29,-671.38 203.54,-156.48 491.59,-234.71 863.66,-234.71 291.3,0 520.09,44.7 687.03,134.36 284.27,152.66 407.92,414.39 407.92,585.63l-724.68 0c0.01,-142.72 -168.71,-270.31 -370.2,-270.31 -273.6,0 -427.15,175.56 -427.15,452.72 0,282.43 109.87,469.91 390.64,469.91 268.53,0 406.72,-103.8 406.71,-270.47zm2195.01 297.57l459.86 -378.43 -592 0 -190.41 -535.17 -189.25 535.17 -587.17 0 450.51 378.43 -132.27 389.83 -739.82 0 764.73 -1759.34 891.7 0 765.2 1759.34 -766.88 0 -134.2 -389.83zm993.28 -1369.51l885.48 0 341.83 1070.35 340.28 -1070.35 882.42 0 0 1759.34 -635.61 0 0 -1063.88 -340.64 1063.88 -497.5 0 -304.79 -1063.88 0 1063.88 -671.47 0 0 -1759.34zm2654.05 0l1736.86 0 0 427.16 -1012.24 0 0 228.24 863.94 0 0 410.34 -863.94 0 0 237.8 1071.67 0 0 455.8 -1796.29 0 0 -1759.34zm-3969.2 1115.71l71.29 245.77 232.08 -0.5 -188.01 151.4 72.12 245.48 -187.48 -152.2 -187.48 152.2 72.12 -245.48 -188.01 -151.4 232.08 0.5 71.29 -245.77z"/>
 </g>
</svg>
