<?xml version="1.0" encoding="UTF-8"?>
<!DOCTYPE svg PUBLIC "-//W3C//DTD SVG 1.1//EN" "http://www.w3.org/Graphics/SVG/1.1/DTD/svg11.dtd">
<!-- Creator: CorelDRAW -->
<svg xmlns="http://www.w3.org/2000/svg" xml:space="preserve" width="100%" height="100%" version="1.1" style="shape-rendering:geometricPrecision; text-rendering:geometricPrecision; image-rendering:optimizeQuality; fill-rule:evenodd; clip-rule:evenodd"
viewBox="0 0 19476.5 5267.06"
 xmlns:xlink="http://www.w3.org/1999/xlink"
 xmlns:xodm="http://www.corel.com/coreldraw/odm/2003">
 <defs>
  <style type="text/css">
   <![CDATA[
    .fil1 {fill:#1C1C1C}
    .fil2 {fill:#3227FF}
    .fil3 {fill:#FE2C08}
    .fil0 {fill:white}
   ]]>
  </style>
 </defs>
 <g id="Layer_x0020_1">
  <metadata id="CorelCorpID_0Corel-Layer"/>
  <rect class="fil0" width="19476.5" height="5267.06"/>
  <g id="_1761043704000">
   <path class="fil1" d="M8836.71 5072.36l383.28 -2.09c23.97,-51.74 115.36,-642.55 148.72,-702.45l65.23 701.22 380.25 3.02 280.23 -1372.34 -384.47 0.95c-20.98,63.55 -86.16,414.62 -106.07,520.98l-41.32 177.12 -66.58 -699.81 -384.4 1.79 -274.87 1371.61zm-767.34 -1l384.7 0.76 275.52 -1372.92 -383.64 0.59c-47.44,224.52 -95.3,453.59 -138.92,680.48 -22.04,114.64 -42.55,231 -67.49,343.51 -23.88,107.73 -54.07,239.55 -70.17,347.58zm8492 -284.74l-446.77 1.79 103.62 -540.81c15.98,-66.19 100.59,-502.83 102.25,-549.29l-370.47 1.39c-17.57,32.8 -217.06,1039.69 -229.88,1140.1 -38.19,299.02 172.83,232.77 438.34,232.78 54.35,0 305.97,11.35 333.35,-9.11 23.55,-17.6 65.44,-231.04 69.56,-276.85zm-8805.28 1.21l-371.39 0.5 157.83 -802.17c84.24,-0.1 170.39,-0.44 256.51,-0.41 132.35,0.02 122.02,32.47 147.59,-114.82 35.91,-206.84 10.89,-171.12 -328.26,-171.12 -85.7,0 -171.4,0 -257.11,0 -99.87,-0.02 -150.35,2.4 -191.99,73.96 -38.84,66.73 -86.08,329.1 -100.5,427.93 -21.15,144.98 -57.66,294.15 -83.01,438.77 -24.99,142.55 -85.03,327.35 26.74,410.77 49.45,36.9 169.65,21.24 237.58,21.24 88.02,0 176.04,0 264.06,0 166.44,0 188.24,19.46 202.51,-62.75 10.49,-60.41 41.78,-167.92 39.44,-221.9zm-4056.33 281.89c33.68,-45.16 70.96,-249.11 65.79,-280.83l-367.14 -0.63 155.08 -800.78 380.57 -1.64c12.71,-40.42 29.1,-132.64 34.36,-173.99 12.17,-95.54 -13.23,-112.85 -102.37,-112.17 -143.49,1.1 -287.33,0.13 -430.87,0.15 -252.05,0.03 -269.72,11 -321.11,327.14l-101.38 538.57c-25.87,123.05 -123.52,458.09 42.44,502.48 37.18,9.95 166.77,4.35 213.28,4.35 123.07,0 316.68,11.48 431.35,-2.65zm10011.58 -1083.87l203.55 0.04 -160.72 802.52 -201.57 -4.22 158.74 -798.34zm-246.87 -278.55c-32.86,10.57 -67.23,46.1 -82.01,74.62 -34.02,65.67 -74.69,301.32 -89.95,382.78 -32.77,175.01 -73.61,349.67 -106.02,526.21 -18.12,98.7 -83.31,298.2 35.93,369.52 36.39,21.76 103.52,11.95 149.57,11.9 95.49,-0.1 570.2,12.14 621.82,-12.08 24.72,-11.61 65.53,-48.49 80.95,-72.04 16.73,-25.54 39.07,-76.41 46.58,-113.65 47.87,-237.47 108.05,-570.12 160.14,-785.63 18.65,-77.15 38.01,-200.32 3.86,-271.75 -45.99,-96.16 -69.83,-117.34 -197.62,-117.08 -100.44,0.22 -565.7,-11.34 -623.25,7.2zm-1678.45 1360.94l411.62 3.66c29.8,-34.62 76.08,-136.79 109.2,-153.15l64.57 151.54 391.32 1.84 279.86 -1372.35 -387.92 -0.39 -193.81 1001.86c-21.89,-22.97 -52.46,-168.62 -68.65,-214.11 -37.54,13.35 -102.64,131.47 -140.48,153.41l194.7 -941.9 -389.23 1.22 -271.18 1368.37zm-9577.58 -814.61c-4.47,-22.15 39.94,-240.79 52.39,-267.83l198.93 1.81 -56.47 267.52 -194.85 -1.5zm-552.22 815.06l382.67 3.52 104.97 -514.96c6.91,-17.07 -2.13,-3.02 8.64,-15.14 26.44,-9.34 168.05,-9.05 190.23,1.16 8.23,7.05 0.03,23.43 -5.66,54.18 -4.44,23.98 -9.7,44.86 -14.86,68.78l-78.17 405.89 378.13 0.06 106.18 -514.06c14.93,-90.99 -15.69,-114.65 -37.49,-161.53 104.6,-80.76 106.67,-151.08 133.92,-310.97 25.59,-150.16 51.94,-241.39 -46.07,-345.88 -50.69,-54.03 -97.92,-39.72 -184.33,-39.73 -126.01,-0.02 -610.55,-8.85 -665.69,2.46l-272.47 1366.22zm3266.68 -1082.26l203.06 -0.59c-10.42,47.12 -39.8,240.26 -59.96,262.93 -22,14.49 -157.96,9.15 -196.27,2.68l53.17 -265.02zm-602.53 1085.15l379.5 0.4c13.71,-26.42 48.55,-219.59 57.51,-263.36 12.2,-59.56 36.68,-224.76 58.53,-268.18l175.65 -1.84c34.82,5.36 17.67,-2.52 19.3,16.33 0.41,4.69 -14.83,61.07 -17.13,72.67 -16.99,86.01 -83.56,401.29 -84.62,442.38l382.44 1.53 100.8 -516.38c9.56,-99.84 -10.01,-99.38 -38.4,-164.62 75.92,-33.74 95.25,-97.03 114.51,-198.29 26.09,-137.17 93.56,-355.73 -28.07,-459.74 -57.05,-48.8 -143.76,-32.61 -233.26,-32.61l-613.63 -0.56 -273.13 1372.27zm6840.68 -2.46l166.6 -814.68 -515.8 0.38 -55.58 283.86 123.53 0.33c3.25,19.33 -34.78,225.93 -44.13,245.97l-190.95 3.06 154.18 -800.15c122.78,-15.5 505.73,18.33 580.12,-5.96l58.58 -279.12c-40.6,-8.25 -791.97,-5.9 -887.17,-3.27 -63,1.74 -103.89,37.55 -133.36,90.98 -27.32,49.55 -34.24,115.59 -46.26,176.71 -24.47,124.41 -44.74,249.69 -70.26,373.98 -25.21,122.74 -48.27,251.01 -70.05,375.11 -74.07,421.94 25.83,355.63 480.1,355.63 119.77,0 342.85,12.92 450.45,-2.83zm3851.86 -1082.6l202.42 -0.88 -53.98 268.99 -199.97 -1.72 51.53 -266.39zm-598.42 1083.82l380.53 1.76c21.09,-88.47 34.02,-182.84 54.16,-267.99 10.62,-44.87 16.47,-87.59 27.43,-133.05 4.88,-20.25 10.43,-41.21 13.94,-62.58l10.13 -52.78c7.05,-14.89 -1.27,-2.82 9.74,-14.09 25.49,-7.06 171.21,-8.46 187.9,3.58 10.44,7.46 3,3.96 -5.34,50.68 -21.07,118.16 -86.28,407.18 -91.27,476.24l380.1 -0.01c13.9,-99.01 45.46,-235.15 67.92,-334.07 36,-158.56 66.71,-229.5 0.86,-336.73 -0.65,-1.04 -1.98,-3.1 -2.86,-4.71 31.83,-27.64 64.51,-31.77 94.11,-123.24 17.06,-52.71 27.54,-129.35 38.4,-184.37 26.37,-133.62 45.26,-262.91 -42.43,-350.37 -49.65,-49.53 -95.71,-38.77 -178.46,-38.76 -142.05,0.03 -588.15,-9.44 -667.09,2.5 -7.49,12.11 -276.58,1305.77 -277.77,1367.99zm2898.52 -282.96l-203.18 0.9 162.78 -803.04 200.76 0.71 -160.36 801.43zm-642.48 284.15c97.87,3.31 820.93,6.95 866.23,-5.81 120.22,-33.84 140.48,-195.16 158.5,-271.78 26.88,-114.32 53.58,-246.37 73.73,-364.92 43.17,-254.01 171.18,-556.83 15.46,-699.45 -46.92,-42.97 -112.23,-29.79 -187.58,-29.78 -206.02,0.05 -458.97,-6.32 -653.67,-0.28l-272.67 1372.02zm-10449.87 -1085.57l229.11 1.6 -55.48 266.26 -224.16 0.39 50.53 -268.25zm-597.1 1084.73l382.97 1.08 97.85 -501.03c6.93,-27.07 -2.71,-13.17 16.36,-27.34 26.23,-14.32 174.04,-4.7 216.62,-4.56l-104.17 532.67c72.59,1.5 327.22,9.5 381.39,-4.05 21.99,-64.87 152.94,-756.97 175.51,-860.34 30.94,-141.68 84.19,-313.82 1.05,-435.44 -47.22,-69.08 -80.97,-71.99 -187.3,-71.5l-521.27 -0.43c-232.98,-0.98 -248.13,302.44 -287.13,499.86l-171.88 871.08z"/>
   <path class="fil2" d="M2446.69 1608.06c-14.45,-12.98 -23.14,-21.17 -38.62,-34.07l-215.99 -180.34c-67.9,-49.96 -148.43,-127.22 -212.11,-176.64 -48.6,-37.72 -202.81,-162.24 -242.45,-151.22 -38.53,79.17 402.54,717.39 493.73,858.69 23.58,36.53 64.95,84.13 80.3,123.41 -5,3.3 -5.32,3.95 -14.69,7.48 -79.74,30.05 -613.33,110.43 -679.89,180.14 43.03,46.11 353.22,68.82 438.48,69.08 152.11,4.96 325.22,-10.85 474.84,-28.86 163.7,-19.71 277.46,-50.03 359.21,-148.02 43.36,-51.98 40.84,-132.48 0.29,-187.29 -43.76,-59.16 -69.06,-69.62 -148.53,-109.23 -50.25,-25.04 -199.43,-144.82 -254.35,-190.01 -17.87,-14.71 -22.56,-19.84 -40.22,-33.12zm15003.45 1098.49c-9.51,-9.05 -20.58,-22.04 -33.77,-33.41 -117.82,-101.49 -259.02,-178.9 -397.43,-249.32 -240.34,-122.28 -459.64,-208.47 -722.41,-291.78 -113.44,-35.97 -336.24,-109.1 -444.29,-132.76 -150.76,-33.01 -304.59,-84.61 -461.13,-115.07 -541.35,-105.34 -894.17,-201.54 -1490.92,-247.65 -318.95,-24.63 -783.22,-53.62 -1098.28,-57.67 -43.46,-0.56 -238.07,-3.95 -265.34,-16.02 -23.18,-10.25 -65.31,-39.87 -90.98,-55.03 -209.55,-123.72 -420.55,-256.13 -633.06,-374.4 -500.89,-278.79 -1069.38,-535.14 -1622.52,-691.46 -132.42,-37.42 -327.43,-88.99 -461.34,-115.21 -80.33,-15.73 -166.92,-30.15 -244.06,-46.89 -126.71,-27.5 -376.6,-51.68 -511.37,-64.94 -882.35,-86.85 -1765.92,49.69 -2602.68,243.96 -155.72,36.16 -305.8,78.54 -458.59,118.54 -405.63,106.22 -951.3,265.1 -1337.39,392.78 -285.46,94.4 -584.36,206.46 -887.3,266.6 -75.44,14.98 -165.19,40.72 -231.53,52.79 -79.61,14.49 -163.23,30.55 -245.03,47.93 -107.71,22.89 -409.75,58.8 -485.86,98.85 1.62,0.94 4.25,0.04 5.2,2.15 0.97,2.16 3.98,1.64 5.37,1.94l53.63 1.66c196.21,-10.88 744.96,-88.63 915.74,-131.88 215.55,-54.59 455.96,-102.97 664.83,-175.95l438.1 -125.33c71.41,-15.61 147.59,-45.06 217.63,-60.26 148.05,-32.14 296.76,-83.39 448.23,-114.51 148.5,-30.5 303.04,-80.94 452.14,-109.12 155.66,-29.41 312.96,-64.86 468.14,-97.19 651.63,-135.72 1364.31,-207.16 2050.6,-188.1 344.19,9.56 676.09,57.8 1006.31,117.16 135.31,24.32 518.54,123.03 664.54,175.52 209.9,75.47 404.76,129.16 612.63,228.35 61.12,29.16 131.61,57.92 193.91,84.15 275.96,116.2 854.96,449.02 1077.22,611.18 29.71,21.68 54.19,37.54 81.8,56.98l164.56 113.34c40.94,29.42 51.51,27.66 111.92,27.55 94.1,-0.15 184.75,-1.56 277.94,3.92 181.71,10.68 379.11,-1.65 562.97,2.25 134.47,2.84 445.19,-0.03 555.03,10.83 82.21,8.13 186.47,3.29 272.09,5.55 370.11,9.8 669.22,31.24 1034.85,82.23l473.56 88.08c77.41,18.62 156.95,30.36 234.09,51.53 149.57,41.05 303.41,68.99 450.92,111.87 225.3,65.51 413.55,125.03 625.47,215.27l465.16 236.58c32.34,20.66 54.43,41.62 90.6,60.25l149.36 137.41c45.39,36.91 22.99,31.88 55.97,41.33 -6.81,-44.92 -117.68,-171.32 -155.23,-194.58zm-8198.8 186.75l423.88 -3.18c415.32,0.54 869.18,-58.97 1278.61,-112.3 397.91,-51.82 791.24,-134.98 1179.02,-217.55 533.4,-113.58 1252.3,-231.67 1809.76,-281.96 63.78,-5.76 519.04,-92.75 563.32,-143.54 -118.53,-1.07 -271.54,16.12 -390,24.54l-702.24 19.69c-449.69,4.42 -960.03,65.28 -1404.12,137.93 -270.74,44.3 -627.96,108.13 -894.67,141.65 -148.26,18.62 -308.35,40.82 -456.59,63.51 -149.31,22.87 -317.28,36.41 -468.7,46.18 -475.76,30.67 -995.38,43 -1473.44,7.47 -129.58,-9.63 -259.59,-11.52 -389.25,-21.23 -247.81,-18.55 -496.34,-41.99 -743.78,-67.88 -243.72,-25.52 -489.07,-65.01 -727.57,-88.37 -232.9,-22.82 -475.9,-75.44 -709.59,-108.44 -313.96,-44.35 -700.59,-132.67 -1011.51,-211.24l-654.74 -157.85c-112.21,-28.88 -220.79,-48.51 -331.69,-78.72 -91.42,-24.9 -602.26,-146.08 -673.64,-154.27 15.47,30.63 -7.47,10.32 72.61,40.46 27.06,10.18 56.23,16.78 84.58,26.25 295.26,98.58 905.76,261.69 1194.38,334.55l686.88 181.4c373.44,103.59 1056.15,267.59 1405.03,338.94 249.72,51.07 489.57,90.9 743.29,134.14 217.35,37.04 931.29,125.24 1172.04,133.71 139.04,4.9 279.37,16.11 418.13,16.11zm4733.09 336.77c82.39,-61.84 153.6,-118.3 241.24,-182.17 68.99,-50.28 198.65,-118.66 279.99,-151.07 207.75,-82.77 521.11,-105.26 763.36,-98.79 427.57,11.42 740.94,83.01 1056.03,340.92 19.71,16.13 38.34,31.63 62.04,49.22 25.59,19 100.35,75.53 137.89,74.07 -12.03,-75.02 -156.19,-213.88 -216.85,-273.07 -19.61,-19.14 -36.83,-39.11 -58.85,-59.11 -23.7,-21.53 -39.37,-34.25 -65.87,-59.21 -22.87,-21.55 -43.71,-35.69 -67.23,-58.15 -27.02,-25.81 -44.94,-36.02 -69.04,-56.17 -244.85,-204.85 -406.3,-270.67 -722.53,-271.22 -494.17,-0.85 -625.99,-1.73 -997.58,301.98 -98.59,80.59 -135.39,116.59 -225.2,212.9l-60.17 65.08c-20.26,24.64 -39.6,43.23 -50.86,73.02 -21.5,21.59 -36.97,48.26 -54.28,78.71 -19.55,34.37 -35.44,49.63 -49.05,87.86 18.24,-7.26 82.82,-61.33 96.96,-74.8zm2410.82 -792.84c-27.59,26.88 92.3,96.67 125.68,117.07 130.39,79.7 123.7,82.56 226.01,156.12l139.32 117.71c25.48,25.69 44.77,33.42 71.26,60.71 45.92,47.32 80.38,89.48 128.43,128.53 13.51,10.98 21.93,15.68 34.75,27.97 12.79,12.27 16.48,21.05 29.62,32.57 49.28,43.18 180.75,145.83 224.52,165.14 61.17,27 159.38,32.94 207.26,-7.74 65.82,-55.92 -11.43,-175.26 -50.97,-211.56 -102,-93.67 -104.45,-114.73 -242.28,-209.53 -123.43,-84.9 -190.73,-122.98 -325.63,-188.73 -57.57,-28.07 -111.75,-57.29 -175.14,-81.73 -50.55,-19.48 -356,-142.4 -392.83,-106.53zm-12981.99 658.79c13.39,-3.92 143.37,-97.17 204.84,-128.68 270.14,-138.48 494.81,-193.81 803.81,-194.85 321.38,-1.07 694.81,98.83 958.04,290.77 15.1,11.01 36.03,23.07 48.71,34.22 20.51,21.77 43.1,38.51 70.55,61.95 17.91,15.31 54.91,43.45 79.97,46.46 -4.31,-35.52 -28.34,-63.22 -46.17,-87.06 -16.64,-22.24 -40.78,-65.01 -61.47,-73.32 -68.03,-98.61 -116.91,-134.09 -184.52,-208.99 -19.8,-21.93 -30,-30.83 -49.47,-47.71 -229.18,-198.73 -430.63,-303.39 -787.84,-303.67 -442.91,-0.35 -591.57,85.51 -870.52,318.44 -32.07,26.79 -167.6,172.17 -184.34,206.91 -31.74,19.33 -150.39,171.15 -163.05,203.1 31.9,-7.75 167.16,-97.86 181.46,-117.57z"/>
   <path class="fil3" d="M11542.97 2033.83l-29.71 -33.4c64.39,-107.93 250.21,35.87 236.53,-67.93 -16.13,-122.43 -338.36,-315.92 -440.51,-365 -128.99,-61.97 -645.61,-309.72 -805.61,-240.99 -45.14,19.41 -86.66,66.41 -104.03,111.3 -61.9,159.86 27.16,225.68 117.14,282.51 158.9,100.35 388.72,144.5 582.31,217.11 33.45,12.55 25.7,-2.44 34.01,20.13 -43.75,22.86 -2219.88,-190.41 -2469.74,-212.93 -286.94,-25.87 -2314.06,-199.29 -2389.85,-301.29 52.1,-68.2 477.12,-283.82 596.72,-331.51 236.72,-94.39 396.15,-182.42 668.87,-269 172.16,-54.64 601.75,-160.49 753.54,-176.36 308.04,-32.2 303.65,-59.47 646.01,-57.88 80.22,0.37 152.46,-5.92 229.4,-6.64 -94.99,-46.06 -516.03,-84.51 -650.79,-71.9 -109.89,10.27 -228.82,15.21 -340.08,25.77 -140.59,13.33 -331.38,50.32 -472.32,76.76 -112.37,21.08 -343.72,69.69 -446.44,103.27 -93.59,30.58 -188.67,49.1 -281.6,86.88l-276.43 91.38c-525.16,174.63 -1147.02,338.84 -1691.4,505.05 -102.26,31.23 -492.38,139.21 -549.56,184 57.13,50.49 1555.29,94.12 1783.55,124.29 68.96,9.11 147.9,15.64 215.77,20.04 158.65,10.3 258.9,39.97 403.46,69.88 324.89,67.23 906.91,143.67 1259.84,179.39 74.5,7.53 141.5,9.35 216.3,20.57 67.7,10.16 145.71,11.85 217.44,17.52 74.69,5.91 146.31,18.95 223.09,20.82 275.72,6.75 615.37,49.8 903.29,56.05 150.56,3.26 301.49,10.66 451.66,17.85 292.28,14 1133.2,27.65 1396.75,-6.58 29.05,-1.97 150.84,-13.56 178.36,-29.07 25.86,-14.57 7.12,3.53 16.14,-18.91 -47.13,-13.48 -67.8,-6.64 -182.11,-41.18z"/>
  </g>
 </g>
</svg>
