<?xml version="1.0" encoding="UTF-8"?>
<!DOCTYPE svg PUBLIC "-//W3C//DTD SVG 1.1//EN" "http://www.w3.org/Graphics/SVG/1.1/DTD/svg11.dtd">
<!-- Creator: CorelDRAW -->
<svg xmlns="http://www.w3.org/2000/svg" xml:space="preserve" width="100%" height="100%" version="1.1" style="shape-rendering:geometricPrecision; text-rendering:geometricPrecision; image-rendering:optimizeQuality; fill-rule:evenodd; clip-rule:evenodd"
viewBox="0 0 19476.5 5267.06"
 xmlns:xlink="http://www.w3.org/1999/xlink"
 xmlns:xodm="http://www.corel.com/coreldraw/odm/2003">
 <defs>
  <style type="text/css">
   <![CDATA[
    .fil0 {fill:white}
    .fil1 {fill:black;fill-rule:nonzero}
    .fil2 {fill:#999999;fill-rule:nonzero}
    .fil4 {fill:red;fill-rule:nonzero}
    .fil3 {fill:white;fill-rule:nonzero}
   ]]>
  </style>
 </defs>
 <g id="Layer_x0020_1">
  <metadata id="CorelCorpID_0Corel-Layer"/>
  <rect class="fil0" width="19476.5" height="5267.06"/>
  <g id="_2094142390272">
   <path class="fil1" d="M9502.42 4126.16l243.49 0 -0.62 75.34 3.29 0c54.9,-80.56 99.99,-90.41 211.67,-90.41l31.01 0 0 219.78 -27.81 0c-153.27,0 -206.09,55.37 -206.09,195.6l0 239.72 -254.94 0 0 -640.03zm8668.65 640.03l0 -331.51c0,-76.14 -21.05,-93.83 -47.88,-93.83 -26.57,0 -46.08,17.69 -46.08,93.83l0 331.51 -255.49 0 0 -402.84c0,-147.58 124.18,-252.26 275,-252.26 75.67,0 149.61,26.52 201.67,79.36 53.51,-52.84 126.46,-79.36 202.88,-79.36 150.89,0 274.49,104.68 274.49,252.26l0 402.84 -255.72 0 0 -331.51c0,-76.14 -18.77,-93.83 -46.04,-93.83 -26.54,0 -47.92,17.69 -47.92,93.83l0 331.51 -254.91 0zm-774.91 -402.09c44.26,0 82.31,38.82 82.31,81.83 0,43.32 -38.05,82.74 -82.31,82.74 -45.37,0 -82.98,-39.42 -82.98,-82.74 0,-43.01 37.61,-81.83 82.98,-81.83zm0 -253.01c-185.88,0 -336.17,149.01 -336.17,334.84 0,184.92 150.29,335.84 336.17,335.84 184.35,0 336.88,-150.92 336.88,-335.84 0,-185.83 -152.53,-334.84 -336.88,-334.84zm-418.69 655.1l-156.43 0c-178.52,0 -311.76,-154.88 -311.76,-320.26 0,-165.97 133.24,-319.77 311.76,-319.77l156.43 0 0 220.22 -85.64 0c-86.34,0 -123.33,35.86 -123.33,99.55 0,63.97 36.99,100.12 123.33,100.12l85.64 0 0 220.14zm-549.51 -138.63c0,84.87 -67.79,154.21 -153.75,154.21 -86.23,0 -153.96,-69.34 -153.96,-154.21 0,-84.82 67.73,-153.09 153.96,-153.09 85.96,0 153.75,68.27 153.75,153.09zm-410.81 -296.69l-148.31 0c-10.37,0 -22.88,8.56 -22.88,17.78 0,46.56 193.69,60.38 192.53,240.15 0,112.17 -81.8,177.39 -226,177.39l-264.68 0 0 -214.19 154.62 0c40.43,0 49.48,-10.75 49.48,-24.8 0,-51.68 -201.13,-51.68 -199.8,-230.54 0,-107.84 100.53,-170.5 200.49,-170.5l265.79 0 -1.24 204.71zm-1006.08 -204.71l243.45 0 -0.47 75.34 2.86 0c55.24,-80.56 99.96,-90.41 212.69,-90.41l30.27 0 0 219.78 -27.76 0c-153.47,0 -206.04,55.37 -206.04,195.6l0 239.72 -255 0 0 -640.03zm-346.5 640.03l0 -320.26c0,-57.4 -46.08,-91.74 -95.09,-91.74 -49.13,0 -90.97,34.34 -90.97,91.74 0,56.46 41.84,92.67 84.3,92.67 18,0 38.7,-4.8 67.15,-14.31l0 251.21c-35.1,3.4 -63.64,6.27 -89.66,6.27 -176.92,0 -320.47,-144.92 -320.47,-316.17 0,-212.51 151.56,-354.51 333.73,-354.51 191.39,0 370.23,117.69 370.23,406.84l0 248.26 -259.22 0zm-522.38 0l-157.43 0c-177.53,0 -311.51,-154.88 -311.51,-320.26 0,-165.97 133.98,-319.77 311.51,-319.77l157.43 0 0 220.22 -86.01 0c-85.94,0 -122.84,35.86 -122.84,99.55 0,63.97 36.9,100.12 122.84,100.12l86.01 0 0 220.14zm-934.1 -409.42l352.54 0 0 177.03 -352.54 0 0 -177.03zm-726.83 432.8c70.78,15.84 140.91,35.34 212.51,35.34 68.67,0 142.4,-26.51 142.4,-90.8l0 -293.98c0,-57.13 -44.83,-81.59 -84.14,-81.59 -39.47,0 -81.22,24.46 -81.22,81.59 0,57.46 41.75,82.36 81.22,82.36 13.94,0 33.77,-2.74 48.42,-8.56l0 234.58c-29.14,11.39 -61.17,17.68 -91.6,17.68 -176.35,0 -292.52,-158.89 -292.52,-323.48 0,-188.15 152.8,-331.62 339.75,-331.62 163.91,0 340.02,132 340.02,305.1l0 317.92c0,189.66 -128.64,305.49 -356.25,305.49 -100.52,0 -159.96,-9.84 -258.59,-33.49l0 -216.54zm-753.21 -23.38l0 -383.95c0,-148.02 102.32,-271.15 302.38,-271.15 199.93,0 302.83,123.13 302.83,271.15l0 383.95 -256.46 0 0 -344.14c0,-56.06 -14.29,-75.67 -46.37,-75.67 -32.85,0 -47.26,19.61 -47.26,75.67l0 344.14 -255.12 0zm-346.64 0l0 -640.03 255.88 0 0 640.03 -255.88 0zm278.98 -843.67c0,82.29 -67.94,150.45 -150.9,150.45 -83.8,0 -152.05,-68.16 -152.05,-150.45 0,-82.25 68.25,-151.2 152.05,-151.2 82.96,0 150.9,68.95 150.9,151.2zm-368.39 843.67l-156.19 0c-178.25,0 -312.25,-154.88 -312.25,-320.26 0,-165.97 134,-319.77 312.25,-319.77l156.19 0 0 220.22 -86.27 0c-85.87,0 -122.73,35.86 -122.73,99.55 0,63.97 36.86,100.12 122.73,100.12l86.27 0 0 220.14zm-806.43 0l0 -320.26c0,-57.4 -46.59,-91.74 -95.05,-91.74 -49.75,0 -90.72,34.34 -90.72,91.74 0,56.46 40.97,92.67 84.1,92.67 17.46,0 38.16,-4.8 67.1,-14.31l0 251.21c-35.07,3.4 -63.46,6.27 -89.71,6.27 -177.42,0 -321.02,-144.92 -321.02,-316.17 0,-212.51 151.5,-354.51 333.95,-354.51 191.87,0 370.77,117.69 370.77,406.84l0 248.26 -259.42 0z"/>
   <path class="fil2" d="M2401.45 3477.47c-41.56,35.53 -85.71,68.48 -132.28,98.85 -253.08,165.02 -570.91,246.34 -916.46,246.34 -101.12,0 -200.03,-10.47 -295.56,-30.08 -242.75,-49.82 -437.03,-161.28 -574.82,-313.4 -150.3,-165.95 -229.25,-371.61 -229.25,-594.68 0,-60.49 7.1,-126.05 21.49,-196.16 25.76,-126.31 110.01,-225.74 218.73,-275.87 -42.23,-137.14 -46.89,-309.27 2.91,-528.14l0.69 -2.89 -0.69 -0.16c72.19,-309.35 250.46,-544.03 497.53,-703.94 240.02,-155.36 541.99,-233.24 866.35,-233.52 58.13,0.05 111.89,2.56 161.38,7.33 303.46,29.35 524.8,140.54 676.75,305.11 108.61,117.63 175.96,255.92 207.95,406.62 201.2,-108.07 429.31,-164.99 667.28,-165.23 74.77,0.09 145.31,4.51 210.12,13.62 172.15,24.2 332.23,80.36 466.27,174.28l85.47 -367.12c32.22,-183.28 192.21,-322.55 384.72,-322.55l552.73 0 0 1.13c28.19,0.02 56.81,3.11 85.46,9.55 209.85,47.19 341.7,255.57 294.52,465.42l-6.19 27.17c66.49,3.14 126.78,11.21 180.95,24.07 105.8,25.14 197.76,66.63 276.08,123.8 69.88,-65.54 163.84,-105.69 267.19,-105.69l555.26 0 0 1.46c27.68,0.03 55.78,3 83.92,9.21 44.83,9.91 86.12,27.19 122.9,50.27 60.56,-38.59 132.46,-60.94 209.58,-60.94l553.88 0 0 0.78c28.69,0.02 57.83,3.23 86.98,9.89 12.54,2.87 24.81,6.34 36.77,10.33 39.72,-13.61 82.33,-21 126.66,-21l508.49 0 0 0.31c27.17,0.02 54.76,2.87 82.4,8.84 14.36,3.1 28.34,6.98 41.94,11.54 102.31,-39.36 213.9,-64.12 329.44,-64.37 188.16,0.35 339.74,42.84 460.45,116.3l17.78 -8.96c143.43,-70.55 296.82,-106.97 462.34,-107.34 301,0.35 509.68,89.3 645.73,255.18 33.53,-26.13 69.62,-50.67 108.41,-73.56 199.34,-117.62 465.68,-181.33 815.38,-181.62 457.58,0.32 715.56,115.08 861.97,309.14l13.61 -11.02c242.98,-193.87 548.78,-297.79 875.06,-298.12 67.25,0.07 132.47,4.04 194.58,12.19 175.14,22.95 338.76,78.9 475.63,174.01l80.64 -353.85c27.4,-188.96 190.02,-334.12 386.57,-334.12l553.93 0 0 0.78c28.7,0.03 57.83,3.23 86.98,9.9 209.85,48.03 341.02,257.1 292.99,466.95l-5.88 25.72c61.36,3.09 118.7,10.69 172.04,22.68 191.85,43.12 338.49,138.41 441.78,282.04l1.41 1.97 3.22 -2.63c242.41,-195.2 547.4,-305.31 864.77,-305.64 109.67,0.09 211.12,12 303.9,34.65 156.82,38.31 290.86,105.16 400.87,196.58 68.58,-112.47 192.4,-187.55 333.76,-187.55l500.41 0 0 0.42c29.2,0.03 58.85,3.35 88.51,10.25 8.19,1.91 16.26,4.1 24.2,6.49 100.5,-39.28 208.01,-59.36 323.82,-60.76 6.08,-0.17 12.19,-0.21 18.34,-0.08 42.5,0.82 66.2,4.14 88.65,7.28 2.72,0.38 -5.65,-0.77 3.81,0.01l-0.11 1.29c17.26,1.43 34.61,4.02 51.99,7.86 209.85,46.34 342.39,254.05 296.05,463.9l-127.36 570.34c-39.07,191.73 -216.94,327.5 -416.36,309.44 -39,-3.54 -61.02,-7.65 -83.08,-11.78 -0.15,-0.03 -0.13,-0.05 0.02,-0.08l0.26 -1.36c-7.67,-3.18 -2.23,-13.72 -8.18,-8.23 -13.58,12.54 -28.79,54.4 -46.9,131.17l-0.66 -0.15 -106.73 468.85c-27.36,189 -190,334.21 -386.58,334.21l-553.16 0 0 -0.78c-28.69,-0.03 -57.83,-3.22 -86.98,-9.9 -88.94,-20.35 -163.74,-69.65 -216.76,-135.66 -7.45,4.2 -14.94,8.34 -22.46,12.39 -230.24,123.96 -490.31,171.99 -727.1,170.73 -106.33,0.38 -206.6,-10.12 -299.19,-31.2 -144.91,-32.98 -274.16,-90.61 -383.1,-171.99 -70.66,100.63 -187.59,166.41 -319.89,166.41l-553.29 0 0 -0.78c-28.69,-0.03 -57.82,-3.22 -86.97,-9.9 -42.53,-9.74 -81.83,-26.08 -117.06,-47.71 -59.7,37 -130.09,58.39 -205.5,58.39l-552.7 0 0 -1.13c-28.18,-0.02 -56.8,-3.11 -85.45,-9.55 -88.88,-19.99 -163.77,-68.9 -216.99,-134.59 -223.33,128.58 -480.12,183.09 -736.05,182.05 -109.33,0.41 -211.69,-10.27 -305.3,-31.81 -131.7,-30.28 -250.47,-81.08 -352.79,-151.8 -71.59,89.49 -181.7,146.83 -305.21,146.83l-568.8 0 0 -1.25c-5.07,-0.01 -10.15,-0.08 -15.26,-0.28 -42.83,-1.68 -83.76,-10.23 -121.78,-24.52l-16.7 5.54c-134.58,43.55 -266.83,58.56 -408.75,57.3 -85.47,0.47 -166.41,-7.74 -240.1,-24.99 -76.75,-17.97 -149.14,-45.56 -215.32,-83.16 -63.63,44.94 -141.29,71.36 -225.12,71.36l-554.24 0 0 -0.43c-29.19,-0.03 -58.84,-3.34 -88.5,-10.25 -35.87,-8.35 -69.4,-21.41 -100.13,-38.35 -56.15,31.22 -120.78,49.03 -189.58,49.03l-553.77 0 0 -1.47c-27.68,-0.03 -55.78,-3 -83.92,-9.21 -38.84,-8.57 -75.02,-22.69 -107.93,-41.32 -57.35,33.07 -123.89,52 -194.85,52l-553.17 0 0 -0.78c-28.69,-0.03 -57.82,-3.22 -86.97,-9.9 -12.65,-2.89 -25,-6.39 -37.05,-10.41 -39.79,13.66 -82.47,21.09 -126.89,21.09l-514.47 0 0 -0.93c-26.17,-0.02 -52.72,-2.69 -79.35,-8.23 -15.16,-3.15 -29.92,-7.18 -44.26,-11.95 -123.17,43.49 -249.34,59.02 -393.46,57.9 -73.12,0.31 -142.94,-6.8 -208.98,-21.47 -103.52,-23 -195.51,-62.8 -274.7,-119.81 -69.72,64.83 -163.17,104.49 -265.89,104.49l-554.25 0 0 -1.13c-28.19,-0.02 -56.81,-3.11 -85.45,-9.55 -42.98,-9.66 -82.67,-26.1 -118.24,-47.9 -59.76,37.12 -130.27,58.58 -205.81,58.58l-561.38 0 0 -0.43c-29.2,-0.03 -58.85,-3.34 -88.51,-10.25 -86.58,-20.16 -159.63,-67.72 -212.16,-131.36 -221.86,126.27 -476.02,179.86 -729.18,178.82 -107.13,0.41 -208.43,-10.07 -302.23,-31.15 -211.93,-47.64 -390.81,-147.94 -522.46,-298.56zm16329.79 -632.05c-2.19,0 -3.88,-0.33 -5.18,-0.87l-0.26 1.36c1.32,-0.25 13.08,-0.49 5.44,-0.49z"/>
   <path class="fil3" d="M2263.06 3339.06c-41.56,35.53 -85.72,68.48 -132.29,98.84 -253.08,165.03 -570.9,246.34 -916.46,246.34 -101.14,0 -200.04,-10.47 -295.57,-30.07 -242.75,-49.82 -437.04,-161.29 -574.83,-313.41 -150.3,-165.95 -229.25,-371.61 -229.25,-594.68 0,-60.49 7.1,-126.05 21.49,-196.16 25.76,-126.31 110.01,-225.74 218.73,-275.87 -42.23,-137.14 -46.89,-309.27 2.91,-528.14l0.69 -2.89 -0.69 -0.16c72.2,-309.36 250.48,-544.03 497.54,-703.94 240.02,-155.36 542,-233.24 866.36,-233.52 58.15,0.05 111.92,2.55 161.42,7.34 303.43,29.36 524.77,140.54 676.7,305.11 108.61,117.64 175.95,255.91 207.94,406.61 201.2,-108.07 429.31,-164.99 667.29,-165.23 74.76,0.09 145.3,4.51 210.11,13.62 172.13,24.2 332.23,80.37 466.27,174.29l85.47 -367.12c32.22,-183.28 192.21,-322.55 384.73,-322.55l552.72 0 0 1.13c28.19,0.02 56.81,3.11 85.46,9.55 209.85,47.18 341.7,255.57 294.52,465.42l-6.19 27.16c66.48,3.14 126.77,11.21 180.93,24.07 105.81,25.12 197.77,66.62 276.11,123.8 69.87,-65.54 163.84,-105.69 267.18,-105.69l555.26 0 0 1.46c27.68,0.03 55.78,3 83.92,9.21 44.83,9.91 86.12,27.19 122.9,50.27 60.56,-38.58 132.46,-60.94 209.58,-60.94l553.88 0 0 0.78c28.69,0.02 57.83,3.23 86.98,9.89 12.55,2.88 24.81,6.34 36.77,10.33 39.73,-13.61 82.33,-21 126.66,-21l508.49 0 0 0.31c27.17,0.02 54.76,2.88 82.4,8.85 14.36,3.09 28.34,6.97 41.95,11.53 102.32,-39.36 213.91,-64.12 329.43,-64.37 188.16,0.35 339.74,42.86 460.44,116.31l17.81 -8.97c143.42,-70.55 296.8,-106.97 462.32,-107.34 301,0.35 509.68,89.3 645.73,255.18 33.53,-26.12 69.62,-50.67 108.41,-73.56 199.34,-117.62 465.68,-181.33 815.38,-181.62 457.58,0.32 715.55,115.09 861.97,309.14l13.61 -11.02c242.98,-193.87 548.78,-297.79 875.06,-298.12 67.23,0.07 132.44,4.04 194.56,12.18 175.13,22.94 338.78,78.9 475.64,174.02l80.65 -353.84c27.4,-188.96 190.02,-334.12 386.57,-334.12l553.93 0 0 0.78c28.7,0.02 57.83,3.23 86.98,9.9 209.85,48.03 341.03,257.1 292.99,466.95l-5.88 25.71c61.35,3.09 118.69,10.69 172.03,22.68 191.87,43.11 338.51,138.42 441.8,282.04l1.4 1.96 3.22 -2.62c242.41,-195.2 547.4,-305.31 864.77,-305.64 109.67,0.09 211.11,12 303.89,34.65 156.83,38.3 290.87,105.16 400.88,196.58 68.58,-112.47 192.4,-187.55 333.76,-187.55l500.43 0 0 0.42c29.2,0.03 58.85,3.35 88.51,10.25 8.19,1.91 16.25,4.09 24.2,6.48 100.49,-39.27 208,-59.35 323.79,-60.75 6.09,-0.17 12.2,-0.21 18.35,-0.08 42.55,0.83 66.17,4.14 88.65,7.27 2.73,0.38 -5.27,-0.73 3.82,0.02l-0.11 1.29c17.26,1.43 34.61,4.02 51.99,7.86 209.85,46.34 342.39,254.05 296.05,463.9l-127.38 570.35c-39.06,191.74 -216.93,327.5 -416.35,309.44 -39.09,-3.55 -61.01,-7.66 -83.02,-11.76 -0.15,-0.03 -0.13,-0.06 0.02,-0.09l0.25 -1.34c-7.75,-3.16 -2.26,-13.76 -8.23,-8.26 -13.58,12.54 -28.8,54.4 -46.9,131.16l-0.66 -0.15 -106.71 468.83c-27.35,189.01 -189.99,334.23 -386.58,334.23l-553.16 0 0 -0.78c-28.7,-0.02 -57.83,-3.22 -86.98,-9.9 -88.95,-20.35 -163.74,-69.64 -216.77,-135.66 -7.45,4.21 -14.94,8.34 -22.47,12.39 -230.25,123.97 -490.31,171.99 -727.09,170.73 -106.32,0.38 -206.61,-10.12 -299.19,-31.2 -144.92,-32.97 -274.16,-90.61 -383.09,-171.98 -70.67,100.62 -187.59,166.4 -319.88,166.4l-553.3 0 0 -0.78c-28.69,-0.02 -57.83,-3.22 -86.98,-9.9 -42.53,-9.74 -81.83,-26.09 -117.06,-47.72 -59.7,37.01 -130.1,58.4 -205.51,58.4l-552.71 0 0 -1.13c-28.19,-0.02 -56.8,-3.11 -85.45,-9.55 -88.89,-19.99 -163.77,-68.89 -216.99,-134.58 -223.34,128.57 -480.11,183.08 -736.04,182.04 -109.33,0.41 -211.7,-10.28 -305.33,-31.8 -131.69,-30.3 -250.44,-81.1 -352.75,-151.81 -71.59,89.49 -181.69,146.83 -305.2,146.83l-568.82 0 0 -1.25c-5.07,-0.01 -10.15,-0.08 -15.26,-0.28 -42.82,-1.67 -83.75,-10.22 -121.78,-24.52l-16.68 5.54c-134.61,43.55 -266.85,58.56 -408.77,57.3 -85.44,0.47 -166.38,-7.74 -240.07,-24.98 -76.76,-17.97 -149.17,-45.57 -215.35,-83.17 -63.63,44.94 -141.29,71.36 -225.12,71.36l-554.24 0 0 -0.43c-29.19,-0.03 -58.84,-3.34 -88.5,-10.25 -35.86,-8.35 -69.4,-21.41 -100.13,-38.35 -56.15,31.22 -120.78,49.03 -189.58,49.03l-553.77 0 0 -1.47c-27.68,-0.03 -55.78,-3 -83.92,-9.21 -38.84,-8.57 -75.02,-22.69 -107.93,-41.32 -57.35,33.07 -123.89,52 -194.85,52l-553.16 0 0 -0.78c-28.69,-0.02 -57.83,-3.22 -86.98,-9.9 -12.64,-2.89 -24.99,-6.39 -37.04,-10.41 -39.79,13.66 -82.47,21.09 -126.9,21.09l-514.47 0 0 -0.93c-26.17,-0.02 -52.72,-2.69 -79.35,-8.23 -15.16,-3.15 -29.92,-7.18 -44.26,-11.95 -123.17,43.49 -249.34,59.02 -393.46,57.9 -73.11,0.31 -142.93,-6.8 -208.96,-21.47 -103.52,-23 -195.52,-62.79 -274.72,-119.82 -69.73,64.83 -163.18,104.5 -265.9,104.5l-554.24 0 0 -1.13c-28.19,-0.02 -56.81,-3.11 -85.45,-9.55 -42.98,-9.66 -82.67,-26.09 -118.24,-47.9 -59.76,37.12 -130.27,58.58 -205.81,58.58l-561.38 0 0 -0.43c-29.2,-0.03 -58.85,-3.34 -88.51,-10.25 -86.57,-20.16 -159.62,-67.72 -212.16,-131.36 -221.86,126.27 -476.01,179.86 -729.17,178.82 -107.15,0.41 -208.46,-10.07 -302.27,-31.16 -211.91,-47.65 -390.78,-147.94 -522.4,-298.54zm16329.76 -632.04c-2.16,0 -3.83,-0.32 -5.13,-0.85l-0.25 1.34c1.34,-0.26 13,-0.49 5.38,-0.49z"/>
   <path class="fil1" d="M2262.39 3348.44c-40.32,34.09 -83.04,65.78 -127.98,95.09 -254.22,165.76 -573.3,247.44 -920.11,247.44 -101.53,0 -200.89,-10.53 -296.93,-30.25 -244.2,-50.12 -439.7,-162.3 -578.42,-315.48 -151.45,-167.21 -231.01,-374.42 -231.01,-599.14 0,-60.87 7.15,-126.88 21.65,-197.53 25.75,-126.27 108.97,-226.14 216.83,-277.95 -40.79,-137.18 -44.63,-308.78 4.83,-526.19l0.7 -2.94 -0.7 -0.16c72.61,-311.18 251.94,-547.21 500.44,-708.05 241.12,-156.05 544.37,-234.3 870,-234.56 58.4,0.03 112.39,2.55 162.07,7.35 305.22,29.53 527.98,141.49 680.99,307.23 107.39,116.32 174.73,252.62 207.68,401.09 200.23,-105.88 426.6,-161.62 662.61,-161.86 75.13,0.09 146,4.53 211.01,13.67 169.7,23.85 327.79,78.62 461.07,169.81l83.13 -357.06c32.74,-186.49 195.5,-328.22 391.37,-328.22l552.7 0 0 1.15c28.67,0.03 57.79,3.17 86.93,9.72 213.46,48.01 347.59,259.98 299.58,473.44l-4.42 19.39c63.8,3.41 121.85,11.4 174.19,23.83 104.7,24.86 195.97,65.63 274.03,121.65 70.63,-64.44 164.59,-103.74 267.73,-103.74l555.24 0 0 1.5c28.16,0.03 56.74,3.05 85.37,9.37 44.15,9.75 84.92,26.54 121.42,48.89 60.85,-37.86 132.68,-59.76 209.63,-59.76l553.87 0 0 0.8c29.19,0.02 58.83,3.28 88.48,10.07 11.99,2.74 23.72,6.03 35.19,9.78 39.8,-13.39 82.43,-20.65 126.75,-20.65l508.48 0 0 0.32c27.64,0.02 55.7,2.93 83.82,9 13.81,2.98 27.29,6.66 40.42,10.97 102.39,-39.11 214,-63.66 329.57,-63.93 187.79,0.34 339.51,42.46 460.69,115.34l14.57 -7.31c144.34,-71.02 298.71,-107.66 465.26,-108.03 300.31,0.33 509.51,88.32 646.83,252.56 32.27,-24.8 66.87,-48.15 103.91,-70.01 200.35,-118.21 467.83,-182.26 818.79,-182.55 455.7,0.32 714.75,113.91 863.09,306.28l8.3 -6.7c244.15,-194.82 551.43,-299.25 879.25,-299.58 67.56,0.08 133.09,4.07 195.46,12.23 172.68,22.63 334.29,77.21 470.4,169.57l78.33 -343.66c27.84,-192.24 193.28,-339.94 393.23,-339.94l553.96 0 0 0.8c29.19,0.02 58.83,3.28 88.48,10.07 213.46,48.86 346.89,261.53 298.03,474.99l-4.11 17.96c58.74,3.34 113.78,10.85 165.17,22.39 191.82,43.1 338.89,138.01 443.02,280.91 243.2,-195.01 548.75,-304.99 866.69,-305.32 110.22,0.09 212.19,12.05 305.45,34.83 155.07,37.87 288.03,103.48 397.68,193.03 70.52,-110.75 194.39,-184.22 335.41,-184.22l500.43 0 0 0.44c29.7,0.03 59.86,3.4 90.03,10.43 7.58,1.77 15.04,3.76 22.41,5.93 100.64,-39.03 208.24,-58.97 324.04,-60.36 6.13,-0.16 12.29,-0.2 18.49,-0.08 43.14,0.85 66.83,4.18 89.39,7.32 1.68,0.23 -3.19,-0.45 1.96,-0.03l-0.09 1.19c18.06,1.44 36.23,4.1 54.42,8.12 213.46,47.14 348.28,258.42 301.14,471.88l-127.31 570.03c-39.63,195.15 -220.63,333.37 -423.57,315 -39.36,-3.58 -61.57,-7.71 -83.68,-11.85l0.67 -3.59c-1.97,-4.94 3.3,-13.4 -2.81,-7.76 -12.57,11.6 -27.12,52.36 -44.91,127.76l-0.67 -0.16 -106.6 468.23c-27.8,192.28 -193.26,340.03 -393.24,340.03l-553.14 0 0 -0.8c-29.19,-0.02 -58.83,-3.28 -88.48,-10.07 -88.47,-20.25 -163.18,-68.66 -216.87,-133.59l-17.68 9.7c-231.31,124.54 -492.5,172.78 -730.28,171.5 -106.84,0.39 -207.63,-10.17 -300.69,-31.35 -143.4,-32.64 -271.59,-89.29 -380.1,-169.07 -72.25,99.19 -189.29,163.68 -321.39,163.68l-553.28 0 0 -0.8c-29.19,-0.02 -58.83,-3.28 -88.48,-10.07 -41.83,-9.57 -80.56,-25.46 -115.48,-46.39 -59.98,36.34 -130.34,57.26 -205.59,57.26l-552.71 0 0 -1.15c-28.67,-0.03 -57.79,-3.17 -86.93,-9.72 -88.41,-19.88 -163.19,-67.91 -217.08,-132.5 -223.25,127.18 -479.3,181.15 -734.46,180.11 -109.9,0.42 -212.78,-10.33 -306.86,-31.97 -130.31,-29.97 -248.07,-79.91 -349.89,-149.26 -72.89,88.25 -183.14,144.49 -306.53,144.49l-568.81 0 0 -1.28c-5.15,-0.01 -10.32,-0.08 -15.52,-0.28 -42.71,-1.67 -83.56,-10.07 -121.6,-24.11l-14.58 4.83c-135.32,43.77 -268.24,58.86 -410.85,57.6 -85.95,0.46 -167.4,-7.79 -241.53,-25.14 -75.96,-17.78 -147.7,-44.93 -213.46,-81.8 -64.07,44.25 -141.76,70.18 -225.51,70.18l-554.25 0 0 -0.44c-29.7,-0.03 -59.86,-3.4 -90.03,-10.43 -35.19,-8.2 -68.17,-20.87 -98.52,-37.23 -56.36,30.67 -120.97,48.1 -189.65,48.1l-553.76 0 0 -1.5c-28.16,-0.03 -56.74,-3.05 -85.37,-9.37 -38.2,-8.44 -73.86,-22.15 -106.43,-40.17 -57.58,32.49 -124.08,51.04 -194.91,51.04l-553.16 0 0 -0.8c-29.19,-0.02 -58.83,-3.28 -88.48,-10.07 -12.08,-2.76 -23.89,-6.08 -35.44,-9.87 -39.87,13.45 -82.59,20.74 -127,20.74l-514.47 0 0 -0.94c-26.62,-0.03 -53.63,-2.75 -80.72,-8.38 -14.65,-3.05 -28.92,-6.89 -42.81,-11.43 -123.26,43.18 -249.53,58.63 -393.55,57.5 -73.57,0.32 -143.89,-6.84 -210.41,-21.62 -102.51,-22.76 -193.82,-61.87 -272.73,-117.72 -70.48,63.76 -163.94,102.59 -266.46,102.59l-554.21 0 0 -1.15c-28.67,-0.03 -57.79,-3.17 -86.93,-9.72 -42.27,-9.51 -81.42,-25.47 -116.67,-46.58 -60.05,36.46 -130.53,57.45 -205.91,57.45l-561.38 0 0 -0.44c-29.7,-0.03 -59.86,-3.4 -90.03,-10.43 -86.09,-20.05 -159.04,-66.73 -212.19,-129.29 -221.76,124.89 -475.2,177.94 -727.61,176.9 -107.67,0.41 -209.5,-10.12 -303.77,-31.32 -210.95,-47.42 -389.41,-146.76 -521.57,-295.68zm16330.44 -634.69c-3.59,0 -5.28,-1.34 -6.01,-3.15l-0.66 3.55c1.06,-0.2 15.04,-0.4 6.67,-0.4z"/>
   <path class="fil3" d="M2397.03 1823.99l-599.13 0c6.09,-67.19 -20.22,-107.44 -60.09,-136.52 -38.34,-21.66 -91.46,-33.21 -152.41,-30.57 -140.91,-2.64 -210.54,39.8 -226.69,113.31 -69.68,296.5 1078.24,111.09 910.67,835.69 -105.48,462.99 -527.94,688.08 -1055.07,688.08 -509.93,0 -770.43,-306.53 -696.68,-665.96l598.25 0c-2.58,69.48 23.76,123 67.62,158.99 44.48,30.1 108.05,47.3 168.14,45.21 157.95,2.09 275.12,-50.17 294.71,-143.91 71.28,-302.58 -1081.73,-95.33 -908.58,-856.79 98.92,-423.8 500.24,-636.42 983.92,-636.86 530.56,0.44 708.78,283.31 675.34,629.33zm1669 522.78l0 0c60.66,-431.28 -252.89,-597.65 -630.99,-598.41 -457.85,0.76 -859.75,285.31 -976.87,781.29 -110.01,489.08 176.76,752.32 629.09,749.97 385.68,2.35 764.83,-160.02 916.72,-598.99l-560.84 0c-44.88,111.58 -123.23,214.65 -265,212.11 -165.09,2.54 -213.06,-141.72 -159.55,-363.09 36.76,-168.85 122.65,-393.16 333.66,-394.7 59.14,1.54 102.52,20.45 129.79,60.95 25.68,34.38 34.33,84.92 23.24,150.87l560.75 0zm51.54 894.9l0 0 561.38 0 167.05 -743.29c41.96,-181.82 116.16,-296.09 288.35,-296.09 153.47,0 161.51,128.32 128.71,273.8l-174.61 765.58 554.25 0 197.33 -871.64c94.41,-397.4 -28.81,-620.91 -395.19,-621.67 -187.39,0.76 -331.66,78.4 -476.14,227.36l165.65 -727.08 -552.73 0 -464.05 1993.03zm3640.32 -1448.11l0 0 -553.88 0 -165.48 696.38c-49.6,222.3 -129.18,345.89 -288.74,349.33 -134.28,-3.44 -185.79,-66.76 -136.32,-264.41l174.15 -781.3 -555.26 0 -203.01 879.68c-92.27,415.34 59.5,608.73 364.02,606.38 228.76,2.35 379.17,-52.06 560.43,-250.63l-44.45 212.68 514.46 0 334.08 -1448.11zm-83.16 1448.11l0 0 553.17 0 166.65 -719.75c39.82,-173.1 105.41,-319.63 265.49,-319.63 149.44,0 169.61,86.55 121.12,296.09l-166.56 743.29 553.77 0 158.61 -719.75c43.4,-173.1 109.48,-319.63 272.64,-319.63 146.9,0 167.65,86.55 120.61,296.09l-173.65 743.29 554.23 0 196.93 -856.6c93.05,-398.28 20.17,-635.95 -386.6,-636.71 -206.57,0.76 -384.69,91.94 -545.3,264.91 -30.79,-154.09 -143.96,-264.15 -395.27,-264.91 -200.89,0.76 -408.39,147.1 -499.8,257.65l46.02 -212.45 -508.5 0 -333.56 1448.11zm6187.08 -894.9l0 0c56.54,-431.28 -257.81,-597.65 -630.51,-598.41 -462.84,0.76 -865.17,285.31 -978.8,781.29 -112.57,489.08 173.55,752.32 622.97,749.97 388.71,2.35 769.04,-160.02 917.19,-598.99l-561.36 0c-40.72,111.58 -121.2,214.65 -265.08,212.11 -162.96,2.54 -208.94,-141.72 -159.85,-363.09 40.87,-168.85 125.54,-393.16 334.14,-394.7 61.51,1.54 106.15,20.45 129.12,60.95 28.99,34.38 37.86,84.92 30.56,150.87l561.62 0zm52.62 894.9l0 0 552.69 0 166.73 -743.29c46.55,-181.82 116.18,-296.09 288.79,-296.09 155.95,0 165.58,128.32 129.34,273.8l-175.31 765.58 553.3 0 205.51 -871.64c89.35,-397.4 -33.39,-620.91 -401.23,-621.67 -186.27,0.76 -330.11,78.4 -478.02,227.36l166.41 -727.08 -553.92 0 -454.29 1993.03zm3571.01 0l0 0 553.17 0 113.97 -501.1c73.89,-313.2 213.72,-424.01 440.24,-424.01 38.33,0 75.35,11.95 112.72,15.52l128.65 -576.13c-20.59,-1.58 -44.03,-6.83 -68.05,-7.59 -215.55,0.76 -376.66,108.53 -506.86,332.81l-7.5 0 67.14 -287.61 -500.42 0 -333.06 1448.11zm-84.63 -598.57l0 0c127.9,-523.36 -100.24,-893.98 -620.85,-894.74 -445.71,0.76 -859.78,305.86 -969.88,781.29 -110.92,487.31 174.34,752.32 622.06,749.97 327.01,2.35 706.52,-116.31 885.92,-476.67l-529.92 0c-60.73,86.8 -150.5,128.23 -243.96,128.23 -141.89,0 -243.29,-114.07 -203.12,-288.08l1059.75 0zm-993.01 -288.47l0 0c34.41,-157.41 151.37,-254.11 319.61,-257.43 126.8,3.32 214.67,122 181.28,257.43l-500.89 0zm-4495.14 887.04l0 0 7.61 -29.48c-56.55,-59.61 -49.71,-101.53 -30.25,-183.2l159.07 -682.22c76.71,-342.8 95.26,-597.65 -568.42,-598.41 -550.8,0.76 -803.71,179.87 -872.61,485.03l531.35 0c43.36,-121.52 150.35,-138.53 227.01,-136.19 60.78,-2.34 178.17,10.52 152.02,113.42 -59.89,274.68 -986.26,-24.03 -1136.92,636.91 -70.1,299.48 133.71,434.44 400.94,432.09 205.37,2.35 375.01,-40.04 567.87,-195.66l-6.49 157.71 568.82 0zm-803.99 -288.09l0 0c-111.66,2.82 -167.62,-47.01 -151.66,-121.36 43.12,-186.36 273.22,-141.8 477.57,-235.56 -32.68,201.38 -134.28,359.74 -325.91,356.92z"/>
   <path class="fil4" d="M2397.03 1874.29l-599.13 0c-27.78,0 -50.3,-22.53 -50.3,-50.3 0,-2.86 0.24,-5.66 0.69,-8.39 1.49,-21.88 -1.67,-38.81 -8.2,-52.15 -6.45,-13.2 -16.78,-24.18 -29.47,-33.81 -14.07,-7.52 -31.46,-13.46 -51.55,-17.49 -21.91,-4.39 -46.01,-6.25 -71.5,-5.15 -1.71,0.08 -3.4,0.06 -5.07,-0.03 -58.89,-0.9 -102.19,6.66 -131.74,21.44l-2.99 1.36c-22.29,12.03 -35.18,29.38 -39.94,51.05l-0.3 1.33c-15.22,68 121.52,104.6 288.31,149.2 322.28,86.19 735.55,196.73 622.47,685.75l-0.58 2.27c-54.42,236.05 -186.71,413.69 -371.77,534.37 -195.71,127.64 -449.71,190.54 -731.65,190.54 -81.48,0 -157.52,-7.69 -227.68,-22.09 -169.09,-34.69 -301.14,-108.71 -391.44,-208.43 -91.9,-101.48 -140.19,-228.56 -140.19,-367.4 0,-41.37 4.47,-84.3 13.51,-128.36 4.84,-23.76 25.77,-40.14 49.12,-40.12l0 -0.16 598.25 0c27.77,0 50.3,22.53 50.3,50.3 0,1.86 -0.11,3.7 -0.3,5.51 -0.45,24.48 3.67,46.03 11.55,64.54 8.03,18.89 20.13,34.96 35.28,48.03 17.49,11.62 38.93,20.86 62.1,27.09 24.51,6.58 50.4,9.79 75.26,8.93l3.5 0.01c71.59,0.79 132.96,-10.42 177.63,-32.24 36.14,-17.65 59.8,-42.01 66.02,-71.79l0.26 -1.17c16.33,-69.6 -118.02,-104.77 -283.04,-147.96 -323.57,-84.71 -742.49,-194.38 -625.6,-708.45l0.09 -0.37 -0.09 -0.03c50.88,-217.99 176.79,-383.54 351.33,-496.51 183.97,-119.08 421.71,-178.82 681.52,-179.05 45.74,0.04 88.86,2.09 129.38,5.99 212.37,20.52 361.72,92.28 458.78,197.4 98.08,106.23 141.3,244.74 141.18,397.94 -0.02,27.4 -1.42,55.06 -4.09,82.82 -2.45,25.97 -24.32,45.43 -49.91,45.41l0 0.17zm-550.36 -100.6l503.58 0c0.38,-9.37 0.57,-18.64 0.57,-27.8 0.1,-128.51 -35.05,-243.52 -114.86,-329.95 -80.82,-87.54 -208.89,-147.66 -394.32,-165.57 -37.85,-3.65 -77.84,-5.57 -119.95,-5.6 -240.74,0.2 -459.49,54.57 -626.9,162.93 -153.1,99.09 -263.51,244.22 -308.1,435.22l-0.08 -0.01c-95.11,419.31 270.54,515.06 552.99,588.99 217.43,56.91 394.43,103.27 355.67,267.81 -13.41,61.94 -56.24,109.4 -120.05,140.56 -58.13,28.39 -135.04,43.04 -222.54,42.07 -34.96,1.16 -70.63,-3.18 -103.8,-12.09 -34.34,-9.23 -66.64,-23.42 -93.48,-41.58l0.07 -0.12c-1.3,-0.87 -2.57,-1.81 -3.8,-2.83 -28.75,-23.59 -51.63,-53.15 -66.6,-88.35 -7.76,-18.27 -13.36,-37.97 -16.52,-59.05l-508.53 0c-2.95,22.83 -4.41,45.54 -4.41,68.04 0,113.93 39.21,217.77 113.86,300.2 76.26,84.21 189.91,147.16 337.19,177.38 62.68,12.86 131.98,19.74 207.65,19.74 263.14,0 498.28,-57.45 677.02,-174.03 163.68,-106.74 280.7,-264.04 328.75,-473.18l0.38 -1.77c91.25,-394.63 -269.35,-491.08 -550.55,-566.28 -217.97,-58.3 -396.72,-106.13 -360.62,-267.33l0.29 -1.49c11.32,-51.5 41.04,-91.95 92.19,-118.83 1.35,-0.85 2.74,-1.63 4.19,-2.35 43.39,-21.68 102.09,-32.86 178.11,-31.66 34.18,-1.42 66.04,1.01 94.65,6.75 30.52,6.11 58.44,16.26 82.59,29.75 2.05,1.09 4.04,2.33 5.97,3.73 26.12,19.06 48.04,42.25 62.8,72.44 7.98,16.32 13.68,34.29 16.59,54.26zm2174.55 522.78c1.48,-17.86 2.23,-35.01 2.26,-51.49 0.26,-135.02 -45.68,-234.71 -121.9,-304.44 -78.36,-71.7 -189.84,-113.95 -317.34,-131.88 -48.27,-6.78 -98.3,-10.1 -149.2,-10.2 -223.02,0.37 -431.86,71.32 -597.29,203.63 -157.56,126.01 -276.19,308.32 -330.65,538.96l-0.64 2.45c-14.99,67.53 -22,130.18 -21.71,187.82 0.68,130.85 39.18,236.62 107.24,315.93 68.45,79.77 167.78,134.08 289.58,161.47 63.03,14.18 131.91,21.18 205.49,20.8l0.4 0c197.21,1.19 392.15,-42.37 552.26,-146.99 121.3,-79.25 223.06,-194.05 291.08,-351.59l-454.79 0c-23.56,50.5 -54.37,98.15 -95.04,135.48 -51.7,47.45 -117.86,77.78 -202.88,76.43 -24.52,0.33 -47.18,-2.1 -67.95,-7.11 -54.69,-13.22 -95.59,-43.48 -123.19,-88.17 -25.42,-41.12 -38.35,-93.76 -39.29,-155.64 -0.79,-51.16 6.63,-109.28 21.91,-172.87l-0.11 -0.02c19.41,-89.16 52.2,-193.56 109.15,-277.58 61,-90.01 148.22,-155.71 273.44,-156.61l1.38 0.01c36.55,0.93 68.8,7.51 96.69,20.37 29.68,13.69 53.96,33.9 72.73,61.31 17.62,23.84 29.27,52.67 34.43,86.29 2.11,13.69 3.11,28.24 2.96,43.64l460.98 0zm102.47 -51.49c-0.07,33.81 -2.51,68.9 -7.48,105.27 -1.79,26.16 -23.57,46.82 -50.18,46.82l-560.75 0 0 -0.1c-2.73,0 -5.49,-0.22 -8.26,-0.68 -27.34,-4.56 -45.82,-30.43 -41.26,-57.77 4.56,-27.16 5.18,-50.79 2.1,-70.76 -2.63,-17.1 -8.07,-31.06 -16.1,-41.8l-1.37 -1.96c-8.37,-12.44 -19.17,-21.54 -32.31,-27.6 -15.29,-7.04 -34.16,-10.7 -56.51,-11.33 -85.32,0.94 -146.31,48.08 -190.04,112.59 -47.93,70.72 -76.47,162.91 -93.82,242.6l-0.12 -0.02 -0.27 1.2c-13.53,55.99 -20.11,106.21 -19.45,149.3 0.66,43.52 8.68,78.81 24.35,104.17 13.48,21.82 33.88,36.7 61.49,43.37 12.87,3.1 27.42,4.59 43.65,4.36l1.57 0c56.37,1 100.06,-18.9 134.05,-50.1 35.92,-32.97 62.45,-78.9 82.25,-127.27 6.5,-20.26 25.5,-34.94 47.91,-34.94l560.84 0 0 0.21c5.41,0 10.91,0.88 16.31,2.74 26.15,9 40.05,37.51 31.05,63.66 -74.6,215.58 -201.3,368.22 -356.6,469.68 -177.57,116.02 -391.79,164.38 -607.44,163.11 -81.29,0.41 -157.62,-7.38 -227.74,-23.15 -142.96,-32.16 -260.86,-97.42 -343.81,-194.08 -83.3,-97.08 -130.4,-224.64 -131.2,-380.79 -0.34,-65.23 7.42,-135.34 24.04,-210.12l0.66 -3.34c59.84,-253.43 191.18,-454.54 366.01,-594.36 183.31,-146.61 414,-225.23 659.78,-225.64 56.29,0.11 110.95,3.69 162.94,10.99 146.62,20.62 276.7,70.96 371.19,157.41 96.61,88.39 154.85,212.47 154.52,378.33zm57.18 946.39l457.99 0 158.26 -704.19c22.68,-98.55 55.07,-179.8 106.69,-238.23 55.01,-62.27 128.68,-96.96 230.54,-96.96 102.68,0 157.57,45.4 181.76,116.54 20.49,60.24 14.09,137.76 -4.12,218.57l-160.63 704.27 451.3 0 188.57 -832.89 -0.13 -0.04c19.31,-81.28 29.16,-154.1 29.29,-217.94 0.19,-90.72 -18.78,-164 -57.57,-218.41 -37.71,-52.87 -96.01,-89.43 -175.61,-108.33 -42.16,-10.02 -89.57,-15.18 -142.24,-15.3 -85.79,0.35 -161.57,18.24 -232.28,53 -71.87,35.33 -139.6,88.69 -208.04,159.24 -19.31,19.85 -51.08,20.29 -70.93,0.98 -13.33,-12.97 -17.91,-31.56 -13.63,-48.37l151.37 -664.37 -449.98 0 -440.61 1892.43zm498.08 100.6l-561.38 0c-3.76,-0.06 -7.58,-0.48 -11.4,-1.37 -27.01,-6.29 -43.81,-33.31 -37.52,-60.33l463.43 -1990.43c4.16,-23.58 24.76,-41.51 49.54,-41.51l552.73 0 0 0.15c3.63,0.01 7.32,0.4 11.01,1.23 27.01,6.07 43.99,32.91 37.92,59.93l-130.78 574.01c37.65,-28.42 76.15,-52.5 116.17,-72.18 84.37,-41.47 174.42,-62.81 275.97,-63.22l0.2 0c61.69,0.13 116.85,6.09 165.55,17.65 104.09,24.72 181.86,74.69 234.17,148.03 51.22,71.84 76.27,164.59 76.04,276.57 -0.15,72.8 -10.8,153.34 -31.64,241.12l-0.13 -0.03 -196.35 867.3c-3.51,24.36 -24.46,43.08 -49.78,43.08l-554.25 0 0 -0.14c-3.63,-0.01 -7.32,-0.4 -11.01,-1.23 -27.01,-6.08 -44,-32.92 -37.92,-59.93l174.62 -765.58c14.56,-64.65 20.56,-124.08 6.86,-164.34 -9.99,-29.39 -35.88,-48.16 -86.65,-48.16 -70.32,0 -119.87,22.45 -155.48,62.77 -39.01,44.16 -64.74,110.96 -83.94,194.22l-166.18 739.25c-3.47,24.38 -24.45,43.14 -49.8,43.14zm3015.83 -1448.11l-451.04 0 -156.29 657.67 -0.96 3.5c-26.27,116.2 -61.21,207.78 -111.6,272.5 -55.61,71.39 -127.81,109.78 -224.12,111.85l-2.15 -0.01c-85.4,-2.17 -145.93,-25.92 -179.51,-84.52 -30.16,-52.63 -32.49,-129.84 -4.37,-242.17l0.58 -2.12 159.75 -716.7 -452.81 0 -194.62 843.08c-17.35,78.92 -25.45,149.1 -24.98,210.68 0.72,94.66 21.89,167.99 60.78,220.86 37.58,51.09 93.23,84.18 164.24,99.96 34.84,7.73 73.45,11.41 115.5,11.08l0.59 0.01c107.51,1.09 196.06,-10.9 277.98,-46.06 81.9,-35.14 159.3,-94.5 244.91,-188.28 18.66,-20.51 50.43,-22 70.94,-3.34 14.19,12.91 19.27,32.09 14.89,49.48l-31.37 150.04 412.78 0 310.88 -1347.51zm-490.77 -100.61l553.88 0 0 0.1c3.7,0.01 7.45,0.42 11.2,1.28 27.02,6.18 43.91,33.11 37.73,60.13l-333.35 1444.92c-3.83,23.97 -24.61,42.29 -49.66,42.29l-514.46 0 0 -0.12c-3.37,0 -6.79,-0.34 -10.22,-1.05 -27.13,-5.64 -44.54,-32.21 -38.91,-59.34l11.38 -54.45c-52.94,43 -105.54,75.2 -160.56,98.82 -95.69,41.06 -196.69,55.12 -317.81,53.9 -49.24,0.36 -95.08,-4.1 -137.17,-13.44 -95.28,-21.17 -170.99,-66.99 -223.57,-138.46 -51.28,-69.71 -79.14,-162.71 -80.04,-279.82 -0.52,-68.81 8.33,-146.35 27.34,-232.73l0.63 -3.25 202.27 -876.49c3.84,-23.97 24.62,-42.29 49.67,-42.29l555.26 0 0 0.19c3.56,0 7.18,0.39 10.8,1.19 27.02,5.96 44.09,32.72 38.12,59.73l-173.4 777.98c-0.24,1.56 -0.55,3.14 -0.94,4.7 -21.35,85.3 -22.64,138.6 -5.86,167.9 13.26,23.15 45.29,32.84 93.57,34.2 62.69,-1.63 109.75,-26.78 145.99,-73.31 40.53,-52.06 69.75,-130.64 92.83,-232.8 0.21,-1.56 0.5,-3.13 0.87,-4.68l165.11 -694.78c4.63,-22.99 24.95,-40.32 49.3,-40.32zm533.81 1448.12l450.21 0 157.59 -680.65c21.19,-92.12 49.78,-177.94 95.71,-242.61 50.64,-71.3 119.97,-116.12 218.71,-116.12 98.65,0 155.9,31.92 181.94,102.47 21.47,58.14 14.52,140.94 -11.89,255.12l-0.68 2.63 -152.19 679.16 450.73 0 149.9 -680.26 1.07 -4.05c22.96,-90.95 52.43,-175.52 98.8,-239.35 51.62,-71.05 121.76,-115.72 221.9,-115.72 97.36,0 154.12,31.92 180.19,102.47 21.4,57.93 14.99,140.71 -10.65,254.92l-0.09 0.37 0.09 0.03 -159.24 681.59 450.95 0 187.99 -817.7c43.8,-187.7 49.71,-335.36 -1.4,-432.64 -48.35,-92.02 -154.11,-142.23 -336.32,-142.57 -95.25,0.35 -184.08,21.62 -267.68,62.77 -84.79,41.73 -164.68,104.17 -240.87,186.23 -18.88,20.28 -50.65,21.43 -70.94,2.55 -8.02,-7.47 -13.05,-16.94 -15.03,-26.94l-0.1 0.02c-13.75,-68.81 -46.36,-126.86 -104.51,-165.84 -55.01,-36.86 -133.6,-58.47 -241.44,-58.79 -80.06,0.3 -162.6,26.99 -237.26,65.48 -95.37,49.16 -176.53,116.89 -223.83,174.1 -17.68,21.37 -49.37,24.37 -70.74,6.68 -14.95,-12.36 -20.9,-31.57 -17.09,-49.32l32.82 -151.54 -406.26 0 -310.39 1347.51zm490.08 100.6l-553.17 0 0 -0.1c-3.7,0 -7.45,-0.41 -11.2,-1.27 -27.02,-6.18 -43.91,-33.12 -37.73,-60.13l332.83 -1444.9c3.82,-23.98 24.6,-42.32 49.66,-42.32l508.5 0c3.5,0.05 7.04,0.41 10.61,1.18 27.13,5.86 44.37,32.61 38.51,59.74l-11.95 55.17c40.05,-30.57 85.17,-59.77 133.36,-84.61 87.19,-44.94 185.3,-76.11 283.25,-76.48 129.31,0.39 226.4,28.2 297.24,75.68 56.59,37.93 95.95,87.46 121.17,145.04 66.61,-62.05 136.41,-111.47 210.08,-147.73 97.22,-47.85 200.77,-72.58 312.08,-72.99 224.54,0.42 358.63,69.45 425.14,196.01 63.73,121.31 59.57,291.65 10.39,502.21l-196.18 853.17c-3.82,23.99 -24.61,42.33 -49.68,42.33l-554.23 0c-3.76,-0.06 -7.58,-0.48 -11.4,-1.37 -27.01,-6.29 -43.81,-33.31 -37.53,-60.33l173.66 -743.29 0.08 0.02c21.32,-95.08 28.03,-160.29 14.1,-197.95 -9.27,-25.1 -36.34,-36.46 -85.87,-36.46 -63.03,0 -107.52,28.61 -140.56,74.08 -37.45,51.55 -62.51,124.83 -82.74,204.99l-158.62 719.91c-4.6,23.03 -24.94,40.4 -49.33,40.4l-553.77 0 0 -0.19c-3.56,0 -7.18,-0.38 -10.81,-1.18 -27.01,-5.96 -44.08,-32.72 -38.11,-59.74l165.95 -740.6 0.6 -3.09c22.06,-95.34 29.28,-160.61 15.44,-198.12 -9.26,-25.09 -36.85,-36.46 -87.63,-36.46 -61.33,0 -104.85,28.45 -136.97,73.68 -36.84,51.87 -60.98,125.9 -79.59,206.85l-165.92 716.59c-3.85,23.96 -24.63,42.26 -49.66,42.26zm5588.68 -995.5c1.13,-15.64 1.7,-30.8 1.73,-45.48 0.28,-138.84 -47.32,-240.85 -125.7,-311.75 -80.56,-72.85 -194.72,-115.04 -324.2,-132.01 -44.36,-5.82 -90.32,-8.68 -137.11,-8.77 -225.35,0.37 -435.47,71.34 -601.26,203.67 -157.88,126.02 -275.82,308.25 -328.62,538.72 -16.13,70.1 -23.66,134.84 -23.35,194.09 0.67,129.34 38.57,233.93 105.52,312.47 67.39,79.08 165.15,133.11 284.86,160.67 63.49,14.61 132.84,21.83 206.82,21.44l0.4 0c198.96,1.19 395.08,-42.37 555.27,-146.99 121.18,-79.14 222.32,-193.91 289.05,-351.59l-454.89 0c-24.95,56.56 -60.39,109.52 -109.16,148.54 -49.82,39.87 -112.29,64.57 -189.78,63.37 -22.29,0.3 -43.05,-1.74 -62.28,-6.01 -56.57,-12.54 -98.5,-43.07 -126.6,-88.77 -25.68,-41.76 -38.62,-95.78 -39.61,-159.64 -0.78,-50.28 5.96,-107.27 19.77,-169.59l0.23 -0.97c21.53,-89.09 54.91,-193.18 111.22,-276.41 60.89,-90.01 147.18,-155.7 271.42,-156.61l1.37 0.01c37.54,0.92 70.65,7.49 98.66,20.37 29.93,13.75 53.66,34.09 70.42,61.66 18.67,23.33 30.83,51.02 37.08,82.98 2.86,14.6 4.47,30.14 4.89,46.6l463.85 0zm101.94 -45.48c-0.06,31.38 -2.18,64.09 -6.46,98.07 -1.2,26.72 -23.24,48.01 -50.25,48.01l-561.62 0 0 -0.09c-1.81,0 -3.65,-0.1 -5.5,-0.3 -27.56,-3.03 -47.43,-27.85 -44.4,-55.41 3.08,-27.88 2.85,-51.99 -1.09,-72.14 -3.29,-16.81 -9.17,-30.47 -17.89,-40.81 -1.94,-2.36 -3.73,-4.91 -5.3,-7.66 -6.09,-10.74 -15.32,-18.75 -27.32,-24.26 -15.29,-7.03 -35.1,-10.7 -58.84,-11.33 -83.88,0.93 -144.01,48.07 -187.65,112.59 -48.38,71.51 -77.79,164.02 -97.1,243.78 -12.01,54.39 -17.88,103.4 -17.22,145.81 0.69,45.17 8.9,81.84 25.07,108.15 13.76,22.37 34.46,37.37 62.54,43.59 11.83,2.62 25.15,3.87 39.94,3.65l1.57 0c52.27,0.91 93.8,-15.24 126.45,-41.36 41,-32.8 69.92,-82.1 89.44,-134.36 5.97,-21.12 25.39,-36.59 48.41,-36.59l561.36 0 0 0.15c5.27,0 10.64,0.83 15.91,2.6 26.26,8.79 40.42,37.22 31.64,63.47 -72.77,215.62 -198.95,368.39 -354.65,470.07 -177.65,116.02 -392.89,164.38 -610.05,163.11 -82.1,0.42 -159.05,-7.59 -229.47,-23.8 -140.78,-32.41 -256.96,-97.38 -338.69,-193.28 -82.18,-96.41 -128.69,-222.8 -129.49,-377.32 -0.35,-67.29 7.94,-139.66 25.71,-216.88 58.14,-253.79 188.8,-455.09 363.98,-594.91 183.38,-146.38 415.35,-224.88 663.75,-225.29 51.42,0.1 101.72,3.22 150.08,9.56 148.68,19.49 281.64,69.61 378.43,157.15 98.97,89.5 159.06,216.04 158.71,386.03zm58.81 940.38l449.69 0 157.9 -704 1.06 -3.95c25.01,-96.87 56.99,-176.71 107.27,-234.28 54.5,-62.4 127.09,-97.15 229.39,-97.15 103.62,0 159.57,45.33 184.1,116.34 20.93,60.57 14.2,138.21 -5.84,218.96l-161.22 704.08 450.54 0 196.97 -835.2c17.19,-77.19 25.99,-147 26.12,-208.95 0.19,-93.69 -19.23,-169.14 -59.22,-224.78 -39.01,-54.29 -99.36,-91.42 -181.99,-109.99 -40.71,-9.16 -86.6,-13.88 -137.72,-13.99 -85.24,0.35 -160.65,18.25 -231.52,53 -72.22,35.42 -140.83,88.91 -211.06,159.63 -19.53,19.64 -51.3,19.73 -70.94,0.2 -12.73,-12.65 -17.24,-30.46 -13.53,-46.76l152.31 -665.59 -450.95 0 -431.36 1892.43zm489.79 100.6l-552.69 0 0 -0.14c-3.63,-0.01 -7.32,-0.4 -11.01,-1.23 -27.01,-6.08 -44,-32.92 -37.92,-59.93l453.45 -1989.33c3.53,-24.32 24.47,-43.01 49.77,-43.01l553.92 0 0 0.1c3.7,0.01 7.46,0.42 11.21,1.28 27.01,6.18 43.9,33.11 37.72,60.13l-131.7 575.39c38.73,-29.11 78.14,-53.73 118.97,-73.76 84.57,-41.47 174.22,-62.81 275.21,-63.22l0.2 0c58.96,0.13 112.23,5.63 159.86,16.34 107.6,24.19 187.65,74.6 241.32,149.29 52.71,73.34 78.31,168.39 78.09,283.34 -0.16,69.7 -9.74,146.83 -28.46,230.89l-0.66 3.32 -204.91 869.14c-4.21,23.53 -24.78,41.4 -49.52,41.4l-553.3 0 0 -0.1c-3.7,0 -7.45,-0.41 -11.2,-1.27 -27.02,-6.18 -43.91,-33.12 -37.73,-60.13l175.51 -766.36c16.05,-64.42 22.51,-123.41 8.78,-163.17 -10.19,-29.5 -37.06,-48.35 -89.39,-48.35 -70.28,0 -118.84,22.39 -153.94,62.57 -38.51,44.1 -64.4,110.63 -85.73,193.34l-166.05 740.3c-3.47,24.4 -24.44,43.17 -49.8,43.17zm3081.39 -100.6l450.11 0 105.12 -462.17 -0.09 -0.03c39.37,-166.87 97.74,-281.16 177.82,-355 82.74,-76.29 185.46,-107.91 311.35,-107.91 25.93,0 50.11,4.4 74.09,8.91l106.33 -476.17c-2.91,-0.26 -5.72,-0.44 -8.39,-0.53 -97.13,0.55 -181.82,24.99 -256.63,74.33 -76.68,50.57 -144.29,128.07 -205.51,233.53 -9.3,16.05 -26.13,25.02 -43.43,25.03l0 0.11 -7.5 0c-27.78,0 -50.31,-22.52 -50.31,-50.3 0,-4.88 0.7,-9.6 2,-14.06l52.12 -223.25 -397.16 0 -309.92 1347.51zm490.1 100.6l-553.17 0 0 -0.1c-3.7,0 -7.45,-0.41 -11.21,-1.27 -27.01,-6.18 -43.9,-33.12 -37.72,-60.13l332.31 -1444.88c3.82,-23.99 24.61,-42.34 49.68,-42.34l500.42 0c3.76,0.07 7.58,0.49 11.4,1.38 27.01,6.29 43.81,33.31 37.52,60.33l-15.91 68.15c31.99,-32.56 65.68,-60.54 101.27,-84.02 91.32,-60.24 193.95,-90.09 311,-90.82l3.51 -0.02c17.51,0.55 32.38,2.68 46.52,4.7 8.31,1.17 16.36,2.33 23.7,2.89l-0.01 0.14c2.35,0.17 4.71,0.51 7.08,1.04 27.02,5.96 44.08,32.72 38.12,59.73l-128.34 574.74c-4.77,25.13 -27.98,42.94 -53.95,40.5 -18.14,-1.72 -34.23,-4.76 -50.34,-7.79 -19.46,-3.66 -39.06,-7.34 -57.67,-7.34 -100.62,0 -181.11,23.8 -243.36,81.2 -64.92,59.85 -113.44,157.6 -147.95,303.91l-0.09 -0.02 -113.04 496.99c-3.52,24.33 -24.47,43.03 -49.77,43.03zm-677.72 -699.17c16.41,-77.06 24.56,-150.14 24.66,-218.44 0.2,-143.5 -35.03,-266.28 -103.52,-360.72 -67.76,-93.44 -169.06,-160.1 -301.74,-192.52 -60.45,-14.77 -127.31,-22.55 -200.33,-22.66 -215.47,0.37 -423.28,75.81 -589.21,209.47 -159.65,128.61 -280.42,311.27 -331.74,532.92l-0.46 1.82c-15.43,68.41 -22.64,131.81 -22.33,190.09 0.68,130.12 38.86,235.5 106.29,314.59 67.87,79.63 166.21,133.98 286.5,161.35 62.32,14.19 130.36,21.2 202.93,20.82l0.39 0c171.41,1.22 357.53,-32.06 518.52,-118.67 109.39,-58.85 207.3,-142.71 281,-257.6l-418.92 0c-31.16,38.45 -67.75,68.02 -107.66,88.99 -50.17,26.37 -105.2,39.24 -161.09,39.24 -22.66,0 -44.84,-2.55 -66.19,-7.47 -57.42,-13.26 -106.5,-43.81 -141.42,-88.53 -34.52,-44.22 -54.67,-101.42 -54.67,-168.36 0,-26.62 3.29,-55.1 10.23,-85.22 5.32,-23.27 26.03,-39.02 48.93,-39l0 -0.1 1019.83 0zm124.87 -218.44c-0.12,86.57 -11.76,179.19 -35.24,276.52 -3.74,24.08 -24.57,42.52 -49.71,42.52l-1017.19 0c-0.75,8.08 -1.12,16 -1.12,23.72 0,43.78 12.19,79.92 33.06,106.66 20.49,26.24 49.94,44.32 84.84,52.37 13.49,3.11 28.15,4.73 43.78,4.73 40.14,0 79.23,-9.01 114.32,-27.45 32.47,-17.07 61.93,-42.21 86.14,-75.74 8.71,-14.97 24.94,-25.04 43.5,-25.04l529.92 0c7.54,0.03 15.19,1.72 22.4,5.31 24.84,12.36 34.96,42.55 22.59,67.39 -86.29,173.35 -216.16,294.03 -364.66,373.93 -176.88,95.16 -379.93,131.76 -566.26,130.45 -80.36,0.4 -155.82,-7.4 -225.13,-23.17 -141.65,-32.24 -258.55,-97.55 -340.73,-193.97 -82.64,-96.95 -129.45,-224.15 -130.26,-379.44 -0.35,-66 7.63,-136.94 24.71,-212.57l0.43 -2.13c56.67,-244.7 190.17,-446.49 366.73,-588.71 183.36,-147.71 413.35,-231.08 652.08,-231.49 81.38,0.12 156.11,8.85 223.91,25.41 157.1,38.39 277.83,118.4 359.51,231.02 80.96,111.66 122.61,254.49 122.38,419.68zm-1126.5 -32.95c20.06,-89.33 64.06,-161.92 127.51,-213.01 63.03,-50.76 144.42,-79.44 239.67,-81.31l2.15 0.01c18.66,0.48 36.47,2.9 53.24,7.03 55.76,13.74 102.76,46.23 135.41,90.7 32.14,43.79 50.18,99.16 48.61,159.46 -0.54,20.58 -3.29,41.46 -8.43,62.33 -5.62,22.9 -26.15,38.22 -48.73,38.2l0 0.11 -500.89 0c-27.77,0 -50.3,-22.52 -50.3,-50.3 0,-4.58 0.61,-9.01 1.76,-13.22zm190.38 -134.81c-31.15,25.08 -55.9,58.03 -73.21,97.73l389.13 0 0.08 -2.39c0.97,-37.36 -9.92,-71.3 -29.35,-97.77 -18.93,-25.8 -46.18,-44.63 -78.43,-52.58 -9.96,-2.46 -20.24,-3.92 -30.66,-4.26 -71.66,1.63 -131.92,22.51 -177.56,59.27zm-4580.84 1017.97l-6.47 25.07c-3.82,23.99 -24.61,42.33 -49.67,42.33l-568.82 0 0 -0.16 -1.97 -0.03c-27.67,-1.09 -49.22,-24.41 -48.13,-52.08l2.2 -53.49c-70.6,46.87 -139.52,79.98 -209.53,102.57 -97.65,31.52 -196.33,42.16 -304.01,40.95 -58.32,0.48 -113.77,-5.09 -164.41,-16.94 -86.04,-20.13 -159.87,-58.34 -213.1,-115.77 -54.46,-58.76 -86.54,-136.21 -87.39,-233.29 -0.34,-39.69 4.47,-82.24 15.09,-127.6l0.09 0.02c99.6,-435.95 497.3,-485.56 808.53,-524.37 171.07,-21.33 311.55,-38.87 327.98,-111.25l0.52 -2.29c1.76,-6.92 2.47,-12.48 2.3,-16.87 -0.23,-6.14 -2.79,-10.74 -6.66,-14.15 -7.04,-6.19 -18.23,-10.68 -30.81,-13.87 -22.74,-5.77 -47.72,-6.76 -66.35,-6.05l-3.14 0c-32.33,-0.98 -70.56,1.89 -103.8,17.14 -30.13,13.81 -57.5,39.29 -73.98,84.44 -6.53,20.2 -25.5,34.81 -47.86,34.81l-531.35 0 0 -0.14c-3.63,-0.01 -7.31,-0.4 -11,-1.23 -27.02,-6.08 -44,-32.92 -37.92,-59.93 37.52,-166.24 125.35,-298.24 278.97,-388.9 148.22,-87.46 357.59,-134.85 642.56,-135.24 351.98,0.41 526.1,72.92 604.1,193.94 78.44,121.71 54.43,280.67 14.01,461.95l-0.77 4.03 -159.06 682.41c-8.62,36.17 -14.48,63.14 -12.4,83.17 1.73,16.69 10.28,33.01 30.07,53.86l-0.06 0.05c11.46,12.08 16.66,29.59 12.24,46.91zm-125.37 -33.2c-9.41,-18.64 -14.62,-37.37 -16.7,-57.4 -3.76,-36.23 3.52,-71.07 14.37,-116.57l159.06 -682.03 0.8 -3.02c35.35,-158.54 57.41,-295.8 -0.68,-385.94 -59.47,-92.28 -207.94,-147.6 -519.61,-147.95 -265.82,0.37 -458.34,42.94 -591.48,121.49 -108.32,63.92 -177.36,152.87 -214.96,263.14l432.06 0c27.84,-55.3 68.62,-89.34 113.31,-109.82 49.58,-22.75 102.44,-27.41 146.43,-26.23 26.14,-0.9 60.94,0.64 93.27,8.85 26.5,6.73 52.11,17.97 72.46,35.89 23.53,20.7 39.04,48.66 40.46,86.05 0.54,14.21 -1.01,29.27 -5.05,45.17l-0.2 0.77c-32.59,140.29 -204.45,161.75 -413.57,187.82 -280.63,35 -639.25,79.73 -722.95,446.94l-0.09 0.37 0.09 0.03c-8.94,38.18 -13.01,72.83 -12.74,104.01 0.61,70 22.89,124.92 60.67,165.69 39.01,42.09 95.38,70.62 162.41,86.31 43.7,10.22 91.34,15.02 141.28,14.58l0.79 0.01c97.55,1.11 186.29,-8.3 272.9,-36.25 86.3,-27.86 171.68,-74.63 263.13,-148.42 21.59,-17.35 53.18,-13.93 70.54,7.66 8.24,10.26 11.79,22.76 10.94,34.93l-4.28 103.92 447.34 0zm-734.06 -187.68c-28.2,0.68 -53.48,-1.51 -75.59,-6.26 -38.38,-8.24 -69.07,-24.2 -91.1,-46.34 -24.4,-24.54 -37.52,-55.46 -38.42,-91.08 -0.32,-12.61 0.88,-25.39 3.63,-38.2l0.73 -3c36.06,-150.97 157.83,-177.17 302.59,-208.26 65.73,-14.11 137.04,-29.43 202.54,-59.48 25.17,-11.5 54.92,-0.41 66.41,24.76 4.26,9.32 5.42,19.27 3.92,28.69 -18.83,116.17 -59.57,220.03 -125.8,292.57 -61.67,67.52 -143.82,107.81 -248.91,106.6zm-54.76 -104.51c15.3,3.28 32.98,4.79 52.88,4.29l1.77 0c74.11,1.1 131.77,-26.91 174.74,-73.97 36.08,-39.52 62.86,-92.44 81.23,-153.41 -45.65,13.92 -90.51,23.55 -133.2,32.71 -111.1,23.87 -204.55,43.95 -225.89,133.78 -1.23,5.75 -1.77,10.78 -1.67,15.07 0.22,9.02 3.43,16.74 9.34,22.7 8.29,8.32 21.99,14.8 40.8,18.83z"/>
  </g>
 </g>
</svg>
