<?xml version="1.0" encoding="UTF-8"?>
<!DOCTYPE svg PUBLIC "-//W3C//DTD SVG 1.1//EN" "http://www.w3.org/Graphics/SVG/1.1/DTD/svg11.dtd">
<!-- Creator: CorelDRAW -->
<svg xmlns="http://www.w3.org/2000/svg" xml:space="preserve" width="100%" height="100%" version="1.1" style="shape-rendering:geometricPrecision; text-rendering:geometricPrecision; image-rendering:optimizeQuality; fill-rule:evenodd; clip-rule:evenodd"
viewBox="0 0 19476.5 5267.06"
 xmlns:xlink="http://www.w3.org/1999/xlink"
 xmlns:xodm="http://www.corel.com/coreldraw/odm/2003">
 <defs>
  <style type="text/css">
   <![CDATA[
    .fil2 {fill:black}
    .fil1 {fill:#FF0099}
    .fil0 {fill:white}
    .fil3 {fill:black;fill-rule:nonzero}
   ]]>
  </style>
 </defs>
 <g id="Layer_x0020_1">
  <metadata id="CorelCorpID_0Corel-Layer"/>
  <rect class="fil0" width="19476.5" height="5267.06"/>
  <path class="fil1" d="M12001.22 832.14c0.98,-1.18 1.97,-2.37 2.96,-3.55 203.44,-243.22 507.96,-459.79 836.82,-459.79l2940.42 0 0 1757.35 -2600.2 0c-8.5,41.78 -14.27,89.61 -14.27,122.61 0,53.95 0.82,116.01 6.87,173.76l2609.25 0 0 1575.36 -2942.07 0c-182.47,0 -356,-66.54 -507.84,-165.01l0.02 165.71 -1584.19 0 0 -2053.45c-55.45,-13.15 -147.16,-13.83 -202.71,-1.35l0 2054.8 -1627.24 0 0 -2049.11c-32.57,-8.45 -81.49,-11.33 -101.4,-11.43 -25.21,-0.11 -70.87,2.38 -106.1,10.58l0 2049.96 -1577.38 0 0 -36.93c-99.3,36.46 -203.92,55.33 -311.08,55.33l-3128.09 0 0 -1542.14 99.72 0c-62.32,-143.38 -96.55,-299.41 -96.55,-455.64l0 -476.53c0,-551.61 426.56,-1099.08 1006.12,-1099.08l3124.92 0 0 71.31c294.76,-199.19 643.86,-319.23 1001.36,-319.23 307.1,0 628.25,81.15 903.12,221.05 274.87,-139.89 596,-221.05 903.1,-221.05 425.15,0 838.38,169.76 1162.49,440.49 71.74,59.92 139.72,125.67 201.95,195.98z"/>
  <path class="fil2" d="M12256.95 3682.54l0.02 239.84 -1431.78 0 0 -2028.35c-73.17,-46.64 -282.13,-47.91 -355.11,-1.77l0 2030.12 -1474.84 0 0 -2019.4c-61.46,-54 -283.14,-53.68 -359.9,-5.87l0 2025.27 -1424.97 0 0.01 -77.76c-116.37,61.03 -246.99,96.16 -387.3,96.16l-3051.89 0 0 -1389.74 146.68 0c-91.65,-161.09 -143.51,-346.53 -143.51,-531.84l0 -476.53c0,-510.99 394.29,-1022.88 929.92,-1022.88l3048.72 0 0 145.45c304.69,-242.16 685.97,-393.37 1077.56,-393.37 303.38,0 627.89,83.36 903.12,230.81 275.23,-147.44 599.72,-230.81 903.1,-230.81 407.21,0 803.26,163.51 1113.64,422.77 87.57,73.15 175.41,160.81 252.76,258.45 19.07,-25.82 38.9,-51.05 59.45,-75.61 188.19,-225 473.35,-432.48 778.37,-432.48l2864.22 0 0 1604.95 -2583 0c-20,60.75 -31.47,157.59 -31.47,198.81 0,52.98 1.6,170.55 17.33,249.96l2598.79 0 0 1422.96 -2865.87 0c-213.15,0 -416.61,-101.32 -584.05,-239.14z"/>
  <path class="fil0" d="M15375.02 775.2l-2534.02 0c-327.25,0 -804.74,490.02 -804.74,1042.98l0 730.32c0,552.97 477.48,1042.98 804.74,1042.98l2535.67 0 0 -762.56 -2372.39 0c-250.99,0 -243.73,-476.52 -243.73,-580.16 0,-103.64 35.53,-529.01 286.52,-529.01l2327.95 0 0 -944.55zm-11273.63 2106.04l0 729.34 2721.69 0c327.29,0 599.72,-337.1 599.72,-692.68l0 -242.68c0,-355.57 -272.43,-692.68 -599.72,-692.68l-1994.23 0 0 -212.43 2593.95 0 0 -920.12 -2718.52 0c-327.29,0 -599.72,337.1 -599.72,692.68l0 476.53c0,355.58 272.43,692.68 599.72,692.68l1943.33 0c62.52,0 50.9,73.09 50.9,118.46 0,28.03 -22.87,50.9 -50.9,50.9l-2546.22 0zm4729.17 -2279.17c299.43,0 645.03,102.63 903.12,288.6 258.09,-185.96 603.67,-288.6 903.1,-288.6 693.63,0 1281.66,599.71 1289.77,968.8l0.19 2021.31 -771.35 0 0 -1723.98c0,-451.8 -1015.51,-458.19 -1015.51,0l0 1723.98 -814.44 0 0 -1695.8c0,-494.64 -1020.3,-472.05 -1020.3,-28.18l0 1723.98 -764.54 0 0.19 -2021.31c8.11,-369.09 596.14,-968.8 1289.77,-968.8z"/>
  <path class="fil3" d="M4091.53 4604.77l0 -123.79c-0.55,-64.01 -22.74,-109.12 -66.2,-135.35 -42.73,-24.94 -95.37,-37.04 -158.27,-36.31 -69.87,0 -125.63,14.67 -166.89,44.2 -42,30.08 -63.45,80.88 -64.19,152.22 0.74,61.8 15.59,111.32 44.2,148.55 27.88,37.78 60.15,69.69 96.83,95.91 17.61,13.21 34.85,26.41 51.54,39.8 17.24,13.2 32.27,26.96 45.3,40.9 27.14,28.61 41.26,65.1 41.99,109.3 0,22.56 -4.22,37.96 -12.84,46.22 -9.53,9.35 -22.55,13.57 -39.06,13.02 -35.21,1.28 -52.45,-18.53 -51.9,-59.42l0 -136.08 -176.06 0 0 144.7c0.74,65.84 24.21,111.68 70.61,137.36 44.75,25.86 96.83,38.33 156.25,37.6 151.85,0.73 228.14,-71.35 228.69,-216.41 -0.55,-60.34 -14.67,-109.85 -41.81,-148.55 -27.69,-39.06 -59.79,-72.63 -96.83,-100.68 -17.42,-13.58 -34.66,-26.96 -51.54,-40.35 -16.87,-13.21 -31.91,-26.23 -45.11,-38.7 -13.39,-13.39 -23.84,-26.96 -31.73,-40.9 -8.25,-13.38 -12.47,-28.05 -12.47,-44.19 -0.55,-19.81 2.75,-34.85 10.45,-45.12 7.34,-10.09 21.09,-15.22 41.45,-15.22 35.21,0.73 52.64,20.91 51.9,60.52l0 110.77 175.69 0zm510.39 -280.04l-175.69 0 0 565.4c0,31.91 -2.01,57.77 -5.87,77.4 -5.31,21.27 -21.09,31.91 -47.13,31.91 -23.47,0 -37.96,-10.64 -43.83,-31.91 -5.32,-19.63 -7.52,-45.49 -6.97,-77.4l0 -565.4 -176.06 0 0 542.66c0,24.58 1.84,51.72 5.32,81.06 2.93,28.61 11.19,56.67 24.94,83.81 14.49,25.5 37.23,47.14 68.41,64.93 30.99,16.87 73.72,25.67 128.19,26.41 83.26,0 142.32,-19.44 176.79,-58.32 33.93,-37.78 51.35,-97.57 51.9,-179.55l0 -561zm230.9 112.05l30.63 0c33.01,0 53.92,9.54 62.72,28.61 7.7,20.36 11.19,53.74 10.45,99.95 0.74,45.67 -2.75,78.49 -10.45,98.48 -8.8,20.54 -29.71,30.26 -62.72,29.71l-30.63 0 0 -256.75zm0 671.41l0 -302.79 67.31 0c56.67,0 105.63,-13.93 147.26,-41.81 42.55,-27.14 64.37,-69.87 64.92,-127.83l0 -142.86c-0.55,-66.57 -21.64,-111.69 -62.9,-135.35 -41.63,-22.55 -99.03,-33.56 -172.21,-32.82l-220.44 0 0 783.46 176.06 0zm706.62 0l0 -117.56 -189.63 0 0 -256.75 183.4 0 0 -117.37 -183.4 0 0 -174.23 189.63 0 0 -117.55 -365.32 0 0 783.46 365.32 0zm208.89 0l0 -357.8 31.73 0c18.15,0 34.66,6.78 49.51,19.99 13.58,13.93 20.54,34.84 21.46,62.72l0 165.97c0,16.14 1.65,33.93 5.14,53.18 2.75,20.54 9.53,39.07 20.17,55.94l177.16 0c-10.82,-16.87 -17.61,-35.4 -20.36,-55.94 -4.22,-19.25 -6.42,-37.04 -6.42,-53.18l0 -163.77c0,-54.84 -12.1,-93.35 -36.49,-115.54 -24.03,-21.27 -58.32,-31.73 -103.07,-31.73l0 -2.2c94.45,-19.26 141.03,-78.86 139.56,-178.44 -0.55,-79.78 -24.75,-131.31 -72.44,-154.24 -49.15,-20.35 -117.37,-29.89 -204.67,-28.42l-177.34 0 0 783.46 176.06 0zm0 -671.41c43.46,0 72.07,7.34 85.83,22.19 11.92,16.14 17.42,42 16.87,77.94 0.55,36.13 -5.32,61.99 -17.97,77.4 -12.29,16.14 -40.53,24.21 -84.73,24.21l0 -201.74zm518.09 671.41l0 -783.46 -175.69 0 0 783.46 175.69 0zm219.16 -613.09c0,-16.87 3.85,-31.73 11.55,-44.2 7.34,-11.55 20.73,-17.42 40.35,-17.42 20.36,0 34.48,5.87 42.55,17.42 6.23,12.47 9.35,27.33 9.35,44.2l0 442.72c0,16.13 -3.12,30.07 -9.35,41.63 -8.07,13.2 -22.19,19.99 -42.55,19.99 -19.62,0 -33.01,-6.79 -40.35,-19.99 -7.7,-11.56 -11.55,-25.5 -11.55,-41.63l0 -442.72zm279.49 42.18c0,-45.3 -6.05,-82.71 -18.52,-111.87 -11.92,-29.16 -28.61,-52.63 -49.7,-70.06 -20.91,-17.42 -45.11,-29.89 -72.62,-36.86 -27.51,-6.05 -56.49,-9.17 -86.93,-9.17 -29.53,0 -57.77,3.12 -84.73,9.17 -27.14,7.15 -51.72,19.44 -73.54,37.05 -20.91,17.6 -37.41,40.89 -49.88,70.42 -13.03,29.34 -19.63,66.76 -19.63,112.24l0 356.52c0.74,87.11 23.84,147.26 69.51,180.46 44.2,33.01 96.83,49.15 158.27,48.42 62.17,0.73 115.35,-15.41 159.55,-48.24 44.2,-33.01 66.94,-92.98 68.22,-179.72l0 -358.36zm228.7 570.91l0 -357.8 31.73 0c18.15,0 34.66,6.78 49.51,19.99 13.58,13.93 20.54,34.84 21.46,62.72l0 165.97c0,16.14 1.65,33.93 5.14,53.18 2.75,20.54 9.53,39.07 20.17,55.94l177.16 0c-10.82,-16.87 -17.61,-35.4 -20.36,-55.94 -4.22,-19.25 -6.42,-37.04 -6.42,-53.18l0 -163.77c0,-54.84 -12.1,-93.35 -36.49,-115.54 -24.03,-21.27 -58.32,-31.73 -103.07,-31.73l0 -2.2c94.45,-19.26 141.03,-78.86 139.56,-178.44 -0.55,-79.78 -24.75,-131.31 -72.44,-154.24 -49.15,-20.35 -117.37,-29.89 -204.67,-28.42l-177.34 0 0 783.46 176.06 0zm0 -671.41c43.46,0 72.07,7.34 85.83,22.19 11.92,16.14 17.42,42 16.87,77.94 0.55,36.13 -5.32,61.99 -17.97,77.4 -12.29,16.14 -40.53,24.21 -84.73,24.21l0 -201.74zm740.37 2.2l2.2 0 102.34 669.21 155.52 0 102.33 -669.21 2.2 0 0 669.21 160.29 0 0 -783.46 -255.1 0 -74.46 556.97 -2.02 0 -74.64 -556.97 -260.24 0 0 783.46 141.58 0 0 -669.21zm779.07 357.99l31.17 -349.19 2.02 0 30.63 349.19 -63.82 0zm-68.23 -472.24l-128.37 783.46 148.73 0 29.16 -193.85 95.55 0 20.36 193.85 175.69 0 -98.3 -783.46 -242.82 0zm508.56 117.55l0 665.91 175.69 0 0 -665.91 124.16 0 0 -117.55 -423.46 0 0 117.55 123.61 0zm625.74 361.66l-1.1 133.88c0,16.13 -3.12,30.07 -9.17,41.63 -8.07,13.2 -22.74,19.99 -43.83,19.99 -19.44,0 -32.46,-6.79 -39.07,-19.99 -7.7,-11.56 -11.55,-25.5 -11.55,-41.63l0 -442.72c0,-16.87 3.85,-31.73 11.55,-44.2 6.61,-11.55 19.63,-17.42 39.25,-17.42 21.09,0 35.58,5.87 43.65,17.42 6.23,12.47 9.35,27.33 9.35,44.2l0 108.57 175.69 0 0 -85.83c-0.55,-82.53 -22,-138.46 -64,-167.8 -42.36,-27.88 -97.38,-41.45 -164.69,-40.72 -29.71,0 -57.95,3.12 -84.73,9.17 -27.32,7.15 -51.53,19.44 -72.62,37.05 -20.91,17.6 -37.41,40.89 -49.88,70.42 -13.03,29.34 -19.63,66.76 -19.63,112.24l0 356.52c0.74,87.11 23.84,147.26 69.51,180.46 21.09,17.6 45.3,29.89 72.62,37.23 26.78,7.33 55.02,11.19 84.73,11.19 152.59,0 228.69,-72.08 228.69,-216.04l0 -103.62 -174.77 0zm405.67 304.25l0 -374.31 103.8 0 0 374.31 175.69 0 0 -783.46 -175.69 0 0 291.78 -103.8 0 0 -291.78 -176.06 0 0 783.46 176.06 0zm515.89 0l0 -783.46 -175.69 0 0 783.46 175.69 0zm45.67 0l138.28 0 0 -654.54 2.2 0 130.94 654.54 226.68 0 0 -783.46 -138.28 0 0 570.17 -2.2 0 -112.79 -570.17 -244.83 0 0 783.46zm899.91 -39.43l9.91 39.43 102.51 0 0 -393.75 -250.33 0 0 117.37 74.28 0.74 0 105.27c0,16.13 -3.12,30.07 -9.36,41.63 -8.07,13.2 -22.19,19.99 -42.55,19.99 -20.35,0 -34.11,-6.79 -41.44,-19.99 -7.71,-11.56 -11.01,-25.5 -10.46,-41.63l0 -442.72c0,-16.87 3.86,-31.73 11.56,-44.2 7.33,-11.55 20.72,-17.42 40.34,-17.42 20.36,0 34.48,5.87 42.55,17.42 6.24,12.47 9.36,27.33 9.36,44.2l0 109.67 176.05 0 0.92 -82.16c-4.22,-145.07 -80.51,-216.22 -228.69,-213.29 -29.71,0 -57.95,3.12 -84.91,9.17 -27.15,7.15 -51.72,19.44 -73.55,37.05 -20.9,17.6 -37.41,40.89 -49.88,70.42 -13.02,29.34 -19.44,66.76 -19.44,112.24l0 356.52c0,87.11 16.32,147.26 48.97,180.46 32.09,33.01 77.57,49.15 136.63,48.42 27.14,0 54.83,-3.67 83.26,-11.19 29.34,-6.97 53.92,-21.64 74.27,-43.65zm694.16 -264.82l-1.1 133.88c0,16.13 -3.12,30.07 -9.17,41.63 -8.07,13.2 -22.74,19.99 -43.83,19.99 -19.44,0 -32.46,-6.79 -39.07,-19.99 -7.7,-11.56 -11.55,-25.5 -11.55,-41.63l0 -442.72c0,-16.87 3.85,-31.73 11.55,-44.2 6.61,-11.55 19.63,-17.42 39.25,-17.42 21.09,0 35.58,5.87 43.65,17.42 6.23,12.47 9.35,27.33 9.35,44.2l0 108.57 175.69 0 0 -85.83c-0.55,-82.53 -22,-138.46 -64,-167.8 -42.36,-27.88 -97.38,-41.45 -164.69,-40.72 -29.71,0 -57.95,3.12 -84.73,9.17 -27.32,7.15 -51.53,19.44 -72.62,37.05 -20.91,17.6 -37.41,40.89 -49.88,70.42 -13.03,29.34 -19.63,66.76 -19.63,112.24l0 356.52c0.74,87.11 23.84,147.26 69.51,180.46 21.09,17.6 45.3,29.89 72.62,37.23 26.78,7.33 55.02,11.19 84.73,11.19 152.59,0 228.69,-72.08 228.69,-216.04l0 -103.62 -174.77 0zm405.67 -308.84c0,-16.87 3.85,-31.73 11.55,-44.2 7.34,-11.55 20.73,-17.42 40.35,-17.42 20.36,0 34.48,5.87 42.55,17.42 6.23,12.47 9.35,27.33 9.35,44.2l0 442.72c0,16.13 -3.12,30.07 -9.35,41.63 -8.07,13.2 -22.19,19.99 -42.55,19.99 -19.62,0 -33.01,-6.79 -40.35,-19.99 -7.7,-11.56 -11.55,-25.5 -11.55,-41.63l0 -442.72zm279.49 42.18c0,-45.3 -6.05,-82.71 -18.52,-111.87 -11.92,-29.16 -28.61,-52.63 -49.7,-70.06 -20.91,-17.42 -45.11,-29.89 -72.62,-36.86 -27.51,-6.05 -56.49,-9.17 -86.93,-9.17 -29.53,0 -57.77,3.12 -84.73,9.17 -27.14,7.15 -51.72,19.44 -73.54,37.05 -20.91,17.6 -37.41,40.89 -49.88,70.42 -13.03,29.34 -19.63,66.76 -19.63,112.24l0 356.52c0.74,87.11 23.84,147.26 69.51,180.46 44.2,33.01 96.83,49.15 158.27,48.42 62.17,0.73 115.35,-15.41 159.55,-48.24 44.2,-33.01 66.94,-92.98 68.22,-179.72l0 -358.36zm57.41 570.91l138.28 0 0 -654.54 2.2 0 130.94 654.54 226.68 0 0 -783.46 -138.28 0 0 570.17 -2.2 0 -112.79 -570.17 -244.83 0 0 783.46zm828.39 -304.25l-1.1 133.88c0,16.13 -3.12,30.07 -9.17,41.63 -8.07,13.2 -22.74,19.99 -43.83,19.99 -19.44,0 -32.46,-6.79 -39.07,-19.99 -7.7,-11.56 -11.55,-25.5 -11.55,-41.63l0 -442.72c0,-16.87 3.85,-31.73 11.55,-44.2 6.61,-11.55 19.63,-17.42 39.25,-17.42 21.09,0 35.58,5.87 43.65,17.42 6.23,12.47 9.35,27.33 9.35,44.2l0 108.57 175.69 0 0 -85.83c-0.55,-82.53 -22,-138.46 -64,-167.8 -42.36,-27.88 -97.38,-41.45 -164.69,-40.72 -29.71,0 -57.95,3.12 -84.73,9.17 -27.32,7.15 -51.53,19.44 -72.62,37.05 -20.91,17.6 -37.41,40.89 -49.88,70.42 -13.03,29.34 -19.63,66.76 -19.63,112.24l0 356.52c0.74,87.11 23.84,147.26 69.51,180.46 21.09,17.6 45.3,29.89 72.62,37.23 26.78,7.33 55.02,11.19 84.73,11.19 152.59,0 228.69,-72.08 228.69,-216.04l0 -103.62 -174.77 0zm601.9 304.25l0 -117.56 -189.63 0 0 -256.75 183.4 0 0 -117.37 -183.4 0 0 -174.23 189.63 0 0 -117.55 -365.32 0 0 783.46 365.32 0zm211.09 -671.41l30.63 0c33.01,0 53.92,9.54 62.72,28.61 7.7,20.36 11.19,53.74 10.45,99.95 0.74,45.67 -2.75,78.49 -10.45,98.48 -8.8,20.54 -29.71,30.26 -62.72,29.71l-30.63 0 0 -256.75zm0 671.41l0 -302.79 67.31 0c56.67,0 105.63,-13.93 147.26,-41.81 42.55,-27.14 64.37,-69.87 64.92,-127.83l0 -142.86c-0.55,-66.57 -21.64,-111.69 -62.9,-135.35 -41.63,-22.55 -99.03,-33.56 -172.21,-32.82l-220.44 0 0 783.46 176.06 0zm457.94 -665.91l0 665.91 175.69 0 0 -665.91 124.16 0 0 -117.55 -423.46 0 0 117.55 123.61 0zm800.51 162.49l0 -123.79c-0.55,-64.01 -22.74,-109.12 -66.2,-135.35 -42.73,-24.94 -95.37,-37.04 -158.27,-36.31 -69.87,0 -125.63,14.67 -166.89,44.2 -42,30.08 -63.45,80.88 -64.19,152.22 0.74,61.8 15.59,111.32 44.2,148.55 27.88,37.78 60.15,69.69 96.83,95.91 17.61,13.21 34.85,26.41 51.54,39.8 17.24,13.2 32.27,26.96 45.3,40.9 27.14,28.61 41.26,65.1 41.99,109.3 0,22.56 -4.22,37.96 -12.84,46.22 -9.53,9.35 -22.55,13.57 -39.06,13.02 -35.21,1.28 -52.45,-18.53 -51.9,-59.42l0 -136.08 -176.06 0 0 144.7c0.74,65.84 24.21,111.68 70.61,137.36 44.75,25.86 96.83,38.33 156.25,37.6 151.85,0.73 228.14,-71.35 228.69,-216.41 -0.55,-60.34 -14.67,-109.85 -41.81,-148.55 -27.69,-39.06 -59.79,-72.63 -96.83,-100.68 -17.42,-13.58 -34.66,-26.96 -51.54,-40.35 -16.87,-13.21 -31.91,-26.23 -45.11,-38.7 -13.39,-13.39 -23.84,-26.96 -31.73,-40.9 -8.25,-13.38 -12.47,-28.05 -12.47,-44.19 -0.55,-19.81 2.75,-34.85 10.45,-45.12 7.34,-10.09 21.09,-15.22 41.45,-15.22 35.21,0.73 52.64,20.91 51.9,60.52l0 110.77 175.69 0z"/>
 </g>
</svg>
