<?xml version="1.0" encoding="UTF-8"?>
<!DOCTYPE svg PUBLIC "-//W3C//DTD SVG 1.1//EN" "http://www.w3.org/Graphics/SVG/1.1/DTD/svg11.dtd">
<!-- Creator: CorelDRAW -->
<svg xmlns="http://www.w3.org/2000/svg" xml:space="preserve" width="100%" height="100%" version="1.1" style="shape-rendering:geometricPrecision; text-rendering:geometricPrecision; image-rendering:optimizeQuality; fill-rule:evenodd; clip-rule:evenodd"
viewBox="0 0 19476.5 5267.06"
 xmlns:xlink="http://www.w3.org/1999/xlink"
 xmlns:xodm="http://www.corel.com/coreldraw/odm/2003">
 <defs>
  <style type="text/css">
   <![CDATA[
    .fil1 {fill:black}
    .fil2 {fill:#FE02CE}
    .fil0 {fill:white}
    .fil3 {fill:white}
   ]]>
  </style>
 </defs>
 <g id="Layer_x0020_1">
  <metadata id="CorelCorpID_0Corel-Layer"/>
  <rect class="fil0" width="19476.5" height="5267.06"/>
  <path class="fil1" d="M7022.82 1402.07l-894.02 0.86c-100.92,0.11 -140.9,4.6 -233.37,24.24 -21.25,4.52 -72.12,24.01 -92.2,33.24 -185.71,85.51 -34.58,80.88 -261.33,-14.6 -158.98,-66.96 -453.2,-42.58 -648.79,-42.52l-3264.59 -0.48c-395.23,0.09 -696.67,273.95 -780.44,636.68 -32.9,142.48 -72.1,345.98 -82.94,489.46 -7.82,103.74 29.43,228.18 27.2,257.25 -103.5,1.54 -82.75,-21.76 -98.4,69.56l-47.71 200.99c-4.01,26.51 -0.99,52.87 -6.62,79.05 -4.97,23.26 -14.4,38.34 -19.03,62.86l-51.81 290.65c-5.98,33.83 -15.27,43.75 -21.24,70.01 -6.06,26.62 -2.01,53.05 -6.32,79.02l-31.28 135.34c-7.06,29.04 -16.29,52.58 -1.46,77.49 67.18,15.13 1862.12,3.87 2021.77,3.69 132.25,-0.16 191.33,-1.92 313.99,-26.56 39.33,-7.91 92,-26.55 126.56,-40.46 45.44,-18.31 82.11,-48.79 118.86,-60.29 40.27,15.73 61.19,42.54 101.24,61.18 151.07,70.39 306.58,65.87 474.86,66.1l2715.38 -0.8c25.84,-38.25 69.15,-294.25 74.48,-339.27 3.79,-31.97 14,-46.58 19.84,-78.39l117.86 -610.29c10.4,-49.45 27.18,-127.57 33.86,-173 27.79,-189.09 19.21,-187.89 102.6,-186.22l72.17 6.29c1.78,0.48 4.66,1.39 6.81,2.47 28.83,88.26 -185.4,685.88 -108.48,942.73 44.22,147.65 93.49,244.12 221.9,329.69 208.9,139.2 530.61,106.88 784.66,107.2l4022.69 -0.71c27.17,-58.43 62.27,-263.98 76.3,-341.83l53.73 -253.47c7.89,-36.65 2.88,-62.69 13.05,-96.82 28.37,-95.02 51.37,-243.36 69.53,-347.77l35.96 -172.52c17.73,-53.63 9.29,-141.29 45.18,-172.34 22.98,-11.22 112.66,-10.08 134.42,0 20.53,44.36 -6.35,57.97 -15.02,103.47 -20.9,109.82 -30.01,239.77 -66.58,342.33l-40.06 227.35c-19.38,248.99 15.13,438.44 216.7,592.67 203.89,156 602.69,119.16 864.47,119.38l349.21 0.53c-3.45,45.16 -53.33,70.71 -90.78,163.17l46.65 1.98c1.65,0.44 4.4,1.64 6.39,2.87 -15.62,113.13 -64.98,229.1 -33.14,355.92 44.21,176.1 228.59,236.64 389.96,222.87 33.71,-2.88 58.66,-13.06 91.47,-14.48 81.88,-3.57 159.82,55.04 273.76,-6.88 95.89,-52.13 54.12,-24.61 145.78,-0.36 50.19,13.28 133.44,12.27 180.83,0.39 109.5,-27.47 63.68,-6.95 158.91,18.78 54,14.6 140.31,15.21 198.37,4.05 87.75,-16.84 51.77,-55.19 158.53,-27.56 58.05,15.01 123.74,3.14 175.16,-12.2 86.92,-25.93 113.52,5.38 186.54,8.09 36.62,1.36 54.54,-2.67 87.96,-9.5 60.95,-12.42 39.96,-19.74 76.52,-32.52 29.04,-10.16 111.15,27.63 177.83,27.7 44.47,0.05 85.62,-11.54 122.8,2.4 39.36,14.76 52.83,26.41 103.8,38.66 113.54,27.29 266.98,20.35 372.88,-34.42 40.81,-21.08 45.93,-55.99 95.06,-33.91 104.75,47.06 90.43,65.13 240.6,65.7 158.49,0.62 165.69,-61.52 329.98,-33.75 48.16,8.15 135.36,8.19 173.85,-10.36 29.24,-14.13 84.47,-76.32 93.2,-105.74 41.91,22.01 66.24,76.36 118.28,106.09 97.85,55.91 224.82,60.69 333.97,35.34 113.67,-26.37 238.28,148.08 539.1,5.01 56.45,-26.84 119.7,16.76 231.76,19.25 288.68,6.41 508.52,-180.17 429.41,-466.46 -13.42,-48.53 -27,-56.01 -41.7,-97.06 74,-83.58 207.05,-180.39 90.43,-344.63 -124.48,-175.38 -286.89,-89.08 -383.11,-84.31 -4.61,-75.13 22.36,-127.07 31.3,-205.17 4.36,-38.24 17.88,-52.96 23.84,-99.85 15.7,-123.85 99.44,-444.18 96.85,-523.95 -67.79,-19.23 -581.97,-6.31 -689.36,-3.87 -15.94,-70.4 28.21,-155.27 36.17,-230.84 12.36,-117.1 11.4,-87.58 247.54,-87.61l417.99 0.19c73.31,-2.17 59.7,-28.32 69.3,-87.33 3.69,-22.56 11.07,-36.61 16.35,-57.69l49.67 -259.42c8.16,-46.84 23.17,-94.37 28.4,-129.73 14.64,-98.91 102.55,-487.79 94.11,-529.55 -230.26,-7.64 -462.16,-2.7 -692.55,-1.73 0.32,-123.15 108.5,-463.12 91.42,-543.42l-1385.7 4.55 -51.07 267.25c-16.15,100.3 -34.6,180.34 -57.02,270.6l-1494.81 0.39c-480.78,-0.08 -478.32,173.91 -577.85,101.59 -28.87,-20.98 -61.15,-37.04 -98.1,-52.54 -175.96,-73.78 -407.47,-48.77 -601.5,-48.81 -113.19,-0.05 -1134.96,10.59 -1178.9,-6.19 -5.54,-40.48 34.02,-137.85 41.4,-188.13 13.75,-93.44 60.7,-290.57 55.11,-343.68 -327.43,-17.37 -925.38,-4.98 -1263.78,-5.07 -355.21,-0.08 -604.63,21.7 -816.63,326.72 -41.89,60.3 -88.13,160.63 -108.93,233.78 -31.66,0.44 -111.77,-17.96 -209.95,-17.75l-2195.81 0.64c0.69,-61.06 58.62,-319.09 75.05,-401.84 4.93,-24.83 3.84,-47.71 10.1,-73.25 20.2,-82.5 13.14,-67.71 -118.62,-67.71l-1143.86 -0.04c-92.22,-0.05 -106.25,-25.76 -127.57,63.06l-63.25 320.02c-3.33,48.22 -19.55,119.93 -33.98,158.81z"/>
  <path class="fil2" d="M7022.82 1402.07c14.43,-38.88 30.65,-110.59 33.98,-158.81l63.25 -320.03c21.32,-88.81 35.34,-63.11 127.57,-63.05l1143.86 0.04c131.75,0 138.81,-14.79 118.62,67.71 -6.25,25.54 -5.17,48.42 -10.1,73.25 -16.43,82.76 -74.36,340.77 -75.05,401.83l2195.81 -0.63c98.18,-0.22 178.29,18.19 209.95,17.75 20.81,-73.15 67.04,-173.48 108.93,-233.77 212,-305.04 461.42,-326.81 816.62,-326.73 338.41,0.1 936.37,-12.31 1263.79,5.07 5.6,53.11 -41.36,250.24 -55.11,343.69 -7.38,50.27 -46.94,147.64 -41.4,188.11 43.94,16.79 1065.71,6.16 1178.9,6.2 194.03,0.04 425.54,-24.97 601.5,48.81 36.95,15.5 69.23,31.56 98.11,52.54 99.52,72.33 97.05,-101.67 577.84,-101.59l1494.81 -0.39c22.43,-90.26 40.87,-170.29 57.02,-270.6l51.06 -267.25 1385.71 -4.55c17.08,80.31 -91.1,420.27 -91.41,543.42 230.38,-0.96 462.28,-5.91 692.55,1.74 8.44,41.75 -79.49,430.63 -94.12,529.54 -5.23,35.36 -20.24,82.89 -28.4,129.73l-49.66 259.42c-5.29,21.08 -12.67,35.12 -16.36,57.69 -9.6,59.01 4.01,85.16 -69.3,87.33l-417.99 -0.2c-236.14,0.04 -235.17,-29.48 -247.54,87.61 -7.97,75.58 -52.11,160.45 -36.17,230.86 107.39,-2.45 621.56,-15.37 689.35,3.86 2.61,79.76 -81.14,400.1 -96.84,523.94 -5.95,46.9 -19.48,61.62 -23.84,99.86 -8.94,78.1 -35.92,130.03 -31.3,205.18 96.23,-4.78 258.62,-91.08 383.11,84.29 116.63,164.25 -16.42,261.05 -90.42,344.64 14.69,41.04 28.28,48.54 41.69,97.05 79.11,286.3 -140.72,472.88 -429.41,466.47 -112.06,-2.48 -175.31,-46.09 -231.76,-19.25 -300.81,143.07 -425.42,-31.38 -539.11,-5.01 -109.14,25.35 -236.12,20.57 -333.96,-35.34 -52.03,-29.72 -76.37,-84.08 -118.28,-106.09 -8.74,29.43 -63.96,91.61 -93.19,105.73 -38.5,18.56 -125.69,18.52 -173.86,10.38 -164.29,-27.77 -171.49,34.35 -329.98,33.74 -150.17,-0.57 -135.85,-18.64 -240.6,-65.69 -49.13,-22.09 -54.26,12.82 -95.06,33.9 -105.9,54.77 -259.34,61.71 -372.89,34.42 -50.96,-12.25 -64.43,-23.91 -103.8,-38.66 -37.17,-13.94 -78.32,-2.35 -122.79,-2.41 -66.68,-0.06 -148.79,-37.85 -177.82,-27.69 -36.57,12.78 -15.58,20.1 -76.53,32.53 -33.43,6.82 -51.34,10.84 -87.96,9.48 -73.02,-2.7 -99.62,-34 -186.54,-8.08 -51.42,15.34 -117.11,27.21 -175.16,12.2 -106.76,-27.63 -70.78,10.71 -158.53,27.56 -58.07,11.16 -144.37,10.55 -198.37,-4.05 -95.23,-25.73 -49.41,-46.25 -158.91,-18.77 -47.39,11.87 -130.65,12.88 -180.84,-0.4 -91.65,-24.26 -49.88,-51.77 -145.77,0.36 -113.94,61.93 -191.89,3.31 -273.75,6.88 -32.82,1.42 -57.77,11.6 -91.48,14.48 -161.37,13.76 -345.74,-46.77 -389.96,-222.87 -31.83,-126.82 17.51,-242.79 33.13,-355.92 -1.99,-1.22 -4.73,-2.43 -6.39,-2.88l-46.64 -1.97c37.45,-92.46 87.33,-118 90.78,-163.17l-349.21 -0.53c-261.78,-0.22 -660.58,36.62 -864.47,-119.38 -201.57,-154.24 -236.08,-343.67 -216.7,-592.68l40.06 -227.34c36.57,-102.56 45.68,-232.51 66.58,-342.33 8.66,-45.5 35.55,-59.11 15.01,-103.47 -21.75,-10.08 -111.43,-11.22 -134.41,0 -35.89,31.05 -27.45,118.72 -45.18,172.34l-35.96 172.52c-18.16,104.41 -41.16,252.75 -69.52,347.77 -10.18,34.12 -5.17,60.18 -13.06,96.82l-53.72 253.48c-14.04,77.84 -49.13,283.4 -76.31,341.82l-4022.69 0.71c-254.06,-0.32 -575.75,32.01 -784.66,-107.2 -128.41,-85.58 -177.68,-182.04 -221.9,-329.69 -76.92,-256.85 137.31,-854.47 108.47,-942.73 -2.15,-1.08 -5.02,-1.99 -6.8,-2.46l-72.17 -6.3c-83.38,-1.67 -74.8,-2.88 -102.59,186.23 -6.69,45.42 -23.47,123.54 -33.87,172.99l-117.86 610.28c-5.84,31.81 -16.06,46.43 -19.84,78.4 -5.33,45.03 -48.64,301.03 -74.48,339.27l-2715.38 0.79c-168.28,-0.22 -323.79,4.3 -474.87,-66.09 -40.04,-18.64 -60.96,-45.44 -101.24,-61.18 -36.74,11.5 -73.41,41.99 -118.85,60.29 -34.55,13.91 -87.23,32.55 -126.56,40.45 -122.65,24.66 -181.74,26.41 -313.99,26.57 -159.65,0.18 -1954.59,11.44 -2021.77,-3.69 -14.83,-24.91 -5.6,-48.46 1.46,-77.49l31.28 -135.34c4.3,-25.97 0.26,-52.4 6.31,-79.03 5.98,-26.25 15.27,-36.17 21.25,-69.99l51.81 -290.66c4.63,-24.51 14.06,-39.6 19.03,-62.86 5.62,-26.19 2.6,-52.54 6.63,-79.04l47.71 -201c15.64,-91.32 -5.11,-68.02 98.39,-69.56 2.23,-29.07 -35.02,-153.51 -27.19,-257.25 10.82,-143.48 50.03,-346.98 82.93,-489.46 83.76,-362.72 385.21,-636.6 780.43,-636.67l3264.59 0.47c195.59,-0.06 489.82,-24.44 648.81,42.52 226.75,95.48 75.61,100.11 261.32,14.6 20.08,-9.23 70.95,-28.72 92.21,-33.24 92.46,-19.64 132.44,-24.14 233.36,-24.24l894.02 -0.86zm6151.5 -201.67c-5.82,-59.96 97.98,-459.46 95.5,-535.52 -68.64,-15.58 -1445.45,-4.14 -1555.31,-4.18 -271.39,-0.04 -439.27,8.07 -644.4,130.43 -136.6,81.48 -217.71,160.98 -298.57,285.23 -27.73,42.6 -42.21,75.9 -69.4,121.75 -96.59,17.85 -853.71,4.95 -1016.52,4.89 -162.42,-0.06 -920.9,12.8 -1016.16,-4.24 -7.97,-98.3 101.43,-413.07 94.92,-537.96l-1787.97 2.57c-54.5,74.73 -80.47,439.32 -119.92,538.11 -189.85,11.37 -409.38,1.74 -602.45,1.7 -150.55,-0.04 -279.18,-8.76 -421.24,30.26 -112.24,30.8 -105.76,64.84 -231.25,18.44 -41.46,-15.33 -88.74,-16.51 -121.26,-29.31 -106.84,-42.05 -772.76,-23.61 -879.42,-23.57 -801.54,0.24 -1602.84,4.4 -2404.61,4.4 -199.93,0 -401.78,-2.78 -601.49,0.06 -168.43,2.42 -348.58,61.12 -467.49,132.06 -236.56,141.16 -425.74,365.74 -483.63,717.42 -17.25,104.83 -68.47,271.43 -74.92,375.44 -2.07,33.38 2.13,120.83 -8.37,144.22 -7.18,15.99 -19.09,13.65 -29.82,44.2 -7.67,21.89 -6.53,44.24 -9.09,69.07 -8.26,79.64 -47.51,157.42 -55.76,236.67 -5.06,48.64 -13.09,89.42 -20.25,134.87 -8.38,53.11 -20.39,68.65 -25.56,122.75 -5.43,56.59 -18.84,69.9 -25.11,125.26 -8.38,74.02 -62.54,292.25 -73.68,377.77 -7.4,56.82 -20.02,74.32 -25.19,123.57 -5.25,49.82 -47.95,217.01 -36.68,240.02 28.49,26.16 2099.77,6.41 2421.31,6.87 127.49,0.18 241.76,-28.07 338.62,-67.61 82.07,-33.47 91.72,-8.38 159.48,14.43 281.74,94.89 639.06,53.06 954.69,53.06l1619.76 0c86.58,0 771.14,14.14 796.88,-9.43 41.3,-37.81 37.1,-204.86 64,-270.28 0.73,-1.78 3.02,-2.92 3.59,-6.77 0.59,-3.9 2.35,-4.65 3.87,-6.78 41.77,9.59 66.17,58.22 95.67,83.92 297.05,258.65 616.03,208.31 1006.44,209.18l2788.68 0.06c160.87,0 1258.29,10.39 1388.72,-2.29l37.22 -144.63c9.82,-48.24 16.8,-109.38 27.35,-159.89 26.79,5.15 104.67,113.19 210.27,182.46 297.7,195.21 677.3,110.58 1028.9,125.42 -0.45,37.11 -12.84,84.47 -17.28,136.08 -4.18,48.6 -14.79,74.46 -7.77,131.85 42.78,350.04 319.14,520.9 665.04,477.04 77.88,-9.88 183.68,18.97 281.15,4.04 51.95,-7.97 53.13,-28.62 127.17,-24.63 46.88,2.52 79.33,11.04 133.29,11.16 47.39,0.12 96.4,-6 142.48,-4.91 102.89,2.41 207.9,66.45 380.9,3.47 70.87,-25.8 181.63,12.27 271.04,-20.98 60.96,-22.67 151.76,21.02 250.36,6.74 51.12,-7.42 77.59,-25.8 115.73,-27.71 36.73,-1.81 84.87,10.59 133.64,10.45 117.35,-0.35 140.94,36.06 242.63,49.01 330.07,42.09 390.79,-77.15 518.34,-33.39 256.26,87.97 377.89,-35.75 486.7,-10.02 80.98,19.16 181.67,14.07 253.03,-15.85 60.01,-25.17 55,-23 115.93,5.97 201.05,95.62 340.36,13.83 502.16,73.08 30.61,11.22 83.09,16.74 117.51,23.29 66.53,12.68 138.46,1.77 202.73,-8.99 22.6,-3.79 36.67,-2.02 58.76,-8.17 39.24,-10.91 58.38,-35.64 115.04,-33.41 106.54,4.16 249.16,41.48 386.82,-6.37 560.27,-194.74 394.68,-679.81 402.57,-705.53 17.71,-57.84 72.05,-90.35 89.78,-200.18 14.16,-87.73 -7.38,-175.44 -42.17,-240.05 -36.84,-68.4 -77.51,-116.74 -132.16,-160.13 -60.97,-48.38 -126.05,-66.59 -198.4,-85.72l31.66 -224.7c7.47,-28.46 15.3,-32.56 19.05,-63.07 11.52,-93.53 44.57,-209.54 50.81,-274.9 5.07,-53.33 18.18,-79.31 25.79,-141.28l219.86 -1090.67c6.5,-24.38 4.41,-51.63 9.11,-76.86l53.37 -273.38c17.55,-69.4 33.21,-52.24 -155.75,-52.44 -173.35,-0.2 -356.02,9.74 -528,-1.42 -6.65,-66.27 37.51,-196.13 46.74,-268.92 7.95,-62.68 54.37,-216.46 42.6,-272.36l-1781.72 0.12c-40.16,42.84 -27.5,60.14 -39.67,122.96l-75 412.5c-73.63,20.75 -800.63,6.96 -937.88,6.98 -223.58,0.04 -663.68,-29.9 -863.23,69.6 -97.49,48.62 -75.64,9.57 -157.67,-17.81 -46.58,-15.54 -135.67,-44.91 -181.94,-49.64 -253.48,-25.95 -1178.48,21.48 -1403.5,-4.95z"/>
  <path class="fil3" d="M16863.7 3149.1c-36.15,183.85 -13.8,423.91 441.24,377.44 -6.87,-46.67 -161.67,-178.5 -179.54,-238.44 109.07,8.15 399.49,90.97 438.64,88.97l163.93 -260.78c-122.95,-44.59 -121.23,-48.05 -70.96,-292.42 5.15,-25.01 8.76,-16.41 15.76,-47.87l55.81 -305.31c4.13,-40.23 45.09,-194.46 44.82,-231.57 7.15,-7.85 5.4,-4.12 12.27,-16.68 15.79,-28.88 8.65,-41.4 23.87,-67.79 135.7,-26.92 593.61,24.93 685.42,-8.01 34.07,-23.7 59.58,-262.97 75.02,-317.89 7.12,-25.36 27.52,-85.95 -0.45,-102.7l-690.44 1.32 46.72 -269.19 46.59 -257.62 -725.33 -0.51 -383.37 1949.05zm-15468.98 -319.81l893.39 0.12c76.42,-0.12 113.1,12.78 114.19,91.36 0.85,60.07 -1.51,147.86 -30.71,184.15 -432.4,13.56 -943.01,1.95 -1394.32,3.13 -21.25,38.46 -88.05,363.06 -80.36,418.88 585.07,9.64 1187.95,0.61 1775.26,1.59 147.33,0.24 259.35,-64.94 326.71,-147.19 74.53,-91 103.96,-222.57 123.15,-356.02 16.54,-115.12 78.89,-280.91 48.79,-418.41 -43.21,-197.29 -232.03,-182.72 -398.46,-182.63l-776.49 -0.14c-164.33,0.01 -152.18,-106.33 -96.74,-275.77l1248.95 0.37c182.34,0.03 155.1,23.49 197.43,-130.86 13.1,-47.77 23,-74.89 45.67,-114.59 25.53,-44.71 59.77,-97.29 95.45,-129.46 22.42,-20.2 32.23,-16.42 34.24,-42.54 -302.04,-13.04 -718.15,-3.77 -1032.38,-3.77 -155.85,0 -311.7,0 -467.57,0 -195.83,0 -462.68,-36.66 -634.92,59.21 -44,24.5 -93.5,67.29 -124.49,107.7 -39.78,51.92 -54.1,86.81 -80.15,153.28 -21.4,54.53 -26.89,132.85 -44.4,187.75 -24.14,75.74 -63.52,329.89 -37.02,422.03 35.84,124.63 144.47,171.81 294.78,171.81zm3363.38 -671.28c63.96,26.71 40.51,149.45 16.82,220.04l-51.16 236.69c-5.73,39.47 -66.49,479.8 -108.24,488.98 -1.95,0.43 -4.91,1.45 -7.33,1.91l-57.32 2.63c-25.08,-0.32 -50.15,-0.21 -75.25,-0.21 -50.08,0.03 -100.18,0.08 -150.28,0.08 -203.9,-0.03 -350.67,39.37 -350.58,-94.67l69.69 -371 6.25 -10.08c0.55,-1.28 2.03,-4.1 2.67,-5.74 36.68,-94.67 70.38,-413.18 105,-473.63 89.12,-9.51 516.87,-8.73 599.73,5zm-963.89 -428.57c-146.5,16.26 -242.78,82.7 -315.35,202.83 -68.05,112.6 -76.81,268.76 -103.47,417.98l-43.03 214.54c-9.22,39.68 -6.87,74.53 -18.04,108.06 -41.98,126.05 -46.04,182.97 -68.33,321.85 -22.29,138.91 -149.4,424.97 160.01,525.66 53.9,17.53 1452.69,10.95 1554.35,7.91 224.93,-6.74 352.77,-184.56 392,-384.14 12.23,-62.21 24.18,-158.04 42.82,-215.42 24.24,-74.55 114.83,-636.22 150.28,-759.37 11.4,-39.62 11.74,-80.44 12.45,-124.61 1.64,-100.58 9.7,-156.06 -41.05,-223.16 -31.35,-41.43 -104.47,-84.28 -164.95,-92.31 -82.27,-10.92 -877.65,-1.71 -1034.9,-1.71 -150.46,0 -384.73,-13.43 -522.79,1.89zm1606.75 1794.17c151.02,14.83 537.08,5.28 719.49,4.54 22.65,-45.99 29.06,-121.57 38.27,-174.59l56.33 -269.01c11.3,-34.7 9.87,-57.76 16.53,-91.46l70.13 -377.55c13.03,-62.33 20.57,-117.69 33.29,-183.8 6.59,-34.16 16.67,-39.55 20.91,-86.31 4.39,-48.6 8.59,-55.36 16.8,-92.82 19.98,-91.35 -10.59,-119.75 98.42,-119.75l551.06 0c75.59,0 82.38,20.51 87.66,-54.38l47.36 -234.35c5.66,-51.76 22.7,-79.99 21.87,-114.84 -70.98,-9.72 -757.44,-1.78 -891.63,-1.78 -151.63,0 -281.03,-15.23 -396.75,46.75 -169.36,90.72 -185.9,214.21 -215.63,345.69 -7,31.05 -15.69,45.43 -23.14,81.15 -13.58,65.34 -25.61,118.54 -39.75,184.67 -5.62,26.3 -6.51,65.97 -13,98.55l-62.72 275.42c-8.15,31.05 -6.67,64.2 -13.8,95.77 -7.44,32.79 -14.79,50.76 -18.43,90.8 -16.9,187.09 -52.75,243.61 -73.98,376.78 -10.54,66.27 -31.62,121.97 -29.29,200.52zm1951.32 -2112.26l-140.8 720.85c-8.33,38.45 -5.38,75.47 -15.3,114.09 -64.67,251.96 -119.36,573.26 -168.73,828.65 -90.59,468.6 137.45,453.31 495.69,453.49 330.26,0.16 671.05,8.07 1000.05,-0.93 -20.84,-69.5 -60.61,-77.87 -67,-179.89 -8,-127.91 13.97,-213.42 12.78,-236.42 -90.87,-14.37 -284.73,-3.35 -386.43,-3.41 -349.11,-0.18 -322.94,25.97 -275.21,-259.48 5.6,-33.48 16.06,-45.91 20.62,-77.65l40.6 -266.35c7.08,-29 33.06,-145.4 30.36,-157.83 17.78,-18.61 2.12,2.44 12.85,-18.75 4.47,-8.8 5.16,-11.5 7.66,-19.13 14.81,-44.91 17.02,-132.89 29.54,-145.89 63.23,-36.31 614.19,17.31 701.34,-17.73 16.08,-31.5 57.97,-250.66 59.99,-295.83 -2.51,-58.77 16.29,-84.29 15.79,-119.58l-694.79 -2.17c-1.62,-50.9 10.77,-52.08 19.03,-95.79 6.87,-36.33 6.18,-75.02 11.67,-111.98l40.58 -195.24c19.09,-20.28 46.01,-119.32 22.09,-140.2 -5.71,-4.98 -691.45,-26.02 -727.21,8.12 -15.54,14.81 -45.89,182.65 -45.17,219.05zm2677.19 1420.15c-0.4,16.33 -45.76,262.88 -55.78,269.95 -19.22,13.57 -277.14,6.35 -321.46,6.26 -75.05,-0.13 -264.72,18.89 -304.72,-23.66 -35.56,-37.81 -23.15,-73.68 -14.93,-124.78 9.87,-61.31 1.26,-74.55 27.42,-129.73l669.47 1.96zm111.63 -538.06l-21.14 51.73c-5.25,20.3 -8.52,38.34 -16.87,58.74l-1389.52 1.77c-33.4,49.35 -47.56,174.71 -58.91,240.86 -11.93,69.6 -49.4,187.86 -49.25,268.33 -0.67,36.49 -9.67,31.65 -15.62,59.3l-32.4 230.29c-21.53,255.88 121.67,324.04 343.4,323.99l1035.31 0.05c226.36,0 465.92,7.54 690.66,-1.31l254.76 -1298.74c11.23,-46.7 33.58,-173.44 33.76,-225.45 0.38,-98.75 -18.52,-151.76 -68.25,-201.15 -101.07,-100.34 -266.33,-74.06 -443.36,-74.06 -208.89,0 -1543.81,-10.73 -1562.07,7.56 -11.89,26.46 -7.55,61.41 -15.66,94.44 -18.35,74.62 -52.14,238.81 -54.75,302.24 346.75,10.69 784.77,0.81 1148.22,0.72 55.34,-0.01 134.83,-11.17 175.97,12.3 68.24,38.93 37.08,71.67 45.72,148.39zm2379.23 -498.28l11.26 -63.43c-152.09,-22.12 -581.78,14.97 -703.77,-9.72l19.33 -109.86c41.41,-28.65 603.1,-1.57 708.5,-13.08 8.56,-39.75 9.43,-72.71 16.41,-110.36 6.14,-33.05 15.21,-63.08 22.38,-102.03 8.45,-45.99 44.8,-165.47 40.2,-203.44 -144.23,-13.11 -843.96,-0.88 -1053.81,-2.13 -365.42,-2.19 -449.54,274.71 -492.38,560.54l-47.47 210.37c-8.9,34.55 -9.75,79.92 -18.07,117.2l-62.9 339.46c-7.33,31.28 -10.7,23.27 -15.68,47.84l-117.72 619.17c-20.85,64.95 -26.49,154.35 -43.66,223.01 -9.34,37.29 -39.85,191.58 -34.97,228.51l727.61 0.78 134.71 -674.02c14.28,-108.97 73.5,-336.25 82.46,-425.36 4.34,-43.25 12.95,-44.19 17.84,-83.44l27.15 -181.39c75.5,-43.56 571.39,10.81 712.29,-18.67 13.98,-30.93 72.97,-309.61 70.29,-349.95zm889.1 1312.6c-133.52,0 -306.1,39.35 -288.6,-119.01 2.38,-21.68 25.48,-147.31 41.78,-155.06 25.67,-12.2 598.41,-5.03 669.78,0.1 -4.06,43.94 -44.63,237.93 -61.16,273.41l-361.8 0.56zm-763.94 -1369.89c-14.35,13.92 -14.35,15.2 -21.75,39.07 -5.27,16.96 -8.61,39.62 -10.89,57.94 -10.43,83.73 -53.22,193.72 -50.24,313.88l1345.24 5.34c40.13,20.84 44.38,66.42 33.88,122.82 -4,21.61 -13.25,33.19 -17.58,62 -14.56,96.8 4.64,85.15 -172.38,85.15 -222.53,0.02 -1180.14,-12.74 -1246.83,9.64l-98.36 504.73c-18.22,83.9 -10.51,85.69 -37.31,189.2 -24.51,94.65 -22.57,224.11 34.87,298.28 95.89,123.83 309.08,102.51 495.99,102.51l597.28 -2.23c-6.9,-47.69 -160.55,-175.14 -179.31,-238.1 75.87,5.6 403.96,90.99 438.42,88.71 23.19,-38.64 209.34,-357.98 245.73,-369.14 24.23,39.56 32.58,410.47 53.98,435.75 20.7,19.98 138.43,44.79 176.88,54.58 283.61,72.2 170.04,66.56 282.76,-413.69 16.65,-70.95 18.11,-160.23 39.93,-219.71l41.62 -218.97c8.18,-68.77 35.96,-122.44 47.58,-206 26.74,-192.28 150.97,-491.85 2.38,-639.16 -95.3,-94.47 -281.27,-72.96 -444.75,-72.96l-1552.57 7.3c-1,0.45 -3.28,1.74 -4.57,3.06zm3377.28 1361.61c-60.41,36.03 -1200.45,-14.03 -1397.18,10.88 -18.8,49.43 -87.83,362.43 -75.66,415.68l310.08 2.41c34.79,-61.83 18.21,-85.46 79.94,-136.47 62.01,-51.24 92.4,-41.49 189.46,-40.9 189.12,1.1 210.3,55.54 276.65,177.11 111.22,2.56 905.52,7.48 955.41,-1.99 197.21,-37.42 335.43,-134.25 387.28,-334.74 38.66,-149.38 112.97,-516.97 57.02,-637.03 -61.97,-132.99 -200.09,-130.25 -357.18,-130.17l-726.39 0c-111.08,0 -126.25,13.85 -198.83,-37.53 -13.17,-78.36 -0.39,-204.03 36.39,-253.26l1385.67 -0.77c12.27,-32.25 84.63,-355.7 85.08,-401.77 -87.29,-10.87 -214.8,-3.52 -306.39,-3.52l-935.12 0c-441.95,0 -807.4,-68.49 -947.98,294.78 -15.37,39.72 -19.27,82.23 -31.36,118.58l-66.62 404.99c-2.11,110.15 25.71,170.91 85.55,225.64 62.52,57.16 151.95,58.09 259.06,57.93 85.98,-0.12 881.14,-11.3 926.41,9.59 75.89,35 27.13,230.2 8.71,260.56zm1832.81 271.33c-14.85,96.63 16.91,79.47 93.08,97.86 50.64,12.22 98.45,37.75 154.81,37.43 10.63,10.41 13.51,19.01 48.66,25.17 27.32,4.79 48.31,3.43 75.3,0.02 26.02,-61.15 84.22,-341.72 80.94,-423.28 -66.82,-14.61 -398.41,-7.53 -483.62,-3.41 -11.24,46.29 -3.83,95.52 0.87,142.78 3.79,38.18 3.46,97.39 29.96,123.43z"/>
  <path class="fil3" d="M17617.51 3523.3c-46.34,-7.26 -92.55,-26.75 -147.38,-23.22 8.7,23 66.06,89.59 94.23,114.34 -17.16,57.39 -62.63,84.92 -66.41,142.6 54.35,-4.63 84.11,-38.8 136.26,-48.84l77.37 78.9c21.4,26.95 6.51,16.13 34.07,30.2 12.2,-46.46 0.71,-100.69 3.37,-154.95l140.61 -64.42c-27.64,-28.77 -102.58,-37.88 -152.92,-45.86l-15.56 -160.2c-36.96,11.83 -63.29,96.22 -103.64,131.45zm-3795.55 -5.3l-158.59 -21.38c8.17,26.7 64.78,91.99 93.72,117.8 -12.01,55.69 -60.17,81.46 -66.68,141.92 62.01,-4.55 95.45,-39.46 144.84,-44.75 59.4,56.25 67.7,89.61 103.2,105.52l3.14 -154.96c45.88,-18.68 94.12,-46.07 142.13,-66.02 -37.98,-28.06 -109.9,-30.37 -161.37,-51.67l-8.03 -153.52c-24.42,11.06 -76.53,98.63 -92.36,127.06zm3093.49 670.22l-59.25 0.44c-33.17,91.9 -268.5,181.68 -307.51,118.84 -20.2,-109.78 64.1,-343 106.46,-427.02l272.74 -13.91 -12.44 321.65zm1131.48 -352.69c21.48,127.9 -78.55,317.35 -139.24,256.99 -30.81,-30.66 74.37,-269.25 139.24,-256.99zm-3145.35 171.29c45.86,39.41 59.33,21.31 22.9,87.47 -19.12,34.74 -36.03,67.2 -56.7,102.05 -29.45,49.6 -94.85,148.83 -170.01,141.14 -86.88,-46.79 52.35,-458.24 182.5,-482.92 116.41,-22.08 22.88,104.36 21.31,152.26zm154.99 -473.2c-7.04,23.56 -20.93,167.1 -63.14,270.4 -20.64,0.02 -236.12,-94.05 -379.89,138.84 -33.65,54.5 -54.95,78.77 -70.01,142.82 -8.57,36.62 -17.62,50.82 -19.01,87.78 -1.38,36.77 6.62,83.87 -8.12,108.9 -31.49,50.01 -114.73,46.13 -137.11,-0.34 -57.85,-120.05 122.53,-346.43 103.6,-475.58 -25.89,-15.34 -31.17,-23.57 -70.89,-27.71 -126.02,-13.15 -116.08,26.74 -186.47,117.21 -27.12,34.87 -140.97,242.39 -148.14,248.34 -30.29,-58.74 67.45,-237.51 59.53,-329.75 -138.03,-35.31 -172.5,76.24 -198.3,185.02 -28.98,122.05 11.28,246.22 -81.14,321.26 -36.6,29.73 -113.13,43.02 -127.19,-15.46 -20.92,-87.07 57.97,-235.47 83.9,-310.16 14.26,-41.08 55.52,-113.72 51.87,-155.33 -31.78,-17.14 -121.4,-42.17 -153.43,-23.89 -34.47,18.18 -71.01,153.5 -84.33,192.51 -38.9,113.93 -132.81,384.9 47.71,402.37 168.51,16.33 165.03,-16.09 251.09,-38.95 1.54,1.48 3.57,1.92 4.22,4.81 0.85,3.75 6.81,7.91 8.31,9.5 19.22,20.39 23.94,23.3 53.54,26.37 146.76,15.25 76.42,-60.03 161.44,-229.27 19.7,-39.24 80.74,-154.59 106.46,-173.51 26.62,38.38 -162.14,399.82 142.28,396.06 87.77,-1.08 99.52,-35.07 158.29,-59.4 36.97,18.65 36.31,38.29 82.8,61.59 55.72,27.93 134.3,36.9 191.17,-1.15 29.53,-19.74 74.5,-71.51 101.75,-79.36 30.77,62.4 52.92,61.34 133.76,60.33 78.36,-0.99 94.1,-21.66 150.12,-49.85 48.42,-3.81 182.37,151.39 291.15,-65.03 15.64,-31.14 2.54,-24.75 26.12,-41.08 21.41,48.39 22.61,114.8 91.74,127.86 56.37,10.64 176.97,-15.7 202.46,-4.7 50.63,21.87 79.28,49.15 146.83,69.27 187.37,55.82 423.13,-87.04 285.7,-283.52 -55.57,-79.42 -139.33,-112.87 -221.12,-153.95 -6.48,-3.24 -10.46,-4.17 -16.47,-8.82 -18.11,-14 -8.37,0.84 -18.52,-21.33 18.29,-29.02 -1.64,-9.55 33.65,-23.5 165.07,-65.26 113.72,34.08 213.51,-9.81 25.88,-11.35 53.84,-26.32 75.43,-39.16 73.88,27.23 -4.19,22.44 137.2,19 -1.38,42.81 -46.82,178.24 -60.59,220.53 -26.54,81.48 -0.33,183.44 44.03,221.92 54.69,47.45 114.9,68.95 213.49,63.99 113.97,-5.77 132.84,-41.09 208.55,-78.24l14.11 11.92c36.47,30.04 130.13,66.09 165.3,26.16 13.13,-14.65 24.78,-149.64 35.87,-183.07 18.21,-54.89 45.96,-98.35 68.61,-150.78 48.27,-1.68 16.58,-2.51 47.12,32.45 57.09,65.3 158.16,21.77 215.56,17.69 -4.89,41.39 -11.8,32.69 -20.41,77.21 -5.92,30.59 -14.66,60.67 -18.33,81.34 -9.78,55.08 12.43,111.87 42.56,138.93 41.77,37.49 105.38,30.29 167.76,28.58 111.44,-3.06 95.47,-33.26 158.54,-46.59 35.66,20.47 50.75,50.86 95.13,70.63 79.16,35.24 214.64,41.43 289.31,-3.14 41.38,-24.69 66.87,-54.37 99.83,-75.66 97.44,25.56 92.16,78.5 250.65,75.31 92.94,-1.86 187.81,-38.35 212.76,-122.9 45.66,-154.69 -83.47,-248.29 -192.9,-298.01l-123.27 -43.17c5.24,-8.52 0.88,-1.52 11.19,-11.95 0.85,-0.86 2.57,-2.93 3.53,-3.83 1.03,-0.97 2.79,-2.96 3.94,-3.93 12.93,-10.95 99.12,-38.81 135.25,-40.9 75.8,-4.36 46.61,62.72 171.89,-3.85 36.31,-19.28 67.68,-37.16 73.13,-80.75 -49.71,-91.02 -205.87,-18.32 -274.11,2.59 -90.11,27.61 -214.76,31.44 -272.12,97.61 -0.95,91.14 56.49,83.55 125.62,101.73 62.97,16.58 106.62,40.9 152.81,78.95 105.59,86.97 100.81,230.64 -119.73,231.28 -56,0.19 -92.05,-12.55 -109.35,-52.94 20.19,-56.75 68.77,-73.17 75.21,-142.17 -56.91,-47.31 -127.14,-59.39 -170.49,12.96 -44.08,73.48 14.37,95.74 -86.58,163.54 -64.75,43.52 -255.14,100.2 -256.96,-42.24 -0.27,-21.76 1.92,-46.88 4.29,-64.36l17.87 -58.01c88.37,16.86 93.06,57.36 199.4,3.5 96.89,-49.08 168.27,-262.97 86.3,-351.05 -42.38,-45.58 -117.61,-64.08 -190.47,-28.75 -242,117.3 -238.6,475.51 -251.3,501.96 -12.27,25.56 -37.06,46.78 -64.33,59.36 -50.08,23.08 -63.73,6 -95.06,-13.7 -27.29,-173.88 124.56,-344.82 126.87,-487.41 -124.18,-31.95 -162.28,-61.27 -203.82,77.06 -23.57,78.41 -94.73,165.42 -180.84,110.48 -8.4,-98.36 60.93,-131.61 78.83,-200.39 -4.43,-49.48 -160.06,-80.09 -195.88,11.23 -17.48,44.57 -67.08,183.04 -98.4,193.26 -9.03,-78.2 26.92,-120.66 21.61,-206.64 -30.66,-10.59 -54.21,-24.63 -92.5,-21.27 -60.42,5.31 -21.41,38.55 -86.69,9.53 -38.48,-17.11 -52.37,-29.25 -96.83,-30.93 -42.22,-1.58 -81.65,5.35 -123.62,0.02 2.15,-37.5 25.66,-28.97 26.76,-88.78 -190.31,-111.37 -161.9,84.77 -220.97,114.46 -32.23,3.55 -64.65,5.67 -96.58,9.2 -85.74,9.5 -10.04,-67.08 -258.77,-4.04 -34.06,8.65 -41.52,15.94 -82.58,23.37 -49.15,8.88 -225.94,51.09 -240.98,90.79 2.06,101.57 48.83,77.47 127.17,102.28 54.58,17.28 112.11,43.78 151.68,80.71 106.82,99.68 78.97,227.36 -100.91,228.55 -66.2,0.42 -93.6,-5.7 -129.34,-44.17 20.34,-61.64 71.07,-86.78 74.05,-153.83 -44.42,-30.38 -90.54,-62.82 -148.44,-8.11 -19.58,18.5 -30.82,38.66 -40.88,69.25 -8.76,26.58 -8.67,18.28 -5.76,49.92l3.25 26.56c-2.9,54.06 -80.59,-2.96 -86.54,-42.58 -10.24,-68.2 13.23,-146.3 30.7,-205.45 6.53,-22.07 13.87,-33.56 21.21,-61.12 12.88,-48.38 29.21,-78.71 25.1,-136.54 -37.43,-25.44 -76.92,-36.43 -143.44,-29.62 -42.86,96.68 -30.32,104.23 -111.33,271.2 -24.04,49.53 -112.82,210.4 -172.52,211.79 -4.85,-70.93 19.28,-169.48 39.21,-225.51 12.72,-35.76 18.11,-69.71 31.58,-105.32 13.98,-36.91 33.13,-58.29 39.14,-103.16 -8.97,-8.83 -6.92,-9.34 -24.4,-19.07 -97.37,-54.22 -146.55,63.94 -178.24,136.5 -95.41,218.31 -50.05,297.29 -62.59,321.96 -49.93,43.15 -71.43,29.7 -115.24,-5.22 -5.16,-56.91 17.81,-123.71 31.26,-181.17 6.16,-26.22 9.64,-69 16.65,-93.38 30.21,-104.91 113.75,-382.06 97.33,-468.73 -32.71,-8.3 -111.14,-18.35 -140.27,-5.46z"/>
 </g>
</svg>
