<?xml version="1.0" encoding="UTF-8"?>
<!DOCTYPE svg PUBLIC "-//W3C//DTD SVG 1.1//EN" "http://www.w3.org/Graphics/SVG/1.1/DTD/svg11.dtd">
<!-- Creator: CorelDRAW 2026 -->
<svg xmlns="http://www.w3.org/2000/svg" xml:space="preserve" width="100%" height="100%" version="1.1" style="shape-rendering:geometricPrecision; text-rendering:geometricPrecision; image-rendering:optimizeQuality; fill-rule:evenodd; clip-rule:evenodd"
viewBox="0 0 19476.5 5267.06"
 xmlns:xlink="http://www.w3.org/1999/xlink"
 xmlns:xodm="http://www.corel.com/coreldraw/odm/2003">
 <defs>
  <style type="text/css">
   <![CDATA[
    .fil2 {fill:black}
    .fil0 {fill:black}
    .fil3 {fill:red}
    .fil1 {fill:white}
   ]]>
  </style>
 </defs>
 <g id="Layer_x0020_1">
  <metadata id="CorelCorpID_0Corel-Layer"/>
  <rect class="fil0" width="19476.5" height="5267.06"/>
  <g id="_2527974365600">
   <path class="fil1" d="M7934.14 1635.97l-5.14 0 -921.48 -1159.41 0 1037.91 -4215.41 0 0 31.16 3134.19 0c278.28,0 558.4,76.14 772.43,260.24 197.53,169.91 308.79,408.55 308.79,669.4l0 411.83c0,533.71 -588.19,929.64 -1081.22,929.64l-4308.26 0 0 -1144.93 4215.41 0 0 -27.94 -3170.56 0c-491.13,0 -1044.85,-352.3 -1044.85,-887.69l0 -457c0,-528.76 547.76,-929.64 1044.85,-929.64l5640.59 0 972.92 1155.14 1039.42 0 982.14 -1155.14 6699.24 0 0 1144.93 -2100.07 0 0 2300.57 -1171.28 0 0 -2300.57 -2118.13 0 0 -1054.53 -1304.25 1632.35 1376.48 1722.75 -1381.99 0 -1004.51 -1181.45 -986.14 0 -1004.52 1181.45 -1381.99 0 1377.6 -1724.15 -364.26 -454.92z"/>
   <path class="fil2" d="M15805.69 1423.03l0 2300.57 -988.4 0 0 -2300.57 -2118.13 0 0 -962.05 5206.6 0 0 962.05 -2100.07 0zm-9880.8 1340.22l0 -210.82 -3262 0c-440.6,0 -953.41,-313.77 -953.41,-796.25l0 -457c0,-476.71 506.52,-838.2 953.41,-838.2l4253.19 0 0 962.05 -4215.41 0 0 214.04 3225.63 0c256.04,0 515.65,68.54 712.8,238.12 177.38,152.57 276.98,365.91 276.98,600.08l0 411.83c0,480.77 -546.93,838.2 -989.78,838.2l-4216.82 0 0 -962.05 4215.41 0zm2490.6 -672.42l-380.1 -474.71 2322.71 0 982.14 -1155.14 1149.61 0 -1303.42 1631.31 1303.42 1631.31 -1149.61 0 -1004.51 -1181.45 -1070.7 0 -1004.52 1181.45 -1149.61 0 1304.59 -1632.77zm-442.36 -546.3l-861.19 -1083.55 1149 0 912.62 1083.55 -1200.43 0z"/>
   <path class="fil3" d="M17753.36 613.38l-4901.8 0 0 657.25 2118.13 0 0 2300.57 683.6 0 0 -2300.57 2100.07 0 0 -657.25zm-11726.87 2302.27l-4164.61 0 0 657.25 4064.42 0c377.72,0 837.38,-308.08 837.38,-685.8l0 -411.83c0,-377.72 -318.11,-685.8 -837.38,-685.8l-3327.23 0c-27.98,0 -50.8,-22.82 -50.8,-50.8l0 -417.24c0,-27.98 22.82,-50.8 50.8,-50.8l4164.61 0 0 -657.25 -4100.79 0c-377.69,0 -801.01,308.11 -801.01,685.8l0 457c0,377.69 423.29,643.85 801.01,643.85l3363.6 0c27.98,0 50.8,22.82 50.8,50.8l0 414.02c0,27.98 -22.82,50.8 -50.8,50.8zm2584.15 -824.92l-257.99 -322.21 2075.91 0 982.14 -1155.14 762.31 0 -1181.65 1478.91 1181.65 1478.91 -762.31 0 -1004.51 -1181.45 -1211.62 0 -1004.52 1181.45 -762.31 0 1182.9 -1480.47zm-563.96 -698.6l799.27 0 -655.9 -778.75 -762.31 0 618.94 778.75z"/>
  </g>
  <g id="_2527974365216">
   <path class="fil1" d="M7996.6 4247.32c10.24,-52.6 56.62,-92.37 112.19,-92.37l682.53 0c142.87,0 266.7,86.08 266.7,238.24l0 357.66c0,63.07 -51.23,114.3 -114.3,114.3l-65.54 0c-63.07,0 -114.3,-51.23 -114.3,-114.3l0 -295.72c-1.29,-2.11 -3.47,-4.83 -5.43,-6.82l-469.82 0 0 302.54c0,63.07 -51.23,114.3 -114.3,114.3l-65.54 0c-55.55,0 -101.92,-39.75 -112.18,-92.32 -49.14,60.05 -129.54,92.38 -217.1,92.38l-530.13 0c-89.76,0 -172,-33.98 -220.75,-96.97 -8.39,54.83 -55.82,96.91 -112.98,96.91l-65.54 0c-63.07,0 -114.3,-51.23 -114.3,-114.3l0 -256.01c0,-31.34 12.65,-59.76 33.11,-80.41 -3.38,-3.42 -6.55,-7.05 -9.48,-10.86 -20.9,27.19 -53.76,44.74 -90.67,44.74l-270.39 0 0 302.54c0,63.07 -51.23,114.3 -114.3,114.3l-65.54 0c-63.07,0 -114.3,-51.23 -114.3,-114.3l0 -302.54 -270.4 0c-35.02,0 -66.38,-15.79 -87.36,-40.63 -20.98,24.84 -52.34,40.63 -87.36,40.63l-655.09 0 0 123.54 655.09 0c63.07,0 114.3,51.23 114.3,114.3l0 64.76c0,63.07 -51.23,114.3 -114.3,114.3l-682.53 0c-86.53,0 -166.08,-31.58 -215.36,-90.29 -11.07,51.53 -56.94,90.23 -111.76,90.23l-65.54 0c-63.07,0 -114.3,-51.23 -114.3,-114.3l0 -95.14 -475.25 0 0 95.14c0,63.07 -51.23,114.3 -114.3,114.3l-65.54 0c-63.07,0 -114.3,-51.23 -114.3,-114.3l0 -184.38c-19.13,24.08 -42.79,44.51 -70.08,59.74l42.84 51.8c28.28,34.19 34.23,81.39 15.33,121.53 -18.9,40.15 -59.04,65.61 -103.41,65.61l-69.56 0c-34.21,0 -66.28,-15.1 -88.08,-41.46l-138.93 -167.98 -303.62 0 0 95.14c0,63.07 -51.23,114.3 -114.3,114.3l-65.54 0c-63.07,0 -114.3,-51.23 -114.3,-114.3l0 -262.28c0,-29.78 11.42,-56.93 30.12,-77.28 -1.93,-2.1 -3.79,-4.28 -5.56,-6.52 -20.94,26.51 -53.37,43.54 -89.73,43.54l-270.39 0 0 302.54c0,63.07 -51.23,114.3 -114.3,114.3l-65.54 0c-63.07,0 -114.3,-51.23 -114.3,-114.3l0 -302.54 -270.4 0c-63.07,0 -114.3,-51.23 -114.3,-114.3l0 -64.76c0,-63.07 51.23,-114.3 114.3,-114.3l834.93 0c36.36,0 68.79,17.03 89.73,43.54 20.95,-26.51 53.38,-43.54 89.74,-43.54l711.25 0c92.27,0 168.03,56.16 207.78,133.1 44.61,-90.86 142.79,-133.1 243.02,-133.1l530.13 0c102.78,0 195.7,44.55 239.76,126.19 44.06,-81.64 136.98,-126.19 239.76,-126.19l682.53 0c35.02,0 66.38,15.79 87.36,40.63 20.98,-24.84 52.34,-40.63 87.36,-40.63l834.93 0c36.91,0 69.77,17.55 90.67,44.74 20.9,-27.19 53.76,-44.74 90.67,-44.74l65.54 0c57.18,0 104.62,42.1 112.99,96.96 48.74,-62.99 130.98,-96.96 220.74,-96.96l530.13 0c87.55,0 167.95,32.32 217.09,92.37zm8827.9 2.46c9.25,-53.82 56.21,-94.83 112.64,-94.83l682.53 0c142.87,0 266.7,86.08 266.7,238.24l0 233.78c0,152.16 -123.83,238.24 -266.7,238.24l-682.53 0c-35.94,0 -68.6,-16.78 -89.71,-43.44 -20.94,26.42 -53.31,43.38 -89.6,43.38l-65.54 0c-63.07,0 -114.3,-51.23 -114.3,-114.3l0 -295.72c-1.29,-2.11 -3.47,-4.83 -5.43,-6.82l-469.82 0 0 302.54c0,63.07 -51.23,114.3 -114.3,114.3l-65.54 0c-34.68,0 -65.78,-15.49 -86.75,-39.92 -20.98,24.43 -52.08,39.92 -86.76,39.92l-682.53 0c-104.32,0 -198.49,-45.89 -241.71,-129.89 -43.21,84.04 -137.4,129.95 -241.74,129.95l-530.13 0c-142.87,0 -266.7,-86.08 -266.7,-238.24l0 -63.33c-43.09,55.78 -109.66,92.07 -186.31,92.07l-531.41 0 0 95.14c0,63.07 -51.23,114.3 -114.3,114.3l-65.54 0c-44.89,0 -83.78,-25.95 -102.47,-63.66 -18.7,37.71 -57.59,63.66 -102.48,63.66l-65.54 0c-63.05,0 -114.3,-51.25 -114.3,-114.3l0 -149.41 -166.93 218.74c-21.7,28.44 -55.09,44.97 -90.86,44.97l-70.35 0c-35.77,0 -69.16,-16.53 -90.86,-44.97l-166.55 -218.25 0 148.92c0,63.07 -51.23,114.3 -114.3,114.3l-65.54 0c-56.66,0 -103.76,-41.34 -112.75,-95.48 -48.88,62.08 -130.55,95.54 -219.63,95.54l-530.13 0c-86.91,0 -166.77,-31.85 -216,-91.06 -10.76,51.95 -56.82,91.06 -111.93,91.06l-682.53 0c-142.87,0 -266.7,-86.08 -266.7,-238.24l0 -233.78c0,-152.16 123.83,-238.24 266.7,-238.24l682.53 0c55.11,0 101.17,39.11 111.93,91.06 49.23,-59.21 129.09,-91.06 216,-91.06l530.13 0c89.07,0 170.74,33.46 219.62,95.53 8.97,-54.16 56.08,-95.53 112.76,-95.53l143.75 0c39.12,0 78.11,17.19 102.07,48.59l226.62 296.97 226.61 -296.97c23.96,-31.4 62.95,-48.59 102.07,-48.59l144.11 0c44.88,0 83.78,25.96 102.47,63.67 18.69,-37.71 57.59,-63.67 102.48,-63.67l711.25 0c93.03,0 169.28,57.09 208.75,135.01 41.99,-87.25 137.84,-135.01 244.26,-135.01l530.13 0c88.41,0 169.53,32.96 218.53,94.15 9.53,-53.48 56.32,-94.15 112.52,-94.15l65.54 0c63.07,0 114.3,51.23 114.3,114.3l0 295.72c1.29,2.11 3.47,4.83 5.43,6.82l469.82 0 0 -302.54c0,-63.07 51.23,-114.3 114.3,-114.3l65.54 0c34.68,0 65.78,15.49 86.76,39.92 20.97,-24.43 52.07,-39.92 86.75,-39.92l682.53 0c88.74,0 170.13,33.21 219.07,94.83zm-4026.13 153.82l0 15.38c2.04,-2.66 4.2,-5.22 6.47,-7.69 -2.27,-2.47 -4.43,-5.03 -6.47,-7.69zm-2188.74 186.05l0 -159.14c-17.71,11.27 -38.71,17.8 -61.23,17.8l-655.09 0 0 123.54 655.09 0c22.52,0 43.52,6.53 61.23,17.8zm6507.35 -17.8l475.25 0 0 -123.54 -485.14 0c6.36,14.22 9.89,29.97 9.89,46.53l0 77.01zm-6213.21 -123.54l0 123.54 475.25 0 0 -123.54 -475.25 0zm3176.95 0l0 123.54 475.25 0 0 -123.54 -475.25 0zm-6803.9 0l0 123.54 475.25 0 0 -123.54 -475.25 0z"/>
   <path class="fil2" d="M11830.15 4423.12l-9.85 -12.91 -81.46 0c-42.03,0 -76.2,-34.17 -76.2,-76.2l0 -64.76c0,-42.04 34.16,-76.2 76.2,-76.2l143.75 0c27.2,0 55.06,11.68 71.78,33.6l256.91 336.67 256.9 -336.67c16.72,-21.92 44.58,-33.6 71.78,-33.6l144.11 0c42.01,0 76.2,34.17 76.2,76.2l0 481.6c0,42.04 -34.16,76.2 -76.2,76.2l-65.54 0c-42.03,0 -76.2,-34.18 -76.2,-76.2l0 -262.14 -235.32 308.36c-14.49,18.99 -36.68,29.98 -60.57,29.98l-70.35 0c-23.89,0 -46.08,-10.99 -60.57,-29.98l-235.17 -308.17c0.15,1.96 0.23,3.94 0.23,5.94l0 256.01c0,42.04 -34.16,76.2 -76.2,76.2l-65.54 0c-42.04,0 -76.2,-34.16 -76.2,-76.2l0 -256.01c0,-42.04 34.16,-76.2 76.2,-76.2l65.54 0c9.04,0 17.72,1.58 25.77,4.48zm-1964.28 403.99c-121.52,0 -228.6,-69.33 -228.6,-200.14l0 -233.78c0,-130.81 107.08,-200.14 228.6,-200.14l682.53 0c42.04,0 76.2,34.16 76.2,76.2l0 64.76c0,42.04 -34.16,76.2 -76.2,76.2l-667.79 0c-13.91,0 -25.4,11.49 -25.4,25.4l0 148.94c0,13.91 11.49,25.4 25.4,25.4l667.79 0c42.04,0 76.2,34.16 76.2,76.2l0 64.76c0,42.04 -34.16,76.2 -76.2,76.2l-682.53 0zm1540.59 -634.06c121.52,0 228.6,69.33 228.6,200.14l0 233.78c0,130.81 -107.08,200.14 -228.6,200.14l-530.13 0c-121.52,0 -228.6,-69.33 -228.6,-200.14l0 -233.78c0,-130.81 107.08,-200.14 228.6,-200.14l530.13 0zm1624.3 424.56l0 133.24c0,42.04 -34.16,76.2 -76.2,76.2l-65.54 0c-42.04,0 -76.2,-34.16 -76.2,-76.2l0 -262.28c0,-42.04 34.16,-76.2 76.2,-76.2l693.19 0 0 -2.16 -693.19 0c-42.04,0 -76.2,-34.16 -76.2,-76.2l0 -64.76c0,-42.04 34.16,-76.2 76.2,-76.2l711.25 0c115.96,0 199.88,107.2 199.88,218.24 0,111.64 -86.45,206.32 -199.88,206.32l-569.51 0zm1552.65 -424.56c121.52,0 228.6,69.33 228.6,200.14l0 233.78c0,130.81 -107.08,200.14 -228.6,200.14l-530.13 0c-121.52,0 -228.6,-69.33 -228.6,-200.14l0 -233.78c0,-130.81 107.08,-200.14 228.6,-200.14l530.13 0zm1024.24 416.84l0 -340.64c0,-42.04 34.16,-76.2 76.2,-76.2l65.54 0c42.04,0 76.2,34.16 76.2,76.2l0 481.6c0,42.04 -34.16,76.2 -76.2,76.2l-682.53 0c-121.52,0 -228.6,-69.34 -228.6,-200.14l0 -357.66c0,-42.04 34.16,-76.2 76.2,-76.2l65.54 0c42.04,0 76.2,34.16 76.2,76.2l0 300.2c0,13.53 22.39,40.44 35.98,40.44l515.47 0zm456.99 -199.68l0 340.64c0,42.04 -34.16,76.2 -76.2,76.2l-65.54 0c-42.04,0 -76.2,-34.16 -76.2,-76.2l0 -481.6c0,-42.04 34.16,-76.2 76.2,-76.2l682.53 0c121.52,0 228.6,69.34 228.6,200.14l0 357.66c0,42.04 -34.16,76.2 -76.2,76.2l-65.54 0c-42.04,0 -76.2,-34.16 -76.2,-76.2l0 -300.2c0,-13.53 -22.39,-40.44 -35.98,-40.44l-515.47 0zm797.75 355.41l-0.26 -1.22 -0.63 -4.01 -0.33 -3.56 -0.23 -3.61 0 -258.38c0,-42.04 34.16,-76.2 76.2,-76.2l65.54 0c42.04,0 76.2,34.16 76.2,76.2l0 115.11 526.05 0c13.91,0 25.4,-11.49 25.4,-25.4l0 -148.94c0,-13.91 -11.49,-25.4 -25.4,-25.4l-667.79 0c-42.04,0 -76.2,-34.16 -76.2,-76.2l0 -64.76c0,-42.04 34.16,-76.2 76.2,-76.2l682.53 0c121.52,0 228.6,69.33 228.6,200.14l0 233.78c0,130.81 -107.08,200.14 -228.6,200.14l-682.53 0c-36.45,0 -67.75,-25.88 -74.75,-61.49zm-14545.46 -355.41l0 340.64c0,42.04 -34.16,76.2 -76.2,76.2l-65.54 0c-42.04,0 -76.2,-34.16 -76.2,-76.2l0 -340.64 -308.5 0c-42.04,0 -76.2,-34.16 -76.2,-76.2l0 -64.76c0,-42.04 34.16,-76.2 76.2,-76.2l834.93 0c42.04,0 76.2,34.16 76.2,76.2l0 64.76c0,42.04 -34.16,76.2 -76.2,76.2l-308.49 0zm629.7 207.4l0 133.24c0,42.04 -34.16,76.2 -76.2,76.2l-65.54 0c-42.04,0 -76.2,-34.16 -76.2,-76.2l0 -262.28c0,-42.04 34.16,-76.2 76.2,-76.2l693.19 0 0 -2.16 -693.19 0c-42.04,0 -76.2,-34.16 -76.2,-76.2l0 -64.76c0,-42.04 34.16,-76.2 76.2,-76.2l711.25 0c115.96,0 199.88,107.2 199.88,218.24 0,93.9 -61.16,175.8 -148.09,199.46l75.71 91.54c18.88,22.83 22.84,54.22 10.22,81.02 -12.62,26.8 -39.32,43.74 -68.94,43.74l-69.56 0c-22.85,0 -44.16,-10.03 -58.72,-27.64l-150.36 -181.8 -359.65 0zm1561.1 0l-551.45 0 0 133.24c0,42.04 -34.16,76.2 -76.2,76.2l-65.54 0c-42.04,0 -76.2,-34.16 -76.2,-76.2l0 -262.28c0,-42.04 34.16,-76.2 76.2,-76.2l692.65 0c-0.07,-0.51 -0.15,-1 -0.25,-1.47 -3.07,-0.56 -7.18,-0.69 -9.26,-0.69l-777.84 0 29.54 -84.46c32.33,-92.45 124.94,-132.7 217.56,-132.7l530.13 0c121.52,0 228.6,69.33 228.6,200.14l0 357.66c0,42.04 -34.16,76.2 -76.2,76.2l-65.54 0c-42.04,0 -76.2,-34.16 -76.2,-76.2l0 -133.24zm1852.55 -207.4l0 340.64c0,42.04 -34.16,76.2 -76.2,76.2l-65.54 0c-42.04,0 -76.2,-34.16 -76.2,-76.2l0 -340.64 -308.5 0c-42.04,0 -76.2,-34.16 -76.2,-76.2l0 -64.76c0,-42.04 34.16,-76.2 76.2,-76.2l834.93 0c42.04,0 76.2,34.16 76.2,76.2l0 64.76c0,42.04 -34.16,76.2 -76.2,76.2l-308.49 0zm489.83 8.43l65.54 0c42.04,0 76.2,34.16 76.2,76.2l0 256.01c0,42.04 -34.16,76.2 -76.2,76.2l-65.54 0c-42.04,0 -76.2,-34.16 -76.2,-76.2l0 -256.01c0,-42.04 34.16,-76.2 76.2,-76.2zm0 -225.59l65.54 0c42.04,0 76.2,34.16 76.2,76.2l0 64.76c0,42.04 -34.16,76.2 -76.2,76.2l-65.54 0c-42.04,0 -76.2,-34.16 -76.2,-76.2l0 -64.76c0,-42.04 34.16,-76.2 76.2,-76.2zm-1873.52 634.06c-121.52,0 -228.6,-69.33 -228.6,-200.14l0 -233.78c0,-130.81 107.08,-200.14 228.6,-200.14l682.53 0c42.04,0 76.2,34.16 76.2,76.2l0 64.76c0,42.04 -34.16,76.2 -76.2,76.2l-667.79 0c-13.91,0 -25.4,11.49 -25.4,25.4l0 148.94c0,13.91 11.49,25.4 25.4,25.4l667.79 0c42.04,0 76.2,34.16 76.2,76.2l0 64.76c0,42.04 -34.16,76.2 -76.2,76.2l-682.53 0zm2802.92 -634.06c121.52,0 228.6,69.33 228.6,200.14l0 233.78c0,130.81 -107.08,200.14 -228.6,200.14l-530.13 0c-121.52,0 -228.6,-69.33 -228.6,-200.14l0 -233.78c0,-130.81 107.08,-200.14 228.6,-200.14l530.13 0zm471.02 217.16l0 340.64c0,42.04 -34.16,76.2 -76.2,76.2l-65.54 0c-42.04,0 -76.2,-34.16 -76.2,-76.2l0 -481.6c0,-42.04 34.16,-76.2 76.2,-76.2l682.53 0c121.52,0 228.6,69.34 228.6,200.14l0 357.66c0,42.04 -34.16,76.2 -76.2,76.2l-65.54 0c-42.04,0 -76.2,-34.16 -76.2,-76.2l0 -300.2c0,-13.53 -22.39,-40.44 -35.98,-40.44l-515.47 0zm2615.14 25.4l0 148.94c0,13.9 11.5,25.4 25.4,25.4l500.65 0c13.9,0 25.4,-11.5 25.4,-25.4l0 -148.94c0,-13.9 -11.5,-25.4 -25.4,-25.4l-500.65 0c-13.9,0 -25.4,11.5 -25.4,25.4zm3176.95 0l0 148.94c0,13.9 11.5,25.4 25.4,25.4l500.65 0c13.9,0 25.4,-11.5 25.4,-25.4l0 -148.94c0,-13.9 -11.5,-25.4 -25.4,-25.4l-500.65 0c-13.9,0 -25.4,11.5 -25.4,25.4zm-6803.9 0l0 148.94c0,13.9 11.5,25.4 25.4,25.4l500.65 0c13.9,0 25.4,-11.5 25.4,-25.4l0 -148.94c0,-13.9 -11.5,-25.4 -25.4,-25.4l-500.65 0c-13.9,0 -25.4,11.5 -25.4,25.4z"/>
   <path class="fil1" d="M9865.87 4763.61l682.53 0c6.99,0 12.7,-5.71 12.7,-12.7l0 -64.76c0,-6.99 -5.71,-12.7 -12.7,-12.7l-667.79 0c-48.96,0 -88.9,-39.94 -88.9,-88.9l0 -74.47 0 -74.47c0,-48.96 39.94,-88.9 88.9,-88.9l667.79 0c6.99,0 12.7,-5.71 12.7,-12.7l0 -64.76c0,-6.99 -5.71,-12.7 -12.7,-12.7l-682.53 0c-90.93,0 -165.1,45.71 -165.1,136.64l0 116.89 0 116.89c0,90.93 74.17,136.64 165.1,136.64zm1540.59 -507.06l-135.49 0 -0.33 0 -258.49 0 -0.33 0 -135.49 0c-90.93,0 -165.1,45.71 -165.1,136.64l0 116.89 0 116.89c0,90.93 74.17,136.64 165.1,136.64l135.49 0 0.33 0 258.49 0 0.33 0 135.49 0c90.93,0 165.1,-45.71 165.1,-136.64l0 -116.89 0 -116.89c0,-90.93 -74.17,-136.64 -165.1,-136.64zm-604.29 253.53l0 -74.47c0,-48.95 39.95,-88.9 88.9,-88.9l120.75 0 0.33 0 258.49 0 0.33 0 120.75 0c48.95,0 88.9,39.95 88.9,88.9l0 74.47 0 74.47c0,48.95 -39.95,88.9 -88.9,88.9l-120.75 0 -0.33 0 -258.49 0 -0.33 0 -120.75 0c-48.95,0 -88.9,-39.95 -88.9,-88.9l0 -74.47zm936.67 -27.94l65.54 0c6.99,0 12.7,5.71 12.7,12.7l0 256.01c0,6.99 -5.71,12.7 -12.7,12.7l-65.54 0c-6.99,0 -12.7,-5.71 -12.7,-12.7l0 -256.01c0,-6.99 5.71,-12.7 12.7,-12.7zm945.23 -225.59l-144.11 0c-7.89,0 -17.13,3.16 -21.3,8.62l-297.28 389.59c-2.48,3.25 -6.01,4.99 -10.1,4.99 -4.09,0 -7.62,-1.74 -10.1,-4.99l-297.29 -389.59c-4.17,-5.46 -13.41,-8.62 -21.3,-8.62l-143.75 0c-6.99,0 -12.7,5.71 -12.7,12.7l0 64.76c0,6.99 5.72,12.7 12.7,12.7l106.61 0c4.09,0 7.61,1.75 10.09,5l310.46 406.84c2.48,3.25 6,5 10.09,5l70.35 0c4.09,0 7.61,-1.75 10.09,-5l326.5 -427.84c3.36,-4.41 8.91,-6.1 14.16,-4.33 5.26,1.78 8.64,6.49 8.64,12.04l0 412.43c0,6.97 5.71,12.7 12.7,12.7l65.54 0c6.99,0 12.7,-5.71 12.7,-12.7l0 -481.6c0,-6.99 -5.75,-12.7 -12.7,-12.7zm283.19 310.26l0 184.04c0,6.99 -5.71,12.7 -12.7,12.7l-65.54 0c-6.99,0 -12.7,-5.71 -12.7,-12.7l0 -262.28c0,-6.99 5.71,-12.7 12.7,-12.7l693.19 0c34.97,0 63.5,-28.53 63.5,-63.5l0 -2.16c0,-34.97 -28.53,-63.5 -63.5,-63.5l-693.19 0c-6.99,0 -12.7,-5.71 -12.7,-12.7l0 -64.76c0,-6.99 5.71,-12.7 12.7,-12.7l711.25 0c68.75,0 136.38,65.46 136.38,154.74 0,89.28 -70.58,142.82 -136.38,142.82l-620.31 0c-6.98,0 -12.7,5.71 -12.7,12.7zm1616.15 -310.26l-135.49 0 -0.33 0 -258.49 0 -0.33 0 -135.49 0c-90.93,0 -165.1,45.71 -165.1,136.64l0 116.89 0 116.89c0,90.93 74.17,136.64 165.1,136.64l135.49 0 0.33 0 258.49 0 0.33 0 135.49 0c90.93,0 165.1,-45.71 165.1,-136.64l0 -116.89 0 -116.89c0,-90.93 -74.17,-136.64 -165.1,-136.64zm-604.29 253.53l0 -74.47c0,-48.95 39.95,-88.9 88.9,-88.9l120.75 0 0.33 0 258.49 0 0.33 0 120.75 0c48.95,0 88.9,39.95 88.9,88.9l0 74.47 0 74.47c0,48.95 -39.95,88.9 -88.9,88.9l-120.75 0 -0.33 0 -258.49 0 -0.33 0 -120.75 0c-48.95,0 -88.9,-39.95 -88.9,-88.9l0 -74.47zm1087.74 253.47l682.53 0c6.99,0 12.7,-5.71 12.7,-12.7l0 -481.6c0,-6.99 -5.71,-12.7 -12.7,-12.7l-65.54 0c-6.99,0 -12.7,5.71 -12.7,12.7l0 391.44c0,6.99 -5.71,12.7 -12.7,12.7l-566.27 0c-48.96,0 -99.48,-55.01 -99.48,-103.94l0 -300.2c0,-6.99 -5.71,-12.7 -12.7,-12.7l-65.54 0c-6.99,0 -12.7,5.71 -12.7,12.7l0 357.66c0,90.93 74.18,136.64 165.1,136.64zm1538.57 -507l-682.53 0c-6.99,0 -12.7,5.71 -12.7,12.7l0 481.6c0,6.99 5.71,12.7 12.7,12.7l65.54 0c6.99,0 12.7,-5.71 12.7,-12.7l0 -391.44c0,-6.99 5.71,-12.7 12.7,-12.7l566.27 0c48.96,0 99.48,55.01 99.48,103.94l0 300.2c0,6.99 5.71,12.7 12.7,12.7l65.54 0c6.99,0 12.7,-5.71 12.7,-12.7l0 -357.66c0,-90.93 -74.18,-136.64 -165.1,-136.64zm1014.24 507.06l-682.53 0c-6.22,0 -11.4,-4.52 -12.48,-10.42 -0.01,-0.07 -0.03,-0.14 -0.04,-0.21l-0.03 -0.14 0 -0.06 -0.05 -0.26 0 -0.06 -0.03 -0.26 0 -0.06 -0.03 -0.26 0 -0.06 -0.02 -0.26 0 -0.06 -0.02 -0.26 0 -0.06 0 -0.27 0 -0.06 0 -64.7 0 -0.33 0 -190.98c0,-6.99 5.71,-12.7 12.7,-12.7l65.54 0c6.99,0 12.7,5.71 12.7,12.7l0 165.91c0,6.99 5.71,12.7 12.7,12.7l576.85 0c48.96,0 88.9,-39.94 88.9,-88.9l0 -74.47 0 -74.47c0,-48.96 -39.94,-88.9 -88.9,-88.9l-667.79 0c-6.99,0 -12.7,-5.71 -12.7,-12.7l0 -64.76c0,-6.99 5.71,-12.7 12.7,-12.7l682.53 0c90.93,0 165.1,45.71 165.1,136.64l0 116.89 0 116.89c0,90.93 -74.17,136.64 -165.1,136.64zm-15366.24 -404.2l0 391.44c0,6.99 -5.71,12.7 -12.7,12.7l-65.54 0c-6.99,0 -12.7,-5.71 -12.7,-12.7l0 -391.44c0,-6.99 -5.71,-12.7 -12.7,-12.7l-359.3 0c-6.99,0 -12.7,-5.71 -12.7,-12.7l0 -64.76c0,-6.99 5.71,-12.7 12.7,-12.7l834.93 0c6.99,0 12.7,5.71 12.7,12.7l0 64.76c0,6.99 -5.71,12.7 -12.7,12.7l-359.29 0c-6.99,0 -12.7,5.71 -12.7,12.7zm629.7 207.4l0 184.04c0,6.99 -5.71,12.7 -12.7,12.7l-65.54 0c-6.99,0 -12.7,-5.71 -12.7,-12.7l0 -262.28c0,-6.99 5.71,-12.7 12.7,-12.7l693.19 0c34.97,0 63.5,-28.53 63.5,-63.5l0 -2.16c0,-34.97 -28.53,-63.5 -63.5,-63.5l-693.19 0c-6.99,0 -12.7,-5.71 -12.7,-12.7l0 -64.76c0,-6.99 5.71,-12.7 12.7,-12.7l711.25 0c68.75,0 136.38,65.46 136.38,154.74 0,89.28 -70.57,142.82 -136.38,142.82l-50.47 0c-5.03,0 -9.34,2.73 -11.49,7.29 -2.14,4.55 -1.5,9.62 1.71,13.5l138.81 167.86c3.21,3.88 3.85,8.95 1.71,13.5 -2.15,4.56 -6.46,7.29 -11.49,7.29l-69.56 0c-3.92,0 -7.29,-1.59 -9.79,-4.61l-165.59 -200.22c-2.5,-3.02 -5.87,-4.61 -9.79,-4.61l-434.36 0c-6.99,0 -12.7,5.71 -12.7,12.7zm1766.34 196.74l-65.54 0c-6.99,0 -12.7,-5.71 -12.7,-12.7l0 -196.74 -665.75 0c-6.99,0 -12.7,5.71 -12.7,12.7l0 184.04c0,6.99 -5.71,12.7 -12.7,12.7l-65.54 0c-6.99,0 -12.7,-5.71 -12.7,-12.7l0 -262.28c0,-6.99 5.71,-12.7 12.7,-12.7l756.69 0 0 -54.9c0,-48.95 -24.63,-74.26 -73.55,-74.26l-688.36 0c20.99,-60.02 83.78,-90.16 157.62,-90.16l530.13 0c90.93,0 165.1,45.71 165.1,136.64l0 357.66c0,6.99 -5.71,12.7 -12.7,12.7zm1647.31 -404.14l0 391.44c0,6.99 -5.71,12.7 -12.7,12.7l-65.54 0c-6.99,0 -12.7,-5.71 -12.7,-12.7l0 -391.44c0,-6.99 -5.71,-12.7 -12.7,-12.7l-359.3 0c-6.99,0 -12.7,-5.71 -12.7,-12.7l0 -64.76c0,-6.99 5.71,-12.7 12.7,-12.7l834.93 0c6.99,0 12.7,5.71 12.7,12.7l0 64.76c0,6.99 -5.71,12.7 -12.7,12.7l-359.29 0c-6.99,0 -12.7,5.71 -12.7,12.7zm553.33 122.73l65.54 0c6.99,0 12.7,5.71 12.7,12.7l0 256.01c0,6.99 -5.71,12.7 -12.7,12.7l-65.54 0c-6.99,0 -12.7,-5.71 -12.7,-12.7l0 -256.01c0,-6.99 5.71,-12.7 12.7,-12.7zm0 -225.59l65.54 0c6.99,0 12.7,5.71 12.7,12.7l0 64.76c0,6.99 -5.71,12.7 -12.7,12.7l-65.54 0c-6.99,0 -12.7,-5.71 -12.7,-12.7l0 -64.76c0,-6.99 5.71,-12.7 12.7,-12.7zm-1873.52 507.06l682.53 0c6.99,0 12.7,-5.71 12.7,-12.7l0 -64.76c0,-6.99 -5.71,-12.7 -12.7,-12.7l-667.79 0c-48.96,0 -88.9,-39.94 -88.9,-88.9l0 -74.47 0 -74.47c0,-48.96 39.94,-88.9 88.9,-88.9l667.79 0c6.99,0 12.7,-5.71 12.7,-12.7l0 -64.76c0,-6.99 -5.71,-12.7 -12.7,-12.7l-682.53 0c-90.93,0 -165.1,45.71 -165.1,136.64l0 116.89 0 116.89c0,90.93 74.17,136.64 165.1,136.64zm2802.92 -507.06l-135.49 0 -0.33 0 -258.49 0 -0.33 0 -135.49 0c-90.93,0 -165.1,45.71 -165.1,136.64l0 116.89 0 116.89c0,90.93 74.17,136.64 165.1,136.64l135.49 0 0.33 0 258.49 0 0.33 0 135.49 0c90.93,0 165.1,-45.71 165.1,-136.64l0 -116.89 0 -116.89c0,-90.93 -74.17,-136.64 -165.1,-136.64zm-604.29 253.53l0 -74.47c0,-48.95 39.95,-88.9 88.9,-88.9l120.75 0 0.33 0 258.49 0 0.33 0 120.75 0c48.95,0 88.9,39.95 88.9,88.9l0 74.47 0 74.47c0,48.95 -39.95,88.9 -88.9,88.9l-120.75 0 -0.33 0 -258.49 0 -0.33 0 -120.75 0c-48.95,0 -88.9,-39.95 -88.9,-88.9l0 -74.47zm1616.1 -253.53l-682.53 0c-6.99,0 -12.7,5.71 -12.7,12.7l0 481.6c0,6.99 5.71,12.7 12.7,12.7l65.54 0c6.99,0 12.7,-5.71 12.7,-12.7l0 -391.44c0,-6.99 5.71,-12.7 12.7,-12.7l566.27 0c48.96,0 99.48,55.01 99.48,103.94l0 300.2c0,6.99 5.71,12.7 12.7,12.7l65.54 0c6.99,0 12.7,-5.71 12.7,-12.7l0 -357.66c0,-90.93 -74.18,-136.64 -165.1,-136.64z"/>
  </g>
 </g>
</svg>
