<?xml version="1.0" encoding="UTF-8"?>
<!DOCTYPE svg PUBLIC "-//W3C//DTD SVG 1.0//EN" "http://www.w3.org/TR/2001/REC-SVG-20010904/DTD/svg10.dtd">
<!-- Creator: CorelDRAW -->
<svg xmlns="http://www.w3.org/2000/svg" xml:space="preserve" width="2.14083in" height="1.585in" version="1.0" shape-rendering="geometricPrecision" text-rendering="geometricPrecision" image-rendering="optimizeQuality" fill-rule="evenodd" clip-rule="evenodd"
viewBox="0 0 2153.07 1594.06"
 xmlns:xlink="http://www.w3.org/1999/xlink"
 xmlns:xodm="http://www.corel.com/coreldraw/odm/2003">
 <g id="Layer_x0020_1">
  <metadata id="CorelCorpID_0Corel-Layer"/>
  <g id="_1920127062512">
   <path fill="#C52D42" d="M738.95 656.82c52.46,0.52 157.4,49.85 228.27,85.58 116.54,58.75 232.3,126.55 323.58,125.87 88.78,-0.67 151.02,-55.79 197.83,-54.98 70.35,1.21 55.02,103.36 196.24,103.36 -25.57,174.88 -231.55,552.19 -464.55,677.42 -19.74,-273.43 -185.14,-500.55 -331.41,-613.33 53.35,13.03 114.56,43.25 154.46,70.48 -60.3,-133.99 -196.24,-285.2 -317.96,-352.53 -21.25,38.1 -92.95,31.73 -103.74,-22.47 -6.12,6.12 -14.85,12.23 -20.97,18.35 15.32,10.55 30.62,35.2 30.33,64.04 -0.63,63.62 -94.68,98.97 -140.06,42.69 40.07,14.87 76.83,-27.06 59.92,-65.91 -56.51,20.38 -141.85,-20.44 -179.01,-66.66 17.98,6.16 27.7,9.15 49.46,9.02 50.19,-0.32 71.06,-72.2 131.04,-71.18 25.89,0.44 65.51,8.88 76.4,21.72 26.26,-56.63 113.43,-23.95 110.16,28.54z"/>
   <path fill="#DA241A" d="M1250.08 1528.63c148.01,-95.91 345.05,-358.65 393.37,-578.59 -76.84,1.23 -122.64,-74.04 -162.62,-74.72 -51.7,-1.18 -83.78,40.66 -203.21,40.43 -93.18,1.91 -154.52,-15.47 -292.21,-78.78 116.58,82.27 242.28,224.08 304.26,390.86 -47,-35.95 -101.49,-60.67 -158.98,-76.4 101.2,126.26 126.45,285.43 119.39,377.22z"/>
   <path fill="#090A0C" d="M845.43 290.92c62.95,-179.29 136.27,-291.08 200.95,-290.92 94.71,0.23 143.48,211.6 344.9,182.95 -53.31,-7.37 -117.17,-27.28 -131.96,-56.98 18.28,5.8 26.07,7.76 39.5,7.93 67.02,0.87 130.35,-91.95 207.8,-91.33 107.83,0.86 186.95,332.14 200.73,516.06 -5.03,7.97 -20.37,13.19 -38.2,12.73 -47.96,-1.23 -538.09,-253.63 -823.72,-280.44zm-701.98 201.79c-1.52,-51.05 309.15,-161.72 550.51,-160.28 434.1,2.58 877.89,288.53 974.74,289.9 78.53,1.11 141.93,-104.91 223.44,-104.97 72.79,-0.06 261.84,117.04 260.93,172.45 -0.69,41.75 -77.65,46.89 -122.97,47.99 -231.64,5.62 -1048.51,-193.3 -1442.6,-202.44 -38.91,-0.9 -76.76,7.09 -115.24,6.79 -110.32,-0.86 -327.68,-11.75 -328.81,-49.43z"/>
   <path fill="#C52D42" d="M895.43 264.27c35.45,-130.57 108.3,-238.01 151.3,-236.68 55.65,1.73 148.05,244.67 315.32,245.67 -73.15,9.74 -152.3,5.99 -266.64,-58.42 72.15,66.41 147.3,128.33 232.19,190.24 -110.35,-52.18 -290.36,-126.08 -432.17,-140.81z"/>
   <path fill="#DA241A" d="M1577.79 806.04c2.71,16.8 13.23,34.34 29.89,43.15 28.39,4.43 56.12,-18.2 56.12,-47.61 0,-15.68 -8.41,-28.42 -21.22,-35.77l-64.8 40.23zm-213.39 -17.46c-12.08,8.43 -28.44,13.61 -46.44,13.61 -37.17,0 -66.89,-27.59 -66.89,-54.8 0,-18.28 13.78,-31.57 33.39,-37.21l111.51 56.02 -31.57 22.38z"/>
   <path fill="#090A0C" d="M1487.89 739.88c-39.69,43.94 -115.87,89.85 -170.77,89.13 -42.02,-0.55 -59.67,-20.22 -79.39,-42.69 22.86,7.4 44.01,17.6 67.41,16.48 25.05,-1.2 49.43,-12.38 69.09,-29.78 -62.96,1.63 -90.23,-73.41 -168.71,-73.59 -32.84,-0.08 -63.91,6.27 -93.62,30.71 12.29,-41.04 77.39,-74.51 122.08,-74.9 74.03,-0.64 126.5,91.42 208.97,91.37 22.72,-0.01 31.45,-1.5 44.94,-6.74zm26.96 -3c15.99,13.6 38.89,28.52 61.42,28.47 28.49,-0.07 37.8,-33.42 68.53,-33.34 30.14,0.08 74.6,28.88 77.52,70.04 -14.86,-22.19 -27.49,-38.66 -49.43,-38.2 -21.44,0.45 -37.86,43.92 -83.14,47.94 5.41,24.07 49.55,61.21 77.9,35.2 -0.48,10.57 -9.76,28.36 -28.35,28.35 -50.72,-0.02 -105.39,-78.47 -124.44,-138.45z"/>
  </g>
  <g id="_1920127064576">
   <path fill="#090A0C" d="M237.55 1239.1l-76.22 0c-59.68,0 -115.21,48.83 -123.4,108.51l-1.35 9.86 -36.59 27.96 29.23 25.67 -1.95 14.24c-8.19,59.68 33.95,108.51 93.63,108.51l76.21 0c59.68,0 115.21,-48.83 123.4,-108.51l1.79 -13.1 34.96 -25.73 -27.81 -26.39 1.71 -12.52c8.19,-59.69 -33.95,-108.51 -93.63,-108.51zm-43.46 72.17l-15.4 0c-24.15,0 -46.05,22.83 -48.85,46.91l-6.39 54.84c-2.8,24.07 8.45,47.66 39.9,47.66l14.4 0c24.15,0 46.02,-23.33 48.87,-47.42l7.58 -64.12c2.85,-24.08 -15.97,-37.86 -40.12,-37.86zm365.17 -72.17l146.37 0 -7.07 77.22 -25.99 0 -6.37 45.18 25.89 24.3 -32.96 25.81 -2.41 17.05c-7.6,53.91 -31.97,105.19 -124.94,105.19l-54.12 0c-65.39,0 -98.64,-39.11 -93.5,-79.74l5.55 -43.86 -26.02 -23.73 32.46 -27.12 5.45 -43.08 -21.54 0 7.08 -77.22 150.91 0 -7.08 77.22 -33.68 0 -18.86 115.51c-2.29,14.02 9.16,24.46 31.4,24.46l16.3 0c25.18,0 39.31,-8.6 41.44,-25.5l14.38 -114.47 -29.78 0 7.07 -77.22zm695.38 168.3l90.36 0 -16.53 126.46 -274.19 0 10.79 -77.57 24.64 0 5.83 -46.04 -26.02 -23.73 32.46 -27.12 5.45 -43.08 -21.54 0 7.08 -77.22 150.91 0 -7.08 77.22 -33.68 0 -6.03 44.79 28.2 25.36 -34.88 24.23 -6.14 45.58 63.56 0 6.8 -48.88zm758.36 -168.3l140.08 0 -7.08 77.22 -25.99 0 -20.17 51.32 18.66 30.08 -37.83 18.69 -46.17 117.44 -102.31 0 -9.5 -109.4 -42.37 109.4 -97.88 0 -14.8 -118.08 -34.73 -18.64 28.35 -32.25 -6.09 -48.57 -21.54 0 7.07 -77.22 150.91 0 -7.07 77.22 -32.42 0 8.6 75.72 52.05 -126.39 78.93 0 16.08 127.11 28.68 -76.45 -30.53 0 7.08 -77.22zm-1059.8 117.95l84.81 0 14.25 -117.95 -302.95 0 -16.02 117.95 84.28 0 7.51 -48.23 19.1 0 -6.63 49.76 -34.97 26.2 28.35 23.44 -6.45 48.42 -32.62 0 -10.37 77.22 157.21 0 10.37 -77.22 -28.9 0 4.09 -44.79 33.93 -25.36 -28.15 -25.49 5.58 -52.17 23.69 0 -6.12 48.23zm580.79 176.81l163.71 0 9.58 -77.22 -29.76 0 -13.25 -51.95 25.93 -32.67 -37.86 -14.14 -30.3 -118.77 -99.28 0 -64.81 118.73 -39.62 11.51 14.78 33.98 -29.1 53.31 -25.82 0 -10.33 77.22 143.77 0 12.57 -77.22 -32.42 0 3.96 -7.38 82.73 0 2.15 8.71 -35.57 0 -11.06 75.89zm-5.52 -145.54l23.97 -44.65 11.01 44.65 -34.98 0z"/>
   <path fill="#C52D42" d="M12.98 1385.88l25.01 21.96 -2.56 18.62c-7.44,54.27 30.36,99.16 85.48,99.16l76.21 0c55.94,0 107.66,-46.16 115.24,-101.4l2.27 -16.54 29.84 -21.96 -23.74 -22.52 2.29 -16.7c7.44,-54.27 -30.36,-99.16 -85.47,-99.16l-76.22 0c-55.94,0 -107.66,46.16 -115.24,101.4l-1.81 13.22 -31.3 23.92zm181.1 -82.84c27.72,0 51.87,16.9 48.3,47.06l-7.59 64.13c-3.27,27.67 -28.18,54.68 -57.05,54.68l-14.4 0c-33.71,0 -51.82,-24.77 -48.08,-56.85l6.39 -54.83c3.23,-27.75 28.23,-54.19 57.03,-54.19l15.4 0zm372.69 -55.7l-5.57 60.75 30.09 0 -15.54 123.74c-3.22,25.65 -27.02,32.7 -49.61,32.7l-16.3 0c-14.52,0 -31.76,-4.4 -37.93,-19.15 -1.98,-4.73 -2.42,-9.83 -1.6,-14.87l19.98 -122.42 33.16 0 5.57 -60.75 -134.37 0 -5.57 60.75 21.86 0 -7.03 55.56 -27.7 23.15 22.21 20.25 -6.09 48.1c-0.81,6.42 -0.54,12.94 0.9,19.26 3.41,14.99 12.86,27.17 25.5,35.67 17.12,11.51 38.61,15.55 58.93,15.55l54.12 0c40.28,0 79.97,-9.54 101.09,-46.89 8.81,-15.59 13.22,-33.6 15.7,-51.22l2.87 -20.34 28.01 -21.94 -22 -20.65 7.97 -56.5 25.63 0 5.56 -60.75 -129.83 0zm695.03 168.3l-6.8 48.88 -80.15 0 7.88 -58.51 29.32 -20.36 -23.7 -21.32 7.57 -56.25 33.37 0 5.57 -60.75 -134.37 0 -5.57 60.75 21.86 0 -7.04 55.56 -27.7 23.15 22.21 20.25 -7.28 57.48 -24.73 0 -8.5 61.1 257.49 0 14.38 -109.98 -73.81 0zm758.7 -168.3l-5.57 60.75 33.39 0 -44.56 118.76 -19.35 -152.95 -66.15 0 -62.14 150.88 -13.24 -116.69 34.13 0 5.56 -60.75 -134.37 0 -5.56 60.75 19.78 0 7.46 59.46 -23.95 27.25 29.34 15.74 14.43 115.09 84.97 0 53.14 -137.23 11.91 137.23 89.15 0 45.28 -115.18 32.56 -16.08 -16.06 -25.89 23.74 -60.38 24.08 0 5.56 -60.75 -123.53 0zm-1057.97 101.48l68.16 0 12.27 -101.48 -286.47 0 -13.78 101.48 67.79 0 7.51 -48.23 35.56 0 -8.33 62.51 -29.36 22 23.81 19.68 -8.01 60.1 -32.63 0 -8.16 60.75 140.59 0 8.16 -60.75 -28.5 0 5.24 -57.43 28.86 -21.57 -23.84 -21.59 6.81 -63.7 40.44 0 -6.12 48.23zm580.96 176.81l146.91 0 7.54 -60.75 -26.84 0 -15.84 -62.11 21.42 -27 -31.29 -11.69 -29.78 -116.75 -88 0 -64.1 117.45 -33.93 9.86 12.66 29.09 -33.37 61.14 -23.5 0 -8.12 60.75 127.36 0 9.89 -60.75 -36.51 0 12.8 -23.85 94.11 0 6.21 25.18 -38.96 0 -8.66 59.42zm-28.82 -129.07l40.62 -75.65 18.65 75.65 -59.27 0z"/>
   <path fill="#DA241A" d="M34.63 1386.62l17.96 15.78 -3.56 25.93c-6.31,45.99 25.1,83.57 71.88,83.57l76.21 0c49.11,0 95,-41.12 101.64,-89.54l3.06 -22.3 19.89 -14.63 -69.68 0 -3.6 30.41c-4.09,34.59 -34.8,66.79 -70.68,66.79l-14.4 0c-41.76,0 -66.42,-31.72 -61.72,-72.16l2.92 -25.05 -68.37 0 -1.56 1.19zm560.79 -1.19l-6.04 48.1c-4.17,33.16 -33.48,44.71 -63.23,44.71l-16.3 0c-20.38,0 -42.12,-7.33 -50.59,-27.57 -2.97,-7.11 -3.72,-14.8 -2.48,-22.38l7 -42.87 -64.51 0 -2.18 1.82 15.85 14.46 -6.98 55.17c-0.61,4.82 -0.41,9.74 0.67,14.49 2.63,11.55 10.06,20.79 19.77,27.32 14.76,9.92 33.77,13.22 51.28,13.22l54.12 0c34.85,0 70.65,-7.21 89.14,-39.92 7.93,-14.02 11.82,-30.54 14.05,-46.38l3.64 -25.82 18.32 -14.35 -61.53 0zm678.34 43.94l-6.8 48.88 -107.8 0 10.79 -80.06 18.38 -12.76 -83.23 0 -2.18 1.82 15.85 14.46 -9.69 76.54 -24.88 0 -4.68 33.65 229.68 0 10.79 -82.53 -46.22 0zm760.23 -43.94l-36.85 98.22 -12.42 -98.22 -43.36 0 10.98 126.47 67.21 0 43.79 -111.42 23.76 -11.74 -2.05 -3.32 -51.05 0zm-146.79 0l-38.67 93.9 -10.66 -93.9 -65.41 0 -4.78 5.44 20.36 10.92 13.81 110.1 63.45 0 48.98 -126.47 -27.06 0zm-1048.86 0l-0.26 0.19 16.23 13.42 -10.6 79.56 -32.64 0 -4.47 33.3 112.89 0 4.47 -33.3 -27.84 0 7.16 -78.49 19.64 -14.68 -84.58 0zm721.04 126.47l118.92 0 4.13 -33.3 -21.97 0 -20.16 -79.04 11.22 -14.14 -66.17 0 6.13 24.85 -99.73 0 13.34 -24.85 -55.82 0 8.26 18.99 -40.49 74.19 -19.63 0 -4.45 33.3 100.01 0 5.42 -33.3 -43.32 0 27.54 -51.3 113.07 0 12.98 52.63 -44.61 0 -4.66 31.97z"/>
  </g>
  <g id="_1920127068944">
   <path fill="#090A0C" d="M247.17 1148.87l3.59 -28.35 -16.31 -14.87 20.34 -16.99 3.35 -26.48 -13.4 0 4.45 -48.53 170.41 0 -7.42 58.35 -55.88 0 1.37 -9.82 -39.5 0 -2.58 19.19 49.7 0 -6.17 48.53 -50.06 0 -2.55 18.97 39.12 0 1.37 -9.82 56.68 0 -7.44 58.57 -171.17 0 6.78 -48.75 15.34 0zm421.5 0.22l12.46 -31.7 -11.69 -18.84 23.7 -11.71 28.76 -73.18 64.06 0 5.84 67.34 26.08 -67.34 61.29 0 9.23 73.59 21.77 11.68 -17.77 20.21 3.76 29.94 13.45 0 -4.44 48.53 -94.41 0 4.45 -48.53 20.14 0 -5.22 -46.02 -32.13 78.01 -49.48 0 -9.93 -78.43 -17.42 46.43 18.93 0 -4.45 48.53 -87.66 0 4.45 -48.53 16.23 0zm-502.74 -91.58l-14.29 0 -3.44 32.16 17.64 15.98 -21.26 15.89 -2.51 27.54 18 0 -6.52 48.53 -98.33 0 6.52 -48.53 20.31 0 3.97 -29.83 -17.77 -14.69 21.92 -16.42 4.08 -30.63 -11.44 0 -4.67 30.03 -52.92 0 10.03 -73.88 189.06 0 -8.93 73.88 -53.25 0 3.81 -30.03zm384.7 92.41l-1.23 -4.97 -51.19 0 -2.22 4.14 20.07 0 -7.9 48.53 -89.96 0 6.49 -48.53 16.14 0 18 -32.97 -9.27 -21.29 24.82 -7.21 40.36 -73.96 62.12 0 18.88 74 23.75 8.87 -16.27 20.49 8.18 32.06 18.61 0 -6.02 48.53 -102.38 0 6.95 -47.7 22.05 0zm-31.81 -43.36l21.12 0 -6.64 -26.95 -14.48 26.95z"/>
   <path fill="#C52D42" d="M509.87 1111.91l25.29 -47.09 11.61 47.09 -36.89 0zm-158.24 32.5l-1.36 9.82 -49.9 0 4 -29.68 50.03 0 4.81 -37.82 -49.74 0 4.02 -29.89 50.33 0 -1.36 9.82 45.02 0 6.06 -47.64 -159.45 0 -3.46 37.82 13.61 0 -4.38 34.59 -17.25 14.41 13.83 12.61 -4.53 35.78 -15.4 0 -5.29 38.04 160.31 0 6.09 -47.85 -45.95 0zm379.13 47.86l3.46 -37.83 -20.79 0 27.74 -73.93 12.05 95.22 41.18 0 38.68 -93.93 8.25 72.64 -21.25 0 -3.47 37.83 83.66 0 3.46 -37.83 -12.31 0 -4.64 -37.01 14.91 -16.96 -18.27 -9.8 -8.98 -71.65 -52.9 0 -33.09 85.43 -7.42 -85.43 -55.5 0 -28.19 71.71 -20.26 10.02 10 16.12 -14.78 37.59 -14.99 0 -3.46 37.83 76.91 0zm-562.57 -110.07l42.43 0 7.64 -63.18 -178.34 0 -8.58 63.18 42.2 0 4.68 -30.03 22.13 0 -5.18 38.91 -18.28 13.7 14.82 12.25 -4.98 37.41 -20.31 0 -5.08 37.82 87.53 0 5.08 -37.82 -17.75 0 3.26 -35.75 17.96 -13.43 -14.84 -13.44 4.24 -39.65 25.17 0 -3.81 30.03zm359.62 110.07l91.46 0 4.69 -37.82 -16.71 0 -9.86 -38.66 13.34 -16.81 -19.48 -7.27 -18.54 -72.68 -54.78 0 -39.91 73.12 -21.12 6.14 7.88 18.11 -20.78 38.06 -14.63 0 -5.06 37.82 79.29 0 6.15 -37.82 -22.73 0 7.97 -14.84 58.59 0 3.86 15.68 -24.25 0 -5.39 36.99z"/>
   <path fill="#DA241A" d="M359.09 1152.97l-1.37 9.82 -67.15 0 6.3 -46.8 49.97 0 1.45 -11.42 -90.84 0 -1.86 1.55 9.86 8.99 -6.04 47.68 -15.49 0 -2.91 20.91 142.92 0 3.91 -30.73 -28.77 0zm363.86 30.73l1.9 -20.69 -23.77 0 21.92 -58.44 -33.45 0 7.08 11.42 -18.49 47.02 -13.01 0 -1.89 20.69 59.71 0zm29.91 -79.14l7.92 62.6 27.89 0 25.78 -62.6 -16.85 0 -14.48 37.38 -3.25 -37.38 -27.02 0zm91.44 0l6.63 58.44 -23.02 0 -1.9 20.69 66.46 0 1.9 -20.69 -10.49 0 -6.06 -48.34 8.88 -10.1 -42.39 0zm-752.84 0l-0.72 0.54 10.1 8.35 -6.6 49.56 -20.32 0 -2.78 20.69 70.24 0 2.78 -20.69 -17.33 0 4.46 -48.9 12.69 -9.49 -0.07 -0.06 -52.45 0zm446.26 79.14l73.99 0 2.57 -20.69 -13.67 0 -12.56 -49.23 7.31 -9.21 -41.58 0 3.92 15.91 -62.15 0 8.54 -15.91 -35.12 0 5.33 12.24 -25.22 46.2 -12.22 0 -2.77 20.69 62.22 0 3.37 -20.69 -26.98 0 17.16 -31.98 70.42 0 8.09 32.8 -27.78 0 -2.89 19.86z"/>
  </g>
 </g>
</svg>
