<?xml version="1.0" encoding="UTF-8"?><svg id="Layer_1" xmlns="http://www.w3.org/2000/svg" viewBox="0 0 1781.46 867.14"><defs><style>.cls-1{fill:#47403d;}.cls-2{fill:#ed1c24;}</style></defs><g><path class="cls-1" d="m1252.5,87.88c-20.46-36.52-86.52-62.84-86.52-62.84l-9.85,45.34c15.64,4.22,31.53,12.33,40.76,17.5h55.62Z"/><path class="cls-2" d="m1628.62,91.58l-94.83,99.4h-135.97l-50.27,282.79h-118.26l49.7-282.79h-179.38l94.83-99.4h434.18Z"/><g><path class="cls-1" d="m729.84,269.32l52.57,3.21,50.8,3.1c2.34-18.82,6.81-37.11,13.24-54.6l-45.41-17.59-46.36-17.96c-11.94,26.24-20.45,54.36-24.84,83.83Z"/><path class="cls-1" d="m1315.52,477.47c-12.46,23.76-39.44,52.54-50.81,63.79l-14.7-22.01-14.84-22.19c7.49-6.13,14.57-12.67,21.24-19.59h59.11Z"/><path class="cls-1" d="m1174.32,533.73c-8.04,3.4-16.2,6.43-24.49,8.93-3.79,1.14-7.62,1.95-11.43,2.9l4.83,34.38,4.85,34.46c16.88-5.99,33.49-13.43,49.62-22.52l-11.74-29.2-11.64-28.95Z"/><path class="cls-1" d="m1221.37,507.51c-6.66,4.71-13.52,9.19-20.69,13.26-3.44,1.96-7.06,3.48-10.57,5.27l11.07,28.82,10.88,28.35c14.42-9.15,27.93-19.43,40.53-30.62l-15.39-22.23-15.82-22.85Z"/><path class="cls-1" d="m1120.79,549.25c-13.84,2.36-27.72,3.5-41.56,3.46l-4.02,39.03-4.07,39.5c20.35-1.83,40.65-5.65,60.66-11.55l-5.5-35.19-5.51-35.24Z"/><path class="cls-1" d="m853.81,203.16c6.8-14.83,14.94-28.97,24.44-42.16l-36.37-26.52-36.84-26.87c-16.52,18.8-30.84,39.55-42.57,61.89l46.28,17.05,45.07,16.61Z"/><path class="cls-1" d="m1060.47,551.96c-16.03-1.27-31.84-4.11-47.25-8.4l-15.97,41.1-16.21,41.72c23.74,4.73,48.03,6.76,72.43,5.95l3.51-40.28,3.49-40.09Z"/><path class="cls-1" d="m836.22,354.57h-106.87l-.55.55c-1.53-12.19-2.38-24.52-2.43-36.88-.05-10.31.41-20.48,1.31-30.57l52.69,4.18,51.18,4.02c-.14,3.69-.41,7.35-.38,11.07.08,16.02,1.86,31.99,5.06,47.63Z"/><path class="cls-1" d="m914.16,550.83l-30.65,38.71c25.03,14.54,51.86,25.53,79.7,32.77l15.7-42.51,15.6-42.25c-17.56-6.4-34.38-14.72-50.14-24.86l-30.21,38.15Z"/><path class="cls-1" d="m933.81,105.06c10.66-7.77,21.98-14.71,33.89-20.73l-16.79-32.42-16.93-32.7c-18.58,6.8-36.33,15.31-53.09,25.31l26.62,30.45,26.31,30.09Z"/><path class="cls-1" d="m1095.16,58.68c2.64.15,5.3.12,7.92.33,12.2,1.22,24.07,3.58,35.74,6.48l5.59-23.29,5.61-23.37c-18.2-6.55-37.24-11.47-56.95-14.63l1.05,27.26,1.04,27.22Z"/><path class="cls-1" d="m1037.35,61.53c13.1-2.21,26.4-3.5,39.82-3.62.15,0,.3.02.46.02l-.55-28.23-.54-27.73c-.93-.1-1.84-.25-2.77-.34-10.99-1.07-22.12-1.68-33.18-1.63-6.75.04-13.43.37-20.07.83l8.48,30.56,8.36,30.14Z"/><path class="cls-1" d="m983.47,77.13c7.72-3.23,15.57-6.22,23.7-8.67,4.37-1.32,8.8-2.4,13.24-3.47l-8.08-31.18-8.15-31.43c-18.78,2.28-37.05,6.18-54.67,11.6l17.06,31.72,16.9,31.42Z"/><path class="cls-1" d="m889.58,146.47c9.21-10.99,19.28-21.27,30.28-30.56l-26.33-31.06-26.68-31.48c-18.14,12.15-34.96,26.1-50.18,41.65l36.66,25.86,36.26,25.58Z"/></g><path class="cls-1" d="m781.69,494.76c.79,1.18,1.6,2.35,2.39,3.48l2.54,3.61c2.13,3.01,4.4,6.07,6.92,9.27.49.66,1.01,1.34,1.53,2.02,20.89,26.3,45.41,48.5,72.42,66.41l30.35-39.75,29.72-38.96c-4.39-3.38-14.31-11.2-24.31-20.34-35.29,9.42-75.91,14.2-121.57,14.26Z"/><path class="cls-2" d="m1087.04,91.58h-118.26l-37.13,208.52c-2.29,13.71-6.28,25.33-12,34.85-5.71,9.52-13.81,17.34-24.28,23.42-10.48,6.1-23.62,10.48-39.42,13.14-15.81,2.67-35.13,4-57.99,4h-91.96c-1.59,6.15-3.52,12.14-5.8,17.96-7.72,19.74-20.19,37.01-37.06,51.31-14.09,11.95-31.71,21.67-52.48,28.99h170.16c159.58,0,249.27-57.89,269.08-173.67l19.43-109.12h8.29l94.83-99.4h-85.42Z"/><path class="cls-2" d="m569.88,244.11c41.51,0,73.03,7.34,94.55,21.99,21.51,14.67,32.28,36.28,32.28,64.84,0,20.57-3.43,39.62-10.28,57.13-6.86,17.52-17.81,32.66-32.85,45.42-15.05,12.76-34.47,22.66-58.27,29.71-23.81,7.05-52.66,10.57-86.55,10.57H152.84l93.12-98.26h289.64c16,0,27.61-2.66,34.85-8,7.23-5.33,10.85-13.51,10.85-24.56,0-15.23-12-22.85-35.99-22.85h-208.52c-43.42,0-75.22-8.37-95.4-25.14-20.19-16.75-30.28-39.04-30.28-66.84,0-19.42,3.43-37.42,10.28-53.99,6.86-16.57,17.8-31.04,32.85-43.42,15.04-12.37,34.37-21.99,57.99-28.85,23.61-6.86,52.17-10.28,85.69-10.28h331.92l-93.69,99.4h-265.08c-16,0-27.62,2.38-34.85,7.14-7.24,4.77-10.85,12.85-10.85,24.28,0,14.48,12.18,21.71,36.56,21.71h207.95Z"/></g><g><path class="cls-1" d="m148.99,714.92H0v-31.03h328.84v31.03h-148.83v148.99h-31.03v-148.99Z"/><path class="cls-1" d="m465.61,684.21h31.03v179.69h-31.03v-179.69Z"/><path class="cls-1" d="m664.42,806.7v57.2h-31.03v-141.56c0-12.71,4.47-22.62,13.41-29.73,7.32-5.82,15.67-8.73,25.05-8.73h191.81c14.97,0,28.28,4.63,39.91,13.9,14.33,11.31,21.49,27.15,21.49,47.51,0,14.98-4.63,28.28-13.9,39.91-7.11,8.94-15.94,15.08-26.5,18.42l29.25,31.03,10.67,11.15-22.46,21.33-10.67-11.15-37.17-39.27-9.37-10.02h-180.5Zm199.25-31.03c11.85,0,20.36-4.2,25.53-12.6,1.83-2.91,3.12-6.25,3.88-10.02.32-1.51.54-2.96.65-4.36.21-1.18.32-2.32.32-3.39,0-11.85-4.2-20.36-12.6-25.53-2.91-1.72-6.25-3.01-10.02-3.88-1.51-.32-2.96-.54-4.36-.65-1.19-.11-2.32-.21-3.39-.32h-191.81c-3.23,0-5.39,1.03-6.46,3.07-.43.76-.7,1.56-.81,2.42l-.16,1.13v54.13h199.25Z"/><path class="cls-1" d="m1092.86,790.54v24.72c0,4.85,1.72,9,5.17,12.44,3.45,3.45,7.59,5.17,12.44,5.17h205.71c4.85,0,8.99-1.72,12.44-5.17s5.17-7.59,5.17-12.44v-.48h31.03v.48c0,13.47-4.74,24.94-14.22,34.42-9.05,9.05-19.88,13.79-32.48,14.22h-209.59c-12.6-.43-23.43-5.17-32.48-14.22-9.48-9.48-14.22-20.95-14.22-34.42v-82.74c0-13.36,4.74-24.78,14.22-34.26,9.05-9.16,19.88-13.95,32.48-14.38h209.59c12.6.43,23.43,5.23,32.48,14.38,9.48,9.48,14.22,20.9,14.22,34.26v58.01h-271.96Zm17.61-75.63c-4.85,0-9,1.72-12.44,5.17-3.45,3.45-5.17,7.59-5.17,12.44v26.99h240.94v-26.99c0-4.85-1.72-8.99-5.17-12.44-3.45-3.45-7.59-5.17-12.44-5.17h-205.71Z"/><path class="cls-1" d="m1776.61,714.92h-227.04c-2.16.11-4.2.38-6.14.81-2.69.65-5.12,1.62-7.27,2.91-5.6,3.66-8.4,9.64-8.4,17.94,0,2.16.27,4.2.81,6.14.54,2.8,1.51,5.23,2.91,7.27,3.66,5.6,9.64,8.4,17.94,8.4h179.37c12.93,0,24.35,3.99,34.26,11.96,12.28,9.7,18.42,23.33,18.42,40.88,0,12.82-3.93,24.24-11.8,34.26-9.7,12.28-23.33,18.42-40.88,18.42h-227.2v-31.03h227.2c8.29,0,14.27-2.8,17.94-8.4,1.4-2.05,2.42-4.47,3.07-7.27.43-1.94.65-3.93.65-5.98,0-8.4-2.8-14.43-8.4-18.1-2.05-1.29-4.42-2.26-7.11-2.91-2.05-.43-4.1-.7-6.14-.81h-179.37c-17.45,0-31.08-6.14-40.88-18.42-7.86-9.91-11.8-21.33-11.8-34.26,0-17.56,6.14-31.19,18.42-40.88,10.02-7.97,21.44-11.96,34.26-11.96h227.2v31.03Z"/></g></svg>